%TF.GenerationSoftware,KiCad,Pcbnew,10.0.3*%
%TF.CreationDate,2026-06-15T12:52:13+05:30*%
%TF.ProjectId,Sentinel_HYDRA,53656e74-696e-4656-9c5f-48594452412e,rev?*%
%TF.SameCoordinates,Original*%
%TF.FileFunction,Paste,Top*%
%TF.FilePolarity,Positive*%
%FSLAX46Y46*%
G04 Gerber Fmt 4.6, Leading zero omitted, Abs format (unit mm)*
G04 Created by KiCad (PCBNEW 10.0.3) date 2026-06-15 12:52:13*
%MOMM*%
%LPD*%
G01*
G04 APERTURE LIST*
G04 Aperture macros list*
%AMRoundRect*
0 Rectangle with rounded corners*
0 $1 Rounding radius*
0 $2 $3 $4 $5 $6 $7 $8 $9 X,Y pos of 4 corners*
0 Add a 4 corners polygon primitive as box body*
4,1,4,$2,$3,$4,$5,$6,$7,$8,$9,$2,$3,0*
0 Add four circle primitives for the rounded corners*
1,1,$1+$1,$2,$3*
1,1,$1+$1,$4,$5*
1,1,$1+$1,$6,$7*
1,1,$1+$1,$8,$9*
0 Add four rect primitives between the rounded corners*
20,1,$1+$1,$2,$3,$4,$5,0*
20,1,$1+$1,$4,$5,$6,$7,0*
20,1,$1+$1,$6,$7,$8,$9,0*
20,1,$1+$1,$8,$9,$2,$3,0*%
%AMOutline5P*
0 Free polygon, 5 corners , with rotation*
0 The origin of the aperture is its center*
0 number of corners: always 5*
0 $1 to $10 corner X, Y*
0 $11 Rotation angle, in degrees counterclockwise*
0 create outline with 5 corners*
4,1,5,$1,$2,$3,$4,$5,$6,$7,$8,$9,$10,$1,$2,$11*%
%AMOutline6P*
0 Free polygon, 6 corners , with rotation*
0 The origin of the aperture is its center*
0 number of corners: always 6*
0 $1 to $12 corner X, Y*
0 $13 Rotation angle, in degrees counterclockwise*
0 create outline with 6 corners*
4,1,6,$1,$2,$3,$4,$5,$6,$7,$8,$9,$10,$11,$12,$1,$2,$13*%
%AMOutline7P*
0 Free polygon, 7 corners , with rotation*
0 The origin of the aperture is its center*
0 number of corners: always 7*
0 $1 to $14 corner X, Y*
0 $15 Rotation angle, in degrees counterclockwise*
0 create outline with 7 corners*
4,1,7,$1,$2,$3,$4,$5,$6,$7,$8,$9,$10,$11,$12,$13,$14,$1,$2,$15*%
%AMOutline8P*
0 Free polygon, 8 corners , with rotation*
0 The origin of the aperture is its center*
0 number of corners: always 8*
0 $1 to $16 corner X, Y*
0 $17 Rotation angle, in degrees counterclockwise*
0 create outline with 8 corners*
4,1,8,$1,$2,$3,$4,$5,$6,$7,$8,$9,$10,$11,$12,$13,$14,$15,$16,$1,$2,$17*%
G04 Aperture macros list end*
%ADD10C,0.010000*%
%ADD11RoundRect,0.140000X-0.140000X-0.170000X0.140000X-0.170000X0.140000X0.170000X-0.140000X0.170000X0*%
%ADD12RoundRect,0.135000X-0.135000X-0.185000X0.135000X-0.185000X0.135000X0.185000X-0.135000X0.185000X0*%
%ADD13RoundRect,0.250000X-0.250000X-0.475000X0.250000X-0.475000X0.250000X0.475000X-0.250000X0.475000X0*%
%ADD14RoundRect,0.033750X-0.346250X-0.101250X0.346250X-0.101250X0.346250X0.101250X-0.346250X0.101250X0*%
%ADD15RoundRect,0.250000X-0.315000X-0.315000X0.315000X-0.315000X0.315000X0.315000X-0.315000X0.315000X0*%
%ADD16RoundRect,0.062500X-0.350000X-0.062500X0.350000X-0.062500X0.350000X0.062500X-0.350000X0.062500X0*%
%ADD17RoundRect,0.062500X-0.062500X-0.350000X0.062500X-0.350000X0.062500X0.350000X-0.062500X0.350000X0*%
%ADD18R,1.200000X3.700000*%
%ADD19RoundRect,0.090000X-0.660000X-0.360000X0.660000X-0.360000X0.660000X0.360000X-0.660000X0.360000X0*%
%ADD20Outline5P,-0.287500X0.244000X0.287500X0.244000X0.287500X-0.067100X0.110600X-0.244000X-0.287500X-0.244000X0.000000*%
%ADD21R,0.575000X0.488000*%
%ADD22R,0.900000X0.900000*%
%ADD23R,1.500000X0.900000*%
%ADD24R,0.900000X1.500000*%
%ADD25RoundRect,0.150000X-0.587500X-0.150000X0.587500X-0.150000X0.587500X0.150000X-0.587500X0.150000X0*%
%ADD26RoundRect,0.249999X-0.395001X-0.395001X0.395001X-0.395001X0.395001X0.395001X-0.395001X0.395001X0*%
%ADD27RoundRect,0.050000X-0.387500X-0.050000X0.387500X-0.050000X0.387500X0.050000X-0.387500X0.050000X0*%
%ADD28RoundRect,0.050000X-0.050000X-0.387500X0.050000X-0.387500X0.050000X0.387500X-0.050000X0.387500X0*%
%ADD29RoundRect,0.032500X-0.387500X-0.097500X0.387500X-0.097500X0.387500X0.097500X-0.387500X0.097500X0*%
%ADD30RoundRect,0.032500X-0.097500X-0.387500X0.097500X-0.387500X0.097500X0.387500X-0.097500X0.387500X0*%
%ADD31RoundRect,0.243750X-0.243750X-0.456250X0.243750X-0.456250X0.243750X0.456250X-0.243750X0.456250X0*%
%ADD32R,0.850000X1.100000*%
%ADD33R,0.750000X1.100000*%
%ADD34R,1.200000X1.000000*%
%ADD35R,1.550000X1.350000*%
%ADD36R,1.900000X1.350000*%
%ADD37R,1.170000X1.800000*%
%ADD38R,1.700000X1.000000*%
%ADD39RoundRect,0.147500X-0.147500X-0.172500X0.147500X-0.172500X0.147500X0.172500X-0.147500X0.172500X0*%
%ADD40RoundRect,0.212500X-0.212500X-0.212500X0.212500X-0.212500X0.212500X0.212500X-0.212500X0.212500X0*%
%ADD41RoundRect,0.062500X-0.375000X-0.062500X0.375000X-0.062500X0.375000X0.062500X-0.375000X0.062500X0*%
%ADD42RoundRect,0.062500X-0.062500X-0.375000X0.062500X-0.375000X0.062500X0.375000X-0.062500X0.375000X0*%
%ADD43RoundRect,0.150000X-0.512500X-0.150000X0.512500X-0.150000X0.512500X0.150000X-0.512500X0.150000X0*%
%ADD44R,0.300000X1.300000*%
%ADD45R,1.800000X2.200000*%
%ADD46RoundRect,0.150000X-0.825000X-0.150000X0.825000X-0.150000X0.825000X0.150000X-0.825000X0.150000X0*%
%ADD47R,0.610000X0.350000*%
%ADD48R,0.350000X0.610000*%
%ADD49RoundRect,0.150000X-0.875000X-0.150000X0.875000X-0.150000X0.875000X0.150000X-0.875000X0.150000X0*%
%ADD50O,0.600000X0.240000*%
%ADD51RoundRect,0.375000X-0.625000X-0.375000X0.625000X-0.375000X0.625000X0.375000X-0.625000X0.375000X0*%
%ADD52RoundRect,0.500000X-0.500000X-1.400000X0.500000X-1.400000X0.500000X1.400000X-0.500000X1.400000X0*%
%ADD53RoundRect,0.087500X-0.287500X-0.087500X0.287500X-0.087500X0.287500X0.087500X-0.287500X0.087500X0*%
%ADD54R,1.000000X1.800000*%
%ADD55RoundRect,0.160000X-0.245000X-0.160000X0.245000X-0.160000X0.245000X0.160000X-0.245000X0.160000X0*%
%ADD56RoundRect,0.093750X-0.093750X-0.106250X0.093750X-0.106250X0.093750X0.106250X-0.093750X0.106250X0*%
%ADD57RoundRect,0.150000X-0.150000X-0.575000X0.150000X-0.575000X0.150000X0.575000X-0.150000X0.575000X0*%
%ADD58RoundRect,0.075000X-0.075000X-0.650000X0.075000X-0.650000X0.075000X0.650000X-0.075000X0.650000X0*%
G04 APERTURE END LIST*
D10*
%TO.C,U17*%
X11720000Y-55590000D02*
X12280000Y-55590000D01*
X12280000Y-56410000D01*
X11720000Y-56410000D01*
X11720000Y-55590000D01*
G36*
X12280000Y-56410000D02*
G01*
X11720000Y-56410000D01*
X11720000Y-55590000D01*
X12280000Y-55590000D01*
X12280000Y-56410000D01*
G37*
%TO.C,U4*%
X32915000Y-62915000D02*
X34535000Y-62915000D01*
X34535000Y-64535000D01*
X32915000Y-64535000D01*
X32915000Y-62915000D01*
G36*
X34535000Y-64535000D02*
G01*
X32915000Y-64535000D01*
X32915000Y-62915000D01*
X34535000Y-62915000D01*
X34535000Y-64535000D01*
G37*
X32915000Y-65465000D02*
X34535000Y-65465000D01*
X34535000Y-67085000D01*
X32915000Y-67085000D01*
X32915000Y-65465000D01*
G36*
X34535000Y-67085000D02*
G01*
X32915000Y-67085000D01*
X32915000Y-65465000D01*
X34535000Y-65465000D01*
X34535000Y-67085000D01*
G37*
X35465000Y-62915000D02*
X37085000Y-62915000D01*
X37085000Y-64535000D01*
X35465000Y-64535000D01*
X35465000Y-62915000D01*
G36*
X37085000Y-64535000D02*
G01*
X35465000Y-64535000D01*
X35465000Y-62915000D01*
X37085000Y-62915000D01*
X37085000Y-64535000D01*
G37*
X35465000Y-65465000D02*
X37085000Y-65465000D01*
X37085000Y-67085000D01*
X35465000Y-67085000D01*
X35465000Y-65465000D01*
G36*
X37085000Y-67085000D02*
G01*
X35465000Y-67085000D01*
X35465000Y-65465000D01*
X37085000Y-65465000D01*
X37085000Y-67085000D01*
G37*
%TO.C,U14*%
X29210000Y-37800000D02*
X29410000Y-37800000D01*
X29410000Y-38650000D01*
X29670000Y-38650000D01*
X29670000Y-37800000D01*
X29870000Y-37800000D01*
X29870000Y-39900000D01*
X29210000Y-39900000D01*
X29210000Y-37800000D01*
G36*
X29410000Y-38650000D02*
G01*
X29670000Y-38650000D01*
X29670000Y-37800000D01*
X29870000Y-37800000D01*
X29870000Y-39900000D01*
X29210000Y-39900000D01*
X29210000Y-37800000D01*
X29410000Y-37800000D01*
X29410000Y-38650000D01*
G37*
X29210000Y-42200000D02*
X29410000Y-42200000D01*
X29410000Y-41350000D01*
X29670000Y-41350000D01*
X29670000Y-42200000D01*
X29870000Y-42200000D01*
X29870000Y-40100000D01*
X29210000Y-40100000D01*
X29210000Y-42200000D01*
G36*
X29870000Y-42200000D02*
G01*
X29670000Y-42200000D01*
X29670000Y-41350000D01*
X29410000Y-41350000D01*
X29410000Y-42200000D01*
X29210000Y-42200000D01*
X29210000Y-40100000D01*
X29870000Y-40100000D01*
X29870000Y-42200000D01*
G37*
X30790000Y-37800000D02*
X30590000Y-37800000D01*
X30590000Y-38650000D01*
X30330000Y-38650000D01*
X30330000Y-37800000D01*
X30130000Y-37800000D01*
X30130000Y-39900000D01*
X30790000Y-39900000D01*
X30790000Y-37800000D01*
G36*
X30330000Y-38650000D02*
G01*
X30590000Y-38650000D01*
X30590000Y-37800000D01*
X30790000Y-37800000D01*
X30790000Y-39900000D01*
X30130000Y-39900000D01*
X30130000Y-37800000D01*
X30330000Y-37800000D01*
X30330000Y-38650000D01*
G37*
X30790000Y-42200000D02*
X30590000Y-42200000D01*
X30590000Y-41350000D01*
X30330000Y-41350000D01*
X30330000Y-42200000D01*
X30130000Y-42200000D01*
X30130000Y-40100000D01*
X30790000Y-40100000D01*
X30790000Y-42200000D01*
G36*
X30790000Y-42200000D02*
G01*
X30590000Y-42200000D01*
X30590000Y-41350000D01*
X30330000Y-41350000D01*
X30330000Y-42200000D01*
X30130000Y-42200000D01*
X30130000Y-40100000D01*
X30790000Y-40100000D01*
X30790000Y-42200000D01*
G37*
%TO.C,U5*%
X57915000Y-62915000D02*
X59535000Y-62915000D01*
X59535000Y-64535000D01*
X57915000Y-64535000D01*
X57915000Y-62915000D01*
G36*
X59535000Y-64535000D02*
G01*
X57915000Y-64535000D01*
X57915000Y-62915000D01*
X59535000Y-62915000D01*
X59535000Y-64535000D01*
G37*
X57915000Y-65465000D02*
X59535000Y-65465000D01*
X59535000Y-67085000D01*
X57915000Y-67085000D01*
X57915000Y-65465000D01*
G36*
X59535000Y-67085000D02*
G01*
X57915000Y-67085000D01*
X57915000Y-65465000D01*
X59535000Y-65465000D01*
X59535000Y-67085000D01*
G37*
X60465000Y-62915000D02*
X62085000Y-62915000D01*
X62085000Y-64535000D01*
X60465000Y-64535000D01*
X60465000Y-62915000D01*
G36*
X62085000Y-64535000D02*
G01*
X60465000Y-64535000D01*
X60465000Y-62915000D01*
X62085000Y-62915000D01*
X62085000Y-64535000D01*
G37*
X60465000Y-65465000D02*
X62085000Y-65465000D01*
X62085000Y-67085000D01*
X60465000Y-67085000D01*
X60465000Y-65465000D01*
G36*
X62085000Y-67085000D02*
G01*
X60465000Y-67085000D01*
X60465000Y-65465000D01*
X62085000Y-65465000D01*
X62085000Y-67085000D01*
G37*
%TD*%
D11*
%TO.C,C24*%
X35520000Y-14000000D03*
X36480000Y-14000000D03*
%TD*%
%TO.C,C16*%
X27520000Y-53000000D03*
X28480000Y-53000000D03*
%TD*%
%TO.C,C5*%
X14520000Y-34000000D03*
X15480000Y-34000000D03*
%TD*%
%TO.C,C15*%
X8520000Y-60000000D03*
X9480000Y-60000000D03*
%TD*%
%TO.C,C32*%
X72520000Y-16000000D03*
X73480000Y-16000000D03*
%TD*%
%TO.C,C11*%
X11520000Y-48000000D03*
X12480000Y-48000000D03*
%TD*%
D12*
%TO.C,R21*%
X77490000Y-76000000D03*
X78510000Y-76000000D03*
%TD*%
D11*
%TO.C,C22*%
X13520000Y-14000000D03*
X14480000Y-14000000D03*
%TD*%
D13*
%TO.C,C12*%
X23050000Y-50000000D03*
X24950000Y-50000000D03*
%TD*%
D14*
%TO.C,U17*%
X11015000Y-55250000D03*
X11015000Y-55750000D03*
X11015000Y-56250000D03*
X11015000Y-56750000D03*
X12985000Y-56750000D03*
X12985000Y-56250000D03*
X12985000Y-55750000D03*
X12985000Y-55250000D03*
%TD*%
D15*
%TO.C,U13*%
X17325000Y-39325000D03*
X17325000Y-40675000D03*
X18675000Y-39325000D03*
X18675000Y-40675000D03*
D16*
X16037500Y-38750000D03*
X16037500Y-39250000D03*
X16037500Y-39750000D03*
X16037500Y-40250000D03*
X16037500Y-40750000D03*
X16037500Y-41250000D03*
D17*
X16750000Y-41962500D03*
X17250000Y-41962500D03*
X17750000Y-41962500D03*
X18250000Y-41962500D03*
X18750000Y-41962500D03*
X19250000Y-41962500D03*
D16*
X19962500Y-41250000D03*
X19962500Y-40750000D03*
X19962500Y-40250000D03*
X19962500Y-39750000D03*
X19962500Y-39250000D03*
X19962500Y-38750000D03*
D17*
X19250000Y-38037500D03*
X18750000Y-38037500D03*
X18250000Y-38037500D03*
X17750000Y-38037500D03*
X17250000Y-38037500D03*
X16750000Y-38037500D03*
%TD*%
D18*
%TO.C,L4*%
X24600000Y-34000000D03*
X27400000Y-34000000D03*
%TD*%
D11*
%TO.C,C33*%
X72520000Y-24000000D03*
X73480000Y-24000000D03*
%TD*%
%TO.C,C38*%
X28520000Y-71000000D03*
X29480000Y-71000000D03*
%TD*%
D19*
%TO.C,D2*%
X57550000Y-2350000D03*
X57550000Y-5650000D03*
X62450000Y-5650000D03*
X62450000Y-2350000D03*
%TD*%
D11*
%TO.C,C23*%
X13520000Y-16000000D03*
X14480000Y-16000000D03*
%TD*%
D13*
%TO.C,C10*%
X11050000Y-50000000D03*
X12950000Y-50000000D03*
%TD*%
D12*
%TO.C,R10*%
X81490000Y-20000000D03*
X82510000Y-20000000D03*
%TD*%
D11*
%TO.C,C13*%
X8520000Y-54000000D03*
X9480000Y-54000000D03*
%TD*%
D20*
%TO.C,U6*%
X87362000Y-46800000D03*
D21*
X87362000Y-47600000D03*
X87362000Y-48400000D03*
X87362000Y-49200000D03*
X88638000Y-49200000D03*
X88638000Y-48400000D03*
X88638000Y-47600000D03*
X88638000Y-46800000D03*
%TD*%
D22*
%TO.C,U1*%
X22100000Y-19060000D03*
X22100000Y-20460000D03*
X22100000Y-21860000D03*
X23500000Y-19060000D03*
X23500000Y-20460000D03*
X23500000Y-21860000D03*
X24900000Y-19060000D03*
X24900000Y-20460000D03*
X24900000Y-21860000D03*
D23*
X16250000Y-12740000D03*
X16250000Y-14010000D03*
X16250000Y-15280000D03*
X16250000Y-16550000D03*
X16250000Y-17820000D03*
X16250000Y-19090000D03*
X16250000Y-20360000D03*
X16250000Y-21630000D03*
X16250000Y-22900000D03*
X16250000Y-24170000D03*
X16250000Y-25440000D03*
X16250000Y-26710000D03*
X16250000Y-27980000D03*
X16250000Y-29250000D03*
D24*
X18015000Y-30500000D03*
X19285000Y-30500000D03*
X20555000Y-30500000D03*
X21825000Y-30500000D03*
X23095000Y-30500000D03*
X24365000Y-30500000D03*
X25635000Y-30500000D03*
X26905000Y-30500000D03*
X28175000Y-30500000D03*
X29445000Y-30500000D03*
X30715000Y-30500000D03*
X31985000Y-30500000D03*
D23*
X33750000Y-29250000D03*
X33750000Y-27980000D03*
X33750000Y-26710000D03*
X33750000Y-25440000D03*
X33750000Y-24170000D03*
X33750000Y-22900000D03*
X33750000Y-21630000D03*
X33750000Y-20360000D03*
X33750000Y-19090000D03*
X33750000Y-17820000D03*
X33750000Y-16550000D03*
X33750000Y-15280000D03*
X33750000Y-14010000D03*
X33750000Y-12740000D03*
%TD*%
D11*
%TO.C,C39*%
X40520000Y-59000000D03*
X41480000Y-59000000D03*
%TD*%
D25*
%TO.C,Q2*%
X79062500Y-77050000D03*
X79062500Y-78950000D03*
X80937500Y-78000000D03*
%TD*%
D11*
%TO.C,C56*%
X71520000Y-33000000D03*
X72480000Y-33000000D03*
%TD*%
D13*
%TO.C,C6*%
X33050000Y-38000000D03*
X34950000Y-38000000D03*
%TD*%
D19*
%TO.C,D1*%
X50550000Y-2350000D03*
X50550000Y-5650000D03*
X55450000Y-5650000D03*
X55450000Y-2350000D03*
%TD*%
D11*
%TO.C,C58*%
X71520000Y-50000000D03*
X72480000Y-50000000D03*
%TD*%
D12*
%TO.C,R18*%
X83490000Y-44000000D03*
X84510000Y-44000000D03*
%TD*%
D18*
%TO.C,L3*%
X16600000Y-34000000D03*
X19400000Y-34000000D03*
%TD*%
D13*
%TO.C,C8*%
X33050000Y-43000000D03*
X34950000Y-43000000D03*
%TD*%
D11*
%TO.C,C51*%
X53520000Y-69000000D03*
X54480000Y-69000000D03*
%TD*%
%TO.C,C55*%
X57520000Y-33000000D03*
X58480000Y-33000000D03*
%TD*%
D12*
%TO.C,R1*%
X11490000Y-42000000D03*
X12510000Y-42000000D03*
%TD*%
D11*
%TO.C,C30*%
X70520000Y-14000000D03*
X71480000Y-14000000D03*
%TD*%
%TO.C,C29*%
X58520000Y-26000000D03*
X59480000Y-26000000D03*
%TD*%
D12*
%TO.C,R6*%
X14490000Y-58000000D03*
X15510000Y-58000000D03*
%TD*%
D25*
%TO.C,Q4*%
X87062500Y-35050000D03*
X87062500Y-36950000D03*
X88937500Y-36000000D03*
%TD*%
D26*
%TO.C,U2*%
X64200000Y-19200000D03*
X64200000Y-20800000D03*
X65800000Y-19200000D03*
X65800000Y-20800000D03*
D27*
X61562500Y-17400000D03*
X61562500Y-17800000D03*
X61562500Y-18200000D03*
X61562500Y-18600000D03*
X61562500Y-19000000D03*
X61562500Y-19400000D03*
X61562500Y-19800000D03*
X61562500Y-20200000D03*
X61562500Y-20600000D03*
X61562500Y-21000000D03*
X61562500Y-21400000D03*
X61562500Y-21800000D03*
X61562500Y-22200000D03*
X61562500Y-22600000D03*
D28*
X62400000Y-23437500D03*
X62800000Y-23437500D03*
X63200000Y-23437500D03*
X63600000Y-23437500D03*
X64000000Y-23437500D03*
X64400000Y-23437500D03*
X64800000Y-23437500D03*
X65200000Y-23437500D03*
X65600000Y-23437500D03*
X66000000Y-23437500D03*
X66400000Y-23437500D03*
X66800000Y-23437500D03*
X67200000Y-23437500D03*
X67600000Y-23437500D03*
D27*
X68437500Y-22600000D03*
X68437500Y-22200000D03*
X68437500Y-21800000D03*
X68437500Y-21400000D03*
X68437500Y-21000000D03*
X68437500Y-20600000D03*
X68437500Y-20200000D03*
X68437500Y-19800000D03*
X68437500Y-19400000D03*
X68437500Y-19000000D03*
X68437500Y-18600000D03*
X68437500Y-18200000D03*
X68437500Y-17800000D03*
X68437500Y-17400000D03*
D28*
X67600000Y-16562500D03*
X67200000Y-16562500D03*
X66800000Y-16562500D03*
X66400000Y-16562500D03*
X66000000Y-16562500D03*
X65600000Y-16562500D03*
X65200000Y-16562500D03*
X64800000Y-16562500D03*
X64400000Y-16562500D03*
X64000000Y-16562500D03*
X63600000Y-16562500D03*
X63200000Y-16562500D03*
X62800000Y-16562500D03*
X62400000Y-16562500D03*
%TD*%
D12*
%TO.C,R8*%
X3490000Y-22000000D03*
X4510000Y-22000000D03*
%TD*%
D11*
%TO.C,C28*%
X58520000Y-14000000D03*
X59480000Y-14000000D03*
%TD*%
%TO.C,C26*%
X35520000Y-17000000D03*
X36480000Y-17000000D03*
%TD*%
%TO.C,C48*%
X53520000Y-61000000D03*
X54480000Y-61000000D03*
%TD*%
D29*
%TO.C,U4*%
X31555000Y-62250000D03*
X31555000Y-62750000D03*
X31555000Y-63250000D03*
X31555000Y-63750000D03*
X31555000Y-64250000D03*
X31555000Y-64750000D03*
X31555000Y-65250000D03*
X31555000Y-65750000D03*
X31555000Y-66250000D03*
X31555000Y-66750000D03*
X31555000Y-67250000D03*
X31555000Y-67750000D03*
D30*
X32250000Y-68445000D03*
X32750000Y-68445000D03*
X33250000Y-68445000D03*
X33750000Y-68445000D03*
X34250000Y-68445000D03*
X34750000Y-68445000D03*
X35250000Y-68445000D03*
X35750000Y-68445000D03*
X36250000Y-68445000D03*
X36750000Y-68445000D03*
X37250000Y-68445000D03*
X37750000Y-68445000D03*
D29*
X38445000Y-67750000D03*
X38445000Y-67250000D03*
X38445000Y-66750000D03*
X38445000Y-66250000D03*
X38445000Y-65750000D03*
X38445000Y-65250000D03*
X38445000Y-64750000D03*
X38445000Y-64250000D03*
X38445000Y-63750000D03*
X38445000Y-63250000D03*
X38445000Y-62750000D03*
X38445000Y-62250000D03*
D30*
X37750000Y-61555000D03*
X37250000Y-61555000D03*
X36750000Y-61555000D03*
X36250000Y-61555000D03*
X35750000Y-61555000D03*
X35250000Y-61555000D03*
X34750000Y-61555000D03*
X34250000Y-61555000D03*
X33750000Y-61555000D03*
X33250000Y-61555000D03*
X32750000Y-61555000D03*
X32250000Y-61555000D03*
%TD*%
D31*
%TO.C,LED2*%
X87062500Y-42000000D03*
X88937500Y-42000000D03*
%TD*%
D32*
%TO.C,J11*%
X88895000Y-52550000D03*
X89995000Y-52550000D03*
X91095000Y-52550000D03*
X92195000Y-52550000D03*
X93295000Y-52550000D03*
X94395000Y-52550000D03*
X95495000Y-52550000D03*
D33*
X96545000Y-52550000D03*
D34*
X86260000Y-58700000D03*
X86260000Y-62400000D03*
D35*
X86435000Y-52675000D03*
D36*
X89760000Y-63375000D03*
X95730000Y-63375000D03*
D37*
X97755000Y-52900000D03*
%TD*%
D38*
%TO.C,SW1*%
X2850000Y-16100000D03*
X9150000Y-16100000D03*
X2850000Y-19900000D03*
X9150000Y-19900000D03*
%TD*%
D11*
%TO.C,C60*%
X52520000Y-9000000D03*
X53480000Y-9000000D03*
%TD*%
D12*
%TO.C,R4*%
X35490000Y-45000000D03*
X36510000Y-45000000D03*
%TD*%
%TO.C,R24*%
X81490000Y-16000000D03*
X82510000Y-16000000D03*
%TD*%
D39*
%TO.C,FB1*%
X25515000Y-50000000D03*
X26485000Y-50000000D03*
%TD*%
D40*
%TO.C,U7*%
X49475000Y-44475000D03*
X49475000Y-45525000D03*
X50525000Y-44475000D03*
X50525000Y-45525000D03*
D41*
X48062500Y-43750000D03*
X48062500Y-44250000D03*
X48062500Y-44750000D03*
X48062500Y-45250000D03*
X48062500Y-45750000D03*
X48062500Y-46250000D03*
D42*
X48750000Y-46937500D03*
X49250000Y-46937500D03*
X49750000Y-46937500D03*
X50250000Y-46937500D03*
X50750000Y-46937500D03*
X51250000Y-46937500D03*
D41*
X51937500Y-46250000D03*
X51937500Y-45750000D03*
X51937500Y-45250000D03*
X51937500Y-44750000D03*
X51937500Y-44250000D03*
X51937500Y-43750000D03*
D42*
X51250000Y-43062500D03*
X50750000Y-43062500D03*
X50250000Y-43062500D03*
X49750000Y-43062500D03*
X49250000Y-43062500D03*
X48750000Y-43062500D03*
%TD*%
D11*
%TO.C,C17*%
X31520000Y-53000000D03*
X32480000Y-53000000D03*
%TD*%
%TO.C,C36*%
X81520000Y-18000000D03*
X82480000Y-18000000D03*
%TD*%
D12*
%TO.C,R12*%
X72490000Y-20000000D03*
X73510000Y-20000000D03*
%TD*%
%TO.C,R5*%
X12490000Y-36000000D03*
X13510000Y-36000000D03*
%TD*%
D11*
%TO.C,C41*%
X28520000Y-61000000D03*
X29480000Y-61000000D03*
%TD*%
D12*
%TO.C,R13*%
X34490000Y-73000000D03*
X35510000Y-73000000D03*
%TD*%
D11*
%TO.C,C46*%
X53520000Y-71000000D03*
X54480000Y-71000000D03*
%TD*%
%TO.C,C31*%
X70520000Y-26000000D03*
X71480000Y-26000000D03*
%TD*%
D12*
%TO.C,R20*%
X91490000Y-44000000D03*
X92510000Y-44000000D03*
%TD*%
D13*
%TO.C,C27*%
X35050000Y-21000000D03*
X36950000Y-21000000D03*
%TD*%
D43*
%TO.C,U15*%
X28862500Y-49050000D03*
X28862500Y-50000000D03*
X28862500Y-50950000D03*
X31137500Y-50950000D03*
X31137500Y-49050000D03*
%TD*%
D12*
%TO.C,R14*%
X59490000Y-73000000D03*
X60510000Y-73000000D03*
%TD*%
D44*
%TO.C,J10*%
X91750000Y-20150000D03*
X92250000Y-20150000D03*
X92750000Y-20150000D03*
X93250000Y-20150000D03*
X93750000Y-20150000D03*
X94250000Y-20150000D03*
X94750000Y-20150000D03*
X95250000Y-20150000D03*
X95750000Y-20150000D03*
X96250000Y-20150000D03*
X96750000Y-20150000D03*
X97250000Y-20150000D03*
X97750000Y-20150000D03*
X98250000Y-20150000D03*
D45*
X89850000Y-23400000D03*
X100150000Y-23400000D03*
%TD*%
D13*
%TO.C,C21*%
X11050000Y-40000000D03*
X12950000Y-40000000D03*
%TD*%
D11*
%TO.C,C49*%
X65520000Y-71000000D03*
X66480000Y-71000000D03*
%TD*%
D13*
%TO.C,C19*%
X27050000Y-48000000D03*
X28950000Y-48000000D03*
%TD*%
D11*
%TO.C,C59*%
X86520000Y-76000000D03*
X87480000Y-76000000D03*
%TD*%
D12*
%TO.C,R3*%
X33490000Y-45000000D03*
X34510000Y-45000000D03*
%TD*%
D25*
%TO.C,Q3*%
X83062500Y-35050000D03*
X83062500Y-36950000D03*
X84937500Y-36000000D03*
%TD*%
D46*
%TO.C,U3*%
X75525000Y-18095000D03*
X75525000Y-19365000D03*
X75525000Y-20635000D03*
X75525000Y-21905000D03*
X80475000Y-21905000D03*
X80475000Y-20635000D03*
X80475000Y-19365000D03*
X80475000Y-18095000D03*
%TD*%
D31*
%TO.C,LED3*%
X91062500Y-42000000D03*
X92937500Y-42000000D03*
%TD*%
D12*
%TO.C,R7*%
X3490000Y-16000000D03*
X4510000Y-16000000D03*
%TD*%
D11*
%TO.C,C7*%
X33520000Y-40000000D03*
X34480000Y-40000000D03*
%TD*%
%TO.C,C53*%
X90520000Y-48000000D03*
X91480000Y-48000000D03*
%TD*%
%TO.C,C43*%
X28520000Y-69000000D03*
X29480000Y-69000000D03*
%TD*%
%TO.C,C47*%
X65520000Y-59000000D03*
X66480000Y-59000000D03*
%TD*%
%TO.C,C44*%
X40520000Y-69000000D03*
X41480000Y-69000000D03*
%TD*%
%TO.C,C35*%
X54520000Y-19000000D03*
X55480000Y-19000000D03*
%TD*%
%TO.C,C34*%
X54520000Y-15000000D03*
X55480000Y-15000000D03*
%TD*%
D47*
%TO.C,U11*%
X72840000Y-47250000D03*
X72840000Y-47750000D03*
X72840000Y-48250000D03*
X72840000Y-48750000D03*
D48*
X73500000Y-48910000D03*
X74000000Y-48910000D03*
X74500000Y-48910000D03*
D47*
X75160000Y-48750000D03*
X75160000Y-48250000D03*
X75160000Y-47750000D03*
X75160000Y-47250000D03*
D48*
X74500000Y-47090000D03*
X74000000Y-47090000D03*
X73500000Y-47090000D03*
%TD*%
D11*
%TO.C,C9*%
X25520000Y-38000000D03*
X26480000Y-38000000D03*
%TD*%
D49*
%TO.C,U10*%
X55350000Y-43555000D03*
X55350000Y-44825000D03*
X55350000Y-46095000D03*
X55350000Y-47365000D03*
X55350000Y-48635000D03*
X55350000Y-49905000D03*
X55350000Y-51175000D03*
X55350000Y-52445000D03*
X64650000Y-52445000D03*
X64650000Y-51175000D03*
X64650000Y-49905000D03*
X64650000Y-48635000D03*
X64650000Y-47365000D03*
X64650000Y-46095000D03*
X64650000Y-44825000D03*
X64650000Y-43555000D03*
%TD*%
D25*
%TO.C,Q1*%
X86062500Y-15050000D03*
X86062500Y-16950000D03*
X87937500Y-16000000D03*
%TD*%
D11*
%TO.C,C52*%
X65520000Y-69000000D03*
X66480000Y-69000000D03*
%TD*%
%TO.C,C50*%
X65520000Y-61000000D03*
X66480000Y-61000000D03*
%TD*%
D25*
%TO.C,Q5*%
X91062500Y-35050000D03*
X91062500Y-36950000D03*
X92937500Y-36000000D03*
%TD*%
D38*
%TO.C,SW2*%
X2850000Y-22100000D03*
X9150000Y-22100000D03*
X2850000Y-25900000D03*
X9150000Y-25900000D03*
%TD*%
D11*
%TO.C,C62*%
X66520000Y-9000000D03*
X67480000Y-9000000D03*
%TD*%
%TO.C,C63*%
X73520000Y-9000000D03*
X74480000Y-9000000D03*
%TD*%
%TO.C,C57*%
X57520000Y-50000000D03*
X58480000Y-50000000D03*
%TD*%
D13*
%TO.C,C20*%
X23050000Y-53000000D03*
X24950000Y-53000000D03*
%TD*%
D11*
%TO.C,C37*%
X28520000Y-59000000D03*
X29480000Y-59000000D03*
%TD*%
D13*
%TO.C,C3*%
X25050000Y-43000000D03*
X26950000Y-43000000D03*
%TD*%
D11*
%TO.C,C54*%
X47520000Y-43000000D03*
X48480000Y-43000000D03*
%TD*%
D12*
%TO.C,R9*%
X58490000Y-26000000D03*
X59510000Y-26000000D03*
%TD*%
D50*
%TO.C,U14*%
X28600000Y-38500000D03*
X28600000Y-39000000D03*
X28600000Y-39500000D03*
X28600000Y-40000000D03*
X28600000Y-40500000D03*
X28600000Y-41000000D03*
X28600000Y-41500000D03*
X31400000Y-41500000D03*
X31400000Y-41000000D03*
X31400000Y-40500000D03*
X31400000Y-40000000D03*
X31400000Y-39500000D03*
X31400000Y-39000000D03*
X31400000Y-38500000D03*
%TD*%
D19*
%TO.C,D4*%
X71550000Y-2350000D03*
X71550000Y-5650000D03*
X76450000Y-5650000D03*
X76450000Y-2350000D03*
%TD*%
D12*
%TO.C,R16*%
X87490000Y-34000000D03*
X88510000Y-34000000D03*
%TD*%
D13*
%TO.C,C14*%
X8050000Y-58000000D03*
X9950000Y-58000000D03*
%TD*%
D12*
%TO.C,R2*%
X11490000Y-46000000D03*
X12510000Y-46000000D03*
%TD*%
D51*
%TO.C,U16*%
X14850000Y-47700000D03*
X14850000Y-50000000D03*
D52*
X21150000Y-50000000D03*
D51*
X14850000Y-52300000D03*
%TD*%
D11*
%TO.C,C42*%
X40520000Y-61000000D03*
X41480000Y-61000000D03*
%TD*%
D12*
%TO.C,R11*%
X81490000Y-22000000D03*
X82510000Y-22000000D03*
%TD*%
%TO.C,R22*%
X81490000Y-76000000D03*
X82510000Y-76000000D03*
%TD*%
D11*
%TO.C,C40*%
X40520000Y-71000000D03*
X41480000Y-71000000D03*
%TD*%
D31*
%TO.C,LED1*%
X83062500Y-42000000D03*
X84937500Y-42000000D03*
%TD*%
D12*
%TO.C,R19*%
X87490000Y-44000000D03*
X88510000Y-44000000D03*
%TD*%
D53*
%TO.C,U8*%
X58800000Y-32600000D03*
X58800000Y-33400000D03*
X58800000Y-34200000D03*
X58800000Y-35000000D03*
X58800000Y-35800000D03*
X58800000Y-36600000D03*
X58800000Y-37400000D03*
X61200000Y-37400000D03*
X61200000Y-36600000D03*
X61200000Y-35800000D03*
X61200000Y-35000000D03*
X61200000Y-34200000D03*
X61200000Y-33400000D03*
X61200000Y-32600000D03*
%TD*%
D12*
%TO.C,R17*%
X91490000Y-34000000D03*
X92510000Y-34000000D03*
%TD*%
D29*
%TO.C,U5*%
X56555000Y-62250000D03*
X56555000Y-62750000D03*
X56555000Y-63250000D03*
X56555000Y-63750000D03*
X56555000Y-64250000D03*
X56555000Y-64750000D03*
X56555000Y-65250000D03*
X56555000Y-65750000D03*
X56555000Y-66250000D03*
X56555000Y-66750000D03*
X56555000Y-67250000D03*
X56555000Y-67750000D03*
D30*
X57250000Y-68445000D03*
X57750000Y-68445000D03*
X58250000Y-68445000D03*
X58750000Y-68445000D03*
X59250000Y-68445000D03*
X59750000Y-68445000D03*
X60250000Y-68445000D03*
X60750000Y-68445000D03*
X61250000Y-68445000D03*
X61750000Y-68445000D03*
X62250000Y-68445000D03*
X62750000Y-68445000D03*
D29*
X63445000Y-67750000D03*
X63445000Y-67250000D03*
X63445000Y-66750000D03*
X63445000Y-66250000D03*
X63445000Y-65750000D03*
X63445000Y-65250000D03*
X63445000Y-64750000D03*
X63445000Y-64250000D03*
X63445000Y-63750000D03*
X63445000Y-63250000D03*
X63445000Y-62750000D03*
X63445000Y-62250000D03*
D30*
X62750000Y-61555000D03*
X62250000Y-61555000D03*
X61750000Y-61555000D03*
X61250000Y-61555000D03*
X60750000Y-61555000D03*
X60250000Y-61555000D03*
X59750000Y-61555000D03*
X59250000Y-61555000D03*
X58750000Y-61555000D03*
X58250000Y-61555000D03*
X57750000Y-61555000D03*
X57250000Y-61555000D03*
%TD*%
D11*
%TO.C,C25*%
X13520000Y-18000000D03*
X14480000Y-18000000D03*
%TD*%
%TO.C,C18*%
X31520000Y-48000000D03*
X32480000Y-48000000D03*
%TD*%
D19*
%TO.C,D3*%
X64550000Y-2350000D03*
X64550000Y-5650000D03*
X69450000Y-5650000D03*
X69450000Y-2350000D03*
%TD*%
D12*
%TO.C,R15*%
X83490000Y-34000000D03*
X84510000Y-34000000D03*
%TD*%
D11*
%TO.C,C45*%
X53520000Y-59000000D03*
X54480000Y-59000000D03*
%TD*%
%TO.C,C4*%
X22520000Y-38000000D03*
X23480000Y-38000000D03*
%TD*%
D54*
%TO.C,Y1*%
X58250000Y-17000000D03*
X55750000Y-17000000D03*
%TD*%
D11*
%TO.C,C61*%
X59520000Y-9000000D03*
X60480000Y-9000000D03*
%TD*%
%TO.C,C2*%
X11520000Y-44000000D03*
X12480000Y-44000000D03*
%TD*%
D55*
%TO.C,U12*%
X85000000Y-77600000D03*
X85000000Y-78400000D03*
D56*
X84112500Y-77350000D03*
X84112500Y-78000000D03*
X84112500Y-78650000D03*
X85887500Y-78650000D03*
X85887500Y-78000000D03*
X85887500Y-77350000D03*
%TD*%
D57*
%TO.C,J1*%
X-1750000Y-39955000D03*
X-950000Y-39955000D03*
D58*
X250000Y-39955000D03*
X1250000Y-39955000D03*
X1750000Y-39955000D03*
X2750000Y-39955000D03*
D57*
X3950000Y-39955000D03*
X4750000Y-39955000D03*
X4750000Y-39955000D03*
X3950000Y-39955000D03*
D58*
X3250000Y-39955000D03*
X2250000Y-39955000D03*
X750000Y-39955000D03*
X-250000Y-39955000D03*
D57*
X-950000Y-39955000D03*
X-1750000Y-39955000D03*
%TD*%
D13*
%TO.C,C1*%
X12050000Y-38000000D03*
X13950000Y-38000000D03*
%TD*%
M02*
