M48
; DRILL file KiCad 10.0.3 date 2026-06-15T12:52:25
; FORMAT={-:-/ absolute / metric / decimal}
; #@! TF.CreationDate,2026-06-15T12:52:25+05:30
; #@! TF.GenerationSoftware,Kicad,Pcbnew,10.0.3
; #@! TF.FileFunction,Plated,1,6,PTH
FMAT,2
METRIC
; #@! TA.AperFunction,Plated,PTH,ComponentDrill
T1C0.200
; #@! TA.AperFunction,Plated,PTH,ViaDrill
T2C0.300
; #@! TA.AperFunction,Plated,PTH,ViaDrill
T3C0.400
; #@! TA.AperFunction,Plated,PTH,ComponentDrill
T4C0.500
; #@! TA.AperFunction,Plated,PTH,ComponentDrill
T5C0.600
; #@! TA.AperFunction,Plated,PTH,ComponentDrill
T6C0.690
; #@! TA.AperFunction,Plated,PTH,ComponentDrill
T7C0.750
; #@! TA.AperFunction,Plated,PTH,ComponentDrill
T8C1.000
%
G90
G05
T1
X16.9Y-38.9
X16.9Y-40.0
X16.9Y-41.1
X18.0Y-38.9
X18.0Y-40.0
X18.0Y-41.1
X19.1Y-38.9
X19.1Y-40.0
X19.1Y-41.1
X22.1Y-19.76
X22.1Y-21.16
X22.8Y-19.06
X22.8Y-20.46
X22.8Y-21.86
X23.5Y-19.76
X23.5Y-21.16
X24.2Y-19.06
X24.2Y-20.46
X24.2Y-21.86
X24.9Y-19.76
X24.9Y-21.16
X29.5Y-39.0
X29.5Y-39.5
X29.5Y-40.0
X29.5Y-40.5
X29.5Y-41.0
X30.0Y-39.0
X30.0Y-39.5
X30.0Y-40.0
X30.0Y-40.5
X30.0Y-41.0
X30.5Y-39.0
X30.5Y-39.5
X30.5Y-40.0
X30.5Y-40.5
X30.5Y-41.0
T2
X0.447Y-38.469
X1.262Y-34.006
X4.008Y-38.81
X9.148Y-44.419
X10.189Y-44.841
X10.302Y-16.269
X10.305Y-26.408
X10.315Y-20.17
X10.347Y-53.344
X11.586Y-41.203
X11.677Y-25.081
X11.677Y-57.806
X12.48Y-43.378
X12.653Y-35.215
X12.985Y-57.198
X13.426Y-54.809
X13.497Y-36.797
X13.52Y-14.652
X13.52Y-16.622
X13.669Y-55.492
X14.652Y-28.056
X14.779Y-14.861
X15.079Y-18.08
X15.174Y-19.88
X15.192Y-12.725
X15.198Y-22.915
X15.274Y-40.215
X15.316Y-37.795
X16.009Y-41.781
X16.429Y-50.674
X16.451Y-42.756
X16.819Y-36.874
X17.313Y-17.82
X17.318Y-43.302
X17.329Y-21.748
X17.686Y-20.619
X17.686Y-24.208
X17.686Y-26.569
X17.906Y-35.439
X17.918Y-17.644
X19.29Y-26.445
X19.703Y-41.93
X20.604Y-29.275
X20.861Y-40.038
X21.996Y-29.275
X22.533Y-51.654
X22.686Y-43.504
X23.223Y-31.578
X23.579Y-36.963
X23.937Y-50.369
X25.067Y-29.275
X26.305Y-32.52
X26.871Y-29.275
X26.901Y-53.0
X27.347Y-36.171
X27.856Y-40.745
X28.6Y-38.059
X28.718Y-68.082
X29.812Y-61.988
X31.018Y-34.006
X31.68Y-41.929
X32.043Y-40.037
X32.505Y-60.585
X32.587Y-69.55
X32.744Y-30.882
X32.999Y-60.59
X33.438Y-69.266
X33.994Y-41.444
X34.044Y-71.194
X34.306Y-69.79
X34.873Y-60.805
X35.004Y-15.722
X35.029Y-69.522
X35.469Y-13.063
X35.503Y-44.203
X35.59Y-69.172
X35.888Y-21.649
X36.802Y-69.18
X36.969Y-25.081
X36.972Y-60.829
X37.114Y-14.118
X37.339Y-69.566
X37.583Y-60.811
X38.198Y-61.349
X38.382Y-68.339
X39.186Y-62.25
X39.97Y-69.863
X40.297Y-68.153
X40.456Y-61.638
X41.48Y-61.781
X46.902Y-43.22
X47.313Y-45.983
X47.339Y-45.009
X47.384Y-47.394
X48.644Y-47.756
X49.279Y-48.002
X50.01Y-42.183
X50.36Y-20.614
X51.705Y-42.906
X51.791Y-5.589
X53.335Y-62.269
X54.862Y-3.117
X54.969Y-14.485
X55.78Y-62.418
X56.311Y-23.643
X57.208Y-60.586
X57.627Y-50.712
X57.647Y-14.758
X57.727Y-60.819
X57.799Y-4.256
X57.799Y-15.722
X58.183Y-69.178
X58.379Y-18.468
X58.705Y-71.194
X58.875Y-69.263
X59.189Y-60.827
X59.278Y-17.318
X59.285Y-38.469
X59.48Y-14.645
X59.721Y-70.05
X60.274Y-21.111
X60.463Y-20.013
X60.5Y-70.0
X60.559Y-18.625
X60.562Y-69.172
X60.823Y-19.0
X61.413Y-60.809
X61.556Y-26.907
X61.75Y-69.173
X61.864Y-16.678
X62.262Y-3.384
X62.291Y-34.005
X62.308Y-20.015
X62.325Y-26.386
X62.327Y-22.231
X62.35Y-17.365
X62.4Y-24.185
X62.657Y-43.326
X62.948Y-22.546
X62.997Y-17.959
X63.047Y-60.883
X63.098Y-20.239
X63.203Y-17.526
X63.402Y-30.883
X63.458Y-61.168
X63.736Y-68.276
X63.75Y-29.831
X63.788Y-17.695
X64.087Y-44.2
X64.103Y-45.478
X64.176Y-62.25
X64.275Y-17.561
X64.338Y-22.619
X64.908Y-24.221
X65.238Y-62.269
X65.321Y-22.508
X65.432Y-63.754
X65.641Y-5.744
X65.673Y-17.426
X66.0Y-22.563
X66.542Y-71.624
X66.544Y-22.588
X67.258Y-24.746
X68.017Y-23.643
X69.346Y-3.156
X69.829Y-26.257
X72.73Y-13.331
X73.08Y-19.278
X73.383Y-17.047
X73.48Y-47.766
X73.569Y-13.352
X73.966Y-19.052
X74.079Y-8.015
X74.164Y-45.906
X74.265Y-48.28
X74.357Y-16.542
X74.759Y-13.149
X75.187Y-49.275
X76.074Y-3.156
X77.192Y-21.041
X77.515Y-75.374
X77.588Y-20.197
X78.628Y-20.619
X80.507Y-76.25
X81.471Y-16.904
X83.298Y-17.88
X84.067Y-33.501
X84.112Y-76.825
X84.54Y-27.14
X85.824Y-76.838
X86.191Y-17.695
X86.767Y-47.544
X88.336Y-50.475
X88.663Y-46.238
X89.042Y-32.519
X89.229Y-47.591
X90.267Y-26.305
X90.41Y-51.676
X91.062Y-37.582
X91.48Y-47.38
X91.704Y-22.448
X91.98Y-21.124
X93.295Y-51.688
X93.389Y-21.254
X93.506Y-18.768
X94.508Y-23.108
X94.572Y-22.462
X94.994Y-22.106
X94.994Y-45.906
X96.18Y-18.944
X98.0Y-98.5
X98.5Y-98.5
T3
X17.686Y-14.669
X21.861Y-43.569
X25.951Y-53.0
X30.607Y-65.244
X35.482Y-19.23
X35.904Y-59.294
X39.554Y-60.969
X53.335Y-66.731
X65.692Y-57.61
X73.036Y-14.361
X74.019Y-9.712
X86.573Y-77.951
X87.807Y-50.892
T4
X16.0Y-95.0
X17.25Y-95.0
X18.5Y-95.0
X24.0Y-95.0
X25.25Y-95.0
X26.5Y-95.0
X32.0Y-95.0
X33.25Y-95.0
X34.5Y-95.0
X40.0Y-95.0
X41.25Y-95.0
X42.5Y-95.0
X52.0Y-95.0
X53.25Y-95.0
X54.5Y-95.0
X60.0Y-95.0
X61.25Y-95.0
X62.5Y-95.0
X68.0Y-95.0
X69.25Y-95.0
X70.5Y-95.0
X76.0Y-95.0
X77.25Y-95.0
X78.5Y-95.0
T6
X71.46Y-35.0
X74.0Y-32.46
X74.0Y-37.54
X76.54Y-35.0
T7
X5.0Y-56.0
X7.0Y-56.0
T8
X87.0Y-7.0
X94.6Y-7.0
T5
X-2.82Y-40.32G85X-2.82Y-41.42
G05
X-2.82Y-44.75G85X-2.82Y-45.35
G05
X5.82Y-40.32G85X5.82Y-41.42
G05
X5.82Y-44.75G85X5.82Y-45.35
G05
M30
