%TF.GenerationSoftware,KiCad,Pcbnew,10.0.3*%
%TF.CreationDate,2026-06-15T12:52:13+05:30*%
%TF.ProjectId,Sentinel_HYDRA,53656e74-696e-4656-9c5f-48594452412e,rev?*%
%TF.SameCoordinates,Original*%
%TF.FileFunction,Copper,L1,Top*%
%TF.FilePolarity,Positive*%
%FSLAX46Y46*%
G04 Gerber Fmt 4.6, Leading zero omitted, Abs format (unit mm)*
G04 Created by KiCad (PCBNEW 10.0.3) date 2026-06-15 12:52:13*
%MOMM*%
%LPD*%
G01*
G04 APERTURE LIST*
G04 Aperture macros list*
%AMRoundRect*
0 Rectangle with rounded corners*
0 $1 Rounding radius*
0 $2 $3 $4 $5 $6 $7 $8 $9 X,Y pos of 4 corners*
0 Add a 4 corners polygon primitive as box body*
4,1,4,$2,$3,$4,$5,$6,$7,$8,$9,$2,$3,0*
0 Add four circle primitives for the rounded corners*
1,1,$1+$1,$2,$3*
1,1,$1+$1,$4,$5*
1,1,$1+$1,$6,$7*
1,1,$1+$1,$8,$9*
0 Add four rect primitives between the rounded corners*
20,1,$1+$1,$2,$3,$4,$5,0*
20,1,$1+$1,$4,$5,$6,$7,0*
20,1,$1+$1,$6,$7,$8,$9,0*
20,1,$1+$1,$8,$9,$2,$3,0*%
%AMOutline5P*
0 Free polygon, 5 corners , with rotation*
0 The origin of the aperture is its center*
0 number of corners: always 5*
0 $1 to $10 corner X, Y*
0 $11 Rotation angle, in degrees counterclockwise*
0 create outline with 5 corners*
4,1,5,$1,$2,$3,$4,$5,$6,$7,$8,$9,$10,$1,$2,$11*%
%AMOutline6P*
0 Free polygon, 6 corners , with rotation*
0 The origin of the aperture is its center*
0 number of corners: always 6*
0 $1 to $12 corner X, Y*
0 $13 Rotation angle, in degrees counterclockwise*
0 create outline with 6 corners*
4,1,6,$1,$2,$3,$4,$5,$6,$7,$8,$9,$10,$11,$12,$1,$2,$13*%
%AMOutline7P*
0 Free polygon, 7 corners , with rotation*
0 The origin of the aperture is its center*
0 number of corners: always 7*
0 $1 to $14 corner X, Y*
0 $15 Rotation angle, in degrees counterclockwise*
0 create outline with 7 corners*
4,1,7,$1,$2,$3,$4,$5,$6,$7,$8,$9,$10,$11,$12,$13,$14,$1,$2,$15*%
%AMOutline8P*
0 Free polygon, 8 corners , with rotation*
0 The origin of the aperture is its center*
0 number of corners: always 8*
0 $1 to $16 corner X, Y*
0 $17 Rotation angle, in degrees counterclockwise*
0 create outline with 8 corners*
4,1,8,$1,$2,$3,$4,$5,$6,$7,$8,$9,$10,$11,$12,$13,$14,$15,$16,$1,$2,$17*%
%AMFreePoly0*
4,1,61,-0.586464,2.203536,-0.585000,2.200000,-0.585000,1.430000,-0.335000,1.430000,-0.335000,2.200000,-0.333536,2.203536,-0.330000,2.205000,-0.130000,2.205000,-0.126464,2.203536,-0.125000,2.200000,-0.125000,1.430000,0.125000,1.430000,0.125000,2.200000,0.126464,2.203536,0.130000,2.205000,0.330000,2.205000,0.333536,2.203536,0.335000,2.200000,0.335000,1.430000,0.585000,1.430000,
0.585000,2.200000,0.586464,2.203536,0.590000,2.205000,0.790000,2.205000,0.793536,2.203536,0.795000,2.200000,0.795000,-2.200000,0.793536,-2.203536,0.790000,-2.205000,0.590000,-2.205000,0.586464,-2.203536,0.585000,-2.200000,0.585000,-1.430000,0.335000,-1.430000,0.335000,-2.200000,0.333536,-2.203536,0.330000,-2.205000,0.130000,-2.205000,0.126464,-2.203536,0.125000,-2.200000,
0.125000,-1.430000,-0.125000,-1.430000,-0.125000,-2.200000,-0.126464,-2.203536,-0.130000,-2.205000,-0.330000,-2.205000,-0.333536,-2.203536,-0.335000,-2.200000,-0.335000,-1.430000,-0.585000,-1.430000,-0.585000,-2.200000,-0.586464,-2.203536,-0.590000,-2.205000,-0.790000,-2.205000,-0.793536,-2.203536,-0.795000,-2.200000,-0.795000,2.200000,-0.793536,2.203536,-0.790000,2.205000,-0.590000,2.205000,
-0.586464,2.203536,-0.586464,2.203536,$1*%
G04 Aperture macros list end*
%TA.AperFunction,ComponentPad*%
%ADD10RoundRect,0.250000X-0.350000X-0.625000X0.350000X-0.625000X0.350000X0.625000X-0.350000X0.625000X0*%
%TD*%
%TA.AperFunction,ComponentPad*%
%ADD11O,1.200000X1.750000*%
%TD*%
%TA.AperFunction,SMDPad,CuDef*%
%ADD12RoundRect,0.140000X-0.140000X-0.170000X0.140000X-0.170000X0.140000X0.170000X-0.140000X0.170000X0*%
%TD*%
%TA.AperFunction,SMDPad,CuDef*%
%ADD13RoundRect,0.135000X-0.135000X-0.185000X0.135000X-0.185000X0.135000X0.185000X-0.135000X0.185000X0*%
%TD*%
%TA.AperFunction,SMDPad,CuDef*%
%ADD14RoundRect,0.250000X-0.250000X-0.475000X0.250000X-0.475000X0.250000X0.475000X-0.250000X0.475000X0*%
%TD*%
%TA.AperFunction,SMDPad,CuDef*%
%ADD15RoundRect,0.033750X-0.346250X-0.101250X0.346250X-0.101250X0.346250X0.101250X-0.346250X0.101250X0*%
%TD*%
%TA.AperFunction,SMDPad,CuDef*%
%ADD16R,0.900000X1.300000*%
%TD*%
%TA.AperFunction,SMDPad,CuDef*%
%ADD17RoundRect,0.062500X-0.350000X-0.062500X0.350000X-0.062500X0.350000X0.062500X-0.350000X0.062500X0*%
%TD*%
%TA.AperFunction,SMDPad,CuDef*%
%ADD18RoundRect,0.062500X-0.062500X-0.350000X0.062500X-0.350000X0.062500X0.350000X-0.062500X0.350000X0*%
%TD*%
%TA.AperFunction,HeatsinkPad*%
%ADD19C,0.500000*%
%TD*%
%TA.AperFunction,HeatsinkPad*%
%ADD20R,2.700000X2.700000*%
%TD*%
%TA.AperFunction,SMDPad,CuDef*%
%ADD21R,1.200000X3.700000*%
%TD*%
%TA.AperFunction,SMDPad,CuDef*%
%ADD22RoundRect,0.090000X-0.660000X-0.360000X0.660000X-0.360000X0.660000X0.360000X-0.660000X0.360000X0*%
%TD*%
%TA.AperFunction,ComponentPad*%
%ADD23RoundRect,0.200000X-0.200000X-0.450000X0.200000X-0.450000X0.200000X0.450000X-0.200000X0.450000X0*%
%TD*%
%TA.AperFunction,ComponentPad*%
%ADD24O,0.800000X1.300000*%
%TD*%
%TA.AperFunction,SMDPad,CuDef*%
%ADD25Outline5P,-0.287500X0.244000X0.287500X0.244000X0.287500X-0.067100X0.110600X-0.244000X-0.287500X-0.244000X0.000000*%
%TD*%
%TA.AperFunction,SMDPad,CuDef*%
%ADD26R,0.575000X0.488000*%
%TD*%
%TA.AperFunction,SMDPad,CuDef*%
%ADD27R,1.500000X0.900000*%
%TD*%
%TA.AperFunction,SMDPad,CuDef*%
%ADD28R,0.900000X1.500000*%
%TD*%
%TA.AperFunction,HeatsinkPad*%
%ADD29C,0.600000*%
%TD*%
%TA.AperFunction,HeatsinkPad*%
%ADD30R,3.900000X3.900000*%
%TD*%
%TA.AperFunction,SMDPad,CuDef*%
%ADD31RoundRect,0.150000X-0.587500X-0.150000X0.587500X-0.150000X0.587500X0.150000X-0.587500X0.150000X0*%
%TD*%
%TA.AperFunction,SMDPad,CuDef*%
%ADD32RoundRect,0.050000X-0.387500X-0.050000X0.387500X-0.050000X0.387500X0.050000X-0.387500X0.050000X0*%
%TD*%
%TA.AperFunction,SMDPad,CuDef*%
%ADD33RoundRect,0.050000X-0.050000X-0.387500X0.050000X-0.387500X0.050000X0.387500X-0.050000X0.387500X0*%
%TD*%
%TA.AperFunction,HeatsinkPad*%
%ADD34R,3.200000X3.200000*%
%TD*%
%TA.AperFunction,ConnectorPad*%
%ADD35C,0.787400*%
%TD*%
%TA.AperFunction,SMDPad,CuDef*%
%ADD36RoundRect,0.032500X-0.387500X-0.097500X0.387500X-0.097500X0.387500X0.097500X-0.387500X0.097500X0*%
%TD*%
%TA.AperFunction,SMDPad,CuDef*%
%ADD37RoundRect,0.032500X-0.097500X-0.387500X0.097500X-0.387500X0.097500X0.387500X-0.097500X0.387500X0*%
%TD*%
%TA.AperFunction,SMDPad,CuDef*%
%ADD38R,5.100000X5.100000*%
%TD*%
%TA.AperFunction,SMDPad,CuDef*%
%ADD39RoundRect,0.243750X-0.243750X-0.456250X0.243750X-0.456250X0.243750X0.456250X-0.243750X0.456250X0*%
%TD*%
%TA.AperFunction,SMDPad,CuDef*%
%ADD40R,0.850000X1.100000*%
%TD*%
%TA.AperFunction,SMDPad,CuDef*%
%ADD41R,0.750000X1.100000*%
%TD*%
%TA.AperFunction,SMDPad,CuDef*%
%ADD42R,1.200000X1.000000*%
%TD*%
%TA.AperFunction,SMDPad,CuDef*%
%ADD43R,1.550000X1.350000*%
%TD*%
%TA.AperFunction,SMDPad,CuDef*%
%ADD44R,1.900000X1.350000*%
%TD*%
%TA.AperFunction,SMDPad,CuDef*%
%ADD45R,1.170000X1.800000*%
%TD*%
%TA.AperFunction,SMDPad,CuDef*%
%ADD46R,1.700000X1.000000*%
%TD*%
%TA.AperFunction,SMDPad,CuDef*%
%ADD47RoundRect,0.147500X-0.147500X-0.172500X0.147500X-0.172500X0.147500X0.172500X-0.147500X0.172500X0*%
%TD*%
%TA.AperFunction,SMDPad,CuDef*%
%ADD48RoundRect,0.062500X-0.375000X-0.062500X0.375000X-0.062500X0.375000X0.062500X-0.375000X0.062500X0*%
%TD*%
%TA.AperFunction,SMDPad,CuDef*%
%ADD49RoundRect,0.062500X-0.062500X-0.375000X0.062500X-0.375000X0.062500X0.375000X-0.062500X0.375000X0*%
%TD*%
%TA.AperFunction,HeatsinkPad*%
%ADD50R,2.100000X2.100000*%
%TD*%
%TA.AperFunction,SMDPad,CuDef*%
%ADD51RoundRect,0.150000X-0.512500X-0.150000X0.512500X-0.150000X0.512500X0.150000X-0.512500X0.150000X0*%
%TD*%
%TA.AperFunction,SMDPad,CuDef*%
%ADD52R,0.300000X1.300000*%
%TD*%
%TA.AperFunction,SMDPad,CuDef*%
%ADD53R,1.800000X2.200000*%
%TD*%
%TA.AperFunction,SMDPad,CuDef*%
%ADD54RoundRect,0.150000X-0.825000X-0.150000X0.825000X-0.150000X0.825000X0.150000X-0.825000X0.150000X0*%
%TD*%
%TA.AperFunction,ComponentPad*%
%ADD55R,2.000000X2.000000*%
%TD*%
%TA.AperFunction,ComponentPad*%
%ADD56C,2.000000*%
%TD*%
%TA.AperFunction,SMDPad,CuDef*%
%ADD57R,0.610000X0.350000*%
%TD*%
%TA.AperFunction,SMDPad,CuDef*%
%ADD58R,0.350000X0.610000*%
%TD*%
%TA.AperFunction,SMDPad,CuDef*%
%ADD59RoundRect,0.150000X-0.875000X-0.150000X0.875000X-0.150000X0.875000X0.150000X-0.875000X0.150000X0*%
%TD*%
%TA.AperFunction,ComponentPad*%
%ADD60R,1.198000X1.198000*%
%TD*%
%TA.AperFunction,ComponentPad*%
%ADD61C,1.198000*%
%TD*%
%TA.AperFunction,SMDPad,CuDef*%
%ADD62O,0.600000X0.240000*%
%TD*%
%TA.AperFunction,SMDPad,CuDef*%
%ADD63FreePoly0,0.000000*%
%TD*%
%TA.AperFunction,ComponentPad*%
%ADD64C,0.300000*%
%TD*%
%TA.AperFunction,SMDPad,CuDef*%
%ADD65RoundRect,0.375000X-0.625000X-0.375000X0.625000X-0.375000X0.625000X0.375000X-0.625000X0.375000X0*%
%TD*%
%TA.AperFunction,SMDPad,CuDef*%
%ADD66RoundRect,0.500000X-0.500000X-1.400000X0.500000X-1.400000X0.500000X1.400000X-0.500000X1.400000X0*%
%TD*%
%TA.AperFunction,SMDPad,CuDef*%
%ADD67RoundRect,0.087500X-0.287500X-0.087500X0.287500X-0.087500X0.287500X0.087500X-0.287500X0.087500X0*%
%TD*%
%TA.AperFunction,SMDPad,CuDef*%
%ADD68R,1.000000X1.800000*%
%TD*%
%TA.AperFunction,SMDPad,CuDef*%
%ADD69RoundRect,0.093750X-0.093750X-0.106250X0.093750X-0.106250X0.093750X0.106250X-0.093750X0.106250X0*%
%TD*%
%TA.AperFunction,HeatsinkPad*%
%ADD70R,1.000000X1.600000*%
%TD*%
%TA.AperFunction,SMDPad,CuDef*%
%ADD71RoundRect,0.150000X-0.150000X-0.575000X0.150000X-0.575000X0.150000X0.575000X-0.150000X0.575000X0*%
%TD*%
%TA.AperFunction,SMDPad,CuDef*%
%ADD72RoundRect,0.075000X-0.075000X-0.650000X0.075000X-0.650000X0.075000X0.650000X-0.075000X0.650000X0*%
%TD*%
%TA.AperFunction,ComponentPad*%
%ADD73O,1.000000X2.100000*%
%TD*%
%TA.AperFunction,ComponentPad*%
%ADD74O,1.000000X1.600000*%
%TD*%
%TA.AperFunction,ViaPad*%
%ADD75C,0.600000*%
%TD*%
%TA.AperFunction,ViaPad*%
%ADD76C,0.300000*%
%TD*%
%TA.AperFunction,ViaPad*%
%ADD77C,0.500000*%
%TD*%
%TA.AperFunction,Conductor*%
%ADD78C,0.500000*%
%TD*%
%TA.AperFunction,Conductor*%
%ADD79C,0.250200*%
%TD*%
%TA.AperFunction,Conductor*%
%ADD80C,0.200000*%
%TD*%
%TA.AperFunction,Conductor*%
%ADD81C,1.000000*%
%TD*%
%TA.AperFunction,Conductor*%
%ADD82C,0.100000*%
%TD*%
%TA.AperFunction,Conductor*%
%ADD83C,0.200200*%
%TD*%
%TA.AperFunction,Conductor*%
%ADD84C,0.260000*%
%TD*%
%TA.AperFunction,Conductor*%
%ADD85C,0.350400*%
%TD*%
%TA.AperFunction,Conductor*%
%ADD86C,0.299800*%
%TD*%
%TA.AperFunction,Conductor*%
%ADD87C,0.375600*%
%TD*%
%TA.AperFunction,Conductor*%
%ADD88C,0.180000*%
%TD*%
%TA.AperFunction,Conductor*%
%ADD89C,0.250000*%
%TD*%
G04 APERTURE END LIST*
D10*
%TO.P,J12,1,Pin_1_1*%
%TO.N,VBAT*%
X5000000Y-56000000D03*
D11*
%TO.P,J12,2,Pin_2_2*%
%TO.N,+3V3*%
X7000000Y-56000000D03*
%TD*%
D12*
%TO.P,C24,1*%
%TO.N,3V3_D*%
X35520000Y-14000000D03*
%TO.P,C24,2*%
%TO.N,+3V3*%
X36480000Y-14000000D03*
%TD*%
%TO.P,C16,1*%
%TO.N,+3V3*%
X27520000Y-53000000D03*
%TO.P,C16,2*%
%TO.N,Net-(C16-Pad2)*%
X28480000Y-53000000D03*
%TD*%
%TO.P,C5,1*%
%TO.N,Net-(C5-Pad1)*%
X14520000Y-34000000D03*
%TO.P,C5,2*%
%TO.N,Net-(U13-BTST)*%
X15480000Y-34000000D03*
%TD*%
%TO.P,C15,1*%
%TO.N,+3V3*%
X8520000Y-60000000D03*
%TO.P,C15,2*%
%TO.N,Net-(C14-Pad1)*%
X9480000Y-60000000D03*
%TD*%
%TO.P,C32,1*%
%TO.N,3V3_D*%
X72520000Y-16000000D03*
%TO.P,C32,2*%
%TO.N,+3V3*%
X73480000Y-16000000D03*
%TD*%
%TO.P,C11,1*%
%TO.N,+3V3*%
X11520000Y-48000000D03*
%TO.P,C11,2*%
%TO.N,Net-(C10-Pad1)*%
X12480000Y-48000000D03*
%TD*%
D13*
%TO.P,R21,1*%
%TO.N,HEATER_PWM*%
X77490000Y-76000000D03*
%TO.P,R21,2*%
%TO.N,Net-(Q2-G)*%
X78510000Y-76000000D03*
%TD*%
D12*
%TO.P,C22,1*%
%TO.N,Net-(U1-EN)*%
X13520000Y-14000000D03*
%TO.P,C22,2*%
%TO.N,+3V3*%
X14480000Y-14000000D03*
%TD*%
D14*
%TO.P,C12,1*%
%TO.N,Net-(C12-Pad1)*%
X23050000Y-50000000D03*
%TO.P,C12,2*%
%TO.N,Net-(U14-EN)*%
X24950000Y-50000000D03*
%TD*%
D15*
%TO.P,U17,1,CTG_1*%
%TO.N,unconnected-(U17-CTG-Pad1)*%
X11015000Y-55250000D03*
%TO.P,U17,2,CELL_2*%
%TO.N,VBAT*%
X11015000Y-55750000D03*
%TO.P,U17,3,VDD_3*%
%TO.N,+3V3*%
X11015000Y-56250000D03*
%TO.P,U17,4,GND_4*%
X11015000Y-56750000D03*
%TO.P,U17,5,~{ALERT}_5*%
%TO.N,BATT_ALT*%
X12985000Y-56750000D03*
%TO.P,U17,6,QSTRT_6*%
%TO.N,Net-(U17-QSTRT)*%
X12985000Y-56250000D03*
%TO.P,U17,7,SCL_7*%
%TO.N,I2C_SCL*%
X12985000Y-55750000D03*
%TO.P,U17,8,SDA_8*%
%TO.N,I2C_SDA*%
X12985000Y-55250000D03*
D16*
%TO.P,U17,9,EP_9*%
%TO.N,unconnected-(U17-EP-Pad9)*%
X12000000Y-56000000D03*
%TD*%
D17*
%TO.P,U13,1,VBUS_1*%
%TO.N,VBUS*%
X16037500Y-38750000D03*
%TO.P,U13,2,D+_2*%
%TO.N,unconnected-(U13-D+-Pad2)*%
X16037500Y-39250000D03*
%TO.P,U13,3,D-_3*%
%TO.N,unconnected-(U13-D--Pad3)*%
X16037500Y-39750000D03*
%TO.P,U13,4,STAT_4*%
%TO.N,unconnected-(U13-STAT-Pad4)*%
X16037500Y-40250000D03*
%TO.P,U13,5,SCL_5*%
%TO.N,I2C_SCL*%
X16037500Y-40750000D03*
%TO.P,U13,6,SDA_6*%
%TO.N,I2C_SDA*%
X16037500Y-41250000D03*
D18*
%TO.P,U13,7,~{INT}_7*%
%TO.N,CHG_INT*%
X16750000Y-41962500D03*
%TO.P,U13,8,OTG_8*%
%TO.N,Net-(U13-OTG)*%
X17250000Y-41962500D03*
%TO.P,U13,9,~{CE}_9*%
%TO.N,Net-(U13-~{CE})*%
X17750000Y-41962500D03*
%TO.P,U13,10,ILIM_10*%
%TO.N,unconnected-(U13-ILIM-Pad10)*%
X18250000Y-41962500D03*
%TO.P,U13,11,TS_11*%
%TO.N,unconnected-(U13-TS-Pad11)*%
X18750000Y-41962500D03*
%TO.P,U13,12,~{QON}_12*%
%TO.N,Net-(U13-~{QON})*%
X19250000Y-41962500D03*
D17*
%TO.P,U13,13,BAT_13*%
%TO.N,VBAT*%
X19962500Y-41250000D03*
%TO.P,U13,14,BAT_14*%
X19962500Y-40750000D03*
%TO.P,U13,15,SYS_15*%
%TO.N,Net-(U14-EN)*%
X19962500Y-40250000D03*
%TO.P,U13,16,SYS_16*%
X19962500Y-39750000D03*
%TO.P,U13,17,PGND_17*%
%TO.N,unconnected-(U13-PGND-Pad17)_9*%
X19962500Y-39250000D03*
%TO.P,U13,18,PGND_18*%
%TO.N,unconnected-(U13-PGND-Pad17)_5*%
X19962500Y-38750000D03*
D18*
%TO.P,U13,19,SW_19*%
%TO.N,Net-(C5-Pad1)*%
X19250000Y-38037500D03*
%TO.P,U13,20,SW_20*%
X18750000Y-38037500D03*
%TO.P,U13,21,BTST_21*%
%TO.N,Net-(U13-BTST)*%
X18250000Y-38037500D03*
%TO.P,U13,22,REGN_22*%
%TO.N,Net-(U13-REGN)*%
X17750000Y-38037500D03*
%TO.P,U13,23,PMID_23*%
%TO.N,Net-(U13-PMID)*%
X17250000Y-38037500D03*
%TO.P,U13,24,DSEL_24*%
%TO.N,unconnected-(U13-DSEL-Pad24)*%
X16750000Y-38037500D03*
D19*
%TO.P,U13,25,PGND_25*%
%TO.N,unconnected-(U13-PGND-Pad17)*%
X16900000Y-38900000D03*
%TO.N,unconnected-(U13-PGND-Pad17)_1*%
X16900000Y-40000000D03*
%TO.N,unconnected-(U13-PGND-Pad17)_7*%
X16900000Y-41100000D03*
%TO.N,unconnected-(U13-PGND-Pad17)_6*%
X18000000Y-38900000D03*
%TO.N,unconnected-(U13-PGND-Pad17)_4*%
X18000000Y-40000000D03*
D20*
%TO.N,unconnected-(U13-PGND-Pad17)_3*%
X18000000Y-40000000D03*
D19*
%TO.N,unconnected-(U13-PGND-Pad17)_10*%
X18000000Y-41100000D03*
%TO.N,unconnected-(U13-PGND-Pad17)_12*%
X19100000Y-38900000D03*
%TO.N,unconnected-(U13-PGND-Pad17)_8*%
X19100000Y-40000000D03*
%TO.N,unconnected-(U13-PGND-Pad17)_11*%
X19100000Y-41100000D03*
%TD*%
D21*
%TO.P,L4,1,1_1*%
%TO.N,Net-(U14-L1_9)*%
X24600000Y-34000000D03*
%TO.P,L4,2,2_2*%
%TO.N,Net-(U14-L1_8)*%
X27400000Y-34000000D03*
%TD*%
D12*
%TO.P,C33,1*%
%TO.N,3V3_D*%
X72520000Y-24000000D03*
%TO.P,C33,2*%
%TO.N,+3V3*%
X73480000Y-24000000D03*
%TD*%
%TO.P,C38,1*%
%TO.N,3V3_A*%
X28520000Y-71000000D03*
%TO.P,C38,2*%
%TO.N,+3V3*%
X29480000Y-71000000D03*
%TD*%
D22*
%TO.P,D2,1,VDD_1*%
%TO.N,3V3_D*%
X57550000Y-2350000D03*
%TO.P,D2,2,DOUT_2*%
%TO.N,Net-(D2-DOUT)*%
X57550000Y-5650000D03*
%TO.P,D2,3,VSS_3*%
%TO.N,+3V3*%
X62450000Y-5650000D03*
%TO.P,D2,4,DIN_4*%
%TO.N,Net-(D1-DOUT)*%
X62450000Y-2350000D03*
%TD*%
D12*
%TO.P,C23,1*%
%TO.N,Net-(U1-IO0)*%
X13520000Y-16000000D03*
%TO.P,C23,2*%
%TO.N,+3V3*%
X14480000Y-16000000D03*
%TD*%
D14*
%TO.P,C10,1*%
%TO.N,Net-(C10-Pad1)*%
X11050000Y-50000000D03*
%TO.P,C10,2*%
%TO.N,Net-(U14-EN)*%
X12950000Y-50000000D03*
%TD*%
D13*
%TO.P,R10,1*%
%TO.N,3V3_D*%
X81490000Y-20000000D03*
%TO.P,R10,2*%
%TO.N,Net-(U2-QSPI_SD2)*%
X82510000Y-20000000D03*
%TD*%
D12*
%TO.P,C13,1*%
%TO.N,+3V3*%
X8520000Y-54000000D03*
%TO.P,C13,2*%
%TO.N,Net-(C12-Pad1)*%
X9480000Y-54000000D03*
%TD*%
D23*
%TO.P,J7,1,Pin_1_1*%
%TO.N,Net-(J7-Pin_1)*%
X60000000Y-95000000D03*
D24*
%TO.P,J7,2,Pin_2_2*%
%TO.N,RE_BUS*%
X61250000Y-95000000D03*
%TO.P,J7,3,Pin_3_3*%
%TO.N,CE_BUS*%
X62500000Y-95000000D03*
%TD*%
D25*
%TO.P,U6,1,VDD_1*%
%TO.N,3V3_A*%
X87362000Y-46800000D03*
D26*
%TO.P,U6,2,SCL_2*%
%TO.N,I2C1_SCL*%
X87362000Y-47600000D03*
%TO.P,U6,3,GND_3*%
%TO.N,+3V3*%
X87362000Y-48400000D03*
%TO.P,U6,4,LDR_4*%
%TO.N,unconnected-(U6-LDR-Pad4)*%
X87362000Y-49200000D03*
%TO.P,U6,5,PGND_5*%
%TO.N,unconnected-(U6-PGND-Pad5)*%
X88638000Y-49200000D03*
%TO.P,U6,6,GPIO_6*%
%TO.N,unconnected-(U6-GPIO-Pad6)*%
X88638000Y-48400000D03*
%TO.P,U6,7,INT_7*%
%TO.N,SPEC_INT*%
X88638000Y-47600000D03*
%TO.P,U6,8,SDA_8*%
%TO.N,I2C1_SDA*%
X88638000Y-46800000D03*
%TD*%
D27*
%TO.P,U1,1,GND_1*%
%TO.N,+3V3*%
X16250000Y-12740000D03*
%TO.P,U1,2,3V3_2*%
%TO.N,3V3_D*%
X16250000Y-14010000D03*
%TO.P,U1,3,EN_3*%
%TO.N,Net-(U1-EN)*%
X16250000Y-15280000D03*
%TO.P,U1,4,IO4_4*%
%TO.N,BUZZER*%
X16250000Y-16550000D03*
%TO.P,U1,5,IO5_5*%
%TO.N,I2C_SDA*%
X16250000Y-17820000D03*
%TO.P,U1,6,IO6_6*%
%TO.N,I2C_SCL*%
X16250000Y-19090000D03*
%TO.P,U1,7,IO7_7*%
%TO.N,TFT_DC*%
X16250000Y-20360000D03*
%TO.P,U1,8,IO15_8*%
%TO.N,CHG_INT*%
X16250000Y-21630000D03*
%TO.P,U1,9,IO16_9*%
%TO.N,BATT_ALT*%
X16250000Y-22900000D03*
%TO.P,U1,10,IO17_10*%
%TO.N,PG_3V3*%
X16250000Y-24170000D03*
%TO.P,U1,11,IO18_11*%
%TO.N,unconnected-(U1-IO18-Pad11)*%
X16250000Y-25440000D03*
%TO.P,U1,12,IO8_12*%
%TO.N,TFT_CS*%
X16250000Y-26710000D03*
%TO.P,U1,13,USB_D-_13*%
%TO.N,USB_DM*%
X16250000Y-27980000D03*
%TO.P,U1,14,USB_D+_14*%
%TO.N,USB_DP*%
X16250000Y-29250000D03*
D28*
%TO.P,U1,15,IO3_15*%
%TO.N,LED_DATA*%
X18015000Y-30500000D03*
%TO.P,U1,16,IO46_16*%
%TO.N,unconnected-(U1-IO46-Pad16)*%
X19285000Y-30500000D03*
%TO.P,U1,17,IO9_17*%
%TO.N,TFT_RST*%
X20555000Y-30500000D03*
%TO.P,U1,18,IO10_18*%
%TO.N,TFT_BL*%
X21825000Y-30500000D03*
%TO.P,U1,19,IO11_19*%
%TO.N,SPI0_MOSI*%
X23095000Y-30500000D03*
%TO.P,U1,20,IO12_20*%
%TO.N,SPI0_SCK*%
X24365000Y-30500000D03*
%TO.P,U1,21,IO13_21*%
%TO.N,SPI0_MISO*%
X25635000Y-30500000D03*
%TO.P,U1,22,IO14_22*%
%TO.N,SD_CS*%
X26905000Y-30500000D03*
%TO.P,U1,23,IO21_23*%
%TO.N,unconnected-(U1-IO21-Pad23)*%
X28175000Y-30500000D03*
%TO.P,U1,24,IO47_24*%
%TO.N,unconnected-(U1-IO47-Pad24)*%
X29445000Y-30500000D03*
%TO.P,U1,25,IO48_25*%
%TO.N,unconnected-(U1-IO48-Pad25)*%
X30715000Y-30500000D03*
%TO.P,U1,26,IO45_26*%
%TO.N,unconnected-(U1-IO45-Pad26)*%
X31985000Y-30500000D03*
D27*
%TO.P,U1,27,IO0_27*%
%TO.N,Net-(U1-IO0)*%
X33750000Y-29250000D03*
%TO.P,U1,28,IO35_28*%
%TO.N,unconnected-(U1-IO35-Pad28)*%
X33750000Y-27980000D03*
%TO.P,U1,29,IO36_29*%
%TO.N,unconnected-(U1-IO36-Pad29)*%
X33750000Y-26710000D03*
%TO.P,U1,30,IO37_30*%
%TO.N,unconnected-(U1-IO37-Pad30)*%
X33750000Y-25440000D03*
%TO.P,U1,31,IO38_31*%
%TO.N,unconnected-(U1-IO38-Pad31)*%
X33750000Y-24170000D03*
%TO.P,U1,32,IO39_32*%
%TO.N,unconnected-(U1-IO39-Pad32)*%
X33750000Y-22900000D03*
%TO.P,U1,33,IO40_33*%
%TO.N,unconnected-(U1-IO40-Pad33)*%
X33750000Y-21630000D03*
%TO.P,U1,34,IO41_34*%
%TO.N,unconnected-(U1-IO41-Pad34)*%
X33750000Y-20360000D03*
%TO.P,U1,35,IO42_35*%
%TO.N,unconnected-(U1-IO42-Pad35)*%
X33750000Y-19090000D03*
%TO.P,U1,36,RXD0_36*%
%TO.N,unconnected-(U1-RXD0-Pad36)*%
X33750000Y-17820000D03*
%TO.P,U1,37,TXD0_37*%
%TO.N,unconnected-(U1-TXD0-Pad37)*%
X33750000Y-16550000D03*
%TO.P,U1,38,IO2_38*%
%TO.N,ESP_UART_RX*%
X33750000Y-15280000D03*
%TO.P,U1,39,IO1_39*%
%TO.N,ESP_UART_TX*%
X33750000Y-14010000D03*
%TO.P,U1,40,GND_40*%
%TO.N,+3V3*%
X33750000Y-12740000D03*
D29*
%TO.P,U1,41,GND_41*%
X22100000Y-19760000D03*
X22100000Y-21160000D03*
X22800000Y-19060000D03*
X22800000Y-20460000D03*
X22800000Y-21860000D03*
X23500000Y-19760000D03*
D30*
X23500000Y-20460000D03*
D29*
X23500000Y-21160000D03*
X24200000Y-19060000D03*
X24200000Y-20460000D03*
X24200000Y-21860000D03*
X24900000Y-19760000D03*
X24900000Y-21160000D03*
%TD*%
D12*
%TO.P,C39,1*%
%TO.N,3V3_D*%
X40520000Y-59000000D03*
%TO.P,C39,2*%
%TO.N,+3V3*%
X41480000Y-59000000D03*
%TD*%
D23*
%TO.P,J6,1,Pin_1_1*%
%TO.N,Net-(J6-Pin_1)*%
X52000000Y-95000000D03*
D24*
%TO.P,J6,2,Pin_2_2*%
%TO.N,RE_BUS*%
X53250000Y-95000000D03*
%TO.P,J6,3,Pin_3_3*%
%TO.N,CE_BUS*%
X54500000Y-95000000D03*
%TD*%
D31*
%TO.P,Q2,1,G_1*%
%TO.N,Net-(Q2-G)*%
X79062500Y-77050000D03*
%TO.P,Q2,2,S_2*%
%TO.N,+3V3*%
X79062500Y-78950000D03*
%TO.P,Q2,3,D_3*%
X80937500Y-78000000D03*
%TD*%
D12*
%TO.P,C56,1*%
%TO.N,Net-(U9-VDD)*%
X71520000Y-33000000D03*
%TO.P,C56,2*%
%TO.N,+3V3*%
X72480000Y-33000000D03*
%TD*%
D14*
%TO.P,C6,1*%
%TO.N,Net-(C6-Pad1)*%
X33050000Y-38000000D03*
%TO.P,C6,2*%
%TO.N,Net-(U14-VOUT_5)*%
X34950000Y-38000000D03*
%TD*%
D22*
%TO.P,D1,1,VDD_1*%
%TO.N,3V3_D*%
X50550000Y-2350000D03*
%TO.P,D1,2,DOUT_2*%
%TO.N,Net-(D1-DOUT)*%
X50550000Y-5650000D03*
%TO.P,D1,3,VSS_3*%
%TO.N,+3V3*%
X55450000Y-5650000D03*
%TO.P,D1,4,DIN_4*%
%TO.N,LED_DATA*%
X55450000Y-2350000D03*
%TD*%
D12*
%TO.P,C58,1*%
%TO.N,3V3_D*%
X71520000Y-50000000D03*
%TO.P,C58,2*%
%TO.N,+3V3*%
X72480000Y-50000000D03*
%TD*%
D13*
%TO.P,R18,1*%
%TO.N,3V3_D*%
X83490000Y-44000000D03*
%TO.P,R18,2*%
%TO.N,Net-(LED1-A)*%
X84510000Y-44000000D03*
%TD*%
D21*
%TO.P,L3,1,1_1*%
%TO.N,Net-(U14-EN)*%
X16600000Y-34000000D03*
%TO.P,L3,2,2_2*%
%TO.N,Net-(C5-Pad1)*%
X19400000Y-34000000D03*
%TD*%
D14*
%TO.P,C8,1*%
%TO.N,Net-(C8-Pad1)*%
X33050000Y-43000000D03*
%TO.P,C8,2*%
%TO.N,Net-(U14-VOUT_5)*%
X34950000Y-43000000D03*
%TD*%
D12*
%TO.P,C51,1*%
%TO.N,Net-(U5-DVDD_REG_1V8)*%
X53520000Y-69000000D03*
%TO.P,C51,2*%
%TO.N,+3V3*%
X54480000Y-69000000D03*
%TD*%
%TO.P,C55,1*%
%TO.N,3V3_D*%
X57520000Y-33000000D03*
%TO.P,C55,2*%
%TO.N,+3V3*%
X58480000Y-33000000D03*
%TD*%
D13*
%TO.P,R1,1*%
%TO.N,Net-(J1-CC1)*%
X11490000Y-42000000D03*
%TO.P,R1,2*%
%TO.N,+3V3*%
X12510000Y-42000000D03*
%TD*%
D12*
%TO.P,C30,1*%
%TO.N,Net-(U2-VREG_VOUT)*%
X70520000Y-14000000D03*
%TO.P,C30,2*%
%TO.N,+3V3*%
X71480000Y-14000000D03*
%TD*%
%TO.P,C29,1*%
%TO.N,3V3_D*%
X58520000Y-26000000D03*
%TO.P,C29,2*%
%TO.N,+3V3*%
X59480000Y-26000000D03*
%TD*%
D13*
%TO.P,R6,1*%
%TO.N,+3V3*%
X14490000Y-58000000D03*
%TO.P,R6,2*%
%TO.N,Net-(U17-QSTRT)*%
X15510000Y-58000000D03*
%TD*%
D31*
%TO.P,Q4,1,G_1*%
%TO.N,Net-(Q4-G)*%
X87062500Y-35050000D03*
%TO.P,Q4,2,S_2*%
%TO.N,+3V3*%
X87062500Y-36950000D03*
%TO.P,Q4,3,D_3*%
%TO.N,Net-(LED2-K)*%
X88937500Y-36000000D03*
%TD*%
D32*
%TO.P,U2,1,IOVDD_1*%
%TO.N,3V3_D*%
X61562500Y-17400000D03*
%TO.P,U2,2,GPIO0_2*%
%TO.N,ESP_UART_TX*%
X61562500Y-17800000D03*
%TO.P,U2,3,GPIO1_3*%
%TO.N,ESP_UART_RX*%
X61562500Y-18200000D03*
%TO.P,U2,4,GPIO2_4*%
%TO.N,AD5941_1_CS*%
X61562500Y-18600000D03*
%TO.P,U2,5,GPIO3_5*%
%TO.N,AD5941_1_RST*%
X61562500Y-19000000D03*
%TO.P,U2,6,GPIO4_6*%
%TO.N,AD5941_2_CS*%
X61562500Y-19400000D03*
%TO.P,U2,7,GPIO5_7*%
%TO.N,AD5941_2_RST*%
X61562500Y-19800000D03*
%TO.P,U2,8,GPIO6_8*%
%TO.N,SPI1_SCK*%
X61562500Y-20200000D03*
%TO.P,U2,9,GPIO7_9*%
%TO.N,SPI1_MOSI*%
X61562500Y-20600000D03*
%TO.P,U2,10,IOVDD_10*%
%TO.N,3V3_D*%
X61562500Y-21000000D03*
%TO.P,U2,11,GPIO8_11*%
%TO.N,SPI1_MISO*%
X61562500Y-21400000D03*
%TO.P,U2,12,GPIO9_12*%
%TO.N,AD5941_1_INT*%
X61562500Y-21800000D03*
%TO.P,U2,13,GPIO10_13*%
%TO.N,AD5941_2_INT*%
X61562500Y-22200000D03*
%TO.P,U2,14,GPIO11_14*%
%TO.N,I2C1_SDA*%
X61562500Y-22600000D03*
D33*
%TO.P,U2,15,GPIO12_15*%
%TO.N,I2C1_SCL*%
X62400000Y-23437500D03*
%TO.P,U2,16,GPIO13_16*%
%TO.N,HEATER_PWM*%
X62800000Y-23437500D03*
%TO.P,U2,17,GPIO14_17*%
%TO.N,UV_LED_EN*%
X63200000Y-23437500D03*
%TO.P,U2,18,GPIO15_18*%
%TO.N,BLUE_LED_EN*%
X63600000Y-23437500D03*
%TO.P,U2,19,TESTEN_19*%
%TO.N,unconnected-(U2-TESTEN-Pad19)*%
X64000000Y-23437500D03*
%TO.P,U2,20,XIN_20*%
%TO.N,Net-(U2-XIN)*%
X64400000Y-23437500D03*
%TO.P,U2,21,XOUT_21*%
%TO.N,Net-(U2-XOUT)*%
X64800000Y-23437500D03*
%TO.P,U2,22,IOVDD_22*%
%TO.N,3V3_D*%
X65200000Y-23437500D03*
%TO.P,U2,23,DVDD_23*%
%TO.N,Net-(U2-VREG_VOUT)*%
X65600000Y-23437500D03*
%TO.P,U2,24,SWCLK_24*%
%TO.N,Net-(J13-Pin_4)*%
X66000000Y-23437500D03*
%TO.P,U2,25,SWDIO_25*%
%TO.N,Net-(J13-Pin_2)*%
X66400000Y-23437500D03*
%TO.P,U2,26,RUN_26*%
%TO.N,Net-(U2-RUN)*%
X66800000Y-23437500D03*
%TO.P,U2,27,GPIO16_27*%
%TO.N,WHITE_LED_EN*%
X67200000Y-23437500D03*
%TO.P,U2,28,GPIO17_28*%
%TO.N,SPEC_INT*%
X67600000Y-23437500D03*
D32*
%TO.P,U2,29,GPIO18_29*%
%TO.N,unconnected-(U2-GPIO18-Pad29)*%
X68437500Y-22600000D03*
%TO.P,U2,30,GPIO19_30*%
%TO.N,unconnected-(U2-GPIO19-Pad30)*%
X68437500Y-22200000D03*
%TO.P,U2,31,GPIO20_31*%
%TO.N,unconnected-(U2-GPIO20-Pad31)*%
X68437500Y-21800000D03*
%TO.P,U2,32,GPIO21_32*%
%TO.N,unconnected-(U2-GPIO21-Pad32)*%
X68437500Y-21400000D03*
%TO.P,U2,33,IOVDD_33*%
%TO.N,3V3_D*%
X68437500Y-21000000D03*
%TO.P,U2,34,GPIO22_34*%
%TO.N,unconnected-(U2-GPIO22-Pad34)*%
X68437500Y-20600000D03*
%TO.P,U2,35,GPIO23_35*%
%TO.N,unconnected-(U2-GPIO23-Pad35)*%
X68437500Y-20200000D03*
%TO.P,U2,36,GPIO24_36*%
%TO.N,unconnected-(U2-GPIO24-Pad36)*%
X68437500Y-19800000D03*
%TO.P,U2,37,GPIO25_37*%
%TO.N,unconnected-(U2-GPIO25-Pad37)*%
X68437500Y-19400000D03*
%TO.P,U2,38,GPIO26/ADC0_38*%
%TO.N,unconnected-(U2-GPIO26{slash}ADC0-Pad38)*%
X68437500Y-19000000D03*
%TO.P,U2,39,GPIO27/ADC1_39*%
%TO.N,unconnected-(U2-GPIO27{slash}ADC1-Pad39)*%
X68437500Y-18600000D03*
%TO.P,U2,40,GPIO28/ADC2_40*%
%TO.N,unconnected-(U2-GPIO28{slash}ADC2-Pad40)*%
X68437500Y-18200000D03*
%TO.P,U2,41,GPIO29/ADC3_41*%
%TO.N,unconnected-(U2-GPIO29{slash}ADC3-Pad41)*%
X68437500Y-17800000D03*
%TO.P,U2,42,IOVDD_42*%
%TO.N,3V3_D*%
X68437500Y-17400000D03*
D33*
%TO.P,U2,43,ADC_AVDD_43*%
X67600000Y-16562500D03*
%TO.P,U2,44,VREG_VIN_44*%
X67200000Y-16562500D03*
%TO.P,U2,45,VREG_VOUT_45*%
%TO.N,Net-(U2-VREG_VOUT)*%
X66800000Y-16562500D03*
%TO.P,U2,46,USB_DM_46*%
%TO.N,unconnected-(U2-USB_DM-Pad46)*%
X66400000Y-16562500D03*
%TO.P,U2,47,USB_DP_47*%
%TO.N,unconnected-(U2-USB_DP-Pad47)*%
X66000000Y-16562500D03*
%TO.P,U2,48,USB_VDD_48*%
%TO.N,3V3_D*%
X65600000Y-16562500D03*
%TO.P,U2,49,IOVDD_49*%
X65200000Y-16562500D03*
%TO.P,U2,50,DVDD_50*%
%TO.N,Net-(U2-VREG_VOUT)*%
X64800000Y-16562500D03*
%TO.P,U2,51,QSPI_SD3_51*%
%TO.N,Net-(U2-QSPI_SD3)*%
X64400000Y-16562500D03*
%TO.P,U2,52,QSPI_SCLK_52*%
%TO.N,Net-(U2-QSPI_SCLK)*%
X64000000Y-16562500D03*
%TO.P,U2,53,QSPI_SD0_53*%
%TO.N,Net-(U2-QSPI_SD0)*%
X63600000Y-16562500D03*
%TO.P,U2,54,QSPI_SD2_54*%
%TO.N,Net-(U2-QSPI_SD2)*%
X63200000Y-16562500D03*
%TO.P,U2,55,QSPI_SD1_55*%
%TO.N,Net-(U2-QSPI_SD1)*%
X62800000Y-16562500D03*
%TO.P,U2,56,~{QSPI_SS}_56*%
%TO.N,Net-(U2-~{QSPI_SS})*%
X62400000Y-16562500D03*
D34*
%TO.P,U2,57,GND_57*%
%TO.N,+3V3*%
X65000000Y-20000000D03*
%TD*%
D13*
%TO.P,R8,1*%
%TO.N,Net-(U1-IO0)*%
X3490000Y-22000000D03*
%TO.P,R8,2*%
%TO.N,3V3_D*%
X4510000Y-22000000D03*
%TD*%
D12*
%TO.P,C28,1*%
%TO.N,3V3_D*%
X58520000Y-14000000D03*
%TO.P,C28,2*%
%TO.N,+3V3*%
X59480000Y-14000000D03*
%TD*%
%TO.P,C26,1*%
%TO.N,3V3_D*%
X35520000Y-17000000D03*
%TO.P,C26,2*%
%TO.N,+3V3*%
X36480000Y-17000000D03*
%TD*%
%TO.P,C48,1*%
%TO.N,Net-(U5-VBIAS_CAP)*%
X53520000Y-61000000D03*
%TO.P,C48,2*%
%TO.N,+3V3*%
X54480000Y-61000000D03*
%TD*%
D35*
%TO.P,J13,1,Pin_1_1*%
%TO.N,3V3_D*%
X71460000Y-12635000D03*
%TO.P,J13,2,Pin_2_2*%
%TO.N,Net-(J13-Pin_2)*%
X72730000Y-12635000D03*
%TO.P,J13,3,Pin_3_3*%
%TO.N,+3V3*%
X74000000Y-12635000D03*
%TO.P,J13,4,Pin_4_4*%
%TO.N,Net-(J13-Pin_4)*%
X75270000Y-12635000D03*
%TO.P,J13,5,Pin_5_5*%
%TO.N,unconnected-(J13-Pin_5-Pad5)*%
X76540000Y-12635000D03*
%TO.P,J13,6*%
%TO.N,N/C*%
X76540000Y-11365000D03*
%TO.P,J13,7*%
X75270000Y-11365000D03*
%TO.P,J13,8*%
X74000000Y-11365000D03*
%TO.P,J13,9*%
X72730000Y-11365000D03*
%TO.P,J13,10*%
X71460000Y-11365000D03*
%TD*%
D36*
%TO.P,U4,1,RC0_2_1*%
%TO.N,unconnected-(U4-RC0_2-Pad1)*%
X31555000Y-62250000D03*
%TO.P,U4,2,RC0_1_2*%
%TO.N,unconnected-(U4-RC0_1-Pad2)*%
X31555000Y-62750000D03*
%TO.P,U4,3,RC0_0_3*%
%TO.N,unconnected-(U4-RC0_0-Pad3)*%
X31555000Y-63250000D03*
%TO.P,U4,4,VREF_2V5_4*%
%TO.N,Net-(U4-VREF_2V5)*%
X31555000Y-63750000D03*
%TO.P,U4,5,AVDD_REG_5*%
%TO.N,unconnected-(U4-AVDD_REG-Pad5)*%
X31555000Y-64250000D03*
%TO.P,U4,6,DVDD_6*%
%TO.N,3V3_D*%
X31555000Y-64750000D03*
%TO.P,U4,7,DNC_7*%
%TO.N,unconnected-(U4-DNC-Pad7)*%
X31555000Y-65250000D03*
%TO.P,U4,8,VBIAS0_8*%
%TO.N,unconnected-(U4-VBIAS0-Pad8)*%
X31555000Y-65750000D03*
%TO.P,U4,9,VZERO0_9*%
%TO.N,unconnected-(U4-VZERO0-Pad9)*%
X31555000Y-66250000D03*
%TO.P,U4,10,DNC_10*%
%TO.N,unconnected-(U4-DNC-Pad10)*%
X31555000Y-66750000D03*
%TO.P,U4,11,XTALI_11*%
%TO.N,unconnected-(U4-XTALI-Pad11)*%
X31555000Y-67250000D03*
%TO.P,U4,12,XTALO_12*%
%TO.N,unconnected-(U4-XTALO-Pad12)*%
X31555000Y-67750000D03*
D37*
%TO.P,U4,13,DGND_13*%
%TO.N,+3V3*%
X32250000Y-68445000D03*
%TO.P,U4,14,DVDD_REG_1V8_14*%
%TO.N,Net-(U4-DVDD_REG_1V8)*%
X32750000Y-68445000D03*
%TO.P,U4,15,~{CS}_15*%
%TO.N,AD5941_1_CS*%
X33250000Y-68445000D03*
%TO.P,U4,16,SCLK_16*%
%TO.N,SPI1_SCK*%
X33750000Y-68445000D03*
%TO.P,U4,17,MOSI_17*%
%TO.N,SPI1_MOSI*%
X34250000Y-68445000D03*
%TO.P,U4,18,MISO_18*%
%TO.N,SPI1_MISO*%
X34750000Y-68445000D03*
%TO.P,U4,19,GPIO0_19*%
%TO.N,AD5941_1_INT*%
X35250000Y-68445000D03*
%TO.P,U4,20,GPIO1_20*%
%TO.N,unconnected-(U4-GPIO1-Pad20)*%
X35750000Y-68445000D03*
%TO.P,U4,21,GPIO2_21*%
%TO.N,unconnected-(U4-GPIO2-Pad21)*%
X36250000Y-68445000D03*
%TO.P,U4,22,~{RESET}_22*%
%TO.N,AD5941_1_RST*%
X36750000Y-68445000D03*
%TO.P,U4,23,DGND_23*%
%TO.N,+3V3*%
X37250000Y-68445000D03*
%TO.P,U4,24,DNC_24*%
%TO.N,unconnected-(U4-DNC-Pad24)*%
X37750000Y-68445000D03*
D36*
%TO.P,U4,25,DGND_25*%
%TO.N,+3V3*%
X38445000Y-67750000D03*
%TO.P,U4,26,IOVDD_26*%
%TO.N,3V3_D*%
X38445000Y-67250000D03*
%TO.P,U4,27,AFE3_27*%
%TO.N,unconnected-(U4-AFE3-Pad27)*%
X38445000Y-66750000D03*
%TO.P,U4,28,AFE4_28*%
%TO.N,unconnected-(U4-AFE4-Pad28)*%
X38445000Y-66250000D03*
%TO.P,U4,29,AGND_29*%
%TO.N,+3V3*%
X38445000Y-65750000D03*
%TO.P,U4,30,AVDD_30*%
%TO.N,3V3_A*%
X38445000Y-65250000D03*
%TO.P,U4,31,VBIAS_CAP_31*%
%TO.N,Net-(U4-VBIAS_CAP)*%
X38445000Y-64750000D03*
%TO.P,U4,32,RCAL0_32*%
%TO.N,Net-(U4-RCAL0)*%
X38445000Y-64250000D03*
%TO.P,U4,33,RCAL1_33*%
%TO.N,Net-(U4-RCAL1)*%
X38445000Y-63750000D03*
%TO.P,U4,34,AFE1_34*%
%TO.N,unconnected-(U4-AFE1-Pad34)*%
X38445000Y-63250000D03*
%TO.P,U4,35,AFE2_35*%
%TO.N,unconnected-(U4-AFE2-Pad35)*%
X38445000Y-62750000D03*
%TO.P,U4,36,AIN3/BUF_VREF1V8_36*%
%TO.N,Net-(J5-Pin_1)*%
X38445000Y-62250000D03*
D37*
%TO.P,U4,37,AIN2_37*%
%TO.N,Net-(J4-Pin_1)*%
X37750000Y-61555000D03*
%TO.P,U4,38,AIN1_38*%
%TO.N,Net-(J3-Pin_1)*%
X37250000Y-61555000D03*
%TO.P,U4,39,AIN0_39*%
%TO.N,Net-(J2-Pin_1)*%
X36750000Y-61555000D03*
%TO.P,U4,40,AIN4/LPF0_40*%
%TO.N,unconnected-(U4-AIN4{slash}LPF0-Pad40)*%
X36250000Y-61555000D03*
%TO.P,U4,41,AVDD_41*%
%TO.N,3V3_A*%
X35750000Y-61555000D03*
%TO.P,U4,42,AGND_42*%
%TO.N,+3V3*%
X35250000Y-61555000D03*
%TO.P,U4,43,VREF_1V8_43*%
%TO.N,Net-(U4-VREF_1V8)*%
X34750000Y-61555000D03*
%TO.P,U4,44,AGND_REF_44*%
%TO.N,unconnected-(U4-AGND_REF-Pad44)*%
X34250000Y-61555000D03*
%TO.P,U4,45,SE0_45*%
%TO.N,unconnected-(U4-DE0-Pad46)*%
X33750000Y-61555000D03*
%TO.P,U4,46,DE0_46*%
X33250000Y-61555000D03*
%TO.P,U4,47,CE0_47*%
%TO.N,CE_BUS*%
X32750000Y-61555000D03*
%TO.P,U4,48,RE0_48*%
%TO.N,RE_BUS*%
X32250000Y-61555000D03*
D38*
%TO.P,U4,49,EXP_49*%
%TO.N,+3V3*%
X35000000Y-65000000D03*
%TD*%
D39*
%TO.P,LED2,1,K_1*%
%TO.N,Net-(LED2-K)*%
X87062500Y-42000000D03*
%TO.P,LED2,2,A_2*%
%TO.N,Net-(LED2-A)*%
X88937500Y-42000000D03*
%TD*%
D40*
%TO.P,J11,1,Pin_1_1*%
%TO.N,SD_CS*%
X88895000Y-52550000D03*
%TO.P,J11,2,Pin_2_2*%
%TO.N,SPI0_MOSI*%
X89995000Y-52550000D03*
%TO.P,J11,3,Pin_3_3*%
%TO.N,+3V3*%
X91095000Y-52550000D03*
%TO.P,J11,4,Pin_4_4*%
%TO.N,3V3_D*%
X92195000Y-52550000D03*
%TO.P,J11,5,Pin_5_5*%
%TO.N,SPI0_SCK*%
X93295000Y-52550000D03*
%TO.P,J11,6,Pin_6_6*%
%TO.N,+3V3*%
X94395000Y-52550000D03*
%TO.P,J11,7,Pin_7_7*%
%TO.N,SPI0_MISO*%
X95495000Y-52550000D03*
D41*
%TO.P,J11,8*%
%TO.N,N/C*%
X96545000Y-52550000D03*
D42*
%TO.P,J11,9*%
X86260000Y-58700000D03*
%TO.P,J11,10*%
X86260000Y-62400000D03*
D43*
%TO.P,J11,SH*%
X86435000Y-52675000D03*
D44*
X89760000Y-63375000D03*
X95730000Y-63375000D03*
D45*
X97755000Y-52900000D03*
%TD*%
D46*
%TO.P,SW1,1,1_1*%
%TO.N,Net-(U1-EN)*%
X2850000Y-16100000D03*
X9150000Y-16100000D03*
%TO.P,SW1,2,2_2*%
%TO.N,+3V3*%
X2850000Y-19900000D03*
X9150000Y-19900000D03*
%TD*%
D12*
%TO.P,C60,1*%
%TO.N,3V3_D*%
X52520000Y-9000000D03*
%TO.P,C60,2*%
%TO.N,+3V3*%
X53480000Y-9000000D03*
%TD*%
D13*
%TO.P,R4,1*%
%TO.N,Net-(U13-OTG)*%
X35490000Y-45000000D03*
%TO.P,R4,2*%
%TO.N,+3V3*%
X36510000Y-45000000D03*
%TD*%
%TO.P,R24,1*%
%TO.N,BUZZER*%
X81490000Y-16000000D03*
%TO.P,R24,2*%
%TO.N,Net-(Q1-G)*%
X82510000Y-16000000D03*
%TD*%
D47*
%TO.P,FB1,1*%
%TO.N,Net-(C16-Pad2)*%
X25515000Y-50000000D03*
%TO.P,FB1,2*%
%TO.N,+3V3*%
X26485000Y-50000000D03*
%TD*%
D48*
%TO.P,U7,1,SD0_1*%
%TO.N,MUX_SDA0*%
X48062500Y-43750000D03*
%TO.P,U7,2,SC0_2*%
%TO.N,MUX_SCL0*%
X48062500Y-44250000D03*
%TO.P,U7,3,SD1_3*%
%TO.N,MUX_SDA1*%
X48062500Y-44750000D03*
%TO.P,U7,4,SC1_4*%
%TO.N,MUX_SCL1*%
X48062500Y-45250000D03*
%TO.P,U7,5,SD2_5*%
%TO.N,MUX_SDA2*%
X48062500Y-45750000D03*
%TO.P,U7,6,SC2_6*%
%TO.N,MUX_SCL2*%
X48062500Y-46250000D03*
D49*
%TO.P,U7,7,SD3_7*%
%TO.N,MUX_SDA3*%
X48750000Y-46937500D03*
%TO.P,U7,8,SC3_8*%
%TO.N,MUX_SCL3*%
X49250000Y-46937500D03*
%TO.P,U7,9,GND_9*%
%TO.N,+3V3*%
X49750000Y-46937500D03*
%TO.P,U7,10,SD4_10*%
%TO.N,unconnected-(U7-SD4-Pad10)*%
X50250000Y-46937500D03*
%TO.P,U7,11,SC4_11*%
%TO.N,unconnected-(U7-SC4-Pad11)*%
X50750000Y-46937500D03*
%TO.P,U7,12,SD5_12*%
%TO.N,unconnected-(U7-SD5-Pad12)*%
X51250000Y-46937500D03*
D48*
%TO.P,U7,13,SC5_13*%
%TO.N,unconnected-(U7-SC5-Pad13)*%
X51937500Y-46250000D03*
%TO.P,U7,14,SD6_14*%
%TO.N,unconnected-(U7-SD6-Pad14)*%
X51937500Y-45750000D03*
%TO.P,U7,15,SC6_15*%
%TO.N,unconnected-(U7-SC6-Pad15)*%
X51937500Y-45250000D03*
%TO.P,U7,16,SD7_16*%
%TO.N,unconnected-(U7-SD7-Pad16)*%
X51937500Y-44750000D03*
%TO.P,U7,17,SC7_17*%
%TO.N,unconnected-(U7-SC7-Pad17)*%
X51937500Y-44250000D03*
%TO.P,U7,18,A2_18*%
%TO.N,+3V3*%
X51937500Y-43750000D03*
D49*
%TO.P,U7,19,SCL_19*%
%TO.N,I2C_SCL*%
X51250000Y-43062500D03*
%TO.P,U7,20,SDA_20*%
%TO.N,I2C_SDA*%
X50750000Y-43062500D03*
%TO.P,U7,21,VCC_21*%
%TO.N,3V3_D*%
X50250000Y-43062500D03*
%TO.P,U7,22,A0_22*%
%TO.N,+3V3*%
X49750000Y-43062500D03*
%TO.P,U7,23,A1_23*%
X49250000Y-43062500D03*
%TO.P,U7,24,~{RESET}_24*%
%TO.N,3V3_D*%
X48750000Y-43062500D03*
D50*
%TO.P,U7,25,1EP_25*%
%TO.N,unconnected-(U7-1EP-Pad25)*%
X50000000Y-45000000D03*
%TD*%
D12*
%TO.P,C17,1*%
%TO.N,3V3_A*%
X31520000Y-53000000D03*
%TO.P,C17,2*%
%TO.N,Net-(U15-OUT)*%
X32480000Y-53000000D03*
%TD*%
%TO.P,C36,1*%
%TO.N,3V3_D*%
X81520000Y-18000000D03*
%TO.P,C36,2*%
%TO.N,+3V3*%
X82480000Y-18000000D03*
%TD*%
D23*
%TO.P,J4,1,Pin_1_1*%
%TO.N,Net-(J4-Pin_1)*%
X32000000Y-95000000D03*
D24*
%TO.P,J4,2,Pin_2_2*%
%TO.N,RE_BUS*%
X33250000Y-95000000D03*
%TO.P,J4,3,Pin_3_3*%
%TO.N,CE_BUS*%
X34500000Y-95000000D03*
%TD*%
D13*
%TO.P,R12,1*%
%TO.N,3V3_D*%
X72490000Y-20000000D03*
%TO.P,R12,2*%
%TO.N,Net-(U2-QSPI_SD2)*%
X73510000Y-20000000D03*
%TD*%
%TO.P,R5,1*%
%TO.N,Net-(U14-EN)*%
X12490000Y-36000000D03*
%TO.P,R5,2*%
%TO.N,Net-(U13-~{QON})*%
X13510000Y-36000000D03*
%TD*%
D12*
%TO.P,C41,1*%
%TO.N,Net-(U4-VREF_2V5)*%
X28520000Y-61000000D03*
%TO.P,C41,2*%
%TO.N,+3V3*%
X29480000Y-61000000D03*
%TD*%
D13*
%TO.P,R13,1*%
%TO.N,Net-(U4-RCAL0)*%
X34490000Y-73000000D03*
%TO.P,R13,2*%
%TO.N,Net-(U4-RCAL1)*%
X35510000Y-73000000D03*
%TD*%
D12*
%TO.P,C46,1*%
%TO.N,3V3_A*%
X53520000Y-71000000D03*
%TO.P,C46,2*%
%TO.N,+3V3*%
X54480000Y-71000000D03*
%TD*%
%TO.P,C31,1*%
%TO.N,Net-(U2-VREG_VOUT)*%
X70520000Y-26000000D03*
%TO.P,C31,2*%
%TO.N,+3V3*%
X71480000Y-26000000D03*
%TD*%
D13*
%TO.P,R20,1*%
%TO.N,3V3_D*%
X91490000Y-44000000D03*
%TO.P,R20,2*%
%TO.N,Net-(LED3-A)*%
X92510000Y-44000000D03*
%TD*%
D14*
%TO.P,C27,1*%
%TO.N,3V3_D*%
X35050000Y-21000000D03*
%TO.P,C27,2*%
%TO.N,+3V3*%
X36950000Y-21000000D03*
%TD*%
D51*
%TO.P,U15,1,IN_1*%
%TO.N,+3V3*%
X28862500Y-49050000D03*
%TO.P,U15,2,GND_2*%
X28862500Y-50000000D03*
%TO.P,U15,3,EN_3*%
X28862500Y-50950000D03*
%TO.P,U15,4,NC_4*%
%TO.N,unconnected-(U15-NC-Pad4)*%
X31137500Y-50950000D03*
%TO.P,U15,5,OUT_5*%
%TO.N,Net-(U15-OUT)*%
X31137500Y-49050000D03*
%TD*%
D13*
%TO.P,R14,1*%
%TO.N,Net-(U5-RCAL0)*%
X59490000Y-73000000D03*
%TO.P,R14,2*%
%TO.N,Net-(U5-RCAL1)*%
X60510000Y-73000000D03*
%TD*%
D52*
%TO.P,J10,1,Pin_1_1*%
%TO.N,+3V3*%
X91750000Y-20150000D03*
%TO.P,J10,2,Pin_2_2*%
%TO.N,3V3_D*%
X92250000Y-20150000D03*
%TO.P,J10,3,Pin_3_3*%
%TO.N,TFT_CS*%
X92750000Y-20150000D03*
%TO.P,J10,4,Pin_4_4*%
%TO.N,TFT_DC*%
X93250000Y-20150000D03*
%TO.P,J10,5,Pin_5_5*%
%TO.N,TFT_RST*%
X93750000Y-20150000D03*
%TO.P,J10,6,Pin_6_6*%
%TO.N,SPI0_MOSI*%
X94250000Y-20150000D03*
%TO.P,J10,7,Pin_7_7*%
%TO.N,SPI0_SCK*%
X94750000Y-20150000D03*
%TO.P,J10,8,Pin_8_8*%
%TO.N,TFT_BL*%
X95250000Y-20150000D03*
%TO.P,J10,9,Pin_9_9*%
%TO.N,+3V3*%
X95750000Y-20150000D03*
%TO.P,J10,10,Pin_10_10*%
X96250000Y-20150000D03*
%TO.P,J10,11,Pin_11_11*%
X96750000Y-20150000D03*
%TO.P,J10,12,Pin_12_12*%
X97250000Y-20150000D03*
%TO.P,J10,13,Pin_13_13*%
X97750000Y-20150000D03*
%TO.P,J10,14,Pin_14_14*%
X98250000Y-20150000D03*
D53*
%TO.P,J10,MP*%
%TO.N,N/C*%
X89850000Y-23400000D03*
X100150000Y-23400000D03*
%TD*%
D14*
%TO.P,C21,1*%
%TO.N,VBAT*%
X11050000Y-40000000D03*
%TO.P,C21,2*%
%TO.N,+3V3*%
X12950000Y-40000000D03*
%TD*%
D12*
%TO.P,C49,1*%
%TO.N,3V3_D*%
X65520000Y-71000000D03*
%TO.P,C49,2*%
%TO.N,+3V3*%
X66480000Y-71000000D03*
%TD*%
D14*
%TO.P,C19,1*%
%TO.N,+3V3*%
X27050000Y-48000000D03*
%TO.P,C19,2*%
X28950000Y-48000000D03*
%TD*%
D12*
%TO.P,C59,1*%
%TO.N,3V3_D*%
X86520000Y-76000000D03*
%TO.P,C59,2*%
%TO.N,+3V3*%
X87480000Y-76000000D03*
%TD*%
D13*
%TO.P,R3,1*%
%TO.N,Net-(U13-~{CE})*%
X33490000Y-45000000D03*
%TO.P,R3,2*%
%TO.N,+3V3*%
X34510000Y-45000000D03*
%TD*%
D31*
%TO.P,Q3,1,G_1*%
%TO.N,Net-(Q3-G)*%
X83062500Y-35050000D03*
%TO.P,Q3,2,S_2*%
%TO.N,+3V3*%
X83062500Y-36950000D03*
%TO.P,Q3,3,D_3*%
%TO.N,Net-(LED1-K)*%
X84937500Y-36000000D03*
%TD*%
D54*
%TO.P,U3,1,~{CS}_1*%
%TO.N,Net-(U2-~{QSPI_SS})*%
X75525000Y-18095000D03*
%TO.P,U3,2,DO/IO_{1}_2*%
%TO.N,Net-(U2-QSPI_SD1)*%
X75525000Y-19365000D03*
%TO.P,U3,3,~{WP}/IO_{2}_3*%
%TO.N,Net-(U2-QSPI_SD2)*%
X75525000Y-20635000D03*
%TO.P,U3,4,GND_4*%
%TO.N,+3V3*%
X75525000Y-21905000D03*
%TO.P,U3,5,DI/IO_{0}_5*%
%TO.N,Net-(U2-QSPI_SD0)*%
X80475000Y-21905000D03*
%TO.P,U3,6,CLK_6*%
%TO.N,Net-(U2-QSPI_SCLK)*%
X80475000Y-20635000D03*
%TO.P,U3,7,~{HOLD}/~{RESET}/IO_{3}_7*%
%TO.N,Net-(U2-QSPI_SD3)*%
X80475000Y-19365000D03*
%TO.P,U3,8,VCC_8*%
%TO.N,3V3_D*%
X80475000Y-18095000D03*
%TD*%
D39*
%TO.P,LED3,1,K_1*%
%TO.N,Net-(LED3-K)*%
X91062500Y-42000000D03*
%TO.P,LED3,2,A_2*%
%TO.N,Net-(LED3-A)*%
X92937500Y-42000000D03*
%TD*%
D13*
%TO.P,R7,1*%
%TO.N,Net-(U1-EN)*%
X3490000Y-16000000D03*
%TO.P,R7,2*%
%TO.N,3V3_D*%
X4510000Y-16000000D03*
%TD*%
D12*
%TO.P,C7,1*%
%TO.N,+3V3*%
X33520000Y-40000000D03*
%TO.P,C7,2*%
%TO.N,Net-(C6-Pad1)*%
X34480000Y-40000000D03*
%TD*%
%TO.P,C53,1*%
%TO.N,3V3_A*%
X90520000Y-48000000D03*
%TO.P,C53,2*%
%TO.N,+3V3*%
X91480000Y-48000000D03*
%TD*%
%TO.P,C43,1*%
%TO.N,Net-(U4-VBIAS_CAP)*%
X28520000Y-69000000D03*
%TO.P,C43,2*%
%TO.N,+3V3*%
X29480000Y-69000000D03*
%TD*%
%TO.P,C47,1*%
%TO.N,3V3_A*%
X65520000Y-59000000D03*
%TO.P,C47,2*%
%TO.N,+3V3*%
X66480000Y-59000000D03*
%TD*%
%TO.P,C44,1*%
%TO.N,Net-(U4-DVDD_REG_1V8)*%
X40520000Y-69000000D03*
%TO.P,C44,2*%
%TO.N,+3V3*%
X41480000Y-69000000D03*
%TD*%
D55*
%TO.P,BZ1,1,+_1*%
%TO.N,3V3_D*%
X87000000Y-7000000D03*
D56*
%TO.P,BZ1,2,-_2*%
%TO.N,Net-(BZ1--)*%
X94600000Y-7000000D03*
%TD*%
D12*
%TO.P,C35,1*%
%TO.N,Net-(U2-XOUT)*%
X54520000Y-19000000D03*
%TO.P,C35,2*%
%TO.N,+3V3*%
X55480000Y-19000000D03*
%TD*%
%TO.P,C34,1*%
%TO.N,Net-(U2-XIN)*%
X54520000Y-15000000D03*
%TO.P,C34,2*%
%TO.N,+3V3*%
X55480000Y-15000000D03*
%TD*%
D23*
%TO.P,J3,1,Pin_1_1*%
%TO.N,Net-(J3-Pin_1)*%
X24000000Y-95000000D03*
D24*
%TO.P,J3,2,Pin_2_2*%
%TO.N,RE_BUS*%
X25250000Y-95000000D03*
%TO.P,J3,3,Pin_3_3*%
%TO.N,CE_BUS*%
X26500000Y-95000000D03*
%TD*%
D57*
%TO.P,U11,1,SDO/SA0_1*%
%TO.N,unconnected-(U11-SDO{slash}SA0-Pad1)*%
X72840000Y-47250000D03*
%TO.P,U11,2,SDX_2*%
%TO.N,unconnected-(U11-SDX-Pad2)*%
X72840000Y-47750000D03*
%TO.P,U11,3,SCX_3*%
%TO.N,unconnected-(U11-SCX-Pad3)*%
X72840000Y-48250000D03*
%TO.P,U11,4,INT1_4*%
%TO.N,unconnected-(U11-INT1-Pad4)*%
X72840000Y-48750000D03*
D58*
%TO.P,U11,5,VDDIO_5*%
%TO.N,unconnected-(U11-VDDIO-Pad5)*%
X73500000Y-48910000D03*
%TO.P,U11,6,GND_6*%
%TO.N,+3V3*%
X74000000Y-48910000D03*
%TO.P,U11,7,GND_7*%
X74500000Y-48910000D03*
D57*
%TO.P,U11,8,VDD_8*%
%TO.N,Net-(U11-VDD)*%
X75160000Y-48750000D03*
%TO.P,U11,9,INT2_9*%
%TO.N,unconnected-(U11-INT2-Pad9)*%
X75160000Y-48250000D03*
%TO.P,U11,10,OCS_AUX_10*%
%TO.N,unconnected-(U11-OCS_AUX-Pad10)*%
X75160000Y-47750000D03*
%TO.P,U11,11,SDO_AUX_11*%
%TO.N,unconnected-(U11-SDO_AUX-Pad11)*%
X75160000Y-47250000D03*
D58*
%TO.P,U11,12,CS_12*%
%TO.N,unconnected-(U11-CS-Pad12)*%
X74500000Y-47090000D03*
%TO.P,U11,13,SCL_13*%
%TO.N,MUX_SCL3*%
X74000000Y-47090000D03*
%TO.P,U11,14,SDA_14*%
%TO.N,MUX_SDA3*%
X73500000Y-47090000D03*
%TD*%
D23*
%TO.P,J5,1,Pin_1_1*%
%TO.N,Net-(J5-Pin_1)*%
X40000000Y-95000000D03*
D24*
%TO.P,J5,2,Pin_2_2*%
%TO.N,RE_BUS*%
X41250000Y-95000000D03*
%TO.P,J5,3,Pin_3_3*%
%TO.N,CE_BUS*%
X42500000Y-95000000D03*
%TD*%
D12*
%TO.P,C9,1*%
%TO.N,+3V3*%
X25520000Y-38000000D03*
%TO.P,C9,2*%
%TO.N,Net-(C8-Pad1)*%
X26480000Y-38000000D03*
%TD*%
D59*
%TO.P,U10,1,32KHZ_1*%
%TO.N,unconnected-(U10-32KHZ-Pad1)*%
X55350000Y-43555000D03*
%TO.P,U10,2,VCC_2*%
%TO.N,3V3_D*%
X55350000Y-44825000D03*
%TO.P,U10,3,~{INT}/SQW_3*%
%TO.N,unconnected-(U10-~{INT}{slash}SQW-Pad3)*%
X55350000Y-46095000D03*
%TO.P,U10,4,~{RST}_4*%
%TO.N,unconnected-(U10-~{RST}-Pad4)*%
X55350000Y-47365000D03*
%TO.P,U10,5,GND_5*%
%TO.N,+3V3*%
X55350000Y-48635000D03*
%TO.P,U10,6,GND_6*%
X55350000Y-49905000D03*
%TO.P,U10,7,GND_7*%
X55350000Y-51175000D03*
%TO.P,U10,8,GND_8*%
X55350000Y-52445000D03*
%TO.P,U10,9,GND_9*%
X64650000Y-52445000D03*
%TO.P,U10,10,GND_10*%
X64650000Y-51175000D03*
%TO.P,U10,11,GND_11*%
X64650000Y-49905000D03*
%TO.P,U10,12,GND_12*%
X64650000Y-48635000D03*
%TO.P,U10,13,GND_13*%
X64650000Y-47365000D03*
%TO.P,U10,14,VBAT_14*%
%TO.N,3V3_D*%
X64650000Y-46095000D03*
%TO.P,U10,15,SDA_15*%
%TO.N,MUX_SDA2*%
X64650000Y-44825000D03*
%TO.P,U10,16,SCL_16*%
%TO.N,MUX_SCL2*%
X64650000Y-43555000D03*
%TD*%
D31*
%TO.P,Q1,1,G_1*%
%TO.N,Net-(Q1-G)*%
X86062500Y-15050000D03*
%TO.P,Q1,2,S_2*%
%TO.N,+3V3*%
X86062500Y-16950000D03*
%TO.P,Q1,3,D_3*%
%TO.N,Net-(BZ1--)*%
X87937500Y-16000000D03*
%TD*%
D12*
%TO.P,C52,1*%
%TO.N,Net-(U5-VREF_1V8)*%
X65520000Y-69000000D03*
%TO.P,C52,2*%
%TO.N,+3V3*%
X66480000Y-69000000D03*
%TD*%
%TO.P,C50,1*%
%TO.N,Net-(U5-VREF_2V5)*%
X65520000Y-61000000D03*
%TO.P,C50,2*%
%TO.N,+3V3*%
X66480000Y-61000000D03*
%TD*%
D31*
%TO.P,Q5,1,G_1*%
%TO.N,Net-(Q5-G)*%
X91062500Y-35050000D03*
%TO.P,Q5,2,S_2*%
%TO.N,+3V3*%
X91062500Y-36950000D03*
%TO.P,Q5,3,D_3*%
%TO.N,Net-(LED3-K)*%
X92937500Y-36000000D03*
%TD*%
D23*
%TO.P,J2,1,Pin_1_1*%
%TO.N,Net-(J2-Pin_1)*%
X16000000Y-95000000D03*
D24*
%TO.P,J2,2,Pin_2_2*%
%TO.N,RE_BUS*%
X17250000Y-95000000D03*
%TO.P,J2,3,Pin_3_3*%
%TO.N,CE_BUS*%
X18500000Y-95000000D03*
%TD*%
D46*
%TO.P,SW2,1,1_1*%
%TO.N,Net-(U1-IO0)*%
X2850000Y-22100000D03*
X9150000Y-22100000D03*
%TO.P,SW2,2,2_2*%
%TO.N,+3V3*%
X2850000Y-25900000D03*
X9150000Y-25900000D03*
%TD*%
D12*
%TO.P,C62,1*%
%TO.N,3V3_D*%
X66520000Y-9000000D03*
%TO.P,C62,2*%
%TO.N,+3V3*%
X67480000Y-9000000D03*
%TD*%
%TO.P,C63,1*%
%TO.N,3V3_D*%
X73520000Y-9000000D03*
%TO.P,C63,2*%
%TO.N,+3V3*%
X74480000Y-9000000D03*
%TD*%
%TO.P,C57,1*%
%TO.N,Net-(U11-VDD)*%
X57520000Y-50000000D03*
%TO.P,C57,2*%
%TO.N,+3V3*%
X58480000Y-50000000D03*
%TD*%
D14*
%TO.P,C20,1*%
%TO.N,Net-(U16-VO)*%
X23050000Y-53000000D03*
%TO.P,C20,2*%
%TO.N,3V3_D*%
X24950000Y-53000000D03*
%TD*%
D12*
%TO.P,C37,1*%
%TO.N,3V3_A*%
X28520000Y-59000000D03*
%TO.P,C37,2*%
%TO.N,+3V3*%
X29480000Y-59000000D03*
%TD*%
D14*
%TO.P,C3,1*%
%TO.N,+3V3*%
X25050000Y-43000000D03*
%TO.P,C3,2*%
%TO.N,VBAT*%
X26950000Y-43000000D03*
%TD*%
D12*
%TO.P,C54,1*%
%TO.N,3V3_D*%
X47520000Y-43000000D03*
%TO.P,C54,2*%
%TO.N,+3V3*%
X48480000Y-43000000D03*
%TD*%
D13*
%TO.P,R9,1*%
%TO.N,3V3_D*%
X58490000Y-26000000D03*
%TO.P,R9,2*%
%TO.N,Net-(U2-RUN)*%
X59510000Y-26000000D03*
%TD*%
D60*
%TO.P,U9,1,SCL/VZ_1*%
%TO.N,MUX_SCL1*%
X71460000Y-35000000D03*
D61*
%TO.P,U9,2,SDA/PWM_2*%
%TO.N,MUX_SDA1*%
X74000000Y-37540000D03*
%TO.P,U9,3,VDD_3*%
%TO.N,Net-(U9-VDD)*%
X76540000Y-35000000D03*
%TO.P,U9,4,VSS_4*%
%TO.N,+3V3*%
X74000000Y-32460000D03*
%TD*%
D62*
%TO.P,U14,1,VINA_1*%
%TO.N,Net-(U14-EN)*%
X28600000Y-38500000D03*
%TO.P,U14,2,GND_2*%
%TO.N,+3V3*%
X28600000Y-39000000D03*
%TO.P,U14,3,FB_3*%
%TO.N,unconnected-(U14-FB-Pad3)*%
X28600000Y-39500000D03*
%TO.P,U14,4,VOUT_4_4*%
%TO.N,+3V3*%
X28600000Y-40000000D03*
%TO.P,U14,5,VOUT_5_5*%
%TO.N,Net-(U14-VOUT_5)*%
X28600000Y-40500000D03*
%TO.P,U14,6,L2_6_6*%
%TO.N,Net-(U14-L2_6)*%
X28600000Y-41000000D03*
%TO.P,U14,7,L2_7_7*%
X28600000Y-41500000D03*
%TO.P,U14,8,L1_8_8*%
%TO.N,Net-(U14-L1_8)*%
X31400000Y-41500000D03*
%TO.P,U14,9,L1_9_9*%
X31400000Y-41000000D03*
%TO.P,U14,10,VIN_10_10*%
%TO.N,Net-(U14-EN)*%
X31400000Y-40500000D03*
%TO.P,U14,11,VIN_11_11*%
X31400000Y-40000000D03*
%TO.P,U14,12,EN_12*%
X31400000Y-39500000D03*
%TO.P,U14,13,PS/SYNC_13*%
%TO.N,+3V3*%
X31400000Y-39000000D03*
%TO.P,U14,14,PG_14*%
%TO.N,PG_3V3*%
X31400000Y-38500000D03*
D63*
%TO.P,U14,15,PGND_15*%
%TO.N,+3V3*%
X30000000Y-40000000D03*
D64*
%TO.P,U14,16*%
%TO.N,N/C*%
X29500000Y-39000000D03*
%TO.P,U14,17*%
X30000000Y-39000000D03*
%TO.P,U14,18*%
X30500000Y-39000000D03*
%TO.P,U14,19*%
X29500000Y-39500000D03*
%TO.P,U14,20*%
X30000000Y-39500000D03*
%TO.P,U14,21*%
X30500000Y-39500000D03*
%TO.P,U14,22*%
X29500000Y-40000000D03*
%TO.P,U14,23*%
X30000000Y-40000000D03*
%TO.P,U14,24*%
X30500000Y-40000000D03*
%TO.P,U14,25*%
X29500000Y-40500000D03*
%TO.P,U14,26*%
X30000000Y-40500000D03*
%TO.P,U14,27*%
X30500000Y-40500000D03*
%TO.P,U14,28*%
X29500000Y-41000000D03*
%TO.P,U14,29*%
X30000000Y-41000000D03*
%TO.P,U14,30*%
X30500000Y-41000000D03*
%TD*%
D22*
%TO.P,D4,1,VDD_1*%
%TO.N,3V3_D*%
X71550000Y-2350000D03*
%TO.P,D4,2,DOUT_2*%
%TO.N,unconnected-(D4-DOUT-Pad2)*%
X71550000Y-5650000D03*
%TO.P,D4,3,VSS_3*%
%TO.N,+3V3*%
X76450000Y-5650000D03*
%TO.P,D4,4,DIN_4*%
%TO.N,Net-(D3-DOUT)*%
X76450000Y-2350000D03*
%TD*%
D13*
%TO.P,R16,1*%
%TO.N,Net-(Q4-G)*%
X87490000Y-34000000D03*
%TO.P,R16,2*%
%TO.N,BLUE_LED_EN*%
X88510000Y-34000000D03*
%TD*%
D14*
%TO.P,C14,1*%
%TO.N,Net-(C14-Pad1)*%
X8050000Y-58000000D03*
%TO.P,C14,2*%
%TO.N,Net-(U14-EN)*%
X9950000Y-58000000D03*
%TD*%
D13*
%TO.P,R2,1*%
%TO.N,Net-(J1-CC2)*%
X11490000Y-46000000D03*
%TO.P,R2,2*%
%TO.N,+3V3*%
X12510000Y-46000000D03*
%TD*%
D65*
%TO.P,U16,1,GND_1*%
%TO.N,+3V3*%
X14850000Y-47700000D03*
%TO.P,U16,2,VO_2*%
%TO.N,Net-(U16-VO)*%
X14850000Y-50000000D03*
D66*
X21150000Y-50000000D03*
D65*
%TO.P,U16,3,VI_3*%
%TO.N,+3V3*%
X14850000Y-52300000D03*
%TD*%
D12*
%TO.P,C42,1*%
%TO.N,Net-(U4-VREF_1V8)*%
X40520000Y-61000000D03*
%TO.P,C42,2*%
%TO.N,+3V3*%
X41480000Y-61000000D03*
%TD*%
D13*
%TO.P,R11,1*%
%TO.N,3V3_D*%
X81490000Y-22000000D03*
%TO.P,R11,2*%
%TO.N,Net-(U2-QSPI_SD3)*%
X82510000Y-22000000D03*
%TD*%
%TO.P,R22,1*%
%TO.N,Net-(Q2-G)*%
X81490000Y-76000000D03*
%TO.P,R22,2*%
%TO.N,+3V3*%
X82510000Y-76000000D03*
%TD*%
D12*
%TO.P,C40,1*%
%TO.N,3V3_D*%
X40520000Y-71000000D03*
%TO.P,C40,2*%
%TO.N,+3V3*%
X41480000Y-71000000D03*
%TD*%
D23*
%TO.P,J8,1,Pin_1_1*%
%TO.N,Net-(J8-Pin_1)*%
X68000000Y-95000000D03*
D24*
%TO.P,J8,2,Pin_2_2*%
%TO.N,RE_BUS*%
X69250000Y-95000000D03*
%TO.P,J8,3,Pin_3_3*%
%TO.N,CE_BUS*%
X70500000Y-95000000D03*
%TD*%
D39*
%TO.P,LED1,1,K_1*%
%TO.N,Net-(LED1-K)*%
X83062500Y-42000000D03*
%TO.P,LED1,2,A_2*%
%TO.N,Net-(LED1-A)*%
X84937500Y-42000000D03*
%TD*%
D13*
%TO.P,R19,1*%
%TO.N,3V3_D*%
X87490000Y-44000000D03*
%TO.P,R19,2*%
%TO.N,Net-(LED2-A)*%
X88510000Y-44000000D03*
%TD*%
D67*
%TO.P,U8,1,NC_1*%
%TO.N,unconnected-(U8-NC-Pad1)*%
X58800000Y-32600000D03*
%TO.P,U8,2,SCL_2*%
%TO.N,MUX_SCL0*%
X58800000Y-33400000D03*
%TO.P,U8,3,SDA_3*%
%TO.N,MUX_SDA0*%
X58800000Y-34200000D03*
%TO.P,U8,4,PGND_4*%
%TO.N,unconnected-(U8-PGND-Pad4)*%
X58800000Y-35000000D03*
%TO.P,U8,5,NC_5*%
%TO.N,unconnected-(U8-NC-Pad5)*%
X58800000Y-35800000D03*
%TO.P,U8,6,NC_6*%
%TO.N,unconnected-(U8-NC-Pad6)*%
X58800000Y-36600000D03*
%TO.P,U8,7,NC_7*%
%TO.N,unconnected-(U8-NC-Pad7)*%
X58800000Y-37400000D03*
%TO.P,U8,8,NC_8*%
%TO.N,unconnected-(U8-NC-Pad8)*%
X61200000Y-37400000D03*
%TO.P,U8,9,VLED+_9*%
%TO.N,3V3_D*%
X61200000Y-36600000D03*
%TO.P,U8,10,VLED+_10*%
X61200000Y-35800000D03*
%TO.P,U8,11,VDD_11*%
X61200000Y-35000000D03*
%TO.P,U8,12,GND_12*%
%TO.N,+3V3*%
X61200000Y-34200000D03*
%TO.P,U8,13,~{INT}_13*%
%TO.N,unconnected-(U8-~{INT}-Pad13)*%
X61200000Y-33400000D03*
%TO.P,U8,14,NC_14*%
%TO.N,unconnected-(U8-NC-Pad14)*%
X61200000Y-32600000D03*
%TD*%
D13*
%TO.P,R17,1*%
%TO.N,Net-(Q5-G)*%
X91490000Y-34000000D03*
%TO.P,R17,2*%
%TO.N,WHITE_LED_EN*%
X92510000Y-34000000D03*
%TD*%
D36*
%TO.P,U5,1,RC0_2_1*%
%TO.N,unconnected-(U5-RC0_2-Pad1)*%
X56555000Y-62250000D03*
%TO.P,U5,2,RC0_1_2*%
%TO.N,unconnected-(U5-RC0_1-Pad2)*%
X56555000Y-62750000D03*
%TO.P,U5,3,RC0_0_3*%
%TO.N,unconnected-(U5-RC0_0-Pad3)*%
X56555000Y-63250000D03*
%TO.P,U5,4,VREF_2V5_4*%
%TO.N,Net-(U5-VREF_2V5)*%
X56555000Y-63750000D03*
%TO.P,U5,5,AVDD_REG_5*%
%TO.N,unconnected-(U5-AVDD_REG-Pad5)*%
X56555000Y-64250000D03*
%TO.P,U5,6,DVDD_6*%
%TO.N,3V3_D*%
X56555000Y-64750000D03*
%TO.P,U5,7,DNC_7*%
%TO.N,unconnected-(U5-DNC-Pad7)*%
X56555000Y-65250000D03*
%TO.P,U5,8,VBIAS0_8*%
%TO.N,unconnected-(U5-VBIAS0-Pad8)*%
X56555000Y-65750000D03*
%TO.P,U5,9,VZERO0_9*%
%TO.N,unconnected-(U5-VZERO0-Pad9)*%
X56555000Y-66250000D03*
%TO.P,U5,10,DNC_10*%
%TO.N,unconnected-(U5-DNC-Pad10)*%
X56555000Y-66750000D03*
%TO.P,U5,11,XTALI_11*%
%TO.N,unconnected-(U5-XTALI-Pad11)*%
X56555000Y-67250000D03*
%TO.P,U5,12,XTALO_12*%
%TO.N,unconnected-(U5-XTALO-Pad12)*%
X56555000Y-67750000D03*
D37*
%TO.P,U5,13,DGND_13*%
%TO.N,+3V3*%
X57250000Y-68445000D03*
%TO.P,U5,14,DVDD_REG_1V8_14*%
%TO.N,Net-(U5-DVDD_REG_1V8)*%
X57750000Y-68445000D03*
%TO.P,U5,15,~{CS}_15*%
%TO.N,AD5941_2_CS*%
X58250000Y-68445000D03*
%TO.P,U5,16,SCLK_16*%
%TO.N,SPI1_SCK*%
X58750000Y-68445000D03*
%TO.P,U5,17,MOSI_17*%
%TO.N,SPI1_MOSI*%
X59250000Y-68445000D03*
%TO.P,U5,18,MISO_18*%
%TO.N,SPI1_MISO*%
X59750000Y-68445000D03*
%TO.P,U5,19,GPIO0_19*%
%TO.N,AD5941_2_INT*%
X60250000Y-68445000D03*
%TO.P,U5,20,GPIO1_20*%
%TO.N,unconnected-(U5-GPIO1-Pad20)*%
X60750000Y-68445000D03*
%TO.P,U5,21,GPIO2_21*%
%TO.N,unconnected-(U5-GPIO2-Pad21)*%
X61250000Y-68445000D03*
%TO.P,U5,22,~{RESET}_22*%
%TO.N,AD5941_2_RST*%
X61750000Y-68445000D03*
%TO.P,U5,23,DGND_23*%
%TO.N,+3V3*%
X62250000Y-68445000D03*
%TO.P,U5,24,DNC_24*%
%TO.N,unconnected-(U5-DNC-Pad24)*%
X62750000Y-68445000D03*
D36*
%TO.P,U5,25,DGND_25*%
%TO.N,+3V3*%
X63445000Y-67750000D03*
%TO.P,U5,26,IOVDD_26*%
%TO.N,3V3_D*%
X63445000Y-67250000D03*
%TO.P,U5,27,AFE3_27*%
%TO.N,unconnected-(U5-AFE3-Pad27)*%
X63445000Y-66750000D03*
%TO.P,U5,28,AFE4_28*%
%TO.N,unconnected-(U5-AFE4-Pad28)*%
X63445000Y-66250000D03*
%TO.P,U5,29,AGND_29*%
%TO.N,+3V3*%
X63445000Y-65750000D03*
%TO.P,U5,30,AVDD_30*%
%TO.N,3V3_A*%
X63445000Y-65250000D03*
%TO.P,U5,31,VBIAS_CAP_31*%
%TO.N,Net-(U5-VBIAS_CAP)*%
X63445000Y-64750000D03*
%TO.P,U5,32,RCAL0_32*%
%TO.N,Net-(U5-RCAL0)*%
X63445000Y-64250000D03*
%TO.P,U5,33,RCAL1_33*%
%TO.N,Net-(U5-RCAL1)*%
X63445000Y-63750000D03*
%TO.P,U5,34,AFE1_34*%
%TO.N,unconnected-(U5-AFE1-Pad34)*%
X63445000Y-63250000D03*
%TO.P,U5,35,AFE2_35*%
%TO.N,unconnected-(U5-AFE2-Pad35)*%
X63445000Y-62750000D03*
%TO.P,U5,36,AIN3/BUF_VREF1V8_36*%
%TO.N,Net-(J9-Pin_1)*%
X63445000Y-62250000D03*
D37*
%TO.P,U5,37,AIN2_37*%
%TO.N,Net-(J8-Pin_1)*%
X62750000Y-61555000D03*
%TO.P,U5,38,AIN1_38*%
%TO.N,Net-(J7-Pin_1)*%
X62250000Y-61555000D03*
%TO.P,U5,39,AIN0_39*%
%TO.N,Net-(J6-Pin_1)*%
X61750000Y-61555000D03*
%TO.P,U5,40,AIN4/LPF0_40*%
%TO.N,unconnected-(U5-AIN4{slash}LPF0-Pad40)*%
X61250000Y-61555000D03*
%TO.P,U5,41,AVDD_41*%
%TO.N,3V3_A*%
X60750000Y-61555000D03*
%TO.P,U5,42,AGND_42*%
%TO.N,+3V3*%
X60250000Y-61555000D03*
%TO.P,U5,43,VREF_1V8_43*%
%TO.N,Net-(U5-VREF_1V8)*%
X59750000Y-61555000D03*
%TO.P,U5,44,AGND_REF_44*%
%TO.N,unconnected-(U5-AGND_REF-Pad44)*%
X59250000Y-61555000D03*
%TO.P,U5,45,SE0_45*%
%TO.N,unconnected-(U5-DE0-Pad46)*%
X58750000Y-61555000D03*
%TO.P,U5,46,DE0_46*%
X58250000Y-61555000D03*
%TO.P,U5,47,CE0_47*%
%TO.N,CE_BUS*%
X57750000Y-61555000D03*
%TO.P,U5,48,RE0_48*%
%TO.N,RE_BUS*%
X57250000Y-61555000D03*
D38*
%TO.P,U5,49,EXP_49*%
%TO.N,+3V3*%
X60000000Y-65000000D03*
%TD*%
D12*
%TO.P,C25,1*%
%TO.N,3V3_D*%
X13520000Y-18000000D03*
%TO.P,C25,2*%
%TO.N,+3V3*%
X14480000Y-18000000D03*
%TD*%
%TO.P,C18,1*%
%TO.N,+3V3*%
X31520000Y-48000000D03*
%TO.P,C18,2*%
X32480000Y-48000000D03*
%TD*%
D22*
%TO.P,D3,1,VDD_1*%
%TO.N,3V3_D*%
X64550000Y-2350000D03*
%TO.P,D3,2,DOUT_2*%
%TO.N,Net-(D3-DOUT)*%
X64550000Y-5650000D03*
%TO.P,D3,3,VSS_3*%
%TO.N,+3V3*%
X69450000Y-5650000D03*
%TO.P,D3,4,DIN_4*%
%TO.N,Net-(D2-DOUT)*%
X69450000Y-2350000D03*
%TD*%
D13*
%TO.P,R15,1*%
%TO.N,Net-(Q3-G)*%
X83490000Y-34000000D03*
%TO.P,R15,2*%
%TO.N,UV_LED_EN*%
X84510000Y-34000000D03*
%TD*%
D12*
%TO.P,C45,1*%
%TO.N,3V3_D*%
X53520000Y-59000000D03*
%TO.P,C45,2*%
%TO.N,+3V3*%
X54480000Y-59000000D03*
%TD*%
%TO.P,C4,1*%
%TO.N,+3V3*%
X22520000Y-38000000D03*
%TO.P,C4,2*%
%TO.N,Net-(U13-REGN)*%
X23480000Y-38000000D03*
%TD*%
D68*
%TO.P,Y1,1,1_1*%
%TO.N,Net-(U2-XIN)*%
X58250000Y-17000000D03*
%TO.P,Y1,2,2_2*%
%TO.N,Net-(U2-XOUT)*%
X55750000Y-17000000D03*
%TD*%
D12*
%TO.P,C61,1*%
%TO.N,3V3_D*%
X59520000Y-9000000D03*
%TO.P,C61,2*%
%TO.N,+3V3*%
X60480000Y-9000000D03*
%TD*%
D23*
%TO.P,J9,1,Pin_1_1*%
%TO.N,Net-(J9-Pin_1)*%
X76000000Y-95000000D03*
D24*
%TO.P,J9,2,Pin_2_2*%
%TO.N,RE_BUS*%
X77250000Y-95000000D03*
%TO.P,J9,3,Pin_3_3*%
%TO.N,CE_BUS*%
X78500000Y-95000000D03*
%TD*%
D12*
%TO.P,C2,1*%
%TO.N,+3V3*%
X11520000Y-44000000D03*
%TO.P,C2,2*%
%TO.N,Net-(U13-PMID)*%
X12480000Y-44000000D03*
%TD*%
D69*
%TO.P,U12,1,SCL_1*%
%TO.N,I2C1_SCL*%
X84112500Y-77350000D03*
%TO.P,U12,2,GND_2*%
%TO.N,+3V3*%
X84112500Y-78000000D03*
%TO.P,U12,3,ALERT_3*%
%TO.N,TEMP_ALERT*%
X84112500Y-78650000D03*
%TO.P,U12,4,ADD0_4*%
%TO.N,+3V3*%
X85887500Y-78650000D03*
%TO.P,U12,5,V+_5*%
%TO.N,3V3_A*%
X85887500Y-78000000D03*
%TO.P,U12,6,SDA_6*%
%TO.N,I2C1_SDA*%
X85887500Y-77350000D03*
D70*
%TO.P,U12,7*%
%TO.N,N/C*%
X85000000Y-78000000D03*
%TD*%
D71*
%TO.P,J1,A1,GND_A1*%
%TO.N,+3V3*%
X-1750000Y-39955000D03*
%TO.P,J1,A4,VBUS_A4*%
%TO.N,VBUS*%
X-950000Y-39955000D03*
D72*
%TO.P,J1,A5,CC1_A5*%
%TO.N,Net-(J1-CC1)*%
X250000Y-39955000D03*
%TO.P,J1,A6,D+_A6*%
%TO.N,USB_DP*%
X1250000Y-39955000D03*
%TO.P,J1,A7,D-_A7*%
%TO.N,USB_DM*%
X1750000Y-39955000D03*
%TO.P,J1,A8*%
%TO.N,N/C*%
X2750000Y-39955000D03*
D71*
%TO.P,J1,A9,VBUS_A9*%
%TO.N,VBUS*%
X3950000Y-39955000D03*
%TO.P,J1,A12,GND_A12*%
%TO.N,+3V3*%
X4750000Y-39955000D03*
%TO.P,J1,B1,GND_B1*%
X4750000Y-39955000D03*
%TO.P,J1,B4,VBUS_B4*%
%TO.N,VBUS*%
X3950000Y-39955000D03*
D72*
%TO.P,J1,B5,CC2_B5*%
%TO.N,Net-(J1-CC2)*%
X3250000Y-39955000D03*
%TO.P,J1,B6,D+_B6*%
%TO.N,USB_DP*%
X2250000Y-39955000D03*
%TO.P,J1,B7,D-_B7*%
%TO.N,USB_DM*%
X750000Y-39955000D03*
%TO.P,J1,B8*%
%TO.N,N/C*%
X-250000Y-39955000D03*
D71*
%TO.P,J1,B9,VBUS_B9*%
%TO.N,VBUS*%
X-950000Y-39955000D03*
%TO.P,J1,B12,GND_B12*%
%TO.N,+3V3*%
X-1750000Y-39955000D03*
D73*
%TO.P,J1,SH,SHIELD_SH*%
X-2820000Y-40870000D03*
D74*
X-2820000Y-45050000D03*
D73*
X5820000Y-40870000D03*
D74*
X5820000Y-45050000D03*
%TD*%
D14*
%TO.P,C1,1*%
%TO.N,VBUS*%
X12050000Y-38000000D03*
%TO.P,C1,2*%
X13950000Y-38000000D03*
%TD*%
D75*
%TO.N,VBAT*%
X21860800Y-43569000D03*
D76*
%TO.N,+3V3*%
X91062500Y-37582100D03*
X83297900Y-17880300D03*
X35888300Y-21649300D03*
X74356700Y-16541900D03*
X73569000Y-13351800D03*
X39970400Y-69863300D03*
X66542100Y-71624000D03*
X15078500Y-18079600D03*
X11676900Y-57806200D03*
X15191600Y-12725000D03*
X91979700Y-21123900D03*
X22685900Y-43504400D03*
X10305400Y-26407600D03*
X26901400Y-53000000D03*
X86190500Y-17695500D03*
X91480000Y-47380000D03*
X59480000Y-14644800D03*
X37113800Y-14118100D03*
X74265000Y-48279900D03*
X98500000Y-98500000D03*
X57647200Y-14758000D03*
X96180100Y-18943700D03*
X80506800Y-76250000D03*
X41480000Y-61781500D03*
X10315000Y-20169800D03*
X29811700Y-61987700D03*
X37338800Y-69565500D03*
X74079100Y-8015000D03*
X9147600Y-44418700D03*
X98000000Y-98500000D03*
X63098000Y-20239300D03*
X62290700Y-34004600D03*
D75*
%TO.N,3V3_D*%
X30607100Y-65243700D03*
X74019100Y-9712200D03*
X39553600Y-60969200D03*
X17686000Y-14668700D03*
X73036300Y-14360500D03*
X25950700Y-53000000D03*
X35481700Y-19230400D03*
D76*
%TO.N,HEATER_PWM*%
X77515400Y-75373700D03*
X62325400Y-26385500D03*
%TO.N,Net-(U1-EN)*%
X10302000Y-16268800D03*
X13520000Y-14651800D03*
X14779300Y-14861500D03*
%TO.N,Net-(C12-Pad1)*%
X10346800Y-53343700D03*
X22532800Y-51654100D03*
%TO.N,Net-(U14-EN)*%
X17905900Y-35438600D03*
X20861400Y-40037600D03*
X23937100Y-50368700D03*
X16428900Y-50674200D03*
X12653000Y-35214700D03*
X28600000Y-38058800D03*
X32042900Y-40037300D03*
%TO.N,BATT_ALT*%
X15198200Y-22914700D03*
X12985000Y-57198100D03*
%TO.N,I2C_SCL*%
X15274200Y-40215400D03*
X13668900Y-55491600D03*
X51705200Y-42906100D03*
X15173800Y-19880200D03*
%TO.N,I2C_SDA*%
X16009500Y-41780800D03*
X50010400Y-42183200D03*
X17312900Y-17820000D03*
X13426000Y-54809000D03*
%TO.N,CHG_INT*%
X16450800Y-42755700D03*
X17329100Y-21748500D03*
%TO.N,Net-(U13-OTG)*%
X17318100Y-43302000D03*
X35503100Y-44202700D03*
%TO.N,Net-(U13-~{QON})*%
X13496900Y-36797200D03*
X19703300Y-41930000D03*
%TO.N,Net-(U13-REGN)*%
X16818600Y-36874500D03*
X23579300Y-36963500D03*
%TO.N,Net-(U13-PMID)*%
X15315800Y-37795400D03*
X12480000Y-43378000D03*
%TO.N,Net-(U14-L1_8)*%
X27347200Y-36171200D03*
X31679600Y-41929300D03*
D75*
%TO.N,3V3_A*%
X87807300Y-50891700D03*
X86573400Y-77950600D03*
X53335300Y-66731200D03*
X35904000Y-59293700D03*
X65692400Y-57610400D03*
D76*
%TO.N,Net-(D2-DOUT)*%
X57798700Y-4256200D03*
X69346000Y-3156400D03*
%TO.N,Net-(D1-DOUT)*%
X62262100Y-3384400D03*
X51790800Y-5588600D03*
%TO.N,Net-(U1-IO0)*%
X13520000Y-16622000D03*
X11676900Y-25081200D03*
X32744200Y-30881700D03*
%TO.N,Net-(U2-QSPI_SD2)*%
X61863700Y-16677600D03*
X73080300Y-19278400D03*
%TO.N,Net-(J7-Pin_1)*%
X63046600Y-60883200D03*
%TO.N,RE_BUS*%
X32505000Y-60585100D03*
X57208000Y-60586200D03*
%TO.N,CE_BUS*%
X57726900Y-60819100D03*
X32999000Y-60589600D03*
%TO.N,I2C1_SCL*%
X86767000Y-47544200D03*
X62657100Y-43326100D03*
X62400000Y-24185300D03*
X84112500Y-76824700D03*
%TO.N,SPEC_INT*%
X68017300Y-23643400D03*
X89228900Y-47590700D03*
%TO.N,I2C1_SDA*%
X88663300Y-46238400D03*
X85823800Y-76838500D03*
X84540100Y-27140200D03*
X61555600Y-26907300D03*
%TO.N,BUZZER*%
X17917500Y-17643700D03*
X81471300Y-16903900D03*
%TO.N,TFT_DC*%
X93505900Y-18767900D03*
X17686000Y-20618700D03*
%TO.N,PG_3V3*%
X31018300Y-34006200D03*
X17686000Y-24207900D03*
%TO.N,TFT_CS*%
X17686000Y-26568700D03*
X91704000Y-22447600D03*
%TO.N,USB_DM*%
X14652500Y-28056200D03*
X1262300Y-34006200D03*
%TO.N,LED_DATA*%
X19289600Y-26444800D03*
X50359700Y-20614200D03*
X54862300Y-3117200D03*
%TO.N,TFT_RST*%
X93388700Y-21253700D03*
X20603700Y-29275000D03*
%TO.N,TFT_BL*%
X21996300Y-29275000D03*
X94993700Y-22106200D03*
%TO.N,SPI0_MOSI*%
X90410200Y-51676300D03*
X94508100Y-23108100D03*
X23223200Y-31578100D03*
%TO.N,SPI0_SCK*%
X25067100Y-29275000D03*
X93295000Y-51688100D03*
X94572000Y-22461600D03*
%TO.N,SPI0_MISO*%
X26305500Y-32520300D03*
X94993700Y-45906200D03*
%TO.N,SD_CS*%
X88336100Y-50475200D03*
X26870700Y-29275000D03*
%TO.N,ESP_UART_RX*%
X35003900Y-15721600D03*
X58378700Y-18468400D03*
%TO.N,ESP_UART_TX*%
X35468700Y-13063500D03*
X59278200Y-17318400D03*
%TO.N,Net-(J6-Pin_1)*%
X61413400Y-60808900D03*
D77*
%TO.N,Net-(U14-VOUT_5)*%
X27856400Y-40744600D03*
X33993900Y-41443700D03*
D76*
%TO.N,Net-(J1-CC1)*%
X447000Y-38468700D03*
X11586300Y-41202700D03*
D77*
%TO.N,Net-(U2-VREG_VOUT)*%
X65673300Y-17425600D03*
X69828800Y-26256700D03*
X65321100Y-22508100D03*
D76*
%TO.N,AD5941_1_CS*%
X60559000Y-18624700D03*
X33437500Y-69266100D03*
%TO.N,AD5941_1_RST*%
X60822700Y-19000000D03*
X36801800Y-69180300D03*
%TO.N,AD5941_2_CS*%
X60463000Y-20013400D03*
X58183200Y-69178100D03*
%TO.N,AD5941_2_RST*%
X61750000Y-69173500D03*
X62308000Y-20014800D03*
D77*
%TO.N,SPI1_SCK*%
X58875200Y-69262600D03*
X34043900Y-71193700D03*
X60274500Y-21110900D03*
X58704800Y-71193700D03*
%TO.N,SPI1_MOSI*%
X59721000Y-70050500D03*
X34306400Y-69789800D03*
%TO.N,SPI1_MISO*%
X60500000Y-70000000D03*
X35028886Y-69522122D03*
D76*
%TO.N,AD5941_1_INT*%
X62948400Y-22546500D03*
X35589500Y-69171600D03*
X36969500Y-25081200D03*
%TO.N,AD5941_2_INT*%
X62327200Y-22230600D03*
X60562000Y-69172200D03*
%TO.N,UV_LED_EN*%
X84067100Y-33500800D03*
X63401900Y-30882800D03*
%TO.N,BLUE_LED_EN*%
X89042500Y-32518700D03*
X63749900Y-29831200D03*
%TO.N,Net-(U2-XIN)*%
X54969200Y-14484600D03*
X57798700Y-15721600D03*
X64338100Y-22618700D03*
%TO.N,Net-(U2-XOUT)*%
X64908400Y-24220800D03*
X56310900Y-23643400D03*
%TO.N,Net-(J13-Pin_4)*%
X66000000Y-22563500D03*
X74759100Y-13149000D03*
%TO.N,Net-(J13-Pin_2)*%
X66544400Y-22587800D03*
X72730000Y-13331000D03*
%TO.N,WHITE_LED_EN*%
X90266700Y-26305300D03*
X67257800Y-24746400D03*
%TO.N,Net-(U2-QSPI_SD3)*%
X64274900Y-17561100D03*
X77588200Y-20196800D03*
%TO.N,Net-(U2-QSPI_SCLK)*%
X63787700Y-17695400D03*
X78627900Y-20618700D03*
%TO.N,Net-(U2-QSPI_SD0)*%
X63203300Y-17525700D03*
X77192300Y-21040600D03*
%TO.N,Net-(U2-QSPI_SD1)*%
X62997500Y-17958800D03*
X73966100Y-19052400D03*
%TO.N,Net-(U2-~{QSPI_SS})*%
X73383000Y-17046800D03*
X62350200Y-17364700D03*
%TO.N,Net-(U5-VBIAS_CAP)*%
X53335300Y-62268700D03*
X63736300Y-68275900D03*
%TO.N,Net-(U4-DVDD_REG_1V8)*%
X40297500Y-68152700D03*
X32587400Y-69550200D03*
%TO.N,Net-(U4-VBIAS_CAP)*%
X38382400Y-68338600D03*
X28717700Y-68082200D03*
%TO.N,Net-(J5-Pin_1)*%
X39185600Y-62250000D03*
%TO.N,Net-(J4-Pin_1)*%
X38197800Y-61349300D03*
%TO.N,Net-(J3-Pin_1)*%
X37582700Y-60811400D03*
%TO.N,Net-(J2-Pin_1)*%
X36971600Y-60829100D03*
%TO.N,Net-(U4-VREF_1V8)*%
X40456100Y-61638200D03*
X34873000Y-60805200D03*
%TO.N,MUX_SDA0*%
X46902200Y-43220300D03*
X59284900Y-38468700D03*
%TO.N,MUX_SCL1*%
X47338700Y-45009100D03*
%TO.N,MUX_SDA2*%
X47313000Y-45982600D03*
X64086500Y-44199700D03*
%TO.N,MUX_SCL2*%
X47384100Y-47393700D03*
X64103200Y-45478400D03*
%TO.N,MUX_SDA3*%
X48643700Y-47756300D03*
X73480200Y-47766200D03*
%TO.N,MUX_SCL3*%
X49278600Y-48001800D03*
X74164500Y-45906200D03*
%TO.N,Net-(U11-VDD)*%
X57627200Y-50711500D03*
X75186700Y-49275000D03*
%TO.N,Net-(U5-VREF_1V8)*%
X59189100Y-60827300D03*
X65432200Y-63753600D03*
%TO.N,Net-(U5-VREF_2V5)*%
X65237700Y-62268700D03*
X55780000Y-62418100D03*
%TO.N,Net-(D3-DOUT)*%
X65641000Y-5743700D03*
X76074400Y-3156400D03*
%TO.N,Net-(J1-CC2)*%
X4008000Y-38810100D03*
X10189100Y-44840600D03*
%TO.N,Net-(J8-Pin_1)*%
X63458300Y-61168100D03*
%TO.N,Net-(J9-Pin_1)*%
X64176000Y-62250000D03*
%TD*%
%TO.N,VBAT*%
D78*
X19962500Y-41250000D02*
X21860800Y-43148300D01*
X25790100Y-44159900D02*
X26950000Y-43000000D01*
X8595900Y-42454100D02*
X8595900Y-52404100D01*
X22451700Y-44159900D02*
X25790100Y-44159900D01*
D79*
X19962500Y-40777100D02*
X19962500Y-40750000D01*
D78*
X21860800Y-43569000D02*
X22451700Y-44159900D01*
X21860800Y-43148300D02*
X21860800Y-43569000D01*
X8595900Y-52404100D02*
X5000000Y-56000000D01*
X11050000Y-40000000D02*
X8595900Y-42454100D01*
X19962500Y-41250000D02*
X19962500Y-40777100D01*
%TO.N,+3V3*%
D80*
X35082200Y-45572200D02*
X35937800Y-45572200D01*
X15233300Y-12725000D02*
X15191600Y-12725000D01*
D81*
X98500000Y-88000000D02*
X98500000Y-86500000D01*
D80*
X82873900Y-78000000D02*
X82510000Y-77636100D01*
X34995000Y-45485000D02*
X32480000Y-48000000D01*
X33750000Y-12740000D02*
X34751700Y-12740000D01*
D81*
X79062500Y-83437500D02*
X79062500Y-78950000D01*
D80*
X49750000Y-47426700D02*
X49976600Y-47653300D01*
X36743800Y-20793800D02*
X36480000Y-20530000D01*
D81*
X79500000Y-86500000D02*
X98500000Y-86500000D01*
D80*
X60480000Y-9000000D02*
X60480000Y-13000000D01*
X55350000Y-52445000D02*
X55350000Y-51175000D01*
D81*
X79500000Y-89500000D02*
X98500000Y-89500000D01*
D80*
X8520000Y-60000000D02*
X7000000Y-58480000D01*
X23082200Y-38562200D02*
X22520000Y-38000000D01*
D81*
X79500000Y-97000000D02*
X98500000Y-97000000D01*
X79062500Y-78950000D02*
X79062500Y-83437500D01*
D80*
X55350000Y-49428700D02*
X57908700Y-49428700D01*
D81*
X98500000Y-89500000D02*
X79500000Y-89500000D01*
X98500000Y-97000000D02*
X98500000Y-95500000D01*
X98500000Y-92500000D02*
X79500000Y-92500000D01*
D80*
X35000000Y-62198300D02*
X35250000Y-61948300D01*
X63148300Y-20189000D02*
X63098000Y-20239300D01*
X14850000Y-47700000D02*
X13150000Y-46000000D01*
X74000000Y-32460000D02*
X73460000Y-33000000D01*
X10315000Y-20169800D02*
X10251700Y-20106500D01*
X23500000Y-20460000D02*
X23500000Y-19760000D01*
X12510000Y-46000000D02*
X12510000Y-44990000D01*
X30950000Y-38893800D02*
X30950000Y-38847600D01*
X63148300Y-20000000D02*
X63148300Y-20189000D01*
D81*
X79550000Y-95500000D02*
X79550000Y-94050000D01*
D80*
X35635300Y-12636400D02*
X36480000Y-13481100D01*
D81*
X79500000Y-94000000D02*
X98500000Y-94000000D01*
X98500000Y-86500000D02*
X98500000Y-88000000D01*
X79500000Y-97000000D02*
X98500000Y-97000000D01*
X79500000Y-97000000D02*
X79500000Y-98500000D01*
D80*
X81301400Y-77636100D02*
X80937500Y-78000000D01*
X37250000Y-66526100D02*
X37250000Y-67750000D01*
X53252100Y-68376300D02*
X53856300Y-68376300D01*
D81*
X79500000Y-91000000D02*
X98500000Y-91000000D01*
D80*
X91750000Y-20150000D02*
X91750000Y-21051700D01*
X55480000Y-11000000D02*
X53480000Y-9000000D01*
X28048300Y-38646600D02*
X26791200Y-37389500D01*
X74500000Y-48910000D02*
X74500000Y-49466700D01*
D81*
X98000000Y-98500000D02*
X98500000Y-98500000D01*
D80*
X86009500Y-35434500D02*
X87062500Y-36487500D01*
X37250000Y-68445000D02*
X37250000Y-69476700D01*
D81*
X79000000Y-83500000D02*
X98500000Y-83500000D01*
D80*
X53657900Y-48635000D02*
X52676200Y-47653300D01*
X14559600Y-18079600D02*
X14480000Y-18000000D01*
D81*
X98500000Y-88000000D02*
X79500000Y-88000000D01*
X98500000Y-95500000D02*
X98500000Y-97000000D01*
X98500000Y-94000000D02*
X79500000Y-94000000D01*
X79500000Y-94000000D02*
X79550000Y-94050000D01*
X79500000Y-91000000D02*
X98500000Y-91000000D01*
D80*
X91062500Y-36950000D02*
X91062500Y-36690200D01*
D81*
X98500000Y-95500000D02*
X79550000Y-95500000D01*
X79500000Y-98500000D02*
X79500000Y-97000000D01*
D80*
X29811700Y-61987700D02*
X29811700Y-61331700D01*
X13150000Y-46000000D02*
X12510000Y-46000000D01*
X7000000Y-58480000D02*
X7000000Y-56000000D01*
D81*
X79500000Y-98500000D02*
X98000000Y-98500000D01*
D80*
X5820000Y-40870000D02*
X5820000Y-39568300D01*
X84112500Y-78000000D02*
X82873900Y-78000000D01*
X60000000Y-65000000D02*
X60131100Y-65131100D01*
X32520000Y-39000000D02*
X33520000Y-40000000D01*
D81*
X98500000Y-97000000D02*
X79500000Y-97000000D01*
D80*
X84182000Y-35434500D02*
X86009500Y-35434500D01*
X74500000Y-48824800D02*
X74500000Y-48910000D01*
X73647400Y-15832600D02*
X73480000Y-16000000D01*
X54993100Y-15486900D02*
X54993100Y-18513100D01*
X64650000Y-49905000D02*
X64650000Y-51175000D01*
X36743800Y-20793800D02*
X35888300Y-21649300D01*
X76450000Y-5650000D02*
X76444100Y-5650000D01*
X69450000Y-5650000D02*
X67480000Y-7620000D01*
D81*
X79500000Y-91000000D02*
X79500000Y-92500000D01*
D80*
X66480000Y-59000000D02*
X66480000Y-61000000D01*
X15248300Y-12740000D02*
X15233300Y-12725000D01*
X32250000Y-67940000D02*
X32250000Y-68445000D01*
X40874700Y-71605300D02*
X41480000Y-71000000D01*
X11676900Y-57806200D02*
X11676900Y-57411900D01*
X68205100Y-54274900D02*
X66480000Y-54274900D01*
X91558600Y-51284700D02*
X91095000Y-51748300D01*
X96750000Y-19248300D02*
X96250000Y-19248300D01*
D81*
X79500000Y-98500000D02*
X79500000Y-97000000D01*
D80*
X59480000Y-14644800D02*
X59480000Y-14000000D01*
D81*
X79500000Y-86500000D02*
X98500000Y-86500000D01*
D80*
X97750000Y-20150000D02*
X97750000Y-19248300D01*
D81*
X98000000Y-98500000D02*
X79500000Y-98500000D01*
D80*
X29912500Y-48000000D02*
X28862500Y-49050000D01*
D81*
X79550000Y-95500000D02*
X79550000Y-94050000D01*
D80*
X28048300Y-40000000D02*
X28048300Y-39000000D01*
X97750000Y-19248300D02*
X97250000Y-19248300D01*
D81*
X79500000Y-94000000D02*
X79550000Y-94050000D01*
D80*
X9150000Y-25900000D02*
X8048300Y-25900000D01*
D81*
X79500000Y-92500000D02*
X79500000Y-91000000D01*
D80*
X97250000Y-19248300D02*
X96750000Y-19248300D01*
X12510000Y-47010000D02*
X11520000Y-48000000D01*
D81*
X79550000Y-94050000D02*
X79500000Y-94000000D01*
X79500000Y-94000000D02*
X98500000Y-94000000D01*
X79500000Y-85000000D02*
X79500000Y-86500000D01*
D80*
X62250000Y-66526100D02*
X62250000Y-67750000D01*
X29480000Y-69000000D02*
X29480000Y-71000000D01*
X74265000Y-48353300D02*
X74000000Y-48353300D01*
X38445000Y-67750000D02*
X37250000Y-67750000D01*
X2850000Y-25900000D02*
X8048300Y-25900000D01*
X11520000Y-42990000D02*
X11520000Y-44000000D01*
X28048300Y-38888300D02*
X28048300Y-38646600D01*
D81*
X79500000Y-94000000D02*
X98500000Y-94000000D01*
X98500000Y-97000000D02*
X98500000Y-95500000D01*
D80*
X25046200Y-38562200D02*
X23082200Y-38562200D01*
D81*
X79500000Y-94000000D02*
X98500000Y-94000000D01*
D80*
X98250000Y-20150000D02*
X98250000Y-19248300D01*
D81*
X98500000Y-85000000D02*
X79500000Y-85000000D01*
X79062500Y-83437500D02*
X79062500Y-78950000D01*
D80*
X67480000Y-7620000D02*
X67480000Y-9000000D01*
D81*
X98500000Y-95500000D02*
X79550000Y-95500000D01*
X79500000Y-92500000D02*
X79500000Y-91000000D01*
D80*
X87480000Y-77839500D02*
X87480000Y-76000000D01*
X64555000Y-50000000D02*
X64650000Y-49905000D01*
X91062500Y-37582100D02*
X91062500Y-36950000D01*
X87901200Y-49365500D02*
X88273600Y-49737900D01*
X60250000Y-61112600D02*
X58137400Y-59000000D01*
X58480000Y-50000000D02*
X64555000Y-50000000D01*
X27520000Y-52292500D02*
X27520000Y-53000000D01*
X10603600Y-56250000D02*
X11015000Y-56250000D01*
D81*
X79550000Y-94050000D02*
X79550000Y-95500000D01*
D80*
X14377600Y-14102400D02*
X14377600Y-15897600D01*
X25046200Y-42996200D02*
X23194100Y-42996200D01*
X9566300Y-44000000D02*
X9147600Y-44418700D01*
X9150000Y-25900000D02*
X10251700Y-25900000D01*
X96250000Y-19248300D02*
X96250000Y-19013600D01*
D81*
X98500000Y-94000000D02*
X98500000Y-92500000D01*
D80*
X40213200Y-71605300D02*
X40874700Y-71605300D01*
X91062500Y-36690200D02*
X89792000Y-35419700D01*
D81*
X98500000Y-92500000D02*
X98500000Y-94000000D01*
D80*
X62250000Y-67750000D02*
X62250000Y-68445000D01*
D81*
X98500000Y-83500000D02*
X79000000Y-83500000D01*
X98500000Y-92500000D02*
X79500000Y-92500000D01*
D80*
X34010700Y-42259700D02*
X34010700Y-44500700D01*
X8048300Y-19900000D02*
X3951700Y-19900000D01*
X73013300Y-49466700D02*
X72480000Y-50000000D01*
D81*
X98000000Y-98500000D02*
X79500000Y-98500000D01*
X79550000Y-95500000D02*
X79550000Y-94050000D01*
D80*
X91907500Y-21051700D02*
X91979700Y-21123900D01*
X55350000Y-49428700D02*
X55350000Y-48635000D01*
D81*
X98500000Y-91000000D02*
X98500000Y-89500000D01*
X79500000Y-91000000D02*
X98500000Y-91000000D01*
D80*
X55480000Y-14758000D02*
X57647200Y-14758000D01*
X91480000Y-48000000D02*
X91480000Y-47380000D01*
X31520000Y-48000000D02*
X29912500Y-48000000D01*
D81*
X98500000Y-97000000D02*
X98500000Y-95500000D01*
D80*
X40616500Y-69863500D02*
X39970600Y-69863500D01*
X41480000Y-69000000D02*
X40616500Y-69863500D01*
D81*
X79550000Y-94050000D02*
X79500000Y-94000000D01*
D80*
X49577700Y-43062500D02*
X49750000Y-43062500D01*
X49829800Y-41779900D02*
X51157300Y-41779900D01*
X11870700Y-58000000D02*
X11676900Y-57806200D01*
X96250000Y-20150000D02*
X96250000Y-19248300D01*
X95750000Y-20150000D02*
X95750000Y-19248300D01*
D81*
X79550000Y-95500000D02*
X98500000Y-95500000D01*
X79062500Y-83437500D02*
X79000000Y-83500000D01*
D80*
X58137400Y-59000000D02*
X54480000Y-59000000D01*
D81*
X98500000Y-94000000D02*
X98500000Y-92500000D01*
D80*
X30950000Y-38847600D02*
X30662100Y-38559700D01*
D81*
X79500000Y-97000000D02*
X98500000Y-97000000D01*
D80*
X94395000Y-52550000D02*
X94395000Y-51748300D01*
X28862500Y-48568700D02*
X27050000Y-48568700D01*
D81*
X79500000Y-91000000D02*
X79500000Y-92500000D01*
D80*
X27050000Y-49435000D02*
X27050000Y-48568700D01*
D81*
X98500000Y-95500000D02*
X98500000Y-97000000D01*
X98500000Y-85000000D02*
X98500000Y-83500000D01*
D80*
X-2820000Y-40870000D02*
X-2820000Y-39568300D01*
X32250000Y-68445000D02*
X31695000Y-69000000D01*
X97250000Y-20150000D02*
X97250000Y-19248300D01*
X66479900Y-54274900D02*
X64650000Y-52445000D01*
X73647400Y-13351800D02*
X73647400Y-15832600D01*
X86190500Y-17695500D02*
X86062500Y-17567500D01*
D81*
X98500000Y-97000000D02*
X98500000Y-95500000D01*
X79550000Y-95500000D02*
X79550000Y-94050000D01*
D80*
X96250000Y-19013600D02*
X96180100Y-18943700D01*
X85887500Y-78650000D02*
X85887500Y-78807200D01*
D81*
X79500000Y-91000000D02*
X98500000Y-91000000D01*
D80*
X11676900Y-57411900D02*
X11015000Y-56750000D01*
X49750000Y-46937500D02*
X49750000Y-47426700D01*
X28862500Y-48087500D02*
X28950000Y-48000000D01*
D81*
X98500000Y-83500000D02*
X98500000Y-85000000D01*
X98500000Y-94000000D02*
X79500000Y-94000000D01*
X98500000Y-92500000D02*
X79500000Y-92500000D01*
D80*
X35937800Y-45572200D02*
X36510000Y-45000000D01*
D81*
X79550000Y-94050000D02*
X79500000Y-94000000D01*
D80*
X52676200Y-47653300D02*
X52676200Y-44042500D01*
D81*
X98500000Y-97000000D02*
X79500000Y-97000000D01*
D80*
X2850000Y-19900000D02*
X3951700Y-19900000D01*
X28862500Y-50000000D02*
X28862500Y-49050000D01*
X73480000Y-23950000D02*
X73480000Y-24000000D01*
D81*
X98500000Y-89500000D02*
X79500000Y-89500000D01*
X79500000Y-92500000D02*
X79500000Y-91000000D01*
D80*
X72480000Y-33000000D02*
X72480000Y-27000000D01*
D81*
X98000000Y-98500000D02*
X79500000Y-98500000D01*
D80*
X66480000Y-69000000D02*
X66480000Y-61000000D01*
X12510000Y-40440000D02*
X12510000Y-42000000D01*
X73647400Y-13351800D02*
X73569000Y-13351800D01*
X55480000Y-14758000D02*
X55480000Y-11000000D01*
X28160000Y-39000000D02*
X28048300Y-38888300D01*
X66214700Y-9624400D02*
X62450000Y-5859700D01*
X-2136700Y-39568300D02*
X-1750000Y-39955000D01*
X33520000Y-40000000D02*
X33434100Y-40085900D01*
X9150000Y-19900000D02*
X10251700Y-19900000D01*
X51937500Y-43750000D02*
X52160600Y-43526900D01*
X35250000Y-61948300D02*
X35250000Y-61555000D01*
D81*
X79500000Y-94000000D02*
X98500000Y-94000000D01*
D80*
X83178200Y-18000000D02*
X83297900Y-17880300D01*
D81*
X79550000Y-95500000D02*
X98500000Y-95500000D01*
X98500000Y-92500000D02*
X98500000Y-94000000D01*
D80*
X14480000Y-14000000D02*
X14377600Y-14102400D01*
X82510000Y-77636100D02*
X81301400Y-77636100D01*
X64650000Y-48635000D02*
X64650000Y-49905000D01*
D81*
X98500000Y-89500000D02*
X79500000Y-89500000D01*
X98500000Y-91000000D02*
X98500000Y-89500000D01*
X98000000Y-98500000D02*
X79500000Y-98500000D01*
D80*
X34010700Y-44500700D02*
X34510000Y-45000000D01*
X25046200Y-38562200D02*
X25046200Y-42996200D01*
X33434100Y-41683100D02*
X34010700Y-42259700D01*
X54480000Y-71000000D02*
X52987800Y-69507800D01*
D81*
X79500000Y-88000000D02*
X79500000Y-89500000D01*
D80*
X16250000Y-12740000D02*
X15248300Y-12740000D01*
X62450000Y-5859700D02*
X62450000Y-5650000D01*
X52987800Y-69507800D02*
X52987800Y-68640600D01*
D81*
X79500000Y-88000000D02*
X98500000Y-88000000D01*
X98500000Y-83500000D02*
X98500000Y-85000000D01*
X98000000Y-98500000D02*
X79500000Y-98500000D01*
D80*
X37250000Y-67750000D02*
X37250000Y-68445000D01*
X74500000Y-49466700D02*
X73013300Y-49466700D01*
D81*
X98500000Y-91000000D02*
X79500000Y-91000000D01*
X79500000Y-88000000D02*
X98500000Y-88000000D01*
D80*
X55450000Y-5650000D02*
X53480000Y-7620000D01*
X93931400Y-51284700D02*
X91558600Y-51284700D01*
X54480000Y-69000000D02*
X56695000Y-69000000D01*
D81*
X79500000Y-92500000D02*
X79500000Y-91000000D01*
D80*
X14480000Y-18000000D02*
X14480000Y-16000000D01*
X91558600Y-48078600D02*
X91480000Y-48000000D01*
X83062500Y-36950000D02*
X83062500Y-36554000D01*
D81*
X79500000Y-89500000D02*
X79500000Y-88000000D01*
X79062500Y-83437500D02*
X79062500Y-78950000D01*
X79062500Y-78950000D02*
X79062500Y-83437500D01*
D80*
X87062500Y-36487500D02*
X87062500Y-36950000D01*
X66480000Y-54274900D02*
X66480000Y-59000000D01*
X28868800Y-39000000D02*
X28600000Y-39000000D01*
D81*
X79550000Y-94050000D02*
X79500000Y-94000000D01*
D80*
X14850000Y-52300000D02*
X13076000Y-52300000D01*
X83672900Y-78918300D02*
X83672900Y-78376100D01*
X76444100Y-5650000D02*
X74079100Y-8015000D01*
X34995000Y-45485000D02*
X35082200Y-45572200D01*
X35095000Y-65095000D02*
X32250000Y-67940000D01*
X-2820000Y-39568300D02*
X-2136700Y-39568300D01*
X84049000Y-78000000D02*
X84112500Y-78000000D01*
D81*
X79500000Y-92500000D02*
X98500000Y-92500000D01*
D80*
X57250000Y-68012200D02*
X57250000Y-68445000D01*
D81*
X79500000Y-97000000D02*
X98500000Y-97000000D01*
D80*
X74265000Y-48279900D02*
X74265000Y-48353300D01*
D81*
X79550000Y-94050000D02*
X79500000Y-94000000D01*
D80*
X88273600Y-49737900D02*
X91558600Y-49737900D01*
X60131100Y-65131100D02*
X57250000Y-68012200D01*
D81*
X79062500Y-83437500D02*
X79062500Y-78950000D01*
D80*
X79987500Y-78950000D02*
X80937500Y-78000000D01*
X52676200Y-44042500D02*
X52160600Y-43526900D01*
X14377600Y-15897600D02*
X14480000Y-16000000D01*
D81*
X98500000Y-94000000D02*
X98500000Y-92500000D01*
D80*
X54993100Y-18513100D02*
X55480000Y-19000000D01*
D81*
X79062500Y-83437500D02*
X79000000Y-83500000D01*
D80*
X72480000Y-50000000D02*
X68205100Y-54274900D01*
D81*
X79500000Y-97000000D02*
X98500000Y-97000000D01*
D80*
X60250000Y-61555000D02*
X60250000Y-61112600D01*
X53480000Y-7620000D02*
X53480000Y-9000000D01*
D81*
X98500000Y-86500000D02*
X98500000Y-88000000D01*
D80*
X72480000Y-27000000D02*
X71480000Y-26000000D01*
X79062500Y-78950000D02*
X79987500Y-78950000D01*
D82*
X74480000Y-9000000D02*
X74480000Y-8415900D01*
D80*
X91750000Y-21051700D02*
X91907500Y-21051700D01*
X82510000Y-77636100D02*
X82510000Y-76000000D01*
D81*
X79000000Y-83500000D02*
X79062500Y-83437500D01*
X98500000Y-91000000D02*
X98500000Y-89500000D01*
D80*
X88130300Y-35419700D02*
X87062500Y-36487500D01*
X96750000Y-20150000D02*
X96750000Y-19248300D01*
X28600000Y-39000000D02*
X28160000Y-39000000D01*
D81*
X98500000Y-92500000D02*
X79500000Y-92500000D01*
D80*
X30662100Y-38559700D02*
X29309100Y-38559700D01*
X55480000Y-15000000D02*
X54993100Y-15486900D01*
X36480000Y-20530000D02*
X36480000Y-17000000D01*
X54480000Y-59000000D02*
X54480000Y-61000000D01*
X12510000Y-46000000D02*
X12510000Y-47010000D01*
X5136700Y-39568300D02*
X4750000Y-39955000D01*
D81*
X79550000Y-94050000D02*
X79500000Y-94000000D01*
X79500000Y-97000000D02*
X98500000Y-97000000D01*
D80*
X55350000Y-48635000D02*
X53657900Y-48635000D01*
X33434100Y-40085900D02*
X33434100Y-41683100D01*
X37250000Y-69476700D02*
X37338800Y-69565500D01*
X10251700Y-26353900D02*
X10251700Y-25900000D01*
X28862500Y-49050000D02*
X28862500Y-48568700D01*
X74500000Y-48824800D02*
X74500000Y-48353300D01*
X49577700Y-42032000D02*
X49829800Y-41779900D01*
X31400000Y-39000000D02*
X32520000Y-39000000D01*
X12950000Y-40000000D02*
X12510000Y-40440000D01*
X28862500Y-50950000D02*
X27520000Y-52292500D01*
X75525000Y-21905000D02*
X73480000Y-23950000D01*
X34510000Y-45000000D02*
X34995000Y-45485000D01*
D81*
X98500000Y-89500000D02*
X79500000Y-89500000D01*
D80*
X35095000Y-65095000D02*
X36526100Y-66526100D01*
D81*
X79500000Y-91000000D02*
X79500000Y-92500000D01*
D80*
X28600000Y-40000000D02*
X28048300Y-40000000D01*
D81*
X79500000Y-98500000D02*
X98000000Y-98500000D01*
D80*
X7000000Y-56000000D02*
X7851700Y-56000000D01*
D81*
X98500000Y-97000000D02*
X98500000Y-95500000D01*
D80*
X12510000Y-42000000D02*
X11520000Y-42990000D01*
X66480000Y-54274900D02*
X66479900Y-54274900D01*
X14490000Y-58000000D02*
X11870700Y-58000000D01*
X55350000Y-52445000D02*
X54480000Y-53315000D01*
X34751700Y-12740000D02*
X34855300Y-12636400D01*
D81*
X98500000Y-92500000D02*
X79500000Y-92500000D01*
X79500000Y-92500000D02*
X79500000Y-91000000D01*
D80*
X55350000Y-51175000D02*
X55350000Y-49905000D01*
X7851700Y-54668300D02*
X7851700Y-56000000D01*
D81*
X98500000Y-91000000D02*
X79500000Y-91000000D01*
D80*
X29811700Y-61331700D02*
X29480000Y-61000000D01*
D81*
X98500000Y-95500000D02*
X79550000Y-95500000D01*
X98500000Y-83500000D02*
X79000000Y-83500000D01*
X98500000Y-94000000D02*
X98500000Y-92500000D01*
X98500000Y-94000000D02*
X98500000Y-92500000D01*
D80*
X8520000Y-54000000D02*
X7851700Y-54668300D01*
X51157300Y-41779900D02*
X52160600Y-42783200D01*
X63026100Y-65750000D02*
X62250000Y-66526100D01*
D81*
X98500000Y-95500000D02*
X79550000Y-95500000D01*
D82*
X74480000Y-8415900D02*
X74079100Y-8015000D01*
D80*
X34855300Y-12636400D02*
X35635300Y-12636400D01*
X63445000Y-67750000D02*
X62250000Y-67750000D01*
D81*
X98500000Y-88000000D02*
X79500000Y-88000000D01*
X79500000Y-97000000D02*
X79500000Y-98500000D01*
D80*
X86062500Y-17567500D02*
X86062500Y-16950000D01*
X37113800Y-14118100D02*
X36598100Y-14118100D01*
X73460000Y-33000000D02*
X72480000Y-33000000D01*
X27520000Y-53000000D02*
X26901400Y-53000000D01*
D81*
X79500000Y-94000000D02*
X98500000Y-94000000D01*
X79550000Y-94050000D02*
X79550000Y-95500000D01*
X98500000Y-92500000D02*
X79500000Y-92500000D01*
D80*
X10351700Y-55998100D02*
X10603600Y-56250000D01*
X74000000Y-12635000D02*
X74000000Y-13351800D01*
X94395000Y-51748300D02*
X93931400Y-51284700D01*
X31056200Y-39000000D02*
X30950000Y-38893800D01*
X52987800Y-68640600D02*
X53252100Y-68376300D01*
X62095300Y-34200000D02*
X62290700Y-34004600D01*
D81*
X79000000Y-83500000D02*
X98500000Y-83500000D01*
X79550000Y-94050000D02*
X79550000Y-95500000D01*
D80*
X36950000Y-21000000D02*
X36743800Y-20793800D01*
X73480000Y-24000000D02*
X71480000Y-26000000D01*
X67480000Y-9000000D02*
X66855600Y-9624400D01*
X85887500Y-78807200D02*
X85592600Y-79102100D01*
D81*
X79500000Y-98500000D02*
X79500000Y-97000000D01*
D80*
X55350000Y-49905000D02*
X55350000Y-49428700D01*
X32480000Y-48000000D02*
X31520000Y-48000000D01*
X66480000Y-69000000D02*
X66480000Y-71000000D01*
X26130500Y-37389500D02*
X25520000Y-38000000D01*
D81*
X79000000Y-83500000D02*
X79062500Y-83437500D01*
D80*
X10351700Y-55024300D02*
X10351700Y-55998100D01*
X38026100Y-65750000D02*
X37250000Y-66526100D01*
X62450000Y-5650000D02*
X60480000Y-7620000D01*
X85592600Y-79102100D02*
X83856700Y-79102100D01*
X83856700Y-79102100D02*
X83672900Y-78918300D01*
D81*
X98500000Y-92500000D02*
X98500000Y-94000000D01*
D80*
X29309100Y-38559700D02*
X28868800Y-39000000D01*
D81*
X79500000Y-92500000D02*
X98500000Y-92500000D01*
D80*
X74000000Y-13351800D02*
X73647400Y-13351800D01*
X74500000Y-48353300D02*
X74265000Y-48353300D01*
X5820000Y-39568300D02*
X5136700Y-39568300D01*
X36526100Y-66526100D02*
X37250000Y-66526100D01*
X80937500Y-78000000D02*
X80506800Y-77569300D01*
X27050000Y-48568700D02*
X27050000Y-48000000D01*
D81*
X79500000Y-97000000D02*
X79500000Y-98500000D01*
D80*
X38445000Y-65750000D02*
X38026100Y-65750000D01*
X60480000Y-13000000D02*
X59480000Y-14000000D01*
X64650000Y-51175000D02*
X64650000Y-52445000D01*
X55480000Y-15000000D02*
X55480000Y-14758000D01*
X63445000Y-65750000D02*
X63026100Y-65750000D01*
X9150000Y-19900000D02*
X8048300Y-19900000D01*
D81*
X79500000Y-89500000D02*
X98500000Y-89500000D01*
D80*
X54480000Y-53315000D02*
X54480000Y-59000000D01*
X53856300Y-68376300D02*
X54480000Y-69000000D01*
X13076000Y-52300000D02*
X10351700Y-55024300D01*
D81*
X98500000Y-89500000D02*
X98500000Y-91000000D01*
D80*
X66480000Y-71000000D02*
X66480000Y-71561900D01*
X83672900Y-78376100D02*
X84049000Y-78000000D01*
X39970600Y-69863500D02*
X39970600Y-71362700D01*
D81*
X79500000Y-98500000D02*
X79500000Y-97000000D01*
D80*
X49976600Y-47653300D02*
X52676200Y-47653300D01*
X26485000Y-50000000D02*
X27050000Y-49435000D01*
D81*
X98500000Y-95500000D02*
X79550000Y-95500000D01*
D80*
X89792000Y-35419700D02*
X88130300Y-35419700D01*
X28160000Y-39000000D02*
X28048300Y-39000000D01*
X86669500Y-78650000D02*
X87480000Y-77839500D01*
D81*
X79550000Y-95500000D02*
X79550000Y-94050000D01*
X98500000Y-97000000D02*
X98500000Y-95500000D01*
X79500000Y-89500000D02*
X79500000Y-88000000D01*
X79500000Y-91000000D02*
X98500000Y-91000000D01*
D80*
X49577700Y-43062500D02*
X49577700Y-42032000D01*
D81*
X98500000Y-89500000D02*
X98500000Y-91000000D01*
D80*
X91558600Y-51284700D02*
X91558600Y-49737900D01*
X26791200Y-37389500D02*
X26130500Y-37389500D01*
X66480000Y-71561900D02*
X66542100Y-71624000D01*
X83062500Y-36554000D02*
X84182000Y-35434500D01*
D81*
X79500000Y-98500000D02*
X79500000Y-97000000D01*
D80*
X35000000Y-65000000D02*
X35095000Y-65095000D01*
X60131100Y-65131100D02*
X61526100Y-66526100D01*
X65000000Y-20000000D02*
X63148300Y-20000000D01*
X52160600Y-42783200D02*
X52160600Y-43526900D01*
D81*
X79500000Y-98500000D02*
X98000000Y-98500000D01*
D80*
X36598100Y-14118100D02*
X36480000Y-14000000D01*
X11520000Y-44000000D02*
X9566300Y-44000000D01*
D81*
X98000000Y-98500000D02*
X79500000Y-98500000D01*
D80*
X15078500Y-18079600D02*
X14559600Y-18079600D01*
X60250000Y-61948300D02*
X60250000Y-61555000D01*
X82480000Y-18000000D02*
X83178200Y-18000000D01*
X23194100Y-42996200D02*
X22685900Y-43504400D01*
X39970400Y-69863300D02*
X39970600Y-69863500D01*
X60000000Y-65000000D02*
X60000000Y-62198300D01*
X57908700Y-49428700D02*
X58480000Y-50000000D01*
X28862500Y-48568700D02*
X28862500Y-48087500D01*
X64650000Y-47365000D02*
X64650000Y-48635000D01*
X60000000Y-62198300D02*
X60250000Y-61948300D01*
X91095000Y-52550000D02*
X91095000Y-51748300D01*
X80506800Y-77569300D02*
X80506800Y-76250000D01*
X66855600Y-9624400D02*
X66214700Y-9624400D01*
X25520000Y-38000000D02*
X25046200Y-38473800D01*
D81*
X79500000Y-94000000D02*
X79550000Y-94050000D01*
X79500000Y-92500000D02*
X79500000Y-91000000D01*
D80*
X10251700Y-20106500D02*
X10251700Y-19900000D01*
X12510000Y-44990000D02*
X11520000Y-44000000D01*
D81*
X79500000Y-91000000D02*
X98500000Y-91000000D01*
X79550000Y-95500000D02*
X98500000Y-95500000D01*
X79000000Y-83500000D02*
X79062500Y-83437500D01*
D80*
X96250000Y-19248300D02*
X95750000Y-19248300D01*
D81*
X98500000Y-95500000D02*
X98500000Y-97000000D01*
D80*
X56695000Y-69000000D02*
X57250000Y-68445000D01*
X87362000Y-48400000D02*
X87901200Y-48400000D01*
X91558600Y-49737900D02*
X91558600Y-48078600D01*
X60480000Y-7620000D02*
X60480000Y-9000000D01*
X73647400Y-15832600D02*
X74356700Y-16541900D01*
D81*
X98500000Y-94000000D02*
X79500000Y-94000000D01*
D80*
X25046200Y-38473800D02*
X25046200Y-38562200D01*
X31400000Y-39000000D02*
X31056200Y-39000000D01*
X31695000Y-69000000D02*
X29480000Y-69000000D01*
X41480000Y-61000000D02*
X41480000Y-59000000D01*
X61526100Y-66526100D02*
X62250000Y-66526100D01*
X41480000Y-61781500D02*
X41480000Y-61000000D01*
D81*
X98500000Y-94000000D02*
X98500000Y-92500000D01*
D80*
X74000000Y-48910000D02*
X74000000Y-48353300D01*
D81*
X79500000Y-92500000D02*
X98500000Y-92500000D01*
X79500000Y-98500000D02*
X79500000Y-97000000D01*
X98500000Y-85000000D02*
X79500000Y-85000000D01*
D80*
X35000000Y-65000000D02*
X35000000Y-62198300D01*
D81*
X98500000Y-97000000D02*
X79500000Y-97000000D01*
D80*
X49250000Y-43062500D02*
X49577700Y-43062500D01*
X10305400Y-26407600D02*
X10251700Y-26353900D01*
X98250000Y-19248300D02*
X97750000Y-19248300D01*
X36480000Y-13481100D02*
X36480000Y-14000000D01*
D81*
X98500000Y-91000000D02*
X98500000Y-89500000D01*
D80*
X61200000Y-34200000D02*
X62095300Y-34200000D01*
D81*
X98500000Y-91000000D02*
X98500000Y-89500000D01*
D80*
X29480000Y-59000000D02*
X29480000Y-61000000D01*
D81*
X79550000Y-95500000D02*
X79550000Y-94050000D01*
D80*
X39970600Y-71362700D02*
X40213200Y-71605300D01*
X87901200Y-48400000D02*
X87901200Y-49365500D01*
D81*
X79500000Y-88000000D02*
X79500000Y-89500000D01*
D80*
X85887500Y-78650000D02*
X86669500Y-78650000D01*
X25046200Y-42996200D02*
X25050000Y-43000000D01*
X28862500Y-50950000D02*
X28862500Y-50000000D01*
D81*
X98500000Y-95500000D02*
X79550000Y-95500000D01*
D80*
X11015000Y-56750000D02*
X11015000Y-56250000D01*
D81*
X79500000Y-89500000D02*
X79500000Y-88000000D01*
%TO.N,3V3_D*%
D78*
X71550000Y-3781800D02*
X71482100Y-3849700D01*
X71460000Y-12841400D02*
X72520000Y-13901400D01*
X67558800Y-25319800D02*
X69276900Y-23601700D01*
X41302100Y-70000000D02*
X41622800Y-70000000D01*
D83*
X65674800Y-24418700D02*
X65200000Y-23943900D01*
D78*
X57550000Y-2350000D02*
X59520000Y-4320000D01*
X88080300Y-44728900D02*
X87490000Y-44138600D01*
X54500000Y-40000000D02*
X48502200Y-40000000D01*
X67600000Y-16562500D02*
X68169100Y-17131600D01*
X67615000Y-46095000D02*
X64650000Y-46095000D01*
X12779900Y-13625500D02*
X12779900Y-15198100D01*
X12779900Y-17620400D02*
X12779900Y-15198100D01*
X35555600Y-16964400D02*
X35555600Y-14035600D01*
X71460000Y-12635000D02*
X71460000Y-12841400D01*
X71011800Y-4320000D02*
X66520000Y-4320000D01*
X67600000Y-16285400D02*
X67007800Y-15693200D01*
X24950000Y-53000000D02*
X25950700Y-53000000D01*
D84*
X30734700Y-64750000D02*
X31555000Y-64750000D01*
D78*
X48497400Y-64022600D02*
X48497400Y-64123100D01*
X69276900Y-23601700D02*
X69276900Y-21000000D01*
D83*
X67200000Y-16562500D02*
X67600000Y-16562500D01*
D78*
X80570000Y-18000000D02*
X81520000Y-18000000D01*
X58520000Y-31965600D02*
X58520000Y-26000000D01*
D82*
X56240294Y-64750000D02*
X54000000Y-62509706D01*
D78*
X4510000Y-22000000D02*
X5598900Y-20911100D01*
X13159500Y-18105600D02*
X13159500Y-18000000D01*
X42160800Y-64123100D02*
X42162200Y-64123100D01*
D83*
X69275400Y-21000000D02*
X68437500Y-21000000D01*
D78*
X30607100Y-64877600D02*
X30607100Y-65243700D01*
D85*
X60472800Y-36824500D02*
X60975500Y-36824500D01*
D78*
X35520000Y-19192100D02*
X35520000Y-17000000D01*
X58520000Y-10000000D02*
X58520000Y-14000000D01*
D83*
X65600000Y-16562500D02*
X65200000Y-16562500D01*
D82*
X54000000Y-62509706D02*
X54000000Y-59480000D01*
D78*
X71490000Y-21000000D02*
X71490000Y-22970000D01*
X65557300Y-15693200D02*
X65499600Y-15750900D01*
X39794800Y-61757100D02*
X42160800Y-64123100D01*
X71550000Y-2350000D02*
X71550000Y-3781800D01*
X35481700Y-19230400D02*
X35520000Y-19192100D01*
X85525300Y-49611000D02*
X88068300Y-52154000D01*
X59242500Y-44825000D02*
X60347000Y-43720500D01*
X86670400Y-19099800D02*
X84858100Y-17287500D01*
X53925000Y-40575000D02*
X54500000Y-40000000D01*
X71482100Y-3849700D02*
X71011800Y-4320000D01*
X59520000Y-4320000D02*
X59520000Y-9000000D01*
X55350000Y-44825000D02*
X59242500Y-44825000D01*
X87490000Y-44138600D02*
X87490000Y-44000000D01*
X73520000Y-9000000D02*
X73520000Y-5887600D01*
X67600000Y-16562500D02*
X67600000Y-16285400D01*
D82*
X56555000Y-64750000D02*
X56240294Y-64750000D01*
D78*
X82057000Y-17287500D02*
X81520000Y-17824500D01*
X88068300Y-52154000D02*
X88068300Y-53320700D01*
X41622800Y-70000000D02*
X42162200Y-69460600D01*
X5311900Y-15198100D02*
X12779900Y-15198100D01*
D86*
X92250000Y-19254700D02*
X92250000Y-20150000D01*
D78*
X80475000Y-14916700D02*
X87000000Y-8391700D01*
X88068300Y-53320700D02*
X88273900Y-53526300D01*
X81520000Y-17824500D02*
X81520000Y-18000000D01*
X48497400Y-64123100D02*
X42162200Y-64123100D01*
X72520000Y-16000000D02*
X72490000Y-16030000D01*
X73520000Y-5887600D02*
X71482100Y-3849700D01*
X40520000Y-70782100D02*
X41302100Y-70000000D01*
X72520000Y-13901400D02*
X72520000Y-14360500D01*
X86520000Y-69616100D02*
X86520000Y-76000000D01*
X71520000Y-50000000D02*
X70262200Y-48742100D01*
D83*
X69249100Y-17374500D02*
X68463000Y-17374500D01*
D78*
X80475000Y-18095000D02*
X80570000Y-18000000D01*
X83490000Y-44000000D02*
X75004300Y-44000000D01*
X14938600Y-13262600D02*
X13142800Y-13262600D01*
X35520000Y-17000000D02*
X35555600Y-16964400D01*
X87000000Y-7000000D02*
X87000000Y-8391700D01*
D82*
X65141075Y-73520000D02*
X76016700Y-62644375D01*
D78*
X92250000Y-19254700D02*
X92095100Y-19099800D01*
X92195000Y-53491700D02*
X92160400Y-53526300D01*
X61078900Y-17131600D02*
X58520000Y-14572700D01*
X13142800Y-13262600D02*
X12779900Y-13625500D01*
X71490000Y-22970000D02*
X72520000Y-24000000D01*
X30734700Y-64750000D02*
X30607100Y-64877600D01*
X85525300Y-45566700D02*
X84958600Y-45566700D01*
X85923300Y-45566700D02*
X85525300Y-45566700D01*
X69276900Y-21000000D02*
X71490000Y-21000000D01*
D83*
X68169100Y-17131600D02*
X68437500Y-17400000D01*
D78*
X71490000Y-21000000D02*
X72182300Y-20307700D01*
D83*
X68463000Y-17374500D02*
X68437500Y-17400000D01*
D78*
X61200000Y-35800000D02*
X61200000Y-36600000D01*
X64550000Y-2350000D02*
X62580000Y-4320000D01*
X58269900Y-31965600D02*
X57520000Y-32715500D01*
D83*
X61455600Y-17400000D02*
X61562500Y-17400000D01*
D78*
X72182300Y-20307700D02*
X69249100Y-17374500D01*
X88273900Y-67862200D02*
X86520000Y-69616100D01*
X55174300Y-73722800D02*
X62797200Y-73722800D01*
X57520000Y-32715500D02*
X57520000Y-33000000D01*
X59237000Y-31965600D02*
X58520000Y-31965600D01*
X66996800Y-25319800D02*
X67558800Y-25319800D01*
X61200000Y-35000000D02*
X62144200Y-35000000D01*
X84958600Y-45566700D02*
X83490000Y-44098100D01*
X61200000Y-35000000D02*
X60930400Y-35000000D01*
X72182300Y-20307700D02*
X72490000Y-20000000D01*
X83490000Y-44098100D02*
X83490000Y-44000000D01*
X75004300Y-44000000D02*
X70262200Y-48742100D01*
X62580000Y-4320000D02*
X59520000Y-4320000D01*
X58520000Y-14572700D02*
X58520000Y-14000000D01*
X48502200Y-40000000D02*
X47520000Y-40982200D01*
X40520000Y-71000000D02*
X40520000Y-70782100D01*
X60347000Y-43720500D02*
X60347000Y-36950300D01*
X80475000Y-18095000D02*
X80475000Y-14916700D01*
X73036300Y-14360500D02*
X72520000Y-14360500D01*
X59520000Y-9000000D02*
X58520000Y-10000000D01*
X35050000Y-21000000D02*
X35481700Y-20568300D01*
X66520000Y-4320000D02*
X66520000Y-9000000D01*
X35481700Y-20568300D02*
X35481700Y-19230400D01*
X73520000Y-9000000D02*
X73520000Y-9213100D01*
X92195000Y-52550000D02*
X92195000Y-53491700D01*
X91490000Y-44000000D02*
X90761100Y-44728900D01*
X58520000Y-31965600D02*
X58269900Y-31965600D01*
X52520000Y-4320000D02*
X52520000Y-9000000D01*
X66095700Y-24418700D02*
X66996800Y-25319800D01*
X73520000Y-9213100D02*
X74019100Y-9712200D01*
D83*
X65499600Y-15750900D02*
X65499600Y-16462100D01*
D78*
X16250000Y-14010000D02*
X15686000Y-14010000D01*
X72490000Y-16030000D02*
X72490000Y-20000000D01*
X60027000Y-32755600D02*
X59237000Y-31965600D01*
X91199800Y-19099800D02*
X86670400Y-19099800D01*
X39794800Y-60969200D02*
X39794800Y-61757100D01*
X16250000Y-14010000D02*
X17027300Y-14010000D01*
X60347000Y-36950300D02*
X60472800Y-36824500D01*
X67007800Y-15693200D02*
X65557300Y-15693200D01*
X54751500Y-44825000D02*
X55350000Y-44825000D01*
X70262200Y-48742100D02*
X67615000Y-46095000D01*
X54813026Y-44825000D02*
X53925000Y-43936974D01*
X84858100Y-17287500D02*
X82057000Y-17287500D01*
X53925000Y-43936974D02*
X53925000Y-40575000D01*
X58520000Y-26000000D02*
X58490000Y-26000000D01*
X62721500Y-46095000D02*
X60347000Y-43720500D01*
X61200000Y-35000000D02*
X61200000Y-35800000D01*
X13159500Y-18000000D02*
X12779900Y-17620400D01*
D82*
X76016700Y-47263425D02*
X70753275Y-42000000D01*
D78*
X65674800Y-31469400D02*
X65674800Y-24418700D01*
D82*
X53520000Y-59000000D02*
X52014600Y-60505400D01*
D83*
X61187200Y-17131600D02*
X61455600Y-17400000D01*
D78*
X87490000Y-44000000D02*
X85923300Y-45566700D01*
D85*
X60975500Y-36824500D02*
X61200000Y-36600000D01*
D78*
X39794800Y-60969200D02*
X39553600Y-60969200D01*
X10354000Y-20911100D02*
X13159500Y-18105600D01*
X35555600Y-14035600D02*
X35520000Y-14000000D01*
X40520000Y-59000000D02*
X39794800Y-59725200D01*
D82*
X52014600Y-60505400D02*
X52014600Y-70275172D01*
D78*
X50550000Y-2350000D02*
X52520000Y-4320000D01*
X47520000Y-40982200D02*
X47520000Y-43000000D01*
X60930400Y-35000000D02*
X60027000Y-34096600D01*
D82*
X64680870Y-42000000D02*
X61855870Y-44825000D01*
X52014600Y-70275172D02*
X55259428Y-73520000D01*
D78*
X62144200Y-35000000D02*
X65674800Y-31469400D01*
D83*
X66095700Y-24418700D02*
X65674800Y-24418700D01*
D78*
X42162200Y-69460600D02*
X42162200Y-64123100D01*
X69275400Y-21000000D02*
X69276900Y-21000000D01*
D83*
X65200000Y-23943900D02*
X65200000Y-23437500D01*
D78*
X48497400Y-67045900D02*
X55174300Y-73722800D01*
X72520000Y-14360500D02*
X72520000Y-16000000D01*
D82*
X76016700Y-62644375D02*
X76016700Y-47263425D01*
D78*
X60027000Y-34096600D02*
X60027000Y-32755600D01*
X13159500Y-18000000D02*
X13520000Y-18000000D01*
X52520000Y-4320000D02*
X55580000Y-4320000D01*
X88273900Y-53526300D02*
X88273900Y-67862200D01*
X39794800Y-59725200D02*
X39794800Y-60969200D01*
X53520000Y-59000000D02*
X48497400Y-64022600D01*
X64650000Y-46095000D02*
X62721500Y-46095000D01*
D82*
X54000000Y-59480000D02*
X53520000Y-59000000D01*
D78*
X48497400Y-64123100D02*
X48497400Y-67045900D01*
X64550000Y-2350000D02*
X66520000Y-4320000D01*
X4510000Y-16000000D02*
X5311900Y-15198100D01*
D82*
X61855870Y-44825000D02*
X55350000Y-44825000D01*
D78*
X61187200Y-17131600D02*
X61078900Y-17131600D01*
X55580000Y-4320000D02*
X57550000Y-2350000D01*
X62797200Y-73722800D02*
X65520000Y-71000000D01*
D82*
X55259428Y-73520000D02*
X65141075Y-73520000D01*
D78*
X15686000Y-14010000D02*
X14938600Y-13262600D01*
X92160400Y-53526300D02*
X88273900Y-53526300D01*
X17027300Y-14010000D02*
X17686000Y-14668700D01*
X55350000Y-44825000D02*
X54813026Y-44825000D01*
X90761100Y-44728900D02*
X88080300Y-44728900D01*
D83*
X65499600Y-16462100D02*
X65600000Y-16562500D01*
D78*
X5598900Y-20911100D02*
X10354000Y-20911100D01*
D82*
X70753275Y-42000000D02*
X64680870Y-42000000D01*
D78*
X85525300Y-45566700D02*
X85525300Y-49611000D01*
D86*
X91199800Y-19099800D02*
X92095100Y-19099800D01*
%TO.N,Net-(C5-Pad1)*%
D80*
X15842900Y-31898300D02*
X19400000Y-31898300D01*
X14520000Y-34000000D02*
X14520000Y-33221200D01*
X19400000Y-34000000D02*
X19400000Y-31898300D01*
X14520000Y-33221200D02*
X15842900Y-31898300D01*
X19400000Y-34000000D02*
X19400000Y-36101700D01*
X19250000Y-36251700D02*
X19250000Y-38037500D01*
X19400000Y-36101700D02*
X19250000Y-36251700D01*
X18750000Y-38037500D02*
X19250000Y-38037500D01*
%TO.N,Net-(U13-BTST)*%
X16212100Y-36418100D02*
X15480000Y-35686000D01*
X17005300Y-36418100D02*
X16212100Y-36418100D01*
X15480000Y-35686000D02*
X15480000Y-34000000D01*
X18250000Y-38037500D02*
X18250000Y-37662800D01*
X18250000Y-37662800D02*
X17005300Y-36418100D01*
%TO.N,Net-(C14-Pad1)*%
X9480000Y-59430000D02*
X9480000Y-60000000D01*
X8050000Y-58000000D02*
X9480000Y-59430000D01*
%TO.N,Net-(C10-Pad1)*%
X11050000Y-50000000D02*
X12480000Y-48570000D01*
X12480000Y-48570000D02*
X12480000Y-48000000D01*
%TO.N,HEATER_PWM*%
X77490000Y-76000000D02*
X77490000Y-75399100D01*
X77490000Y-75399100D02*
X77515400Y-75373700D01*
X62889500Y-25821400D02*
X62325400Y-26385500D01*
X62800000Y-23437500D02*
X62800000Y-23954900D01*
X62889500Y-24044400D02*
X62889500Y-25821400D01*
X62800000Y-23954900D02*
X62889500Y-24044400D01*
%TO.N,Net-(Q2-G)*%
X81490000Y-76000000D02*
X81338300Y-75848300D01*
X81338300Y-75848300D02*
X80264200Y-75848300D01*
X78510000Y-76497500D02*
X78510000Y-76000000D01*
X80264200Y-75848300D02*
X79062500Y-77050000D01*
X79062500Y-77050000D02*
X78510000Y-76497500D01*
%TO.N,Net-(U1-EN)*%
X16250000Y-15280000D02*
X15197800Y-15280000D01*
X7534600Y-16613700D02*
X8048300Y-16100000D01*
X13520000Y-14651800D02*
X13520000Y-14000000D01*
X2850000Y-16100000D02*
X3390000Y-16100000D01*
X9150000Y-16100000D02*
X8048300Y-16100000D01*
X4103700Y-16613700D02*
X7534600Y-16613700D01*
X9150000Y-16100000D02*
X10251700Y-16100000D01*
X10251700Y-16100000D02*
X10251700Y-16218500D01*
X3390000Y-16100000D02*
X3490000Y-16000000D01*
X15197800Y-15280000D02*
X14779300Y-14861500D01*
X3490000Y-16000000D02*
X4103700Y-16613700D01*
X10251700Y-16218500D02*
X10302000Y-16268800D01*
%TO.N,Net-(C12-Pad1)*%
X10136300Y-53343700D02*
X9480000Y-54000000D01*
X10346800Y-53343700D02*
X10136300Y-53343700D01*
X22532800Y-50517200D02*
X22532800Y-51654100D01*
X23050000Y-50000000D02*
X22532800Y-50517200D01*
%TO.N,Net-(U14-EN)*%
X20174900Y-39962400D02*
X19962500Y-39750000D01*
X17905900Y-35438600D02*
X16600000Y-34132700D01*
X12950000Y-51031000D02*
X12950000Y-50000000D01*
X16072100Y-51031000D02*
X16428900Y-50674200D01*
X12950000Y-51031000D02*
X12950000Y-51928700D01*
X31400000Y-40000000D02*
X31951700Y-40000000D01*
X12950000Y-51031000D02*
X16072100Y-51031000D01*
X24305800Y-50000000D02*
X23937100Y-50368700D01*
X12490000Y-35377700D02*
X12490000Y-36000000D01*
X28600000Y-38500000D02*
X28600000Y-38058800D01*
X31951700Y-39775800D02*
X31951700Y-40000000D01*
X12653000Y-35214700D02*
X12490000Y-35377700D01*
X31400000Y-39500000D02*
X31675900Y-39500000D01*
X9950000Y-54928700D02*
X9950000Y-58000000D01*
X31989000Y-40037300D02*
X31951700Y-40000000D01*
X20174900Y-40037600D02*
X19962500Y-40250000D01*
X31951700Y-40000000D02*
X31951700Y-40500000D01*
X24950000Y-50000000D02*
X24305800Y-50000000D01*
X16600000Y-34132700D02*
X16600000Y-34000000D01*
X32042900Y-40037300D02*
X31989000Y-40037300D01*
X20174900Y-40037600D02*
X20174900Y-39962400D01*
X20861400Y-40037600D02*
X20174900Y-40037600D01*
X31675900Y-39500000D02*
X31951700Y-39775800D01*
X12950000Y-51928700D02*
X9950000Y-54928700D01*
X31400000Y-40500000D02*
X31951700Y-40500000D01*
%TO.N,BATT_ALT*%
X15248300Y-22900000D02*
X15212900Y-22900000D01*
X12985000Y-57198100D02*
X12985000Y-56750000D01*
X15212900Y-22900000D02*
X15198200Y-22914700D01*
X16250000Y-22900000D02*
X15248300Y-22900000D01*
%TO.N,Net-(U17-QSTRT)*%
X13760000Y-56250000D02*
X15510000Y-58000000D01*
X12985000Y-56250000D02*
X13760000Y-56250000D01*
%TO.N,I2C_SCL*%
X15628300Y-40750000D02*
X15274200Y-40395900D01*
X15274200Y-40395900D02*
X15274200Y-40215400D01*
X13410500Y-55750000D02*
X12985000Y-55750000D01*
X16037500Y-40750000D02*
X15628300Y-40750000D01*
X51250000Y-43062500D02*
X51548800Y-43062500D01*
X13668900Y-55491600D02*
X13410500Y-55750000D01*
X15248300Y-19090000D02*
X15248300Y-19805700D01*
X16250000Y-19090000D02*
X15248300Y-19090000D01*
X51548800Y-43062500D02*
X51705200Y-42906100D01*
X15248300Y-19805700D02*
X15173800Y-19880200D01*
%TO.N,I2C_SDA*%
X50750000Y-42680200D02*
X50253000Y-42183200D01*
X50253000Y-42183200D02*
X50010400Y-42183200D01*
X12985000Y-55250000D02*
X13426000Y-54809000D01*
X16037500Y-41752800D02*
X16009500Y-41780800D01*
X16037500Y-41250000D02*
X16037500Y-41752800D01*
X50750000Y-43062500D02*
X50750000Y-42680200D01*
X16250000Y-17820000D02*
X17312900Y-17820000D01*
%TO.N,VBUS*%
X14700000Y-38750000D02*
X16037500Y-38750000D01*
X-132500Y-41264300D02*
X3183000Y-41264300D01*
X5393000Y-38000000D02*
X12050000Y-38000000D01*
X3950000Y-39955000D02*
X3950000Y-39443000D01*
X12050000Y-38000000D02*
X13950000Y-38000000D01*
X-950000Y-39955000D02*
X-950000Y-40446800D01*
X3950000Y-40497300D02*
X3950000Y-39955000D01*
X-950000Y-40446800D02*
X-132500Y-41264300D01*
X3183000Y-41264300D02*
X3950000Y-40497300D01*
X13950000Y-38000000D02*
X14700000Y-38750000D01*
X3950000Y-39443000D02*
X5393000Y-38000000D01*
%TO.N,CHG_INT*%
X16750000Y-42456500D02*
X16450800Y-42755700D01*
X16250000Y-21630000D02*
X17251700Y-21630000D01*
X17251700Y-21630000D02*
X17251700Y-21671100D01*
X17251700Y-21671100D02*
X17329100Y-21748500D01*
X16750000Y-41962500D02*
X16750000Y-42456500D01*
%TO.N,Net-(U13-OTG)*%
X17250000Y-41962500D02*
X17250000Y-43233900D01*
X35490000Y-44215800D02*
X35490000Y-45000000D01*
X35503100Y-44202700D02*
X35490000Y-44215800D01*
X17250000Y-43233900D02*
X17318100Y-43302000D01*
%TO.N,Net-(U13-~{CE})*%
D82*
X17750000Y-41962500D02*
X17750000Y-42374999D01*
X17750000Y-42374999D02*
X20375001Y-45000000D01*
X20375001Y-45000000D02*
X33490000Y-45000000D01*
%TO.N,Net-(U13-~{QON})*%
D80*
X13510000Y-36000000D02*
X13510000Y-36784100D01*
X13510000Y-36784100D02*
X13496900Y-36797200D01*
X19250000Y-41962500D02*
X19670800Y-41962500D01*
X19670800Y-41962500D02*
X19703300Y-41930000D01*
%TO.N,Net-(U13-REGN)*%
X23579300Y-36963500D02*
X23480000Y-37062800D01*
X17750000Y-37660100D02*
X16964400Y-36874500D01*
X23480000Y-37062800D02*
X23480000Y-38000000D01*
X17750000Y-38037500D02*
X17750000Y-37660100D01*
X16964400Y-36874500D02*
X16818600Y-36874500D01*
%TO.N,Net-(U13-PMID)*%
X16857500Y-37276300D02*
X15834900Y-37276300D01*
X15834900Y-37276300D02*
X15315800Y-37795400D01*
X17250000Y-37668800D02*
X16857500Y-37276300D01*
X17250000Y-38037500D02*
X17250000Y-37668800D01*
X12480000Y-43378000D02*
X12480000Y-44000000D01*
%TO.N,Net-(U14-L1_8)*%
X31400000Y-41000000D02*
X31951700Y-41000000D01*
X31400000Y-41500000D02*
X31951700Y-41500000D01*
X27347200Y-36171200D02*
X27400000Y-36118400D01*
X31400000Y-41500000D02*
X31951700Y-41500000D01*
X31951700Y-41000000D02*
X31951700Y-41500000D01*
X27400000Y-36118400D02*
X27400000Y-34000000D01*
X31951700Y-41500000D02*
X31951700Y-41657200D01*
X31951700Y-41657200D02*
X31679600Y-41929300D01*
%TO.N,3V3_A*%
D78*
X86573400Y-77950600D02*
X86272600Y-77950600D01*
X86213300Y-49297700D02*
X87807300Y-50891700D01*
X86213300Y-46818000D02*
X86213300Y-49297700D01*
X65520000Y-59000000D02*
X62442100Y-59000000D01*
X62442100Y-59000000D02*
X60750000Y-60692100D01*
X86867000Y-46164300D02*
X86213300Y-46818000D01*
X28520000Y-59000000D02*
X27794800Y-59725200D01*
X28520000Y-58845400D02*
X30892700Y-56472700D01*
D84*
X60750000Y-60733000D02*
X60750000Y-61555000D01*
D78*
X52454600Y-67611900D02*
X53335300Y-66731200D01*
X52454600Y-69934600D02*
X52454600Y-67611900D01*
X65520000Y-59000000D02*
X65520000Y-57782800D01*
D84*
X35780300Y-60733000D02*
X35780300Y-61524700D01*
D78*
X35780300Y-59417400D02*
X34464700Y-59417400D01*
X35780300Y-59417400D02*
X35904000Y-59293700D01*
D84*
X35780300Y-61524700D02*
X35750000Y-61555000D01*
D78*
X27794800Y-70274800D02*
X28520000Y-71000000D01*
X60750000Y-60692100D02*
X60750000Y-60733000D01*
X35780300Y-60733000D02*
X35780300Y-59417400D01*
X31520000Y-56472700D02*
X31520000Y-53000000D01*
D87*
X86272600Y-77950600D02*
X85936900Y-77950600D01*
D78*
X90520000Y-47287900D02*
X88908800Y-45676700D01*
X87362000Y-46164300D02*
X86867000Y-46164300D01*
X30892700Y-56472700D02*
X31520000Y-56472700D01*
X27794800Y-59725200D02*
X27794800Y-70274800D01*
X34464700Y-59417400D02*
X31520000Y-56472700D01*
X28520000Y-59000000D02*
X28520000Y-58845400D01*
D87*
X85936900Y-77950600D02*
X85887500Y-78000000D01*
D78*
X87362000Y-46800000D02*
X87362000Y-46164300D01*
X53520000Y-71000000D02*
X52454600Y-69934600D01*
X90520000Y-48000000D02*
X90520000Y-47287900D01*
X88908800Y-45676700D02*
X87849600Y-45676700D01*
X87849600Y-45676700D02*
X87362000Y-46164300D01*
X65520000Y-57782800D02*
X65692400Y-57610400D01*
%TO.N,Net-(D2-DOUT)*%
D80*
X57550000Y-4504900D02*
X57550000Y-5650000D01*
X69450000Y-3052400D02*
X69346000Y-3156400D01*
X69450000Y-2350000D02*
X69450000Y-3052400D01*
X57798700Y-4256200D02*
X57550000Y-4504900D01*
%TO.N,Net-(D1-DOUT)*%
X50550000Y-5650000D02*
X51729400Y-5650000D01*
X62450000Y-3196500D02*
X62450000Y-2350000D01*
X51729400Y-5650000D02*
X51790800Y-5588600D01*
X62262100Y-3384400D02*
X62450000Y-3196500D01*
%TO.N,Net-(U1-IO0)*%
X9150000Y-22100000D02*
X10251700Y-22100000D01*
X32748300Y-30877600D02*
X32744200Y-30881700D01*
X13520000Y-16622000D02*
X13520000Y-16000000D01*
X7569600Y-22578700D02*
X4068700Y-22578700D01*
X33750000Y-29250000D02*
X32748300Y-29250000D01*
X4068700Y-22578700D02*
X3490000Y-22000000D01*
X10251700Y-22100000D02*
X11676900Y-23525200D01*
X8048300Y-22100000D02*
X7569600Y-22578700D01*
X32748300Y-29250000D02*
X32748300Y-30877600D01*
X2850000Y-22100000D02*
X3390000Y-22100000D01*
X11676900Y-23525200D02*
X11676900Y-25081200D01*
X9150000Y-22100000D02*
X8048300Y-22100000D01*
X3390000Y-22100000D02*
X3490000Y-22000000D01*
%TO.N,Net-(U2-QSPI_SD2)*%
X61863700Y-16186300D02*
X61863700Y-16677600D01*
X62231500Y-15818500D02*
X61863700Y-16186300D01*
X63200000Y-16089800D02*
X62928700Y-15818500D01*
X73510000Y-19708100D02*
X73080300Y-19278400D01*
X74145000Y-20635000D02*
X73510000Y-20000000D01*
X81454000Y-21241500D02*
X82510000Y-20185500D01*
X73510000Y-20000000D02*
X73510000Y-19708100D01*
X75525000Y-20635000D02*
X77412200Y-20635000D01*
X77412200Y-20635000D02*
X78018700Y-21241500D01*
X82510000Y-20185500D02*
X82510000Y-20000000D01*
X62928700Y-15818500D02*
X62231500Y-15818500D01*
X75525000Y-20635000D02*
X74145000Y-20635000D01*
X78018700Y-21241500D02*
X81454000Y-21241500D01*
X63200000Y-16562500D02*
X63200000Y-16089800D01*
%TO.N,Net-(J7-Pin_1)*%
X62250000Y-61555000D02*
X62250000Y-61167800D01*
X62250000Y-61167800D02*
X62534600Y-60883200D01*
X62534600Y-60883200D02*
X63046600Y-60883200D01*
%TO.N,RE_BUS*%
X32250000Y-61555000D02*
X32250000Y-60840100D01*
X57250000Y-61555000D02*
X57208000Y-61513000D01*
X32250000Y-60840100D02*
X32505000Y-60585100D01*
X57208000Y-61513000D02*
X57208000Y-60586200D01*
%TO.N,CE_BUS*%
X32750000Y-61097500D02*
X32750000Y-61555000D01*
X57750000Y-60842200D02*
X57726900Y-60819100D01*
X32999000Y-60848500D02*
X32750000Y-61097500D01*
X32999000Y-60589600D02*
X32999000Y-60848500D01*
X57750000Y-61555000D02*
X57750000Y-60842200D01*
%TO.N,I2C1_SCL*%
X87362000Y-47600000D02*
X86822800Y-47600000D01*
X86822800Y-47600000D02*
X86767000Y-47544200D01*
X84112500Y-77350000D02*
X84112500Y-76824700D01*
X62400000Y-23437500D02*
X62400000Y-24185300D01*
%TO.N,SPEC_INT*%
X67805900Y-23643400D02*
X68017300Y-23643400D01*
X89228900Y-47590700D02*
X89186500Y-47590700D01*
X88638000Y-47600000D02*
X89177200Y-47600000D01*
X67600000Y-23437500D02*
X67805900Y-23643400D01*
X89186500Y-47590700D02*
X89177200Y-47600000D01*
%TO.N,I2C1_SDA*%
X88663300Y-46238400D02*
X88638000Y-46263700D01*
X61562500Y-22600000D02*
X61562500Y-26900400D01*
X61562500Y-26900400D02*
X61555600Y-26907300D01*
X85887500Y-77350000D02*
X85887500Y-76902200D01*
X88638000Y-46263700D02*
X88638000Y-46800000D01*
X85887500Y-76902200D02*
X85823800Y-76838500D01*
%TO.N,BUZZER*%
X17251700Y-16977900D02*
X17917500Y-17643700D01*
X17251700Y-16550000D02*
X17251700Y-16977900D01*
X81471300Y-16903900D02*
X81490000Y-16885200D01*
X81490000Y-16885200D02*
X81490000Y-16000000D01*
X16250000Y-16550000D02*
X17251700Y-16550000D01*
%TO.N,TFT_DC*%
X16250000Y-20360000D02*
X17251700Y-20360000D01*
X93250000Y-20150000D02*
X93250000Y-19023800D01*
X93250000Y-19023800D02*
X93505900Y-18767900D01*
X17510400Y-20618700D02*
X17686000Y-20618700D01*
X17251700Y-20360000D02*
X17510400Y-20618700D01*
%TO.N,PG_3V3*%
X17289600Y-24207900D02*
X17686000Y-24207900D01*
X31400000Y-38500000D02*
X31400000Y-34387900D01*
X16250000Y-24170000D02*
X17251700Y-24170000D01*
X31400000Y-34387900D02*
X31018300Y-34006200D01*
X17251700Y-24170000D02*
X17289600Y-24207900D01*
%TO.N,TFT_CS*%
X92750000Y-21401600D02*
X91704000Y-22447600D01*
X92750000Y-20150000D02*
X92750000Y-21401600D01*
X16250000Y-26710000D02*
X17251700Y-26710000D01*
X17686000Y-26568700D02*
X17393000Y-26568700D01*
X17393000Y-26568700D02*
X17251700Y-26710000D01*
%TO.N,USB_DM*%
D88*
X1262300Y-38983400D02*
X1262300Y-34006200D01*
X1750000Y-39248100D02*
X1485300Y-38983400D01*
X16250000Y-27980000D02*
X15258300Y-27980000D01*
X750000Y-39228400D02*
X750000Y-39955000D01*
X1485300Y-38983400D02*
X1262300Y-38983400D01*
X15182100Y-28056200D02*
X15258300Y-27980000D01*
X1262300Y-38983400D02*
X995000Y-38983400D01*
X14652500Y-28056200D02*
X15182100Y-28056200D01*
X1750000Y-39955000D02*
X1750000Y-39248100D01*
X995000Y-38983400D02*
X750000Y-39228400D01*
%TO.N,USB_DP*%
X1250100Y-40628300D02*
X1250100Y-39955000D01*
X1250100Y-39955000D02*
X1250000Y-39955000D01*
X12248400Y-29250000D02*
X16250000Y-29250000D01*
X2250000Y-39248400D02*
X12248400Y-29250000D01*
X2249900Y-40628300D02*
X1956200Y-40922000D01*
X2250000Y-39955000D02*
X2250000Y-39248400D01*
X2250000Y-39955000D02*
X2249900Y-39955000D01*
X1543800Y-40922000D02*
X1250100Y-40628300D01*
X2249900Y-39955000D02*
X2249900Y-40628300D01*
X1956200Y-40922000D02*
X1543800Y-40922000D01*
%TO.N,LED_DATA*%
D80*
X18015000Y-27719400D02*
X19289600Y-26444800D01*
X18015000Y-30500000D02*
X18015000Y-27719400D01*
X55450000Y-2529500D02*
X55450000Y-2350000D01*
X54862300Y-3117200D02*
X55450000Y-2529500D01*
%TO.N,TFT_RST*%
X20555000Y-29323700D02*
X20555000Y-30500000D01*
X93590700Y-21051700D02*
X93388700Y-21253700D01*
X93750000Y-21051700D02*
X93590700Y-21051700D01*
X20603700Y-29275000D02*
X20555000Y-29323700D01*
X93750000Y-20150000D02*
X93750000Y-21051700D01*
%TO.N,TFT_BL*%
X95250000Y-20150000D02*
X95250000Y-21849900D01*
X21996300Y-29275000D02*
X21825000Y-29446300D01*
X21825000Y-29446300D02*
X21825000Y-30500000D01*
X95250000Y-21849900D02*
X94993700Y-22106200D01*
%TO.N,SPI0_MOSI*%
X90338200Y-51748300D02*
X89995000Y-51748300D01*
X94250000Y-20150000D02*
X94250000Y-21051700D01*
X94250000Y-21051700D02*
X94115300Y-21186400D01*
X94115300Y-22715300D02*
X94508100Y-23108100D01*
X23095000Y-30500000D02*
X23095000Y-31501700D01*
X23146800Y-31501700D02*
X23223200Y-31578100D01*
X89995000Y-52550000D02*
X89995000Y-51748300D01*
X94115300Y-21186400D02*
X94115300Y-22715300D01*
X90410200Y-51676300D02*
X90338200Y-51748300D01*
X23095000Y-31501700D02*
X23146800Y-31501700D01*
%TO.N,SPI0_SCK*%
X24843800Y-29498300D02*
X25067100Y-29275000D01*
X24365000Y-29498300D02*
X24843800Y-29498300D01*
X24365000Y-30500000D02*
X24365000Y-29498300D01*
X94572000Y-21759700D02*
X94572000Y-22461600D01*
X94750000Y-20150000D02*
X94750000Y-21581700D01*
X94750000Y-21581700D02*
X94572000Y-21759700D01*
X93295000Y-52550000D02*
X93295000Y-51688100D01*
%TO.N,SPI0_MISO*%
X95495000Y-52550000D02*
X95495000Y-46407500D01*
X95495000Y-46407500D02*
X94993700Y-45906200D01*
X25635000Y-30500000D02*
X25635000Y-31849800D01*
X25635000Y-31849800D02*
X26305500Y-32520300D01*
%TO.N,SD_CS*%
X88895000Y-52550000D02*
X88895000Y-51034100D01*
X26905000Y-30500000D02*
X26905000Y-29498300D01*
X26905000Y-29309300D02*
X26870700Y-29275000D01*
X88895000Y-51034100D02*
X88336100Y-50475200D01*
X26905000Y-29498300D02*
X26905000Y-29309300D01*
%TO.N,ESP_UART_RX*%
X61562500Y-18200000D02*
X58647100Y-18200000D01*
X34751700Y-15469400D02*
X34751700Y-15280000D01*
X33750000Y-15280000D02*
X34751700Y-15280000D01*
X35003900Y-15721600D02*
X34751700Y-15469400D01*
X58647100Y-18200000D02*
X58378700Y-18468400D01*
%TO.N,ESP_UART_TX*%
X35468700Y-13063500D02*
X34751700Y-13780500D01*
X61562500Y-17800000D02*
X59759800Y-17800000D01*
X33750000Y-14010000D02*
X34751700Y-14010000D01*
X59759800Y-17800000D02*
X59278200Y-17318400D01*
X34751700Y-13780500D02*
X34751700Y-14010000D01*
%TO.N,Net-(J6-Pin_1)*%
X61750000Y-61145500D02*
X61413400Y-60808900D01*
X61750000Y-61555000D02*
X61750000Y-61145500D01*
%TO.N,Net-(U9-VDD)*%
X76540000Y-35000000D02*
X73520000Y-35000000D01*
X73520000Y-35000000D02*
X71520000Y-33000000D01*
%TO.N,Net-(C6-Pad1)*%
X33050000Y-38000000D02*
X34480000Y-39430000D01*
X34480000Y-39430000D02*
X34480000Y-40000000D01*
%TO.N,Net-(U14-VOUT_5)*%
D89*
X35038400Y-38088400D02*
X34950000Y-38000000D01*
X35038400Y-40399200D02*
X35038400Y-38088400D01*
X28033300Y-40500000D02*
X28033300Y-40567700D01*
X33993900Y-41443700D02*
X35038400Y-40399200D01*
X28600000Y-40500000D02*
X28033300Y-40500000D01*
X33993900Y-41443700D02*
X34950000Y-42399800D01*
X28033300Y-40567700D02*
X27856400Y-40744600D01*
X34950000Y-42399800D02*
X34950000Y-43000000D01*
%TO.N,Net-(LED1-A)*%
D80*
X84937500Y-43572500D02*
X84510000Y-44000000D01*
X84937500Y-42000000D02*
X84937500Y-43572500D01*
%TO.N,Net-(C8-Pad1)*%
X26480000Y-40135000D02*
X26480000Y-38000000D01*
X29345000Y-43000000D02*
X26480000Y-40135000D01*
X33050000Y-43000000D02*
X29345000Y-43000000D01*
%TO.N,Net-(U5-DVDD_REG_1V8)*%
X57750000Y-68838500D02*
X56978500Y-69610000D01*
X57750000Y-68445000D02*
X57750000Y-68838500D01*
X54130000Y-69610000D02*
X53520000Y-69000000D01*
X56978500Y-69610000D02*
X54130000Y-69610000D01*
%TO.N,Net-(J1-CC1)*%
X11586300Y-41202700D02*
X11490000Y-41299000D01*
X250000Y-39955000D02*
X250000Y-38665700D01*
X11490000Y-41299000D02*
X11490000Y-42000000D01*
X250000Y-38665700D02*
X447000Y-38468700D01*
%TO.N,Net-(U2-VREG_VOUT)*%
D89*
X64800000Y-17111700D02*
X64800000Y-16562500D01*
X66800000Y-16562500D02*
X66800000Y-17085900D01*
X69828800Y-26256700D02*
X70263300Y-26256700D01*
X65673300Y-17311800D02*
X65673300Y-17425600D01*
X65600000Y-22787000D02*
X65321100Y-22508100D01*
X65000100Y-17311800D02*
X64800000Y-17111700D01*
X70263300Y-26256700D02*
X70520000Y-26000000D01*
X65673300Y-17311800D02*
X65000100Y-17311800D01*
X66574100Y-17311800D02*
X65673300Y-17311800D01*
X66800000Y-17085900D02*
X66574100Y-17311800D01*
X65600000Y-23437500D02*
X65600000Y-22787000D01*
%TO.N,Net-(Q4-G)*%
D80*
X87490000Y-34622500D02*
X87490000Y-34000000D01*
X87062500Y-35050000D02*
X87490000Y-34622500D01*
%TO.N,Net-(LED2-K)*%
X87062500Y-42000000D02*
X88937500Y-40125000D01*
X88937500Y-40125000D02*
X88937500Y-36000000D01*
%TO.N,AD5941_1_CS*%
X61514400Y-18551900D02*
X61562500Y-18600000D01*
X60631800Y-18551900D02*
X61514400Y-18551900D01*
X60559000Y-18624700D02*
X60631800Y-18551900D01*
X33250000Y-68445000D02*
X33250000Y-69078600D01*
X33250000Y-69078600D02*
X33437500Y-69266100D01*
%TO.N,AD5941_1_RST*%
X36750000Y-69128500D02*
X36801800Y-69180300D01*
X61562500Y-19000000D02*
X60822700Y-19000000D01*
X36750000Y-68445000D02*
X36750000Y-69128500D01*
%TO.N,AD5941_2_CS*%
X61076400Y-19400000D02*
X61562500Y-19400000D01*
X60463000Y-20013400D02*
X61076400Y-19400000D01*
X58183200Y-68511800D02*
X58183200Y-69178100D01*
X58250000Y-68445000D02*
X58183200Y-68511800D01*
%TO.N,AD5941_2_RST*%
X61750000Y-68445000D02*
X61750000Y-69173500D01*
X61562500Y-19800000D02*
X62093200Y-19800000D01*
X62093200Y-19800000D02*
X62308000Y-20014800D01*
%TO.N,SPI1_SCK*%
D89*
X58750000Y-68445000D02*
X58750000Y-69137400D01*
X33864200Y-69089300D02*
X33750000Y-68975100D01*
X60274500Y-20848300D02*
X60888200Y-20234600D01*
X33864200Y-69442900D02*
X33864200Y-69089300D01*
D83*
X61562500Y-20200000D02*
X60922800Y-20200000D01*
X60922800Y-20200000D02*
X60888200Y-20234600D01*
D89*
X58750000Y-69137400D02*
X58875200Y-69262600D01*
X33750000Y-69557100D02*
X33864200Y-69442900D01*
X34043900Y-71193700D02*
X33750000Y-70899800D01*
X60274500Y-21110900D02*
X60274500Y-20848300D01*
X33750000Y-68975100D02*
X33750000Y-68445000D01*
X33750000Y-70899800D02*
X33750000Y-69557100D01*
%TO.N,SPI1_MOSI*%
D82*
X61562500Y-20600000D02*
X61125000Y-20600000D01*
D89*
X59721000Y-70050500D02*
X59721000Y-69351000D01*
X34306400Y-68501400D02*
X34306400Y-69789800D01*
D82*
X60925000Y-22781640D02*
X41152137Y-42554503D01*
X61125000Y-20600000D02*
X60925000Y-20800000D01*
X60925000Y-20800000D02*
X60925000Y-22781640D01*
D89*
X34250000Y-68445000D02*
X34306400Y-68501400D01*
D82*
X41152137Y-42554503D02*
X41152137Y-50347135D01*
D89*
X59250000Y-68880000D02*
X59250000Y-68445000D01*
X59721000Y-69351000D02*
X59250000Y-68880000D01*
%TO.N,SPI1_MISO*%
D82*
X64024425Y-22800000D02*
X63845060Y-22800000D01*
X35022122Y-69522122D02*
X35028886Y-69522122D01*
X34750000Y-69250000D02*
X35022122Y-69522122D01*
X60500000Y-69605175D02*
X60500000Y-70000000D01*
X59750000Y-68855175D02*
X60500000Y-69605175D01*
X62624425Y-21400000D02*
X64024425Y-22800000D01*
X59750000Y-68445000D02*
X59750000Y-68855175D01*
X34750000Y-68445000D02*
X34750000Y-69250000D01*
X61562500Y-21400000D02*
X62624425Y-21400000D01*
%TO.N,AD5941_1_INT*%
D80*
X62462286Y-21800000D02*
X62975650Y-22313364D01*
X62518900Y-21800000D02*
X61562500Y-21800000D01*
X35250000Y-68445000D02*
X35250000Y-68832100D01*
X62948400Y-22546500D02*
X62948400Y-22229500D01*
X62539014Y-22750000D02*
X62250000Y-22750000D01*
X62948400Y-22229500D02*
X62518900Y-21800000D01*
X61562500Y-21800000D02*
X62462286Y-21800000D01*
X62975650Y-22313364D02*
X62539014Y-22750000D01*
X35250000Y-68832100D02*
X35589500Y-69171600D01*
%TO.N,AD5941_2_INT*%
X61562500Y-22200000D02*
X62296600Y-22200000D01*
X62296600Y-22200000D02*
X62327200Y-22230600D01*
X60250000Y-68860200D02*
X60250000Y-68445000D01*
X60562000Y-69172200D02*
X60250000Y-68860200D01*
%TO.N,UV_LED_EN*%
X63241200Y-30722100D02*
X63241200Y-23478700D01*
X63401900Y-30882800D02*
X63241200Y-30722100D01*
X84510000Y-33943700D02*
X84510000Y-34000000D01*
X84067100Y-33500800D02*
X84510000Y-33943700D01*
X63241200Y-23478700D02*
X63200000Y-23437500D01*
%TO.N,BLUE_LED_EN*%
X63600000Y-29681300D02*
X63600000Y-23437500D01*
X63749900Y-29831200D02*
X63600000Y-29681300D01*
X89042500Y-32518700D02*
X88510000Y-33051200D01*
X88510000Y-33051200D02*
X88510000Y-34000000D01*
%TO.N,Net-(U2-XIN)*%
X64400000Y-23437500D02*
X64400000Y-22680600D01*
X54520000Y-14933800D02*
X54520000Y-15000000D01*
X57925400Y-15848300D02*
X57798700Y-15721600D01*
X58250000Y-15848300D02*
X57925400Y-15848300D01*
X58250000Y-17000000D02*
X58250000Y-15848300D01*
X54969200Y-14484600D02*
X54520000Y-14933800D01*
X64400000Y-22680600D02*
X64338100Y-22618700D01*
%TO.N,Net-(U2-XOUT)*%
X55750000Y-17000000D02*
X55750000Y-18151700D01*
X64800000Y-24112400D02*
X64908400Y-24220800D01*
X56050800Y-19324700D02*
X56050800Y-18452500D01*
X55791500Y-19584000D02*
X55791500Y-23124000D01*
X54520000Y-19000000D02*
X55104000Y-19584000D01*
X56050800Y-18452500D02*
X55750000Y-18151700D01*
X55791500Y-19584000D02*
X56050800Y-19324700D01*
X64800000Y-23437500D02*
X64800000Y-24112400D01*
X55791500Y-23124000D02*
X56310900Y-23643400D01*
X55104000Y-19584000D02*
X55791500Y-19584000D01*
%TO.N,Net-(J13-Pin_4)*%
X66000000Y-23437500D02*
X66000000Y-22563500D01*
X75270000Y-12635000D02*
X75270000Y-12638100D01*
X75270000Y-12638100D02*
X74759100Y-13149000D01*
%TO.N,Net-(J13-Pin_2)*%
X72730000Y-12635000D02*
X72730000Y-13331000D01*
X66400000Y-22732200D02*
X66544400Y-22587800D01*
X66400000Y-23437500D02*
X66400000Y-22732200D01*
%TO.N,WHITE_LED_EN*%
X92510000Y-28548600D02*
X90266700Y-26305300D01*
X67200000Y-23437500D02*
X67200000Y-24688600D01*
X92510000Y-34000000D02*
X92510000Y-28548600D01*
X67200000Y-24688600D02*
X67257800Y-24746400D01*
%TO.N,Net-(U2-QSPI_SD3)*%
X64274900Y-17561100D02*
X64400000Y-17436000D01*
X78420000Y-19365000D02*
X77588200Y-20196800D01*
X80475000Y-19365000D02*
X82796600Y-19365000D01*
X82796600Y-19365000D02*
X83071300Y-19639700D01*
X83071300Y-19639700D02*
X83071300Y-21438700D01*
X80475000Y-19365000D02*
X78420000Y-19365000D01*
X64400000Y-17436000D02*
X64400000Y-16562500D01*
X83071300Y-21438700D02*
X82510000Y-22000000D01*
%TO.N,Net-(U2-QSPI_SCLK)*%
X64000000Y-16562500D02*
X64000000Y-17268000D01*
X64000000Y-17268000D02*
X63787700Y-17480300D01*
X80475000Y-20635000D02*
X78644200Y-20635000D01*
X63787700Y-17480300D02*
X63787700Y-17695400D01*
X78644200Y-20635000D02*
X78627900Y-20618700D01*
%TO.N,Net-(U2-QSPI_SD0)*%
X63600000Y-17129000D02*
X63203300Y-17525700D01*
X63600000Y-16562500D02*
X63600000Y-17129000D01*
X78056700Y-21905000D02*
X77192300Y-21040600D01*
X80475000Y-21905000D02*
X78056700Y-21905000D01*
%TO.N,Net-(U2-QSPI_SD1)*%
X62800100Y-17761400D02*
X62997500Y-17958800D01*
X62800000Y-16562500D02*
X62800100Y-16562500D01*
X74278700Y-19365000D02*
X73966100Y-19052400D01*
X62800100Y-16562500D02*
X62800100Y-17761400D01*
X75525000Y-19365000D02*
X74278700Y-19365000D01*
%TO.N,Net-(U2-~{QSPI_SS})*%
X74476800Y-17046800D02*
X73383000Y-17046800D01*
X62400000Y-16562500D02*
X62350200Y-16612300D01*
X75525000Y-18095000D02*
X74476800Y-17046800D01*
X62350200Y-16612300D02*
X62350200Y-17364700D01*
%TO.N,Net-(U5-VBIAS_CAP)*%
X63849900Y-64750000D02*
X64132700Y-65032800D01*
X64132700Y-65032800D02*
X64132700Y-67986000D01*
X53520000Y-62084000D02*
X53520000Y-61000000D01*
X63445000Y-64750000D02*
X63849900Y-64750000D01*
X64132700Y-67986000D02*
X63842800Y-68275900D01*
X63842800Y-68275900D02*
X63736300Y-68275900D01*
X53335300Y-62268700D02*
X53520000Y-62084000D01*
%TO.N,Net-(U4-VREF_2V5)*%
X28520000Y-61000000D02*
X28520000Y-61264000D01*
X28520000Y-61264000D02*
X31006000Y-63750000D01*
X31006000Y-63750000D02*
X31555000Y-63750000D01*
%TO.N,Net-(U4-DVDD_REG_1V8)*%
X40520000Y-68375200D02*
X40297500Y-68152700D01*
X40520000Y-69000000D02*
X40520000Y-68375200D01*
X32750000Y-68445000D02*
X32750000Y-69387600D01*
X32750000Y-69387600D02*
X32587400Y-69550200D01*
%TO.N,Net-(U4-VBIAS_CAP)*%
X28520000Y-69000000D02*
X28520000Y-68279900D01*
X39143700Y-67996300D02*
X38801400Y-68338600D01*
X38445000Y-64750000D02*
X38861800Y-64750000D01*
X28520000Y-68279900D02*
X28717700Y-68082200D01*
X38801400Y-68338600D02*
X38382400Y-68338600D01*
X39143700Y-65031900D02*
X39143700Y-67996300D01*
X38861800Y-64750000D02*
X39143700Y-65031900D01*
%TO.N,Net-(U4-RCAL0)*%
X38862800Y-64250000D02*
X39496900Y-64884100D01*
X39496900Y-68218800D02*
X37055600Y-70660100D01*
X38445000Y-64250000D02*
X38862800Y-64250000D01*
X37055600Y-70660100D02*
X36829900Y-70660100D01*
X36829900Y-70660100D02*
X34490000Y-73000000D01*
X39496900Y-64884100D02*
X39496900Y-68218800D01*
%TO.N,Net-(U4-RCAL1)*%
X39895800Y-64783200D02*
X39895800Y-68614200D01*
X38445000Y-63750000D02*
X38862600Y-63750000D01*
X39895800Y-68614200D02*
X35510000Y-73000000D01*
X38862600Y-63750000D02*
X39895800Y-64783200D01*
%TO.N,Net-(J5-Pin_1)*%
X38445000Y-62250000D02*
X39185600Y-62250000D01*
%TO.N,Net-(J4-Pin_1)*%
X37992100Y-61555000D02*
X38197800Y-61349300D01*
X37750000Y-61555000D02*
X37992100Y-61555000D01*
%TO.N,Net-(J3-Pin_1)*%
X37250000Y-61144100D02*
X37250000Y-61555000D01*
X37582700Y-60811400D02*
X37250000Y-61144100D01*
%TO.N,Net-(J2-Pin_1)*%
X36750000Y-61555000D02*
X36750000Y-61050700D01*
X36750000Y-61050700D02*
X36971600Y-60829100D01*
%TO.N,Net-(U4-VREF_1V8)*%
X34873000Y-60805200D02*
X34750000Y-60928200D01*
X40456100Y-61063900D02*
X40456100Y-61638200D01*
X34750000Y-60928200D02*
X34750000Y-61555000D01*
X40520000Y-61000000D02*
X40456100Y-61063900D01*
%TO.N,unconnected-(U4-DE0-Pad46)*%
X33250000Y-61555000D02*
X33750000Y-61555000D01*
%TO.N,Net-(LED2-A)*%
X88937500Y-42000000D02*
X88937500Y-43572500D01*
X88937500Y-43572500D02*
X88510000Y-44000000D01*
%TO.N,Net-(Q1-G)*%
X86062500Y-15050000D02*
X83460000Y-15050000D01*
X83460000Y-15050000D02*
X82510000Y-16000000D01*
%TO.N,MUX_SDA0*%
X46902200Y-43348800D02*
X46902200Y-43220300D01*
X59460100Y-38293500D02*
X59284900Y-38468700D01*
X59460100Y-34762700D02*
X59460100Y-38293500D01*
X47303400Y-43750000D02*
X46902200Y-43348800D01*
X58897400Y-34200000D02*
X59460100Y-34762700D01*
X58800000Y-34200000D02*
X58897400Y-34200000D01*
X48062500Y-43750000D02*
X47303400Y-43750000D01*
%TO.N,MUX_SCL0*%
D82*
X48062500Y-44250000D02*
X47379136Y-44250000D01*
X46552200Y-43423064D02*
X46552200Y-40947800D01*
X53990000Y-33510000D02*
X58764714Y-33510000D01*
X47379136Y-44250000D02*
X46552200Y-43423064D01*
X46552200Y-40947800D02*
X53990000Y-33510000D01*
%TO.N,MUX_SDA1*%
X90121725Y-25955300D02*
X90411675Y-25955300D01*
X78537025Y-37540000D02*
X90121725Y-25955300D01*
X47887500Y-44575000D02*
X48062500Y-44750000D01*
X98000000Y-69500000D02*
X93185286Y-69500000D01*
X27344800Y-56380486D02*
X31235286Y-52490000D01*
X85990275Y-76510000D02*
X83653075Y-74172800D01*
X98540000Y-68960000D02*
X98000000Y-69500000D01*
X87000000Y-75685286D02*
X87000000Y-76314714D01*
X27344800Y-70619514D02*
X27344800Y-56380486D01*
X90411675Y-25955300D02*
X98540000Y-34083625D01*
X83653075Y-74172800D02*
X30898086Y-74172800D01*
X93185286Y-69500000D02*
X87000000Y-75685286D01*
X32000000Y-53314714D02*
X32195286Y-53510000D01*
X98540000Y-34083625D02*
X98540000Y-68960000D01*
X30898086Y-74172800D02*
X27344800Y-70619514D01*
X74000000Y-37540000D02*
X78537025Y-37540000D01*
X86804714Y-76510000D02*
X85990275Y-76510000D01*
X31804714Y-52490000D02*
X32000000Y-52685286D01*
X47277825Y-44575000D02*
X47887500Y-44575000D01*
X38342825Y-53510000D02*
X47277825Y-44575000D01*
X32195286Y-53510000D02*
X38342825Y-53510000D01*
X32000000Y-52685286D02*
X32000000Y-53314714D01*
X31235286Y-52490000D02*
X31804714Y-52490000D01*
X87000000Y-76314714D02*
X86804714Y-76510000D01*
%TO.N,MUX_SCL1*%
D80*
X47579600Y-45250000D02*
X47338700Y-45009100D01*
X48062500Y-45250000D02*
X47579600Y-45250000D01*
%TO.N,MUX_SDA2*%
X64650000Y-44763200D02*
X64086500Y-44199700D01*
X48062500Y-45750000D02*
X47545600Y-45750000D01*
X47545600Y-45750000D02*
X47313000Y-45982600D01*
X64650000Y-44825000D02*
X64650000Y-44763200D01*
%TO.N,MUX_SCL2*%
X48062500Y-46715300D02*
X48062500Y-46250000D01*
X63372700Y-44345500D02*
X63372700Y-45199100D01*
X47384100Y-47393700D02*
X48062500Y-46715300D01*
X64163200Y-43555000D02*
X63372700Y-44345500D01*
X63652000Y-45478400D02*
X64103200Y-45478400D01*
X64650000Y-43555000D02*
X64163200Y-43555000D01*
X63372700Y-45199100D02*
X63652000Y-45478400D01*
%TO.N,MUX_SDA3*%
X48750000Y-47650000D02*
X48750000Y-46937500D01*
X73500000Y-47746400D02*
X73480200Y-47766200D01*
X48643700Y-47756300D02*
X48750000Y-47650000D01*
X73500000Y-47090000D02*
X73500000Y-47746400D01*
%TO.N,MUX_SCL3*%
X74000000Y-47090000D02*
X74000000Y-46070700D01*
X49250000Y-46937500D02*
X49250000Y-47973200D01*
X49250000Y-47973200D02*
X49278600Y-48001800D01*
X74000000Y-46070700D02*
X74164500Y-45906200D01*
%TO.N,Net-(U15-OUT)*%
X31137500Y-49050000D02*
X32480000Y-50392500D01*
X32480000Y-50392500D02*
X32480000Y-53000000D01*
%TO.N,Net-(LED3-A)*%
X92937500Y-42000000D02*
X92510000Y-42427500D01*
X92510000Y-42427500D02*
X92510000Y-44000000D01*
%TO.N,Net-(U5-RCAL0)*%
X64484400Y-68254200D02*
X64484400Y-64769200D01*
X59490000Y-73000000D02*
X63343400Y-69146600D01*
X63343400Y-69146600D02*
X63592000Y-69146600D01*
X63592000Y-69146600D02*
X64484400Y-68254200D01*
X64484400Y-64769200D02*
X63965200Y-64250000D01*
X63965200Y-64250000D02*
X63445000Y-64250000D01*
%TO.N,Net-(U5-RCAL1)*%
X64007000Y-63750000D02*
X63445000Y-63750000D01*
X64836100Y-68673900D02*
X64836100Y-64579100D01*
X64836100Y-64579100D02*
X64007000Y-63750000D01*
X60510000Y-73000000D02*
X64836100Y-68673900D01*
%TO.N,Net-(Q3-G)*%
X83062500Y-35050000D02*
X83490000Y-34622500D01*
X83490000Y-34622500D02*
X83490000Y-34000000D01*
%TO.N,Net-(LED1-K)*%
X83062500Y-42000000D02*
X84937500Y-40125000D01*
X84937500Y-40125000D02*
X84937500Y-36000000D01*
%TO.N,Net-(LED3-K)*%
X91062500Y-42000000D02*
X92937500Y-40125000D01*
X92937500Y-40125000D02*
X92937500Y-36000000D01*
%TO.N,Net-(BZ1--)*%
X94600000Y-7000000D02*
X87937500Y-13662500D01*
X87937500Y-13662500D02*
X87937500Y-16000000D01*
%TO.N,Net-(U11-VDD)*%
X75487000Y-49275000D02*
X75186700Y-49275000D01*
X75160000Y-48750000D02*
X75716700Y-48750000D01*
X75716700Y-48750000D02*
X75716700Y-49045300D01*
X57627200Y-50711500D02*
X57520000Y-50604300D01*
X75716700Y-49045300D02*
X75487000Y-49275000D01*
X57520000Y-50604300D02*
X57520000Y-50000000D01*
%TO.N,Net-(U5-VREF_1V8)*%
X59750000Y-61109900D02*
X59467400Y-60827300D01*
X59750000Y-61555000D02*
X59750000Y-61109900D01*
X65520000Y-63841400D02*
X65432200Y-63753600D01*
X65520000Y-69000000D02*
X65520000Y-63841400D01*
X59467400Y-60827300D02*
X59189100Y-60827300D01*
%TO.N,Net-(U5-VREF_2V5)*%
X65520000Y-61986400D02*
X65520000Y-61000000D01*
X65237700Y-62268700D02*
X65520000Y-61986400D01*
X56555000Y-63750000D02*
X56136100Y-63750000D01*
X55780000Y-63393900D02*
X55780000Y-62418100D01*
X56136100Y-63750000D02*
X55780000Y-63393900D01*
%TO.N,Net-(Q5-G)*%
X91490000Y-34622500D02*
X91490000Y-34000000D01*
X91062500Y-35050000D02*
X91490000Y-34622500D01*
%TO.N,Net-(U16-VO)*%
X21150000Y-51100000D02*
X23050000Y-53000000D01*
X21150000Y-50000000D02*
X21150000Y-51100000D01*
X14850000Y-50000000D02*
X21150000Y-50000000D01*
%TO.N,Net-(U14-L2_6)*%
X28600000Y-41500000D02*
X28600000Y-41000000D01*
%TO.N,Net-(D3-DOUT)*%
X76450000Y-2780800D02*
X76450000Y-2350000D01*
X64550000Y-5650000D02*
X65547300Y-5650000D01*
X65547300Y-5650000D02*
X65641000Y-5743700D01*
X76074400Y-3156400D02*
X76450000Y-2780800D01*
%TO.N,Net-(J1-CC2)*%
X3250000Y-39303600D02*
X3743500Y-38810100D01*
X10330600Y-44840600D02*
X11490000Y-46000000D01*
X3743500Y-38810100D02*
X4008000Y-38810100D01*
X3250000Y-39955000D02*
X3250000Y-39303600D01*
X10189100Y-44840600D02*
X10330600Y-44840600D01*
%TO.N,Net-(J8-Pin_1)*%
X62750000Y-61555000D02*
X63071400Y-61555000D01*
X63071400Y-61555000D02*
X63458300Y-61168100D01*
%TO.N,Net-(J9-Pin_1)*%
X63445000Y-62250000D02*
X64176000Y-62250000D01*
%TO.N,unconnected-(U5-DE0-Pad46)*%
X58250000Y-61555000D02*
X58750000Y-61555000D01*
%TD*%
M02*
