%TF.GenerationSoftware,KiCad,Pcbnew,10.0.3*%
%TF.CreationDate,2026-06-15T12:52:25+05:30*%
%TF.ProjectId,Sentinel_HYDRA,53656e74-696e-4656-9c5f-48594452412e,rev?*%
%TF.SameCoordinates,Original*%
%TF.FileFunction,Drillmap*%
%TF.FilePolarity,Positive*%
%FSLAX45Y45*%
G04 Gerber Fmt 4.5, Leading zero omitted, Abs format (unit mm)*
G04 Created by KiCad (PCBNEW 10.0.3) date 2026-06-15 12:52:25*
%MOMM*%
%LPD*%
G01*
G04 APERTURE LIST*
%ADD10C,0.200000*%
%ADD11C,0.100000*%
G04 APERTURE END LIST*
D10*
D11*
X1680000Y-3880000D02*
X1700000Y-3900000D01*
X1700000Y-3880000D02*
X1680000Y-3900000D01*
X1680000Y-3990000D02*
X1700000Y-4010000D01*
X1700000Y-3990000D02*
X1680000Y-4010000D01*
X1680000Y-4100000D02*
X1700000Y-4120000D01*
X1700000Y-4100000D02*
X1680000Y-4120000D01*
X1790000Y-3880000D02*
X1810000Y-3900000D01*
X1810000Y-3880000D02*
X1790000Y-3900000D01*
X1790000Y-3990000D02*
X1810000Y-4010000D01*
X1810000Y-3990000D02*
X1790000Y-4010000D01*
X1790000Y-4100000D02*
X1810000Y-4120000D01*
X1810000Y-4100000D02*
X1790000Y-4120000D01*
X1900000Y-3880000D02*
X1920000Y-3900000D01*
X1920000Y-3880000D02*
X1900000Y-3900000D01*
X1900000Y-3990000D02*
X1920000Y-4010000D01*
X1920000Y-3990000D02*
X1900000Y-4010000D01*
X1900000Y-4100000D02*
X1920000Y-4120000D01*
X1920000Y-4100000D02*
X1900000Y-4120000D01*
X2200000Y-1966000D02*
X2220000Y-1986000D01*
X2220000Y-1966000D02*
X2200000Y-1986000D01*
X2200000Y-2106000D02*
X2220000Y-2126000D01*
X2220000Y-2106000D02*
X2200000Y-2126000D01*
X2270000Y-1896000D02*
X2290000Y-1916000D01*
X2290000Y-1896000D02*
X2270000Y-1916000D01*
X2270000Y-2036000D02*
X2290000Y-2056000D01*
X2290000Y-2036000D02*
X2270000Y-2056000D01*
X2270000Y-2176000D02*
X2290000Y-2196000D01*
X2290000Y-2176000D02*
X2270000Y-2196000D01*
X2340000Y-1966000D02*
X2360000Y-1986000D01*
X2360000Y-1966000D02*
X2340000Y-1986000D01*
X2340000Y-2106000D02*
X2360000Y-2126000D01*
X2360000Y-2106000D02*
X2340000Y-2126000D01*
X2410000Y-1896000D02*
X2430000Y-1916000D01*
X2430000Y-1896000D02*
X2410000Y-1916000D01*
X2410000Y-2036000D02*
X2430000Y-2056000D01*
X2430000Y-2036000D02*
X2410000Y-2056000D01*
X2410000Y-2176000D02*
X2430000Y-2196000D01*
X2430000Y-2176000D02*
X2410000Y-2196000D01*
X2480000Y-1966000D02*
X2500000Y-1986000D01*
X2500000Y-1966000D02*
X2480000Y-1986000D01*
X2480000Y-2106000D02*
X2500000Y-2126000D01*
X2500000Y-2106000D02*
X2480000Y-2126000D01*
X2940000Y-3890000D02*
X2960000Y-3910000D01*
X2960000Y-3890000D02*
X2940000Y-3910000D01*
X2940000Y-3940000D02*
X2960000Y-3960000D01*
X2960000Y-3940000D02*
X2940000Y-3960000D01*
X2940000Y-3990000D02*
X2960000Y-4010000D01*
X2960000Y-3990000D02*
X2940000Y-4010000D01*
X2940000Y-4040000D02*
X2960000Y-4060000D01*
X2960000Y-4040000D02*
X2940000Y-4060000D01*
X2940000Y-4090000D02*
X2960000Y-4110000D01*
X2960000Y-4090000D02*
X2940000Y-4110000D01*
X2990000Y-3890000D02*
X3010000Y-3910000D01*
X3010000Y-3890000D02*
X2990000Y-3910000D01*
X2990000Y-3940000D02*
X3010000Y-3960000D01*
X3010000Y-3940000D02*
X2990000Y-3960000D01*
X2990000Y-3990000D02*
X3010000Y-4010000D01*
X3010000Y-3990000D02*
X2990000Y-4010000D01*
X2990000Y-4040000D02*
X3010000Y-4060000D01*
X3010000Y-4040000D02*
X2990000Y-4060000D01*
X2990000Y-4090000D02*
X3010000Y-4110000D01*
X3010000Y-4090000D02*
X2990000Y-4110000D01*
X3040000Y-3890000D02*
X3060000Y-3910000D01*
X3060000Y-3890000D02*
X3040000Y-3910000D01*
X3040000Y-3940000D02*
X3060000Y-3960000D01*
X3060000Y-3940000D02*
X3040000Y-3960000D01*
X3040000Y-3990000D02*
X3060000Y-4010000D01*
X3060000Y-3990000D02*
X3040000Y-4010000D01*
X3040000Y-4040000D02*
X3060000Y-4060000D01*
X3060000Y-4040000D02*
X3040000Y-4060000D01*
X3040000Y-4090000D02*
X3060000Y-4110000D01*
X3060000Y-4090000D02*
X3040000Y-4110000D01*
X59700Y-3846870D02*
G75*
G02*
X29700Y-3846870I-15000J0D01*
G01*
X29700Y-3846870D02*
G75*
G02*
X59700Y-3846870I15000J0D01*
G01*
X141230Y-3400620D02*
G75*
G02*
X111230Y-3400620I-15000J0D01*
G01*
X111230Y-3400620D02*
G75*
G02*
X141230Y-3400620I15000J0D01*
G01*
X415800Y-3881010D02*
G75*
G02*
X385800Y-3881010I-15000J0D01*
G01*
X385800Y-3881010D02*
G75*
G02*
X415800Y-3881010I15000J0D01*
G01*
X929760Y-4441870D02*
G75*
G02*
X899760Y-4441870I-15000J0D01*
G01*
X899760Y-4441870D02*
G75*
G02*
X929760Y-4441870I15000J0D01*
G01*
X1033910Y-4484060D02*
G75*
G02*
X1003910Y-4484060I-15000J0D01*
G01*
X1003910Y-4484060D02*
G75*
G02*
X1033910Y-4484060I15000J0D01*
G01*
X1045200Y-1626880D02*
G75*
G02*
X1015200Y-1626880I-15000J0D01*
G01*
X1015200Y-1626880D02*
G75*
G02*
X1045200Y-1626880I15000J0D01*
G01*
X1045540Y-2640760D02*
G75*
G02*
X1015540Y-2640760I-15000J0D01*
G01*
X1015540Y-2640760D02*
G75*
G02*
X1045540Y-2640760I15000J0D01*
G01*
X1046500Y-2016980D02*
G75*
G02*
X1016500Y-2016980I-15000J0D01*
G01*
X1016500Y-2016980D02*
G75*
G02*
X1046500Y-2016980I15000J0D01*
G01*
X1049680Y-5334370D02*
G75*
G02*
X1019680Y-5334370I-15000J0D01*
G01*
X1019680Y-5334370D02*
G75*
G02*
X1049680Y-5334370I15000J0D01*
G01*
X1173630Y-4120270D02*
G75*
G02*
X1143630Y-4120270I-15000J0D01*
G01*
X1143630Y-4120270D02*
G75*
G02*
X1173630Y-4120270I15000J0D01*
G01*
X1182690Y-2508120D02*
G75*
G02*
X1152690Y-2508120I-15000J0D01*
G01*
X1152690Y-2508120D02*
G75*
G02*
X1182690Y-2508120I15000J0D01*
G01*
X1182690Y-5780620D02*
G75*
G02*
X1152690Y-5780620I-15000J0D01*
G01*
X1152690Y-5780620D02*
G75*
G02*
X1182690Y-5780620I15000J0D01*
G01*
X1263000Y-4337800D02*
G75*
G02*
X1233000Y-4337800I-15000J0D01*
G01*
X1233000Y-4337800D02*
G75*
G02*
X1263000Y-4337800I15000J0D01*
G01*
X1280300Y-3521470D02*
G75*
G02*
X1250300Y-3521470I-15000J0D01*
G01*
X1250300Y-3521470D02*
G75*
G02*
X1280300Y-3521470I15000J0D01*
G01*
X1313500Y-5719810D02*
G75*
G02*
X1283500Y-5719810I-15000J0D01*
G01*
X1283500Y-5719810D02*
G75*
G02*
X1313500Y-5719810I15000J0D01*
G01*
X1357600Y-5480900D02*
G75*
G02*
X1327600Y-5480900I-15000J0D01*
G01*
X1327600Y-5480900D02*
G75*
G02*
X1357600Y-5480900I15000J0D01*
G01*
X1364690Y-3679720D02*
G75*
G02*
X1334690Y-3679720I-15000J0D01*
G01*
X1334690Y-3679720D02*
G75*
G02*
X1364690Y-3679720I15000J0D01*
G01*
X1367000Y-1465180D02*
G75*
G02*
X1337000Y-1465180I-15000J0D01*
G01*
X1337000Y-1465180D02*
G75*
G02*
X1367000Y-1465180I15000J0D01*
G01*
X1367000Y-1662200D02*
G75*
G02*
X1337000Y-1662200I-15000J0D01*
G01*
X1337000Y-1662200D02*
G75*
G02*
X1367000Y-1662200I15000J0D01*
G01*
X1381890Y-5549160D02*
G75*
G02*
X1351890Y-5549160I-15000J0D01*
G01*
X1351890Y-5549160D02*
G75*
G02*
X1381890Y-5549160I15000J0D01*
G01*
X1480250Y-2805620D02*
G75*
G02*
X1450250Y-2805620I-15000J0D01*
G01*
X1450250Y-2805620D02*
G75*
G02*
X1480250Y-2805620I15000J0D01*
G01*
X1492930Y-1486150D02*
G75*
G02*
X1462930Y-1486150I-15000J0D01*
G01*
X1462930Y-1486150D02*
G75*
G02*
X1492930Y-1486150I15000J0D01*
G01*
X1522850Y-1807960D02*
G75*
G02*
X1492850Y-1807960I-15000J0D01*
G01*
X1492850Y-1807960D02*
G75*
G02*
X1522850Y-1807960I15000J0D01*
G01*
X1532380Y-1988020D02*
G75*
G02*
X1502380Y-1988020I-15000J0D01*
G01*
X1502380Y-1988020D02*
G75*
G02*
X1532380Y-1988020I15000J0D01*
G01*
X1534160Y-1272500D02*
G75*
G02*
X1504160Y-1272500I-15000J0D01*
G01*
X1504160Y-1272500D02*
G75*
G02*
X1534160Y-1272500I15000J0D01*
G01*
X1534820Y-2291470D02*
G75*
G02*
X1504820Y-2291470I-15000J0D01*
G01*
X1504820Y-2291470D02*
G75*
G02*
X1534820Y-2291470I15000J0D01*
G01*
X1542420Y-4021540D02*
G75*
G02*
X1512420Y-4021540I-15000J0D01*
G01*
X1512420Y-4021540D02*
G75*
G02*
X1542420Y-4021540I15000J0D01*
G01*
X1546580Y-3779540D02*
G75*
G02*
X1516580Y-3779540I-15000J0D01*
G01*
X1516580Y-3779540D02*
G75*
G02*
X1546580Y-3779540I15000J0D01*
G01*
X1615950Y-4178080D02*
G75*
G02*
X1585950Y-4178080I-15000J0D01*
G01*
X1585950Y-4178080D02*
G75*
G02*
X1615950Y-4178080I15000J0D01*
G01*
X1657890Y-5067420D02*
G75*
G02*
X1627890Y-5067420I-15000J0D01*
G01*
X1627890Y-5067420D02*
G75*
G02*
X1657890Y-5067420I15000J0D01*
G01*
X1660080Y-4275570D02*
G75*
G02*
X1630080Y-4275570I-15000J0D01*
G01*
X1630080Y-4275570D02*
G75*
G02*
X1660080Y-4275570I15000J0D01*
G01*
X1696860Y-3687450D02*
G75*
G02*
X1666860Y-3687450I-15000J0D01*
G01*
X1666860Y-3687450D02*
G75*
G02*
X1696860Y-3687450I15000J0D01*
G01*
X1746290Y-1782000D02*
G75*
G02*
X1716290Y-1782000I-15000J0D01*
G01*
X1716290Y-1782000D02*
G75*
G02*
X1746290Y-1782000I15000J0D01*
G01*
X1746810Y-4330200D02*
G75*
G02*
X1716810Y-4330200I-15000J0D01*
G01*
X1716810Y-4330200D02*
G75*
G02*
X1746810Y-4330200I15000J0D01*
G01*
X1747910Y-2174850D02*
G75*
G02*
X1717910Y-2174850I-15000J0D01*
G01*
X1717910Y-2174850D02*
G75*
G02*
X1747910Y-2174850I15000J0D01*
G01*
X1783600Y-2061870D02*
G75*
G02*
X1753600Y-2061870I-15000J0D01*
G01*
X1753600Y-2061870D02*
G75*
G02*
X1783600Y-2061870I15000J0D01*
G01*
X1783600Y-2420790D02*
G75*
G02*
X1753600Y-2420790I-15000J0D01*
G01*
X1753600Y-2420790D02*
G75*
G02*
X1783600Y-2420790I15000J0D01*
G01*
X1783600Y-2656870D02*
G75*
G02*
X1753600Y-2656870I-15000J0D01*
G01*
X1753600Y-2656870D02*
G75*
G02*
X1783600Y-2656870I15000J0D01*
G01*
X1805590Y-3543860D02*
G75*
G02*
X1775590Y-3543860I-15000J0D01*
G01*
X1775590Y-3543860D02*
G75*
G02*
X1805590Y-3543860I15000J0D01*
G01*
X1806750Y-1764370D02*
G75*
G02*
X1776750Y-1764370I-15000J0D01*
G01*
X1776750Y-1764370D02*
G75*
G02*
X1806750Y-1764370I15000J0D01*
G01*
X1943960Y-2644480D02*
G75*
G02*
X1913960Y-2644480I-15000J0D01*
G01*
X1913960Y-2644480D02*
G75*
G02*
X1943960Y-2644480I15000J0D01*
G01*
X1985330Y-4193000D02*
G75*
G02*
X1955330Y-4193000I-15000J0D01*
G01*
X1955330Y-4193000D02*
G75*
G02*
X1985330Y-4193000I15000J0D01*
G01*
X2075370Y-2927500D02*
G75*
G02*
X2045370Y-2927500I-15000J0D01*
G01*
X2045370Y-2927500D02*
G75*
G02*
X2075370Y-2927500I15000J0D01*
G01*
X2101140Y-4003760D02*
G75*
G02*
X2071140Y-4003760I-15000J0D01*
G01*
X2071140Y-4003760D02*
G75*
G02*
X2101140Y-4003760I15000J0D01*
G01*
X2214630Y-2927500D02*
G75*
G02*
X2184630Y-2927500I-15000J0D01*
G01*
X2184630Y-2927500D02*
G75*
G02*
X2214630Y-2927500I15000J0D01*
G01*
X2268280Y-5165410D02*
G75*
G02*
X2238280Y-5165410I-15000J0D01*
G01*
X2238280Y-5165410D02*
G75*
G02*
X2268280Y-5165410I15000J0D01*
G01*
X2283590Y-4350440D02*
G75*
G02*
X2253590Y-4350440I-15000J0D01*
G01*
X2253590Y-4350440D02*
G75*
G02*
X2283590Y-4350440I15000J0D01*
G01*
X2337320Y-3157810D02*
G75*
G02*
X2307320Y-3157810I-15000J0D01*
G01*
X2307320Y-3157810D02*
G75*
G02*
X2337320Y-3157810I15000J0D01*
G01*
X2372930Y-3696350D02*
G75*
G02*
X2342930Y-3696350I-15000J0D01*
G01*
X2342930Y-3696350D02*
G75*
G02*
X2372930Y-3696350I15000J0D01*
G01*
X2408710Y-5036870D02*
G75*
G02*
X2378710Y-5036870I-15000J0D01*
G01*
X2378710Y-5036870D02*
G75*
G02*
X2408710Y-5036870I15000J0D01*
G01*
X2521710Y-2927500D02*
G75*
G02*
X2491710Y-2927500I-15000J0D01*
G01*
X2491710Y-2927500D02*
G75*
G02*
X2521710Y-2927500I15000J0D01*
G01*
X2645550Y-3252030D02*
G75*
G02*
X2615550Y-3252030I-15000J0D01*
G01*
X2615550Y-3252030D02*
G75*
G02*
X2645550Y-3252030I15000J0D01*
G01*
X2702070Y-2927500D02*
G75*
G02*
X2672070Y-2927500I-15000J0D01*
G01*
X2672070Y-2927500D02*
G75*
G02*
X2702070Y-2927500I15000J0D01*
G01*
X2705140Y-5300000D02*
G75*
G02*
X2675140Y-5300000I-15000J0D01*
G01*
X2675140Y-5300000D02*
G75*
G02*
X2705140Y-5300000I15000J0D01*
G01*
X2749720Y-3617120D02*
G75*
G02*
X2719720Y-3617120I-15000J0D01*
G01*
X2719720Y-3617120D02*
G75*
G02*
X2749720Y-3617120I15000J0D01*
G01*
X2800640Y-4074460D02*
G75*
G02*
X2770640Y-4074460I-15000J0D01*
G01*
X2770640Y-4074460D02*
G75*
G02*
X2800640Y-4074460I15000J0D01*
G01*
X2875000Y-3805880D02*
G75*
G02*
X2845000Y-3805880I-15000J0D01*
G01*
X2845000Y-3805880D02*
G75*
G02*
X2875000Y-3805880I15000J0D01*
G01*
X2886770Y-6808220D02*
G75*
G02*
X2856770Y-6808220I-15000J0D01*
G01*
X2856770Y-6808220D02*
G75*
G02*
X2886770Y-6808220I15000J0D01*
G01*
X2996170Y-6198770D02*
G75*
G02*
X2966170Y-6198770I-15000J0D01*
G01*
X2966170Y-6198770D02*
G75*
G02*
X2996170Y-6198770I15000J0D01*
G01*
X3116830Y-3400620D02*
G75*
G02*
X3086830Y-3400620I-15000J0D01*
G01*
X3086830Y-3400620D02*
G75*
G02*
X3116830Y-3400620I15000J0D01*
G01*
X3182960Y-4192930D02*
G75*
G02*
X3152960Y-4192930I-15000J0D01*
G01*
X3152960Y-4192930D02*
G75*
G02*
X3182960Y-4192930I15000J0D01*
G01*
X3219290Y-4003730D02*
G75*
G02*
X3189290Y-4003730I-15000J0D01*
G01*
X3189290Y-4003730D02*
G75*
G02*
X3219290Y-4003730I15000J0D01*
G01*
X3265500Y-6058510D02*
G75*
G02*
X3235500Y-6058510I-15000J0D01*
G01*
X3235500Y-6058510D02*
G75*
G02*
X3265500Y-6058510I15000J0D01*
G01*
X3273740Y-6955020D02*
G75*
G02*
X3243740Y-6955020I-15000J0D01*
G01*
X3243740Y-6955020D02*
G75*
G02*
X3273740Y-6955020I15000J0D01*
G01*
X3289420Y-3088170D02*
G75*
G02*
X3259420Y-3088170I-15000J0D01*
G01*
X3259420Y-3088170D02*
G75*
G02*
X3289420Y-3088170I15000J0D01*
G01*
X3314900Y-6058960D02*
G75*
G02*
X3284900Y-6058960I-15000J0D01*
G01*
X3284900Y-6058960D02*
G75*
G02*
X3314900Y-6058960I15000J0D01*
G01*
X3358750Y-6926610D02*
G75*
G02*
X3328750Y-6926610I-15000J0D01*
G01*
X3328750Y-6926610D02*
G75*
G02*
X3358750Y-6926610I15000J0D01*
G01*
X3414390Y-4144370D02*
G75*
G02*
X3384390Y-4144370I-15000J0D01*
G01*
X3384390Y-4144370D02*
G75*
G02*
X3414390Y-4144370I15000J0D01*
G01*
X3419390Y-7119370D02*
G75*
G02*
X3389390Y-7119370I-15000J0D01*
G01*
X3389390Y-7119370D02*
G75*
G02*
X3419390Y-7119370I15000J0D01*
G01*
X3445640Y-6978980D02*
G75*
G02*
X3415640Y-6978980I-15000J0D01*
G01*
X3415640Y-6978980D02*
G75*
G02*
X3445640Y-6978980I15000J0D01*
G01*
X3502300Y-6080520D02*
G75*
G02*
X3472300Y-6080520I-15000J0D01*
G01*
X3472300Y-6080520D02*
G75*
G02*
X3502300Y-6080520I15000J0D01*
G01*
X3515390Y-1572160D02*
G75*
G02*
X3485390Y-1572160I-15000J0D01*
G01*
X3485390Y-1572160D02*
G75*
G02*
X3515390Y-1572160I15000J0D01*
G01*
X3517889Y-6952212D02*
G75*
G02*
X3487889Y-6952212I-15000J0D01*
G01*
X3487889Y-6952212D02*
G75*
G02*
X3517889Y-6952212I15000J0D01*
G01*
X3561870Y-1306350D02*
G75*
G02*
X3531870Y-1306350I-15000J0D01*
G01*
X3531870Y-1306350D02*
G75*
G02*
X3561870Y-1306350I15000J0D01*
G01*
X3565310Y-4420270D02*
G75*
G02*
X3535310Y-4420270I-15000J0D01*
G01*
X3535310Y-4420270D02*
G75*
G02*
X3565310Y-4420270I15000J0D01*
G01*
X3573950Y-6917160D02*
G75*
G02*
X3543950Y-6917160I-15000J0D01*
G01*
X3543950Y-6917160D02*
G75*
G02*
X3573950Y-6917160I15000J0D01*
G01*
X3603830Y-2164930D02*
G75*
G02*
X3573830Y-2164930I-15000J0D01*
G01*
X3573830Y-2164930D02*
G75*
G02*
X3603830Y-2164930I15000J0D01*
G01*
X3695180Y-6918030D02*
G75*
G02*
X3665180Y-6918030I-15000J0D01*
G01*
X3665180Y-6918030D02*
G75*
G02*
X3695180Y-6918030I15000J0D01*
G01*
X3711950Y-2508120D02*
G75*
G02*
X3681950Y-2508120I-15000J0D01*
G01*
X3681950Y-2508120D02*
G75*
G02*
X3711950Y-2508120I15000J0D01*
G01*
X3712160Y-6082910D02*
G75*
G02*
X3682160Y-6082910I-15000J0D01*
G01*
X3682160Y-6082910D02*
G75*
G02*
X3712160Y-6082910I15000J0D01*
G01*
X3726380Y-1411810D02*
G75*
G02*
X3696380Y-1411810I-15000J0D01*
G01*
X3696380Y-1411810D02*
G75*
G02*
X3726380Y-1411810I15000J0D01*
G01*
X3748880Y-6956550D02*
G75*
G02*
X3718880Y-6956550I-15000J0D01*
G01*
X3718880Y-6956550D02*
G75*
G02*
X3748880Y-6956550I15000J0D01*
G01*
X3773270Y-6081140D02*
G75*
G02*
X3743270Y-6081140I-15000J0D01*
G01*
X3743270Y-6081140D02*
G75*
G02*
X3773270Y-6081140I15000J0D01*
G01*
X3834780Y-6134930D02*
G75*
G02*
X3804780Y-6134930I-15000J0D01*
G01*
X3804780Y-6134930D02*
G75*
G02*
X3834780Y-6134930I15000J0D01*
G01*
X3853240Y-6833860D02*
G75*
G02*
X3823240Y-6833860I-15000J0D01*
G01*
X3823240Y-6833860D02*
G75*
G02*
X3853240Y-6833860I15000J0D01*
G01*
X3933560Y-6225000D02*
G75*
G02*
X3903560Y-6225000I-15000J0D01*
G01*
X3903560Y-6225000D02*
G75*
G02*
X3933560Y-6225000I15000J0D01*
G01*
X4012040Y-6986330D02*
G75*
G02*
X3982040Y-6986330I-15000J0D01*
G01*
X3982040Y-6986330D02*
G75*
G02*
X4012040Y-6986330I15000J0D01*
G01*
X4044750Y-6815270D02*
G75*
G02*
X4014750Y-6815270I-15000J0D01*
G01*
X4014750Y-6815270D02*
G75*
G02*
X4044750Y-6815270I15000J0D01*
G01*
X4060610Y-6163820D02*
G75*
G02*
X4030610Y-6163820I-15000J0D01*
G01*
X4030610Y-6163820D02*
G75*
G02*
X4060610Y-6163820I15000J0D01*
G01*
X4163000Y-6178150D02*
G75*
G02*
X4133000Y-6178150I-15000J0D01*
G01*
X4133000Y-6178150D02*
G75*
G02*
X4163000Y-6178150I15000J0D01*
G01*
X4705220Y-4322030D02*
G75*
G02*
X4675220Y-4322030I-15000J0D01*
G01*
X4675220Y-4322030D02*
G75*
G02*
X4705220Y-4322030I15000J0D01*
G01*
X4746300Y-4598260D02*
G75*
G02*
X4716300Y-4598260I-15000J0D01*
G01*
X4716300Y-4598260D02*
G75*
G02*
X4746300Y-4598260I15000J0D01*
G01*
X4748870Y-4500910D02*
G75*
G02*
X4718870Y-4500910I-15000J0D01*
G01*
X4718870Y-4500910D02*
G75*
G02*
X4748870Y-4500910I15000J0D01*
G01*
X4753410Y-4739370D02*
G75*
G02*
X4723410Y-4739370I-15000J0D01*
G01*
X4723410Y-4739370D02*
G75*
G02*
X4753410Y-4739370I15000J0D01*
G01*
X4879370Y-4775630D02*
G75*
G02*
X4849370Y-4775630I-15000J0D01*
G01*
X4849370Y-4775630D02*
G75*
G02*
X4879370Y-4775630I15000J0D01*
G01*
X4942860Y-4800180D02*
G75*
G02*
X4912860Y-4800180I-15000J0D01*
G01*
X4912860Y-4800180D02*
G75*
G02*
X4942860Y-4800180I15000J0D01*
G01*
X5016040Y-4218320D02*
G75*
G02*
X4986040Y-4218320I-15000J0D01*
G01*
X4986040Y-4218320D02*
G75*
G02*
X5016040Y-4218320I15000J0D01*
G01*
X5050970Y-2061420D02*
G75*
G02*
X5020970Y-2061420I-15000J0D01*
G01*
X5020970Y-2061420D02*
G75*
G02*
X5050970Y-2061420I15000J0D01*
G01*
X5185520Y-4290610D02*
G75*
G02*
X5155520Y-4290610I-15000J0D01*
G01*
X5155520Y-4290610D02*
G75*
G02*
X5185520Y-4290610I15000J0D01*
G01*
X5194080Y-558860D02*
G75*
G02*
X5164080Y-558860I-15000J0D01*
G01*
X5164080Y-558860D02*
G75*
G02*
X5194080Y-558860I15000J0D01*
G01*
X5348530Y-6226870D02*
G75*
G02*
X5318530Y-6226870I-15000J0D01*
G01*
X5318530Y-6226870D02*
G75*
G02*
X5348530Y-6226870I15000J0D01*
G01*
X5501230Y-311720D02*
G75*
G02*
X5471230Y-311720I-15000J0D01*
G01*
X5471230Y-311720D02*
G75*
G02*
X5501230Y-311720I15000J0D01*
G01*
X5511920Y-1448460D02*
G75*
G02*
X5481920Y-1448460I-15000J0D01*
G01*
X5481920Y-1448460D02*
G75*
G02*
X5511920Y-1448460I15000J0D01*
G01*
X5593000Y-6241810D02*
G75*
G02*
X5563000Y-6241810I-15000J0D01*
G01*
X5563000Y-6241810D02*
G75*
G02*
X5593000Y-6241810I15000J0D01*
G01*
X5646090Y-2364340D02*
G75*
G02*
X5616090Y-2364340I-15000J0D01*
G01*
X5616090Y-2364340D02*
G75*
G02*
X5646090Y-2364340I15000J0D01*
G01*
X5735800Y-6058620D02*
G75*
G02*
X5705800Y-6058620I-15000J0D01*
G01*
X5705800Y-6058620D02*
G75*
G02*
X5735800Y-6058620I15000J0D01*
G01*
X5777720Y-5071150D02*
G75*
G02*
X5747720Y-5071150I-15000J0D01*
G01*
X5747720Y-5071150D02*
G75*
G02*
X5777720Y-5071150I15000J0D01*
G01*
X5779720Y-1475800D02*
G75*
G02*
X5749720Y-1475800I-15000J0D01*
G01*
X5749720Y-1475800D02*
G75*
G02*
X5779720Y-1475800I15000J0D01*
G01*
X5787690Y-6081910D02*
G75*
G02*
X5757690Y-6081910I-15000J0D01*
G01*
X5757690Y-6081910D02*
G75*
G02*
X5787690Y-6081910I15000J0D01*
G01*
X5794870Y-425620D02*
G75*
G02*
X5764870Y-425620I-15000J0D01*
G01*
X5764870Y-425620D02*
G75*
G02*
X5794870Y-425620I15000J0D01*
G01*
X5794870Y-1572160D02*
G75*
G02*
X5764870Y-1572160I-15000J0D01*
G01*
X5764870Y-1572160D02*
G75*
G02*
X5794870Y-1572160I15000J0D01*
G01*
X5833320Y-6917810D02*
G75*
G02*
X5803320Y-6917810I-15000J0D01*
G01*
X5803320Y-6917810D02*
G75*
G02*
X5833320Y-6917810I15000J0D01*
G01*
X5852870Y-1846840D02*
G75*
G02*
X5822870Y-1846840I-15000J0D01*
G01*
X5822870Y-1846840D02*
G75*
G02*
X5852870Y-1846840I15000J0D01*
G01*
X5885480Y-7119370D02*
G75*
G02*
X5855480Y-7119370I-15000J0D01*
G01*
X5855480Y-7119370D02*
G75*
G02*
X5885480Y-7119370I15000J0D01*
G01*
X5902520Y-6926260D02*
G75*
G02*
X5872520Y-6926260I-15000J0D01*
G01*
X5872520Y-6926260D02*
G75*
G02*
X5902520Y-6926260I15000J0D01*
G01*
X5933910Y-6082730D02*
G75*
G02*
X5903910Y-6082730I-15000J0D01*
G01*
X5903910Y-6082730D02*
G75*
G02*
X5933910Y-6082730I15000J0D01*
G01*
X5942820Y-1731840D02*
G75*
G02*
X5912820Y-1731840I-15000J0D01*
G01*
X5912820Y-1731840D02*
G75*
G02*
X5942820Y-1731840I15000J0D01*
G01*
X5943490Y-3846870D02*
G75*
G02*
X5913490Y-3846870I-15000J0D01*
G01*
X5913490Y-3846870D02*
G75*
G02*
X5943490Y-3846870I15000J0D01*
G01*
X5963000Y-1464480D02*
G75*
G02*
X5933000Y-1464480I-15000J0D01*
G01*
X5933000Y-1464480D02*
G75*
G02*
X5963000Y-1464480I15000J0D01*
G01*
X5987100Y-7005050D02*
G75*
G02*
X5957100Y-7005050I-15000J0D01*
G01*
X5957100Y-7005050D02*
G75*
G02*
X5987100Y-7005050I15000J0D01*
G01*
X6042450Y-2111090D02*
G75*
G02*
X6012450Y-2111090I-15000J0D01*
G01*
X6012450Y-2111090D02*
G75*
G02*
X6042450Y-2111090I15000J0D01*
G01*
X6061300Y-2001340D02*
G75*
G02*
X6031300Y-2001340I-15000J0D01*
G01*
X6031300Y-2001340D02*
G75*
G02*
X6061300Y-2001340I15000J0D01*
G01*
X6065000Y-7000000D02*
G75*
G02*
X6035000Y-7000000I-15000J0D01*
G01*
X6035000Y-7000000D02*
G75*
G02*
X6065000Y-7000000I15000J0D01*
G01*
X6070900Y-1862470D02*
G75*
G02*
X6040900Y-1862470I-15000J0D01*
G01*
X6040900Y-1862470D02*
G75*
G02*
X6070900Y-1862470I15000J0D01*
G01*
X6071200Y-6917220D02*
G75*
G02*
X6041200Y-6917220I-15000J0D01*
G01*
X6041200Y-6917220D02*
G75*
G02*
X6071200Y-6917220I15000J0D01*
G01*
X6097270Y-1900000D02*
G75*
G02*
X6067270Y-1900000I-15000J0D01*
G01*
X6067270Y-1900000D02*
G75*
G02*
X6097270Y-1900000I15000J0D01*
G01*
X6156340Y-6080890D02*
G75*
G02*
X6126340Y-6080890I-15000J0D01*
G01*
X6126340Y-6080890D02*
G75*
G02*
X6156340Y-6080890I15000J0D01*
G01*
X6170560Y-2690730D02*
G75*
G02*
X6140560Y-2690730I-15000J0D01*
G01*
X6140560Y-2690730D02*
G75*
G02*
X6170560Y-2690730I15000J0D01*
G01*
X6190000Y-6917350D02*
G75*
G02*
X6160000Y-6917350I-15000J0D01*
G01*
X6160000Y-6917350D02*
G75*
G02*
X6190000Y-6917350I15000J0D01*
G01*
X6201370Y-1667760D02*
G75*
G02*
X6171370Y-1667760I-15000J0D01*
G01*
X6171370Y-1667760D02*
G75*
G02*
X6201370Y-1667760I15000J0D01*
G01*
X6241210Y-338440D02*
G75*
G02*
X6211210Y-338440I-15000J0D01*
G01*
X6211210Y-338440D02*
G75*
G02*
X6241210Y-338440I15000J0D01*
G01*
X6244070Y-3400460D02*
G75*
G02*
X6214070Y-3400460I-15000J0D01*
G01*
X6214070Y-3400460D02*
G75*
G02*
X6244070Y-3400460I15000J0D01*
G01*
X6245800Y-2001480D02*
G75*
G02*
X6215800Y-2001480I-15000J0D01*
G01*
X6215800Y-2001480D02*
G75*
G02*
X6245800Y-2001480I15000J0D01*
G01*
X6247540Y-2638550D02*
G75*
G02*
X6217540Y-2638550I-15000J0D01*
G01*
X6217540Y-2638550D02*
G75*
G02*
X6247540Y-2638550I15000J0D01*
G01*
X6247720Y-2223060D02*
G75*
G02*
X6217720Y-2223060I-15000J0D01*
G01*
X6217720Y-2223060D02*
G75*
G02*
X6247720Y-2223060I15000J0D01*
G01*
X6250020Y-1736470D02*
G75*
G02*
X6220020Y-1736470I-15000J0D01*
G01*
X6220020Y-1736470D02*
G75*
G02*
X6250020Y-1736470I15000J0D01*
G01*
X6255000Y-2418530D02*
G75*
G02*
X6225000Y-2418530I-15000J0D01*
G01*
X6225000Y-2418530D02*
G75*
G02*
X6255000Y-2418530I15000J0D01*
G01*
X6280710Y-4332610D02*
G75*
G02*
X6250710Y-4332610I-15000J0D01*
G01*
X6250710Y-4332610D02*
G75*
G02*
X6280710Y-4332610I15000J0D01*
G01*
X6309840Y-2254650D02*
G75*
G02*
X6279840Y-2254650I-15000J0D01*
G01*
X6279840Y-2254650D02*
G75*
G02*
X6309840Y-2254650I15000J0D01*
G01*
X6314750Y-1795880D02*
G75*
G02*
X6284750Y-1795880I-15000J0D01*
G01*
X6284750Y-1795880D02*
G75*
G02*
X6314750Y-1795880I15000J0D01*
G01*
X6319660Y-6088320D02*
G75*
G02*
X6289660Y-6088320I-15000J0D01*
G01*
X6289660Y-6088320D02*
G75*
G02*
X6319660Y-6088320I15000J0D01*
G01*
X6324800Y-2023930D02*
G75*
G02*
X6294800Y-2023930I-15000J0D01*
G01*
X6294800Y-2023930D02*
G75*
G02*
X6324800Y-2023930I15000J0D01*
G01*
X6335330Y-1752570D02*
G75*
G02*
X6305330Y-1752570I-15000J0D01*
G01*
X6305330Y-1752570D02*
G75*
G02*
X6335330Y-1752570I15000J0D01*
G01*
X6355190Y-3088280D02*
G75*
G02*
X6325190Y-3088280I-15000J0D01*
G01*
X6325190Y-3088280D02*
G75*
G02*
X6355190Y-3088280I15000J0D01*
G01*
X6360830Y-6116810D02*
G75*
G02*
X6330830Y-6116810I-15000J0D01*
G01*
X6330830Y-6116810D02*
G75*
G02*
X6360830Y-6116810I15000J0D01*
G01*
X6388630Y-6827590D02*
G75*
G02*
X6358630Y-6827590I-15000J0D01*
G01*
X6358630Y-6827590D02*
G75*
G02*
X6388630Y-6827590I15000J0D01*
G01*
X6389990Y-2983120D02*
G75*
G02*
X6359990Y-2983120I-15000J0D01*
G01*
X6359990Y-2983120D02*
G75*
G02*
X6389990Y-2983120I15000J0D01*
G01*
X6393770Y-1769540D02*
G75*
G02*
X6363770Y-1769540I-15000J0D01*
G01*
X6363770Y-1769540D02*
G75*
G02*
X6393770Y-1769540I15000J0D01*
G01*
X6423650Y-4419970D02*
G75*
G02*
X6393650Y-4419970I-15000J0D01*
G01*
X6393650Y-4419970D02*
G75*
G02*
X6423650Y-4419970I15000J0D01*
G01*
X6425320Y-4547840D02*
G75*
G02*
X6395320Y-4547840I-15000J0D01*
G01*
X6395320Y-4547840D02*
G75*
G02*
X6425320Y-4547840I15000J0D01*
G01*
X6432600Y-6225000D02*
G75*
G02*
X6402600Y-6225000I-15000J0D01*
G01*
X6402600Y-6225000D02*
G75*
G02*
X6432600Y-6225000I15000J0D01*
G01*
X6442490Y-1756110D02*
G75*
G02*
X6412490Y-1756110I-15000J0D01*
G01*
X6412490Y-1756110D02*
G75*
G02*
X6442490Y-1756110I15000J0D01*
G01*
X6448810Y-2261870D02*
G75*
G02*
X6418810Y-2261870I-15000J0D01*
G01*
X6418810Y-2261870D02*
G75*
G02*
X6448810Y-2261870I15000J0D01*
G01*
X6505840Y-2422080D02*
G75*
G02*
X6475840Y-2422080I-15000J0D01*
G01*
X6475840Y-2422080D02*
G75*
G02*
X6505840Y-2422080I15000J0D01*
G01*
X6538770Y-6226870D02*
G75*
G02*
X6508770Y-6226870I-15000J0D01*
G01*
X6508770Y-6226870D02*
G75*
G02*
X6538770Y-6226870I15000J0D01*
G01*
X6547110Y-2250810D02*
G75*
G02*
X6517110Y-2250810I-15000J0D01*
G01*
X6517110Y-2250810D02*
G75*
G02*
X6547110Y-2250810I15000J0D01*
G01*
X6558220Y-6375360D02*
G75*
G02*
X6528220Y-6375360I-15000J0D01*
G01*
X6528220Y-6375360D02*
G75*
G02*
X6558220Y-6375360I15000J0D01*
G01*
X6579100Y-574370D02*
G75*
G02*
X6549100Y-574370I-15000J0D01*
G01*
X6549100Y-574370D02*
G75*
G02*
X6579100Y-574370I15000J0D01*
G01*
X6582330Y-1742560D02*
G75*
G02*
X6552330Y-1742560I-15000J0D01*
G01*
X6552330Y-1742560D02*
G75*
G02*
X6582330Y-1742560I15000J0D01*
G01*
X6615000Y-2256350D02*
G75*
G02*
X6585000Y-2256350I-15000J0D01*
G01*
X6585000Y-2256350D02*
G75*
G02*
X6615000Y-2256350I15000J0D01*
G01*
X6669210Y-7162400D02*
G75*
G02*
X6639210Y-7162400I-15000J0D01*
G01*
X6639210Y-7162400D02*
G75*
G02*
X6669210Y-7162400I15000J0D01*
G01*
X6669440Y-2258780D02*
G75*
G02*
X6639440Y-2258780I-15000J0D01*
G01*
X6639440Y-2258780D02*
G75*
G02*
X6669440Y-2258780I15000J0D01*
G01*
X6740780Y-2474640D02*
G75*
G02*
X6710780Y-2474640I-15000J0D01*
G01*
X6710780Y-2474640D02*
G75*
G02*
X6740780Y-2474640I15000J0D01*
G01*
X6816730Y-2364340D02*
G75*
G02*
X6786730Y-2364340I-15000J0D01*
G01*
X6786730Y-2364340D02*
G75*
G02*
X6816730Y-2364340I15000J0D01*
G01*
X6949600Y-315640D02*
G75*
G02*
X6919600Y-315640I-15000J0D01*
G01*
X6919600Y-315640D02*
G75*
G02*
X6949600Y-315640I15000J0D01*
G01*
X6997880Y-2625670D02*
G75*
G02*
X6967880Y-2625670I-15000J0D01*
G01*
X6967880Y-2625670D02*
G75*
G02*
X6997880Y-2625670I15000J0D01*
G01*
X7288000Y-1333100D02*
G75*
G02*
X7258000Y-1333100I-15000J0D01*
G01*
X7258000Y-1333100D02*
G75*
G02*
X7288000Y-1333100I15000J0D01*
G01*
X7323030Y-1927840D02*
G75*
G02*
X7293030Y-1927840I-15000J0D01*
G01*
X7293030Y-1927840D02*
G75*
G02*
X7323030Y-1927840I15000J0D01*
G01*
X7353300Y-1704680D02*
G75*
G02*
X7323300Y-1704680I-15000J0D01*
G01*
X7323300Y-1704680D02*
G75*
G02*
X7353300Y-1704680I15000J0D01*
G01*
X7363020Y-4776620D02*
G75*
G02*
X7333020Y-4776620I-15000J0D01*
G01*
X7333020Y-4776620D02*
G75*
G02*
X7363020Y-4776620I15000J0D01*
G01*
X7371900Y-1335180D02*
G75*
G02*
X7341900Y-1335180I-15000J0D01*
G01*
X7341900Y-1335180D02*
G75*
G02*
X7371900Y-1335180I15000J0D01*
G01*
X7411610Y-1905240D02*
G75*
G02*
X7381610Y-1905240I-15000J0D01*
G01*
X7381610Y-1905240D02*
G75*
G02*
X7411610Y-1905240I15000J0D01*
G01*
X7422910Y-801500D02*
G75*
G02*
X7392910Y-801500I-15000J0D01*
G01*
X7392910Y-801500D02*
G75*
G02*
X7422910Y-801500I15000J0D01*
G01*
X7431450Y-4590620D02*
G75*
G02*
X7401450Y-4590620I-15000J0D01*
G01*
X7401450Y-4590620D02*
G75*
G02*
X7431450Y-4590620I15000J0D01*
G01*
X7441500Y-4827990D02*
G75*
G02*
X7411500Y-4827990I-15000J0D01*
G01*
X7411500Y-4827990D02*
G75*
G02*
X7441500Y-4827990I15000J0D01*
G01*
X7450670Y-1654190D02*
G75*
G02*
X7420670Y-1654190I-15000J0D01*
G01*
X7420670Y-1654190D02*
G75*
G02*
X7450670Y-1654190I15000J0D01*
G01*
X7490910Y-1314900D02*
G75*
G02*
X7460910Y-1314900I-15000J0D01*
G01*
X7460910Y-1314900D02*
G75*
G02*
X7490910Y-1314900I15000J0D01*
G01*
X7533670Y-4927500D02*
G75*
G02*
X7503670Y-4927500I-15000J0D01*
G01*
X7503670Y-4927500D02*
G75*
G02*
X7533670Y-4927500I15000J0D01*
G01*
X7622440Y-315640D02*
G75*
G02*
X7592440Y-315640I-15000J0D01*
G01*
X7592440Y-315640D02*
G75*
G02*
X7622440Y-315640I15000J0D01*
G01*
X7734230Y-2104060D02*
G75*
G02*
X7704230Y-2104060I-15000J0D01*
G01*
X7704230Y-2104060D02*
G75*
G02*
X7734230Y-2104060I15000J0D01*
G01*
X7766540Y-7537370D02*
G75*
G02*
X7736540Y-7537370I-15000J0D01*
G01*
X7736540Y-7537370D02*
G75*
G02*
X7766540Y-7537370I15000J0D01*
G01*
X7773820Y-2019680D02*
G75*
G02*
X7743820Y-2019680I-15000J0D01*
G01*
X7743820Y-2019680D02*
G75*
G02*
X7773820Y-2019680I15000J0D01*
G01*
X7877790Y-2061870D02*
G75*
G02*
X7847790Y-2061870I-15000J0D01*
G01*
X7847790Y-2061870D02*
G75*
G02*
X7877790Y-2061870I15000J0D01*
G01*
X8065680Y-7625000D02*
G75*
G02*
X8035680Y-7625000I-15000J0D01*
G01*
X8035680Y-7625000D02*
G75*
G02*
X8065680Y-7625000I15000J0D01*
G01*
X8162130Y-1690390D02*
G75*
G02*
X8132130Y-1690390I-15000J0D01*
G01*
X8132130Y-1690390D02*
G75*
G02*
X8162130Y-1690390I15000J0D01*
G01*
X8344790Y-1788030D02*
G75*
G02*
X8314790Y-1788030I-15000J0D01*
G01*
X8314790Y-1788030D02*
G75*
G02*
X8344790Y-1788030I15000J0D01*
G01*
X8421710Y-3350080D02*
G75*
G02*
X8391710Y-3350080I-15000J0D01*
G01*
X8391710Y-3350080D02*
G75*
G02*
X8421710Y-3350080I15000J0D01*
G01*
X8426250Y-7682470D02*
G75*
G02*
X8396250Y-7682470I-15000J0D01*
G01*
X8396250Y-7682470D02*
G75*
G02*
X8426250Y-7682470I15000J0D01*
G01*
X8469010Y-2714020D02*
G75*
G02*
X8439010Y-2714020I-15000J0D01*
G01*
X8439010Y-2714020D02*
G75*
G02*
X8469010Y-2714020I15000J0D01*
G01*
X8597380Y-7683850D02*
G75*
G02*
X8567380Y-7683850I-15000J0D01*
G01*
X8567380Y-7683850D02*
G75*
G02*
X8597380Y-7683850I15000J0D01*
G01*
X8634050Y-1769550D02*
G75*
G02*
X8604050Y-1769550I-15000J0D01*
G01*
X8604050Y-1769550D02*
G75*
G02*
X8634050Y-1769550I15000J0D01*
G01*
X8691700Y-4754420D02*
G75*
G02*
X8661700Y-4754420I-15000J0D01*
G01*
X8661700Y-4754420D02*
G75*
G02*
X8691700Y-4754420I15000J0D01*
G01*
X8848610Y-5047520D02*
G75*
G02*
X8818610Y-5047520I-15000J0D01*
G01*
X8818610Y-5047520D02*
G75*
G02*
X8848610Y-5047520I15000J0D01*
G01*
X8881330Y-4623840D02*
G75*
G02*
X8851330Y-4623840I-15000J0D01*
G01*
X8851330Y-4623840D02*
G75*
G02*
X8881330Y-4623840I15000J0D01*
G01*
X8919250Y-3251870D02*
G75*
G02*
X8889250Y-3251870I-15000J0D01*
G01*
X8889250Y-3251870D02*
G75*
G02*
X8919250Y-3251870I15000J0D01*
G01*
X8937890Y-4759070D02*
G75*
G02*
X8907890Y-4759070I-15000J0D01*
G01*
X8907890Y-4759070D02*
G75*
G02*
X8937890Y-4759070I15000J0D01*
G01*
X9041670Y-2630530D02*
G75*
G02*
X9011670Y-2630530I-15000J0D01*
G01*
X9011670Y-2630530D02*
G75*
G02*
X9041670Y-2630530I15000J0D01*
G01*
X9056020Y-5167630D02*
G75*
G02*
X9026020Y-5167630I-15000J0D01*
G01*
X9026020Y-5167630D02*
G75*
G02*
X9056020Y-5167630I15000J0D01*
G01*
X9121250Y-3758210D02*
G75*
G02*
X9091250Y-3758210I-15000J0D01*
G01*
X9091250Y-3758210D02*
G75*
G02*
X9121250Y-3758210I15000J0D01*
G01*
X9163000Y-4738000D02*
G75*
G02*
X9133000Y-4738000I-15000J0D01*
G01*
X9133000Y-4738000D02*
G75*
G02*
X9163000Y-4738000I15000J0D01*
G01*
X9185400Y-2244760D02*
G75*
G02*
X9155400Y-2244760I-15000J0D01*
G01*
X9155400Y-2244760D02*
G75*
G02*
X9185400Y-2244760I15000J0D01*
G01*
X9212970Y-2112390D02*
G75*
G02*
X9182970Y-2112390I-15000J0D01*
G01*
X9182970Y-2112390D02*
G75*
G02*
X9212970Y-2112390I15000J0D01*
G01*
X9344500Y-5168810D02*
G75*
G02*
X9314500Y-5168810I-15000J0D01*
G01*
X9314500Y-5168810D02*
G75*
G02*
X9344500Y-5168810I15000J0D01*
G01*
X9353870Y-2125370D02*
G75*
G02*
X9323870Y-2125370I-15000J0D01*
G01*
X9323870Y-2125370D02*
G75*
G02*
X9353870Y-2125370I15000J0D01*
G01*
X9365590Y-1876790D02*
G75*
G02*
X9335590Y-1876790I-15000J0D01*
G01*
X9335590Y-1876790D02*
G75*
G02*
X9365590Y-1876790I15000J0D01*
G01*
X9465810Y-2310810D02*
G75*
G02*
X9435810Y-2310810I-15000J0D01*
G01*
X9435810Y-2310810D02*
G75*
G02*
X9465810Y-2310810I15000J0D01*
G01*
X9472200Y-2246160D02*
G75*
G02*
X9442200Y-2246160I-15000J0D01*
G01*
X9442200Y-2246160D02*
G75*
G02*
X9472200Y-2246160I15000J0D01*
G01*
X9514370Y-2210620D02*
G75*
G02*
X9484370Y-2210620I-15000J0D01*
G01*
X9484370Y-2210620D02*
G75*
G02*
X9514370Y-2210620I15000J0D01*
G01*
X9514370Y-4590620D02*
G75*
G02*
X9484370Y-4590620I-15000J0D01*
G01*
X9484370Y-4590620D02*
G75*
G02*
X9514370Y-4590620I15000J0D01*
G01*
X9633010Y-1894370D02*
G75*
G02*
X9603010Y-1894370I-15000J0D01*
G01*
X9603010Y-1894370D02*
G75*
G02*
X9633010Y-1894370I15000J0D01*
G01*
X9815000Y-9850000D02*
G75*
G02*
X9785000Y-9850000I-15000J0D01*
G01*
X9785000Y-9850000D02*
G75*
G02*
X9815000Y-9850000I15000J0D01*
G01*
X9865000Y-9850000D02*
G75*
G02*
X9835000Y-9850000I-15000J0D01*
G01*
X9835000Y-9850000D02*
G75*
G02*
X9865000Y-9850000I15000J0D01*
G01*
X1768600Y-1446870D02*
X1768600Y-1486870D01*
X1748600Y-1466870D02*
X1788600Y-1466870D01*
X2186080Y-4336900D02*
X2186080Y-4376900D01*
X2166080Y-4356900D02*
X2206080Y-4356900D01*
X2595070Y-5280000D02*
X2595070Y-5320000D01*
X2575070Y-5300000D02*
X2615070Y-5300000D01*
X3060710Y-6504370D02*
X3060710Y-6544370D01*
X3040710Y-6524370D02*
X3080710Y-6524370D01*
X3548170Y-1903040D02*
X3548170Y-1943040D01*
X3528170Y-1923040D02*
X3568170Y-1923040D01*
X3590400Y-5909370D02*
X3590400Y-5949370D01*
X3570400Y-5929370D02*
X3610400Y-5929370D01*
X3955360Y-6076920D02*
X3955360Y-6116920D01*
X3935360Y-6096920D02*
X3975360Y-6096920D01*
X5333530Y-6653120D02*
X5333530Y-6693120D01*
X5313530Y-6673120D02*
X5353530Y-6673120D01*
X6569240Y-5741040D02*
X6569240Y-5781040D01*
X6549240Y-5761040D02*
X6589240Y-5761040D01*
X7303630Y-1416050D02*
X7303630Y-1456050D01*
X7283630Y-1436050D02*
X7323630Y-1436050D01*
X7401910Y-951220D02*
X7401910Y-991220D01*
X7381910Y-971220D02*
X7421910Y-971220D01*
X8657340Y-7775060D02*
X8657340Y-7815060D01*
X8637340Y-7795060D02*
X8677340Y-7795060D01*
X8780730Y-5069170D02*
X8780730Y-5109170D01*
X8760730Y-5089170D02*
X8800730Y-5089170D01*
X1617678Y-9517678D02*
X1617678Y-9482322D01*
X1582322Y-9482322D01*
X1582322Y-9517678D01*
X1617678Y-9517678D01*
X1742678Y-9517678D02*
X1742678Y-9482322D01*
X1707322Y-9482322D01*
X1707322Y-9517678D01*
X1742678Y-9517678D01*
X1867678Y-9517678D02*
X1867678Y-9482322D01*
X1832322Y-9482322D01*
X1832322Y-9517678D01*
X1867678Y-9517678D01*
X2417678Y-9517678D02*
X2417678Y-9482322D01*
X2382322Y-9482322D01*
X2382322Y-9517678D01*
X2417678Y-9517678D01*
X2542678Y-9517678D02*
X2542678Y-9482322D01*
X2507322Y-9482322D01*
X2507322Y-9517678D01*
X2542678Y-9517678D01*
X2667678Y-9517678D02*
X2667678Y-9482322D01*
X2632322Y-9482322D01*
X2632322Y-9517678D01*
X2667678Y-9517678D01*
X3217678Y-9517678D02*
X3217678Y-9482322D01*
X3182322Y-9482322D01*
X3182322Y-9517678D01*
X3217678Y-9517678D01*
X3342678Y-9517678D02*
X3342678Y-9482322D01*
X3307322Y-9482322D01*
X3307322Y-9517678D01*
X3342678Y-9517678D01*
X3467678Y-9517678D02*
X3467678Y-9482322D01*
X3432322Y-9482322D01*
X3432322Y-9517678D01*
X3467678Y-9517678D01*
X4017678Y-9517678D02*
X4017678Y-9482322D01*
X3982322Y-9482322D01*
X3982322Y-9517678D01*
X4017678Y-9517678D01*
X4142678Y-9517678D02*
X4142678Y-9482322D01*
X4107322Y-9482322D01*
X4107322Y-9517678D01*
X4142678Y-9517678D01*
X4267678Y-9517678D02*
X4267678Y-9482322D01*
X4232322Y-9482322D01*
X4232322Y-9517678D01*
X4267678Y-9517678D01*
X5217678Y-9517678D02*
X5217678Y-9482322D01*
X5182322Y-9482322D01*
X5182322Y-9517678D01*
X5217678Y-9517678D01*
X5342678Y-9517678D02*
X5342678Y-9482322D01*
X5307322Y-9482322D01*
X5307322Y-9517678D01*
X5342678Y-9517678D01*
X5467678Y-9517678D02*
X5467678Y-9482322D01*
X5432322Y-9482322D01*
X5432322Y-9517678D01*
X5467678Y-9517678D01*
X6017678Y-9517678D02*
X6017678Y-9482322D01*
X5982322Y-9482322D01*
X5982322Y-9517678D01*
X6017678Y-9517678D01*
X6142678Y-9517678D02*
X6142678Y-9482322D01*
X6107322Y-9482322D01*
X6107322Y-9517678D01*
X6142678Y-9517678D01*
X6267678Y-9517678D02*
X6267678Y-9482322D01*
X6232322Y-9482322D01*
X6232322Y-9517678D01*
X6267678Y-9517678D01*
X6817678Y-9517678D02*
X6817678Y-9482322D01*
X6782322Y-9482322D01*
X6782322Y-9517678D01*
X6817678Y-9517678D01*
X6942678Y-9517678D02*
X6942678Y-9482322D01*
X6907322Y-9482322D01*
X6907322Y-9517678D01*
X6942678Y-9517678D01*
X7067678Y-9517678D02*
X7067678Y-9482322D01*
X7032322Y-9482322D01*
X7032322Y-9517678D01*
X7067678Y-9517678D01*
X7617678Y-9517678D02*
X7617678Y-9482322D01*
X7582322Y-9482322D01*
X7582322Y-9517678D01*
X7617678Y-9517678D01*
X7742678Y-9517678D02*
X7742678Y-9482322D01*
X7707322Y-9482322D01*
X7707322Y-9517678D01*
X7742678Y-9517678D01*
X7867678Y-9517678D02*
X7867678Y-9482322D01*
X7832322Y-9482322D01*
X7832322Y-9517678D01*
X7867678Y-9517678D01*
X-282000Y-4117000D02*
X-252000Y-4087000D01*
X-282000Y-4057000D01*
X-312000Y-4087000D01*
X-282000Y-4117000D01*
X-312000Y-4032000D02*
X-312000Y-4142000D01*
X-252000Y-4142000D02*
G75*
G02*
X-312000Y-4142000I-30000J0D01*
G01*
X-252000Y-4142000D02*
X-252000Y-4032000D01*
X-252000Y-4032000D02*
G75*
G03*
X-312000Y-4032000I-30000J0D01*
G01*
X-282000Y-4535000D02*
X-252000Y-4505000D01*
X-282000Y-4475000D01*
X-312000Y-4505000D01*
X-282000Y-4535000D01*
X-312000Y-4475000D02*
X-312000Y-4535000D01*
X-252000Y-4535000D02*
G75*
G02*
X-312000Y-4535000I-30000J0D01*
G01*
X-252000Y-4535000D02*
X-252000Y-4475000D01*
X-252000Y-4475000D02*
G75*
G03*
X-312000Y-4475000I-30000J0D01*
G01*
X582000Y-4117000D02*
X612000Y-4087000D01*
X582000Y-4057000D01*
X552000Y-4087000D01*
X582000Y-4117000D01*
X552000Y-4032000D02*
X552000Y-4142000D01*
X612000Y-4142000D02*
G75*
G02*
X552000Y-4142000I-30000J0D01*
G01*
X612000Y-4142000D02*
X612000Y-4032000D01*
X612000Y-4032000D02*
G75*
G03*
X552000Y-4032000I-30000J0D01*
G01*
X582000Y-4535000D02*
X612000Y-4505000D01*
X582000Y-4475000D01*
X552000Y-4505000D01*
X582000Y-4535000D01*
X552000Y-4475000D02*
X552000Y-4535000D01*
X612000Y-4535000D02*
G75*
G02*
X552000Y-4535000I-30000J0D01*
G01*
X612000Y-4535000D02*
X612000Y-4475000D01*
X612000Y-4475000D02*
G75*
G03*
X552000Y-4475000I-30000J0D01*
G01*
X7111500Y-3465500D02*
X7180500Y-3534500D01*
X7180500Y-3465500D02*
X7111500Y-3534500D01*
X7180500Y-3500000D02*
G75*
G02*
X7111500Y-3500000I-34500J0D01*
G01*
X7111500Y-3500000D02*
G75*
G02*
X7180500Y-3500000I34500J0D01*
G01*
X7365500Y-3211500D02*
X7434500Y-3280500D01*
X7434500Y-3211500D02*
X7365500Y-3280500D01*
X7434500Y-3246000D02*
G75*
G02*
X7365500Y-3246000I-34500J0D01*
G01*
X7365500Y-3246000D02*
G75*
G02*
X7434500Y-3246000I34500J0D01*
G01*
X7365500Y-3719500D02*
X7434500Y-3788500D01*
X7434500Y-3719500D02*
X7365500Y-3788500D01*
X7434500Y-3754000D02*
G75*
G02*
X7365500Y-3754000I-34500J0D01*
G01*
X7365500Y-3754000D02*
G75*
G02*
X7434500Y-3754000I34500J0D01*
G01*
X7619500Y-3465500D02*
X7688500Y-3534500D01*
X7688500Y-3465500D02*
X7619500Y-3534500D01*
X7688500Y-3500000D02*
G75*
G02*
X7619500Y-3500000I-34500J0D01*
G01*
X7619500Y-3500000D02*
G75*
G02*
X7688500Y-3500000I34500J0D01*
G01*
X462500Y-5562500D02*
X537500Y-5637500D01*
X537500Y-5562500D02*
X462500Y-5637500D01*
X500000Y-5562500D02*
X500000Y-5637500D01*
X462500Y-5600000D02*
X537500Y-5600000D01*
X662500Y-5562500D02*
X737500Y-5637500D01*
X737500Y-5562500D02*
X662500Y-5637500D01*
X700000Y-5562500D02*
X700000Y-5637500D01*
X662500Y-5600000D02*
X737500Y-5600000D01*
X8650000Y-650000D02*
X8750000Y-750000D01*
X8750000Y-650000D02*
X8650000Y-750000D01*
X8735356Y-735356D02*
X8735356Y-664644D01*
X8664644Y-664644D01*
X8664644Y-735356D01*
X8735356Y-735356D01*
X9410000Y-650000D02*
X9510000Y-750000D01*
X9510000Y-650000D02*
X9410000Y-750000D01*
X9495356Y-735356D02*
X9495356Y-664644D01*
X9424644Y-664644D01*
X9424644Y-735356D01*
X9495356Y-735356D01*
D10*
X260777Y-311484D02*
X260777Y-111484D01*
X260777Y-111484D02*
X308396Y-111484D01*
X308396Y-111484D02*
X336967Y-121008D01*
X336967Y-121008D02*
X356015Y-140055D01*
X356015Y-140055D02*
X365539Y-159103D01*
X365539Y-159103D02*
X375062Y-197198D01*
X375062Y-197198D02*
X375062Y-225769D01*
X375062Y-225769D02*
X365539Y-263865D01*
X365539Y-263865D02*
X356015Y-282912D01*
X356015Y-282912D02*
X336967Y-301960D01*
X336967Y-301960D02*
X308396Y-311484D01*
X308396Y-311484D02*
X260777Y-311484D01*
X460777Y-311484D02*
X460777Y-178150D01*
X460777Y-216246D02*
X470301Y-197198D01*
X470301Y-197198D02*
X479824Y-187674D01*
X479824Y-187674D02*
X498872Y-178150D01*
X498872Y-178150D02*
X517920Y-178150D01*
X584586Y-311484D02*
X584586Y-178150D01*
X584586Y-111484D02*
X575063Y-121008D01*
X575063Y-121008D02*
X584586Y-130531D01*
X584586Y-130531D02*
X594110Y-121008D01*
X594110Y-121008D02*
X584586Y-111484D01*
X584586Y-111484D02*
X584586Y-130531D01*
X708396Y-311484D02*
X689348Y-301960D01*
X689348Y-301960D02*
X679824Y-282912D01*
X679824Y-282912D02*
X679824Y-111484D01*
X813158Y-311484D02*
X794110Y-301960D01*
X794110Y-301960D02*
X784586Y-282912D01*
X784586Y-282912D02*
X784586Y-111484D01*
X1041729Y-311484D02*
X1041729Y-111484D01*
X1041729Y-111484D02*
X1108396Y-254341D01*
X1108396Y-254341D02*
X1175063Y-111484D01*
X1175063Y-111484D02*
X1175063Y-311484D01*
X1356015Y-311484D02*
X1356015Y-206722D01*
X1356015Y-206722D02*
X1346491Y-187674D01*
X1346491Y-187674D02*
X1327444Y-178150D01*
X1327444Y-178150D02*
X1289348Y-178150D01*
X1289348Y-178150D02*
X1270301Y-187674D01*
X1356015Y-301960D02*
X1336967Y-311484D01*
X1336967Y-311484D02*
X1289348Y-311484D01*
X1289348Y-311484D02*
X1270301Y-301960D01*
X1270301Y-301960D02*
X1260777Y-282912D01*
X1260777Y-282912D02*
X1260777Y-263865D01*
X1260777Y-263865D02*
X1270301Y-244817D01*
X1270301Y-244817D02*
X1289348Y-235293D01*
X1289348Y-235293D02*
X1336967Y-235293D01*
X1336967Y-235293D02*
X1356015Y-225769D01*
X1451253Y-178150D02*
X1451253Y-378150D01*
X1451253Y-187674D02*
X1470301Y-178150D01*
X1470301Y-178150D02*
X1508396Y-178150D01*
X1508396Y-178150D02*
X1527443Y-187674D01*
X1527443Y-187674D02*
X1536967Y-197198D01*
X1536967Y-197198D02*
X1546491Y-216246D01*
X1546491Y-216246D02*
X1546491Y-273389D01*
X1546491Y-273389D02*
X1536967Y-292436D01*
X1536967Y-292436D02*
X1527443Y-301960D01*
X1527443Y-301960D02*
X1508396Y-311484D01*
X1508396Y-311484D02*
X1470301Y-311484D01*
X1470301Y-311484D02*
X1451253Y-301960D01*
X1632205Y-292436D02*
X1641729Y-301960D01*
X1641729Y-301960D02*
X1632205Y-311484D01*
X1632205Y-311484D02*
X1622682Y-301960D01*
X1622682Y-301960D02*
X1632205Y-292436D01*
X1632205Y-292436D02*
X1632205Y-311484D01*
X1632205Y-187674D02*
X1641729Y-197198D01*
X1641729Y-197198D02*
X1632205Y-206722D01*
X1632205Y-206722D02*
X1622682Y-197198D01*
X1622682Y-197198D02*
X1632205Y-187674D01*
X1632205Y-187674D02*
X1632205Y-206722D01*
D11*
X-20000Y-630000D02*
X0Y-650000D01*
X0Y-630000D02*
X-20000Y-650000D01*
D10*
X298872Y-531484D02*
X317920Y-531484D01*
X317920Y-531484D02*
X336967Y-541008D01*
X336967Y-541008D02*
X346491Y-550531D01*
X346491Y-550531D02*
X356015Y-569579D01*
X356015Y-569579D02*
X365539Y-607674D01*
X365539Y-607674D02*
X365539Y-655293D01*
X365539Y-655293D02*
X356015Y-693389D01*
X356015Y-693389D02*
X346491Y-712436D01*
X346491Y-712436D02*
X336967Y-721960D01*
X336967Y-721960D02*
X317920Y-731484D01*
X317920Y-731484D02*
X298872Y-731484D01*
X298872Y-731484D02*
X279824Y-721960D01*
X279824Y-721960D02*
X270301Y-712436D01*
X270301Y-712436D02*
X260777Y-693389D01*
X260777Y-693389D02*
X251253Y-655293D01*
X251253Y-655293D02*
X251253Y-607674D01*
X251253Y-607674D02*
X260777Y-569579D01*
X260777Y-569579D02*
X270301Y-550531D01*
X270301Y-550531D02*
X279824Y-541008D01*
X279824Y-541008D02*
X298872Y-531484D01*
X451253Y-712436D02*
X460777Y-721960D01*
X460777Y-721960D02*
X451253Y-731484D01*
X451253Y-731484D02*
X441729Y-721960D01*
X441729Y-721960D02*
X451253Y-712436D01*
X451253Y-712436D02*
X451253Y-731484D01*
X536967Y-550531D02*
X546491Y-541008D01*
X546491Y-541008D02*
X565539Y-531484D01*
X565539Y-531484D02*
X613158Y-531484D01*
X613158Y-531484D02*
X632205Y-541008D01*
X632205Y-541008D02*
X641729Y-550531D01*
X641729Y-550531D02*
X651253Y-569579D01*
X651253Y-569579D02*
X651253Y-588627D01*
X651253Y-588627D02*
X641729Y-617198D01*
X641729Y-617198D02*
X527444Y-731484D01*
X527444Y-731484D02*
X651253Y-731484D01*
X775062Y-531484D02*
X794110Y-531484D01*
X794110Y-531484D02*
X813158Y-541008D01*
X813158Y-541008D02*
X822682Y-550531D01*
X822682Y-550531D02*
X832205Y-569579D01*
X832205Y-569579D02*
X841729Y-607674D01*
X841729Y-607674D02*
X841729Y-655293D01*
X841729Y-655293D02*
X832205Y-693389D01*
X832205Y-693389D02*
X822682Y-712436D01*
X822682Y-712436D02*
X813158Y-721960D01*
X813158Y-721960D02*
X794110Y-731484D01*
X794110Y-731484D02*
X775062Y-731484D01*
X775062Y-731484D02*
X756015Y-721960D01*
X756015Y-721960D02*
X746491Y-712436D01*
X746491Y-712436D02*
X736967Y-693389D01*
X736967Y-693389D02*
X727443Y-655293D01*
X727443Y-655293D02*
X727443Y-607674D01*
X727443Y-607674D02*
X736967Y-569579D01*
X736967Y-569579D02*
X746491Y-550531D01*
X746491Y-550531D02*
X756015Y-541008D01*
X756015Y-541008D02*
X775062Y-531484D01*
X965539Y-531484D02*
X984586Y-531484D01*
X984586Y-531484D02*
X1003634Y-541008D01*
X1003634Y-541008D02*
X1013158Y-550531D01*
X1013158Y-550531D02*
X1022682Y-569579D01*
X1022682Y-569579D02*
X1032205Y-607674D01*
X1032205Y-607674D02*
X1032205Y-655293D01*
X1032205Y-655293D02*
X1022682Y-693389D01*
X1022682Y-693389D02*
X1013158Y-712436D01*
X1013158Y-712436D02*
X1003634Y-721960D01*
X1003634Y-721960D02*
X984586Y-731484D01*
X984586Y-731484D02*
X965539Y-731484D01*
X965539Y-731484D02*
X946491Y-721960D01*
X946491Y-721960D02*
X936967Y-712436D01*
X936967Y-712436D02*
X927443Y-693389D01*
X927443Y-693389D02*
X917920Y-655293D01*
X917920Y-655293D02*
X917920Y-607674D01*
X917920Y-607674D02*
X927443Y-569579D01*
X927443Y-569579D02*
X936967Y-550531D01*
X936967Y-550531D02*
X946491Y-541008D01*
X946491Y-541008D02*
X965539Y-531484D01*
X1117920Y-731484D02*
X1117920Y-598150D01*
X1117920Y-617198D02*
X1127444Y-607674D01*
X1127444Y-607674D02*
X1146491Y-598150D01*
X1146491Y-598150D02*
X1175063Y-598150D01*
X1175063Y-598150D02*
X1194110Y-607674D01*
X1194110Y-607674D02*
X1203634Y-626722D01*
X1203634Y-626722D02*
X1203634Y-731484D01*
X1203634Y-626722D02*
X1213158Y-607674D01*
X1213158Y-607674D02*
X1232205Y-598150D01*
X1232205Y-598150D02*
X1260777Y-598150D01*
X1260777Y-598150D02*
X1279825Y-607674D01*
X1279825Y-607674D02*
X1289348Y-626722D01*
X1289348Y-626722D02*
X1289348Y-731484D01*
X1384586Y-731484D02*
X1384586Y-598150D01*
X1384586Y-617198D02*
X1394110Y-607674D01*
X1394110Y-607674D02*
X1413158Y-598150D01*
X1413158Y-598150D02*
X1441729Y-598150D01*
X1441729Y-598150D02*
X1460777Y-607674D01*
X1460777Y-607674D02*
X1470301Y-626722D01*
X1470301Y-626722D02*
X1470301Y-731484D01*
X1470301Y-626722D02*
X1479824Y-607674D01*
X1479824Y-607674D02*
X1498872Y-598150D01*
X1498872Y-598150D02*
X1527443Y-598150D01*
X1527443Y-598150D02*
X1546491Y-607674D01*
X1546491Y-607674D02*
X1556015Y-626722D01*
X1556015Y-626722D02*
X1556015Y-731484D01*
X1946491Y-521960D02*
X1775063Y-779103D01*
X2203634Y-531484D02*
X2222682Y-531484D01*
X2222682Y-531484D02*
X2241729Y-541008D01*
X2241729Y-541008D02*
X2251253Y-550531D01*
X2251253Y-550531D02*
X2260777Y-569579D01*
X2260777Y-569579D02*
X2270301Y-607674D01*
X2270301Y-607674D02*
X2270301Y-655293D01*
X2270301Y-655293D02*
X2260777Y-693389D01*
X2260777Y-693389D02*
X2251253Y-712436D01*
X2251253Y-712436D02*
X2241729Y-721960D01*
X2241729Y-721960D02*
X2222682Y-731484D01*
X2222682Y-731484D02*
X2203634Y-731484D01*
X2203634Y-731484D02*
X2184587Y-721960D01*
X2184587Y-721960D02*
X2175063Y-712436D01*
X2175063Y-712436D02*
X2165539Y-693389D01*
X2165539Y-693389D02*
X2156015Y-655293D01*
X2156015Y-655293D02*
X2156015Y-607674D01*
X2156015Y-607674D02*
X2165539Y-569579D01*
X2165539Y-569579D02*
X2175063Y-550531D01*
X2175063Y-550531D02*
X2184587Y-541008D01*
X2184587Y-541008D02*
X2203634Y-531484D01*
X2356015Y-712436D02*
X2365539Y-721960D01*
X2365539Y-721960D02*
X2356015Y-731484D01*
X2356015Y-731484D02*
X2346491Y-721960D01*
X2346491Y-721960D02*
X2356015Y-712436D01*
X2356015Y-712436D02*
X2356015Y-731484D01*
X2489348Y-531484D02*
X2508396Y-531484D01*
X2508396Y-531484D02*
X2527444Y-541008D01*
X2527444Y-541008D02*
X2536968Y-550531D01*
X2536968Y-550531D02*
X2546491Y-569579D01*
X2546491Y-569579D02*
X2556015Y-607674D01*
X2556015Y-607674D02*
X2556015Y-655293D01*
X2556015Y-655293D02*
X2546491Y-693389D01*
X2546491Y-693389D02*
X2536968Y-712436D01*
X2536968Y-712436D02*
X2527444Y-721960D01*
X2527444Y-721960D02*
X2508396Y-731484D01*
X2508396Y-731484D02*
X2489348Y-731484D01*
X2489348Y-731484D02*
X2470301Y-721960D01*
X2470301Y-721960D02*
X2460777Y-712436D01*
X2460777Y-712436D02*
X2451253Y-693389D01*
X2451253Y-693389D02*
X2441729Y-655293D01*
X2441729Y-655293D02*
X2441729Y-607674D01*
X2441729Y-607674D02*
X2451253Y-569579D01*
X2451253Y-569579D02*
X2460777Y-550531D01*
X2460777Y-550531D02*
X2470301Y-541008D01*
X2470301Y-541008D02*
X2489348Y-531484D01*
X2679825Y-531484D02*
X2698872Y-531484D01*
X2698872Y-531484D02*
X2717920Y-541008D01*
X2717920Y-541008D02*
X2727444Y-550531D01*
X2727444Y-550531D02*
X2736968Y-569579D01*
X2736968Y-569579D02*
X2746491Y-607674D01*
X2746491Y-607674D02*
X2746491Y-655293D01*
X2746491Y-655293D02*
X2736968Y-693389D01*
X2736968Y-693389D02*
X2727444Y-712436D01*
X2727444Y-712436D02*
X2717920Y-721960D01*
X2717920Y-721960D02*
X2698872Y-731484D01*
X2698872Y-731484D02*
X2679825Y-731484D01*
X2679825Y-731484D02*
X2660777Y-721960D01*
X2660777Y-721960D02*
X2651253Y-712436D01*
X2651253Y-712436D02*
X2641729Y-693389D01*
X2641729Y-693389D02*
X2632206Y-655293D01*
X2632206Y-655293D02*
X2632206Y-607674D01*
X2632206Y-607674D02*
X2641729Y-569579D01*
X2641729Y-569579D02*
X2651253Y-550531D01*
X2651253Y-550531D02*
X2660777Y-541008D01*
X2660777Y-541008D02*
X2679825Y-531484D01*
X2813158Y-531484D02*
X2946491Y-531484D01*
X2946491Y-531484D02*
X2860777Y-731484D01*
X3032206Y-731484D02*
X3070301Y-731484D01*
X3070301Y-731484D02*
X3089348Y-721960D01*
X3089348Y-721960D02*
X3098872Y-712436D01*
X3098872Y-712436D02*
X3117920Y-683865D01*
X3117920Y-683865D02*
X3127444Y-645770D01*
X3127444Y-645770D02*
X3127444Y-569579D01*
X3127444Y-569579D02*
X3117920Y-550531D01*
X3117920Y-550531D02*
X3108396Y-541008D01*
X3108396Y-541008D02*
X3089348Y-531484D01*
X3089348Y-531484D02*
X3051253Y-531484D01*
X3051253Y-531484D02*
X3032206Y-541008D01*
X3032206Y-541008D02*
X3022682Y-550531D01*
X3022682Y-550531D02*
X3013158Y-569579D01*
X3013158Y-569579D02*
X3013158Y-617198D01*
X3013158Y-617198D02*
X3022682Y-636246D01*
X3022682Y-636246D02*
X3032206Y-645770D01*
X3032206Y-645770D02*
X3051253Y-655293D01*
X3051253Y-655293D02*
X3089348Y-655293D01*
X3089348Y-655293D02*
X3108396Y-645770D01*
X3108396Y-645770D02*
X3117920Y-636246D01*
X3117920Y-636246D02*
X3127444Y-617198D01*
X3203634Y-531484D02*
X3203634Y-569579D01*
X3279825Y-531484D02*
X3279825Y-569579D01*
X3575063Y-807674D02*
X3565539Y-798150D01*
X3565539Y-798150D02*
X3546491Y-769579D01*
X3546491Y-769579D02*
X3536968Y-750531D01*
X3536968Y-750531D02*
X3527444Y-721960D01*
X3527444Y-721960D02*
X3517920Y-674341D01*
X3517920Y-674341D02*
X3517920Y-636246D01*
X3517920Y-636246D02*
X3527444Y-588627D01*
X3527444Y-588627D02*
X3536968Y-560055D01*
X3536968Y-560055D02*
X3546491Y-541008D01*
X3546491Y-541008D02*
X3565539Y-512436D01*
X3565539Y-512436D02*
X3575063Y-502912D01*
X3632206Y-531484D02*
X3756015Y-531484D01*
X3756015Y-531484D02*
X3689348Y-607674D01*
X3689348Y-607674D02*
X3717920Y-607674D01*
X3717920Y-607674D02*
X3736968Y-617198D01*
X3736968Y-617198D02*
X3746491Y-626722D01*
X3746491Y-626722D02*
X3756015Y-645770D01*
X3756015Y-645770D02*
X3756015Y-693389D01*
X3756015Y-693389D02*
X3746491Y-712436D01*
X3746491Y-712436D02*
X3736968Y-721960D01*
X3736968Y-721960D02*
X3717920Y-731484D01*
X3717920Y-731484D02*
X3660777Y-731484D01*
X3660777Y-731484D02*
X3641729Y-721960D01*
X3641729Y-721960D02*
X3632206Y-712436D01*
X3927444Y-531484D02*
X3889348Y-531484D01*
X3889348Y-531484D02*
X3870301Y-541008D01*
X3870301Y-541008D02*
X3860777Y-550531D01*
X3860777Y-550531D02*
X3841729Y-579103D01*
X3841729Y-579103D02*
X3832206Y-617198D01*
X3832206Y-617198D02*
X3832206Y-693389D01*
X3832206Y-693389D02*
X3841729Y-712436D01*
X3841729Y-712436D02*
X3851253Y-721960D01*
X3851253Y-721960D02*
X3870301Y-731484D01*
X3870301Y-731484D02*
X3908396Y-731484D01*
X3908396Y-731484D02*
X3927444Y-721960D01*
X3927444Y-721960D02*
X3936968Y-712436D01*
X3936968Y-712436D02*
X3946491Y-693389D01*
X3946491Y-693389D02*
X3946491Y-645770D01*
X3946491Y-645770D02*
X3936968Y-626722D01*
X3936968Y-626722D02*
X3927444Y-617198D01*
X3927444Y-617198D02*
X3908396Y-607674D01*
X3908396Y-607674D02*
X3870301Y-607674D01*
X3870301Y-607674D02*
X3851253Y-617198D01*
X3851253Y-617198D02*
X3841729Y-626722D01*
X3841729Y-626722D02*
X3832206Y-645770D01*
X4184587Y-731484D02*
X4184587Y-531484D01*
X4270301Y-731484D02*
X4270301Y-626722D01*
X4270301Y-626722D02*
X4260777Y-607674D01*
X4260777Y-607674D02*
X4241730Y-598150D01*
X4241730Y-598150D02*
X4213158Y-598150D01*
X4213158Y-598150D02*
X4194110Y-607674D01*
X4194110Y-607674D02*
X4184587Y-617198D01*
X4394111Y-731484D02*
X4375063Y-721960D01*
X4375063Y-721960D02*
X4365539Y-712436D01*
X4365539Y-712436D02*
X4356015Y-693389D01*
X4356015Y-693389D02*
X4356015Y-636246D01*
X4356015Y-636246D02*
X4365539Y-617198D01*
X4365539Y-617198D02*
X4375063Y-607674D01*
X4375063Y-607674D02*
X4394111Y-598150D01*
X4394111Y-598150D02*
X4422682Y-598150D01*
X4422682Y-598150D02*
X4441730Y-607674D01*
X4441730Y-607674D02*
X4451253Y-617198D01*
X4451253Y-617198D02*
X4460777Y-636246D01*
X4460777Y-636246D02*
X4460777Y-693389D01*
X4460777Y-693389D02*
X4451253Y-712436D01*
X4451253Y-712436D02*
X4441730Y-721960D01*
X4441730Y-721960D02*
X4422682Y-731484D01*
X4422682Y-731484D02*
X4394111Y-731484D01*
X4575063Y-731484D02*
X4556015Y-721960D01*
X4556015Y-721960D02*
X4546492Y-702912D01*
X4546492Y-702912D02*
X4546492Y-531484D01*
X4727444Y-721960D02*
X4708396Y-731484D01*
X4708396Y-731484D02*
X4670301Y-731484D01*
X4670301Y-731484D02*
X4651253Y-721960D01*
X4651253Y-721960D02*
X4641730Y-702912D01*
X4641730Y-702912D02*
X4641730Y-626722D01*
X4641730Y-626722D02*
X4651253Y-607674D01*
X4651253Y-607674D02*
X4670301Y-598150D01*
X4670301Y-598150D02*
X4708396Y-598150D01*
X4708396Y-598150D02*
X4727444Y-607674D01*
X4727444Y-607674D02*
X4736968Y-626722D01*
X4736968Y-626722D02*
X4736968Y-645770D01*
X4736968Y-645770D02*
X4641730Y-664817D01*
X4813158Y-721960D02*
X4832206Y-731484D01*
X4832206Y-731484D02*
X4870301Y-731484D01*
X4870301Y-731484D02*
X4889349Y-721960D01*
X4889349Y-721960D02*
X4898873Y-702912D01*
X4898873Y-702912D02*
X4898873Y-693389D01*
X4898873Y-693389D02*
X4889349Y-674341D01*
X4889349Y-674341D02*
X4870301Y-664817D01*
X4870301Y-664817D02*
X4841730Y-664817D01*
X4841730Y-664817D02*
X4822682Y-655293D01*
X4822682Y-655293D02*
X4813158Y-636246D01*
X4813158Y-636246D02*
X4813158Y-626722D01*
X4813158Y-626722D02*
X4822682Y-607674D01*
X4822682Y-607674D02*
X4841730Y-598150D01*
X4841730Y-598150D02*
X4870301Y-598150D01*
X4870301Y-598150D02*
X4889349Y-607674D01*
X4965539Y-807674D02*
X4975063Y-798150D01*
X4975063Y-798150D02*
X4994111Y-769579D01*
X4994111Y-769579D02*
X5003634Y-750531D01*
X5003634Y-750531D02*
X5013158Y-721960D01*
X5013158Y-721960D02*
X5022682Y-674341D01*
X5022682Y-674341D02*
X5022682Y-636246D01*
X5022682Y-636246D02*
X5013158Y-588627D01*
X5013158Y-588627D02*
X5003634Y-560055D01*
X5003634Y-560055D02*
X4994111Y-541008D01*
X4994111Y-541008D02*
X4975063Y-512436D01*
X4975063Y-512436D02*
X4965539Y-502912D01*
D11*
X0Y-904000D02*
G75*
G02*
X-30000Y-904000I-15000J0D01*
G01*
X-30000Y-904000D02*
G75*
G02*
X0Y-904000I15000J0D01*
G01*
D10*
X298872Y-795484D02*
X317920Y-795484D01*
X317920Y-795484D02*
X336967Y-805008D01*
X336967Y-805008D02*
X346491Y-814531D01*
X346491Y-814531D02*
X356015Y-833579D01*
X356015Y-833579D02*
X365539Y-871674D01*
X365539Y-871674D02*
X365539Y-919293D01*
X365539Y-919293D02*
X356015Y-957388D01*
X356015Y-957388D02*
X346491Y-976436D01*
X346491Y-976436D02*
X336967Y-985960D01*
X336967Y-985960D02*
X317920Y-995484D01*
X317920Y-995484D02*
X298872Y-995484D01*
X298872Y-995484D02*
X279824Y-985960D01*
X279824Y-985960D02*
X270301Y-976436D01*
X270301Y-976436D02*
X260777Y-957388D01*
X260777Y-957388D02*
X251253Y-919293D01*
X251253Y-919293D02*
X251253Y-871674D01*
X251253Y-871674D02*
X260777Y-833579D01*
X260777Y-833579D02*
X270301Y-814531D01*
X270301Y-814531D02*
X279824Y-805008D01*
X279824Y-805008D02*
X298872Y-795484D01*
X451253Y-976436D02*
X460777Y-985960D01*
X460777Y-985960D02*
X451253Y-995484D01*
X451253Y-995484D02*
X441729Y-985960D01*
X441729Y-985960D02*
X451253Y-976436D01*
X451253Y-976436D02*
X451253Y-995484D01*
X527444Y-795484D02*
X651253Y-795484D01*
X651253Y-795484D02*
X584586Y-871674D01*
X584586Y-871674D02*
X613158Y-871674D01*
X613158Y-871674D02*
X632205Y-881198D01*
X632205Y-881198D02*
X641729Y-890722D01*
X641729Y-890722D02*
X651253Y-909769D01*
X651253Y-909769D02*
X651253Y-957388D01*
X651253Y-957388D02*
X641729Y-976436D01*
X641729Y-976436D02*
X632205Y-985960D01*
X632205Y-985960D02*
X613158Y-995484D01*
X613158Y-995484D02*
X556015Y-995484D01*
X556015Y-995484D02*
X536967Y-985960D01*
X536967Y-985960D02*
X527444Y-976436D01*
X775062Y-795484D02*
X794110Y-795484D01*
X794110Y-795484D02*
X813158Y-805008D01*
X813158Y-805008D02*
X822682Y-814531D01*
X822682Y-814531D02*
X832205Y-833579D01*
X832205Y-833579D02*
X841729Y-871674D01*
X841729Y-871674D02*
X841729Y-919293D01*
X841729Y-919293D02*
X832205Y-957388D01*
X832205Y-957388D02*
X822682Y-976436D01*
X822682Y-976436D02*
X813158Y-985960D01*
X813158Y-985960D02*
X794110Y-995484D01*
X794110Y-995484D02*
X775062Y-995484D01*
X775062Y-995484D02*
X756015Y-985960D01*
X756015Y-985960D02*
X746491Y-976436D01*
X746491Y-976436D02*
X736967Y-957388D01*
X736967Y-957388D02*
X727443Y-919293D01*
X727443Y-919293D02*
X727443Y-871674D01*
X727443Y-871674D02*
X736967Y-833579D01*
X736967Y-833579D02*
X746491Y-814531D01*
X746491Y-814531D02*
X756015Y-805008D01*
X756015Y-805008D02*
X775062Y-795484D01*
X965539Y-795484D02*
X984586Y-795484D01*
X984586Y-795484D02*
X1003634Y-805008D01*
X1003634Y-805008D02*
X1013158Y-814531D01*
X1013158Y-814531D02*
X1022682Y-833579D01*
X1022682Y-833579D02*
X1032205Y-871674D01*
X1032205Y-871674D02*
X1032205Y-919293D01*
X1032205Y-919293D02*
X1022682Y-957388D01*
X1022682Y-957388D02*
X1013158Y-976436D01*
X1013158Y-976436D02*
X1003634Y-985960D01*
X1003634Y-985960D02*
X984586Y-995484D01*
X984586Y-995484D02*
X965539Y-995484D01*
X965539Y-995484D02*
X946491Y-985960D01*
X946491Y-985960D02*
X936967Y-976436D01*
X936967Y-976436D02*
X927443Y-957388D01*
X927443Y-957388D02*
X917920Y-919293D01*
X917920Y-919293D02*
X917920Y-871674D01*
X917920Y-871674D02*
X927443Y-833579D01*
X927443Y-833579D02*
X936967Y-814531D01*
X936967Y-814531D02*
X946491Y-805008D01*
X946491Y-805008D02*
X965539Y-795484D01*
X1117920Y-995484D02*
X1117920Y-862150D01*
X1117920Y-881198D02*
X1127444Y-871674D01*
X1127444Y-871674D02*
X1146491Y-862150D01*
X1146491Y-862150D02*
X1175063Y-862150D01*
X1175063Y-862150D02*
X1194110Y-871674D01*
X1194110Y-871674D02*
X1203634Y-890722D01*
X1203634Y-890722D02*
X1203634Y-995484D01*
X1203634Y-890722D02*
X1213158Y-871674D01*
X1213158Y-871674D02*
X1232205Y-862150D01*
X1232205Y-862150D02*
X1260777Y-862150D01*
X1260777Y-862150D02*
X1279825Y-871674D01*
X1279825Y-871674D02*
X1289348Y-890722D01*
X1289348Y-890722D02*
X1289348Y-995484D01*
X1384586Y-995484D02*
X1384586Y-862150D01*
X1384586Y-881198D02*
X1394110Y-871674D01*
X1394110Y-871674D02*
X1413158Y-862150D01*
X1413158Y-862150D02*
X1441729Y-862150D01*
X1441729Y-862150D02*
X1460777Y-871674D01*
X1460777Y-871674D02*
X1470301Y-890722D01*
X1470301Y-890722D02*
X1470301Y-995484D01*
X1470301Y-890722D02*
X1479824Y-871674D01*
X1479824Y-871674D02*
X1498872Y-862150D01*
X1498872Y-862150D02*
X1527443Y-862150D01*
X1527443Y-862150D02*
X1546491Y-871674D01*
X1546491Y-871674D02*
X1556015Y-890722D01*
X1556015Y-890722D02*
X1556015Y-995484D01*
X1946491Y-785960D02*
X1775063Y-1043103D01*
X2203634Y-795484D02*
X2222682Y-795484D01*
X2222682Y-795484D02*
X2241729Y-805008D01*
X2241729Y-805008D02*
X2251253Y-814531D01*
X2251253Y-814531D02*
X2260777Y-833579D01*
X2260777Y-833579D02*
X2270301Y-871674D01*
X2270301Y-871674D02*
X2270301Y-919293D01*
X2270301Y-919293D02*
X2260777Y-957388D01*
X2260777Y-957388D02*
X2251253Y-976436D01*
X2251253Y-976436D02*
X2241729Y-985960D01*
X2241729Y-985960D02*
X2222682Y-995484D01*
X2222682Y-995484D02*
X2203634Y-995484D01*
X2203634Y-995484D02*
X2184587Y-985960D01*
X2184587Y-985960D02*
X2175063Y-976436D01*
X2175063Y-976436D02*
X2165539Y-957388D01*
X2165539Y-957388D02*
X2156015Y-919293D01*
X2156015Y-919293D02*
X2156015Y-871674D01*
X2156015Y-871674D02*
X2165539Y-833579D01*
X2165539Y-833579D02*
X2175063Y-814531D01*
X2175063Y-814531D02*
X2184587Y-805008D01*
X2184587Y-805008D02*
X2203634Y-795484D01*
X2356015Y-976436D02*
X2365539Y-985960D01*
X2365539Y-985960D02*
X2356015Y-995484D01*
X2356015Y-995484D02*
X2346491Y-985960D01*
X2346491Y-985960D02*
X2356015Y-976436D01*
X2356015Y-976436D02*
X2356015Y-995484D01*
X2489348Y-795484D02*
X2508396Y-795484D01*
X2508396Y-795484D02*
X2527444Y-805008D01*
X2527444Y-805008D02*
X2536968Y-814531D01*
X2536968Y-814531D02*
X2546491Y-833579D01*
X2546491Y-833579D02*
X2556015Y-871674D01*
X2556015Y-871674D02*
X2556015Y-919293D01*
X2556015Y-919293D02*
X2546491Y-957388D01*
X2546491Y-957388D02*
X2536968Y-976436D01*
X2536968Y-976436D02*
X2527444Y-985960D01*
X2527444Y-985960D02*
X2508396Y-995484D01*
X2508396Y-995484D02*
X2489348Y-995484D01*
X2489348Y-995484D02*
X2470301Y-985960D01*
X2470301Y-985960D02*
X2460777Y-976436D01*
X2460777Y-976436D02*
X2451253Y-957388D01*
X2451253Y-957388D02*
X2441729Y-919293D01*
X2441729Y-919293D02*
X2441729Y-871674D01*
X2441729Y-871674D02*
X2451253Y-833579D01*
X2451253Y-833579D02*
X2460777Y-814531D01*
X2460777Y-814531D02*
X2470301Y-805008D01*
X2470301Y-805008D02*
X2489348Y-795484D01*
X2746491Y-995484D02*
X2632206Y-995484D01*
X2689348Y-995484D02*
X2689348Y-795484D01*
X2689348Y-795484D02*
X2670301Y-824055D01*
X2670301Y-824055D02*
X2651253Y-843103D01*
X2651253Y-843103D02*
X2632206Y-852627D01*
X2936967Y-995484D02*
X2822682Y-995484D01*
X2879825Y-995484D02*
X2879825Y-795484D01*
X2879825Y-795484D02*
X2860777Y-824055D01*
X2860777Y-824055D02*
X2841729Y-843103D01*
X2841729Y-843103D02*
X2822682Y-852627D01*
X3051253Y-881198D02*
X3032206Y-871674D01*
X3032206Y-871674D02*
X3022682Y-862150D01*
X3022682Y-862150D02*
X3013158Y-843103D01*
X3013158Y-843103D02*
X3013158Y-833579D01*
X3013158Y-833579D02*
X3022682Y-814531D01*
X3022682Y-814531D02*
X3032206Y-805008D01*
X3032206Y-805008D02*
X3051253Y-795484D01*
X3051253Y-795484D02*
X3089348Y-795484D01*
X3089348Y-795484D02*
X3108396Y-805008D01*
X3108396Y-805008D02*
X3117920Y-814531D01*
X3117920Y-814531D02*
X3127444Y-833579D01*
X3127444Y-833579D02*
X3127444Y-843103D01*
X3127444Y-843103D02*
X3117920Y-862150D01*
X3117920Y-862150D02*
X3108396Y-871674D01*
X3108396Y-871674D02*
X3089348Y-881198D01*
X3089348Y-881198D02*
X3051253Y-881198D01*
X3051253Y-881198D02*
X3032206Y-890722D01*
X3032206Y-890722D02*
X3022682Y-900246D01*
X3022682Y-900246D02*
X3013158Y-919293D01*
X3013158Y-919293D02*
X3013158Y-957388D01*
X3013158Y-957388D02*
X3022682Y-976436D01*
X3022682Y-976436D02*
X3032206Y-985960D01*
X3032206Y-985960D02*
X3051253Y-995484D01*
X3051253Y-995484D02*
X3089348Y-995484D01*
X3089348Y-995484D02*
X3108396Y-985960D01*
X3108396Y-985960D02*
X3117920Y-976436D01*
X3117920Y-976436D02*
X3127444Y-957388D01*
X3127444Y-957388D02*
X3127444Y-919293D01*
X3127444Y-919293D02*
X3117920Y-900246D01*
X3117920Y-900246D02*
X3108396Y-890722D01*
X3108396Y-890722D02*
X3089348Y-881198D01*
X3203634Y-795484D02*
X3203634Y-833579D01*
X3279825Y-795484D02*
X3279825Y-833579D01*
X3575063Y-1071674D02*
X3565539Y-1062150D01*
X3565539Y-1062150D02*
X3546491Y-1033579D01*
X3546491Y-1033579D02*
X3536968Y-1014531D01*
X3536968Y-1014531D02*
X3527444Y-985960D01*
X3527444Y-985960D02*
X3517920Y-938341D01*
X3517920Y-938341D02*
X3517920Y-900246D01*
X3517920Y-900246D02*
X3527444Y-852627D01*
X3527444Y-852627D02*
X3536968Y-824055D01*
X3536968Y-824055D02*
X3546491Y-805008D01*
X3546491Y-805008D02*
X3565539Y-776436D01*
X3565539Y-776436D02*
X3575063Y-766912D01*
X3641729Y-814531D02*
X3651253Y-805008D01*
X3651253Y-805008D02*
X3670301Y-795484D01*
X3670301Y-795484D02*
X3717920Y-795484D01*
X3717920Y-795484D02*
X3736968Y-805008D01*
X3736968Y-805008D02*
X3746491Y-814531D01*
X3746491Y-814531D02*
X3756015Y-833579D01*
X3756015Y-833579D02*
X3756015Y-852627D01*
X3756015Y-852627D02*
X3746491Y-881198D01*
X3746491Y-881198D02*
X3632206Y-995484D01*
X3632206Y-995484D02*
X3756015Y-995484D01*
X3946491Y-995484D02*
X3832206Y-995484D01*
X3889348Y-995484D02*
X3889348Y-795484D01*
X3889348Y-795484D02*
X3870301Y-824055D01*
X3870301Y-824055D02*
X3851253Y-843103D01*
X3851253Y-843103D02*
X3832206Y-852627D01*
X4022682Y-814531D02*
X4032206Y-805008D01*
X4032206Y-805008D02*
X4051253Y-795484D01*
X4051253Y-795484D02*
X4098872Y-795484D01*
X4098872Y-795484D02*
X4117920Y-805008D01*
X4117920Y-805008D02*
X4127444Y-814531D01*
X4127444Y-814531D02*
X4136968Y-833579D01*
X4136968Y-833579D02*
X4136968Y-852627D01*
X4136968Y-852627D02*
X4127444Y-881198D01*
X4127444Y-881198D02*
X4013158Y-995484D01*
X4013158Y-995484D02*
X4136968Y-995484D01*
X4375063Y-995484D02*
X4375063Y-795484D01*
X4460777Y-995484D02*
X4460777Y-890722D01*
X4460777Y-890722D02*
X4451253Y-871674D01*
X4451253Y-871674D02*
X4432206Y-862150D01*
X4432206Y-862150D02*
X4403634Y-862150D01*
X4403634Y-862150D02*
X4384587Y-871674D01*
X4384587Y-871674D02*
X4375063Y-881198D01*
X4584587Y-995484D02*
X4565539Y-985960D01*
X4565539Y-985960D02*
X4556015Y-976436D01*
X4556015Y-976436D02*
X4546492Y-957388D01*
X4546492Y-957388D02*
X4546492Y-900246D01*
X4546492Y-900246D02*
X4556015Y-881198D01*
X4556015Y-881198D02*
X4565539Y-871674D01*
X4565539Y-871674D02*
X4584587Y-862150D01*
X4584587Y-862150D02*
X4613158Y-862150D01*
X4613158Y-862150D02*
X4632206Y-871674D01*
X4632206Y-871674D02*
X4641730Y-881198D01*
X4641730Y-881198D02*
X4651253Y-900246D01*
X4651253Y-900246D02*
X4651253Y-957388D01*
X4651253Y-957388D02*
X4641730Y-976436D01*
X4641730Y-976436D02*
X4632206Y-985960D01*
X4632206Y-985960D02*
X4613158Y-995484D01*
X4613158Y-995484D02*
X4584587Y-995484D01*
X4765539Y-995484D02*
X4746492Y-985960D01*
X4746492Y-985960D02*
X4736968Y-966912D01*
X4736968Y-966912D02*
X4736968Y-795484D01*
X4917920Y-985960D02*
X4898873Y-995484D01*
X4898873Y-995484D02*
X4860777Y-995484D01*
X4860777Y-995484D02*
X4841730Y-985960D01*
X4841730Y-985960D02*
X4832206Y-966912D01*
X4832206Y-966912D02*
X4832206Y-890722D01*
X4832206Y-890722D02*
X4841730Y-871674D01*
X4841730Y-871674D02*
X4860777Y-862150D01*
X4860777Y-862150D02*
X4898873Y-862150D01*
X4898873Y-862150D02*
X4917920Y-871674D01*
X4917920Y-871674D02*
X4927444Y-890722D01*
X4927444Y-890722D02*
X4927444Y-909769D01*
X4927444Y-909769D02*
X4832206Y-928817D01*
X5003634Y-985960D02*
X5022682Y-995484D01*
X5022682Y-995484D02*
X5060777Y-995484D01*
X5060777Y-995484D02*
X5079825Y-985960D01*
X5079825Y-985960D02*
X5089349Y-966912D01*
X5089349Y-966912D02*
X5089349Y-957388D01*
X5089349Y-957388D02*
X5079825Y-938341D01*
X5079825Y-938341D02*
X5060777Y-928817D01*
X5060777Y-928817D02*
X5032206Y-928817D01*
X5032206Y-928817D02*
X5013158Y-919293D01*
X5013158Y-919293D02*
X5003634Y-900246D01*
X5003634Y-900246D02*
X5003634Y-890722D01*
X5003634Y-890722D02*
X5013158Y-871674D01*
X5013158Y-871674D02*
X5032206Y-862150D01*
X5032206Y-862150D02*
X5060777Y-862150D01*
X5060777Y-862150D02*
X5079825Y-871674D01*
X5156015Y-1071674D02*
X5165539Y-1062150D01*
X5165539Y-1062150D02*
X5184587Y-1033579D01*
X5184587Y-1033579D02*
X5194111Y-1014531D01*
X5194111Y-1014531D02*
X5203634Y-985960D01*
X5203634Y-985960D02*
X5213158Y-938341D01*
X5213158Y-938341D02*
X5213158Y-900246D01*
X5213158Y-900246D02*
X5203634Y-852627D01*
X5203634Y-852627D02*
X5194111Y-824055D01*
X5194111Y-824055D02*
X5184587Y-805008D01*
X5184587Y-805008D02*
X5165539Y-776436D01*
X5165539Y-776436D02*
X5156015Y-766912D01*
D11*
X-20000Y-1148000D02*
X-20000Y-1188000D01*
X-40000Y-1168000D02*
X0Y-1168000D01*
D10*
X298872Y-1059484D02*
X317920Y-1059484D01*
X317920Y-1059484D02*
X336967Y-1069008D01*
X336967Y-1069008D02*
X346491Y-1078531D01*
X346491Y-1078531D02*
X356015Y-1097579D01*
X356015Y-1097579D02*
X365539Y-1135674D01*
X365539Y-1135674D02*
X365539Y-1183293D01*
X365539Y-1183293D02*
X356015Y-1221389D01*
X356015Y-1221389D02*
X346491Y-1240436D01*
X346491Y-1240436D02*
X336967Y-1249960D01*
X336967Y-1249960D02*
X317920Y-1259484D01*
X317920Y-1259484D02*
X298872Y-1259484D01*
X298872Y-1259484D02*
X279824Y-1249960D01*
X279824Y-1249960D02*
X270301Y-1240436D01*
X270301Y-1240436D02*
X260777Y-1221389D01*
X260777Y-1221389D02*
X251253Y-1183293D01*
X251253Y-1183293D02*
X251253Y-1135674D01*
X251253Y-1135674D02*
X260777Y-1097579D01*
X260777Y-1097579D02*
X270301Y-1078531D01*
X270301Y-1078531D02*
X279824Y-1069008D01*
X279824Y-1069008D02*
X298872Y-1059484D01*
X451253Y-1240436D02*
X460777Y-1249960D01*
X460777Y-1249960D02*
X451253Y-1259484D01*
X451253Y-1259484D02*
X441729Y-1249960D01*
X441729Y-1249960D02*
X451253Y-1240436D01*
X451253Y-1240436D02*
X451253Y-1259484D01*
X632205Y-1126150D02*
X632205Y-1259484D01*
X584586Y-1049960D02*
X536967Y-1192817D01*
X536967Y-1192817D02*
X660777Y-1192817D01*
X775062Y-1059484D02*
X794110Y-1059484D01*
X794110Y-1059484D02*
X813158Y-1069008D01*
X813158Y-1069008D02*
X822682Y-1078531D01*
X822682Y-1078531D02*
X832205Y-1097579D01*
X832205Y-1097579D02*
X841729Y-1135674D01*
X841729Y-1135674D02*
X841729Y-1183293D01*
X841729Y-1183293D02*
X832205Y-1221389D01*
X832205Y-1221389D02*
X822682Y-1240436D01*
X822682Y-1240436D02*
X813158Y-1249960D01*
X813158Y-1249960D02*
X794110Y-1259484D01*
X794110Y-1259484D02*
X775062Y-1259484D01*
X775062Y-1259484D02*
X756015Y-1249960D01*
X756015Y-1249960D02*
X746491Y-1240436D01*
X746491Y-1240436D02*
X736967Y-1221389D01*
X736967Y-1221389D02*
X727443Y-1183293D01*
X727443Y-1183293D02*
X727443Y-1135674D01*
X727443Y-1135674D02*
X736967Y-1097579D01*
X736967Y-1097579D02*
X746491Y-1078531D01*
X746491Y-1078531D02*
X756015Y-1069008D01*
X756015Y-1069008D02*
X775062Y-1059484D01*
X965539Y-1059484D02*
X984586Y-1059484D01*
X984586Y-1059484D02*
X1003634Y-1069008D01*
X1003634Y-1069008D02*
X1013158Y-1078531D01*
X1013158Y-1078531D02*
X1022682Y-1097579D01*
X1022682Y-1097579D02*
X1032205Y-1135674D01*
X1032205Y-1135674D02*
X1032205Y-1183293D01*
X1032205Y-1183293D02*
X1022682Y-1221389D01*
X1022682Y-1221389D02*
X1013158Y-1240436D01*
X1013158Y-1240436D02*
X1003634Y-1249960D01*
X1003634Y-1249960D02*
X984586Y-1259484D01*
X984586Y-1259484D02*
X965539Y-1259484D01*
X965539Y-1259484D02*
X946491Y-1249960D01*
X946491Y-1249960D02*
X936967Y-1240436D01*
X936967Y-1240436D02*
X927443Y-1221389D01*
X927443Y-1221389D02*
X917920Y-1183293D01*
X917920Y-1183293D02*
X917920Y-1135674D01*
X917920Y-1135674D02*
X927443Y-1097579D01*
X927443Y-1097579D02*
X936967Y-1078531D01*
X936967Y-1078531D02*
X946491Y-1069008D01*
X946491Y-1069008D02*
X965539Y-1059484D01*
X1117920Y-1259484D02*
X1117920Y-1126150D01*
X1117920Y-1145198D02*
X1127444Y-1135674D01*
X1127444Y-1135674D02*
X1146491Y-1126150D01*
X1146491Y-1126150D02*
X1175063Y-1126150D01*
X1175063Y-1126150D02*
X1194110Y-1135674D01*
X1194110Y-1135674D02*
X1203634Y-1154722D01*
X1203634Y-1154722D02*
X1203634Y-1259484D01*
X1203634Y-1154722D02*
X1213158Y-1135674D01*
X1213158Y-1135674D02*
X1232205Y-1126150D01*
X1232205Y-1126150D02*
X1260777Y-1126150D01*
X1260777Y-1126150D02*
X1279825Y-1135674D01*
X1279825Y-1135674D02*
X1289348Y-1154722D01*
X1289348Y-1154722D02*
X1289348Y-1259484D01*
X1384586Y-1259484D02*
X1384586Y-1126150D01*
X1384586Y-1145198D02*
X1394110Y-1135674D01*
X1394110Y-1135674D02*
X1413158Y-1126150D01*
X1413158Y-1126150D02*
X1441729Y-1126150D01*
X1441729Y-1126150D02*
X1460777Y-1135674D01*
X1460777Y-1135674D02*
X1470301Y-1154722D01*
X1470301Y-1154722D02*
X1470301Y-1259484D01*
X1470301Y-1154722D02*
X1479824Y-1135674D01*
X1479824Y-1135674D02*
X1498872Y-1126150D01*
X1498872Y-1126150D02*
X1527443Y-1126150D01*
X1527443Y-1126150D02*
X1546491Y-1135674D01*
X1546491Y-1135674D02*
X1556015Y-1154722D01*
X1556015Y-1154722D02*
X1556015Y-1259484D01*
X1946491Y-1049960D02*
X1775063Y-1307103D01*
X2203634Y-1059484D02*
X2222682Y-1059484D01*
X2222682Y-1059484D02*
X2241729Y-1069008D01*
X2241729Y-1069008D02*
X2251253Y-1078531D01*
X2251253Y-1078531D02*
X2260777Y-1097579D01*
X2260777Y-1097579D02*
X2270301Y-1135674D01*
X2270301Y-1135674D02*
X2270301Y-1183293D01*
X2270301Y-1183293D02*
X2260777Y-1221389D01*
X2260777Y-1221389D02*
X2251253Y-1240436D01*
X2251253Y-1240436D02*
X2241729Y-1249960D01*
X2241729Y-1249960D02*
X2222682Y-1259484D01*
X2222682Y-1259484D02*
X2203634Y-1259484D01*
X2203634Y-1259484D02*
X2184587Y-1249960D01*
X2184587Y-1249960D02*
X2175063Y-1240436D01*
X2175063Y-1240436D02*
X2165539Y-1221389D01*
X2165539Y-1221389D02*
X2156015Y-1183293D01*
X2156015Y-1183293D02*
X2156015Y-1135674D01*
X2156015Y-1135674D02*
X2165539Y-1097579D01*
X2165539Y-1097579D02*
X2175063Y-1078531D01*
X2175063Y-1078531D02*
X2184587Y-1069008D01*
X2184587Y-1069008D02*
X2203634Y-1059484D01*
X2356015Y-1240436D02*
X2365539Y-1249960D01*
X2365539Y-1249960D02*
X2356015Y-1259484D01*
X2356015Y-1259484D02*
X2346491Y-1249960D01*
X2346491Y-1249960D02*
X2356015Y-1240436D01*
X2356015Y-1240436D02*
X2356015Y-1259484D01*
X2489348Y-1059484D02*
X2508396Y-1059484D01*
X2508396Y-1059484D02*
X2527444Y-1069008D01*
X2527444Y-1069008D02*
X2536968Y-1078531D01*
X2536968Y-1078531D02*
X2546491Y-1097579D01*
X2546491Y-1097579D02*
X2556015Y-1135674D01*
X2556015Y-1135674D02*
X2556015Y-1183293D01*
X2556015Y-1183293D02*
X2546491Y-1221389D01*
X2546491Y-1221389D02*
X2536968Y-1240436D01*
X2536968Y-1240436D02*
X2527444Y-1249960D01*
X2527444Y-1249960D02*
X2508396Y-1259484D01*
X2508396Y-1259484D02*
X2489348Y-1259484D01*
X2489348Y-1259484D02*
X2470301Y-1249960D01*
X2470301Y-1249960D02*
X2460777Y-1240436D01*
X2460777Y-1240436D02*
X2451253Y-1221389D01*
X2451253Y-1221389D02*
X2441729Y-1183293D01*
X2441729Y-1183293D02*
X2441729Y-1135674D01*
X2441729Y-1135674D02*
X2451253Y-1097579D01*
X2451253Y-1097579D02*
X2460777Y-1078531D01*
X2460777Y-1078531D02*
X2470301Y-1069008D01*
X2470301Y-1069008D02*
X2489348Y-1059484D01*
X2746491Y-1259484D02*
X2632206Y-1259484D01*
X2689348Y-1259484D02*
X2689348Y-1059484D01*
X2689348Y-1059484D02*
X2670301Y-1088055D01*
X2670301Y-1088055D02*
X2651253Y-1107103D01*
X2651253Y-1107103D02*
X2632206Y-1116627D01*
X2927444Y-1059484D02*
X2832206Y-1059484D01*
X2832206Y-1059484D02*
X2822682Y-1154722D01*
X2822682Y-1154722D02*
X2832206Y-1145198D01*
X2832206Y-1145198D02*
X2851253Y-1135674D01*
X2851253Y-1135674D02*
X2898872Y-1135674D01*
X2898872Y-1135674D02*
X2917920Y-1145198D01*
X2917920Y-1145198D02*
X2927444Y-1154722D01*
X2927444Y-1154722D02*
X2936967Y-1173770D01*
X2936967Y-1173770D02*
X2936967Y-1221389D01*
X2936967Y-1221389D02*
X2927444Y-1240436D01*
X2927444Y-1240436D02*
X2917920Y-1249960D01*
X2917920Y-1249960D02*
X2898872Y-1259484D01*
X2898872Y-1259484D02*
X2851253Y-1259484D01*
X2851253Y-1259484D02*
X2832206Y-1249960D01*
X2832206Y-1249960D02*
X2822682Y-1240436D01*
X3003634Y-1059484D02*
X3136967Y-1059484D01*
X3136967Y-1059484D02*
X3051253Y-1259484D01*
X3203634Y-1059484D02*
X3203634Y-1097579D01*
X3279825Y-1059484D02*
X3279825Y-1097579D01*
X3575063Y-1335674D02*
X3565539Y-1326150D01*
X3565539Y-1326150D02*
X3546491Y-1297579D01*
X3546491Y-1297579D02*
X3536968Y-1278531D01*
X3536968Y-1278531D02*
X3527444Y-1249960D01*
X3527444Y-1249960D02*
X3517920Y-1202341D01*
X3517920Y-1202341D02*
X3517920Y-1164246D01*
X3517920Y-1164246D02*
X3527444Y-1116627D01*
X3527444Y-1116627D02*
X3536968Y-1088055D01*
X3536968Y-1088055D02*
X3546491Y-1069008D01*
X3546491Y-1069008D02*
X3565539Y-1040436D01*
X3565539Y-1040436D02*
X3575063Y-1030912D01*
X3756015Y-1259484D02*
X3641729Y-1259484D01*
X3698872Y-1259484D02*
X3698872Y-1059484D01*
X3698872Y-1059484D02*
X3679825Y-1088055D01*
X3679825Y-1088055D02*
X3660777Y-1107103D01*
X3660777Y-1107103D02*
X3641729Y-1116627D01*
X3822682Y-1059484D02*
X3946491Y-1059484D01*
X3946491Y-1059484D02*
X3879825Y-1135674D01*
X3879825Y-1135674D02*
X3908396Y-1135674D01*
X3908396Y-1135674D02*
X3927444Y-1145198D01*
X3927444Y-1145198D02*
X3936968Y-1154722D01*
X3936968Y-1154722D02*
X3946491Y-1173770D01*
X3946491Y-1173770D02*
X3946491Y-1221389D01*
X3946491Y-1221389D02*
X3936968Y-1240436D01*
X3936968Y-1240436D02*
X3927444Y-1249960D01*
X3927444Y-1249960D02*
X3908396Y-1259484D01*
X3908396Y-1259484D02*
X3851253Y-1259484D01*
X3851253Y-1259484D02*
X3832206Y-1249960D01*
X3832206Y-1249960D02*
X3822682Y-1240436D01*
X4184587Y-1259484D02*
X4184587Y-1059484D01*
X4270301Y-1259484D02*
X4270301Y-1154722D01*
X4270301Y-1154722D02*
X4260777Y-1135674D01*
X4260777Y-1135674D02*
X4241730Y-1126150D01*
X4241730Y-1126150D02*
X4213158Y-1126150D01*
X4213158Y-1126150D02*
X4194110Y-1135674D01*
X4194110Y-1135674D02*
X4184587Y-1145198D01*
X4394111Y-1259484D02*
X4375063Y-1249960D01*
X4375063Y-1249960D02*
X4365539Y-1240436D01*
X4365539Y-1240436D02*
X4356015Y-1221389D01*
X4356015Y-1221389D02*
X4356015Y-1164246D01*
X4356015Y-1164246D02*
X4365539Y-1145198D01*
X4365539Y-1145198D02*
X4375063Y-1135674D01*
X4375063Y-1135674D02*
X4394111Y-1126150D01*
X4394111Y-1126150D02*
X4422682Y-1126150D01*
X4422682Y-1126150D02*
X4441730Y-1135674D01*
X4441730Y-1135674D02*
X4451253Y-1145198D01*
X4451253Y-1145198D02*
X4460777Y-1164246D01*
X4460777Y-1164246D02*
X4460777Y-1221389D01*
X4460777Y-1221389D02*
X4451253Y-1240436D01*
X4451253Y-1240436D02*
X4441730Y-1249960D01*
X4441730Y-1249960D02*
X4422682Y-1259484D01*
X4422682Y-1259484D02*
X4394111Y-1259484D01*
X4575063Y-1259484D02*
X4556015Y-1249960D01*
X4556015Y-1249960D02*
X4546492Y-1230912D01*
X4546492Y-1230912D02*
X4546492Y-1059484D01*
X4727444Y-1249960D02*
X4708396Y-1259484D01*
X4708396Y-1259484D02*
X4670301Y-1259484D01*
X4670301Y-1259484D02*
X4651253Y-1249960D01*
X4651253Y-1249960D02*
X4641730Y-1230912D01*
X4641730Y-1230912D02*
X4641730Y-1154722D01*
X4641730Y-1154722D02*
X4651253Y-1135674D01*
X4651253Y-1135674D02*
X4670301Y-1126150D01*
X4670301Y-1126150D02*
X4708396Y-1126150D01*
X4708396Y-1126150D02*
X4727444Y-1135674D01*
X4727444Y-1135674D02*
X4736968Y-1154722D01*
X4736968Y-1154722D02*
X4736968Y-1173770D01*
X4736968Y-1173770D02*
X4641730Y-1192817D01*
X4813158Y-1249960D02*
X4832206Y-1259484D01*
X4832206Y-1259484D02*
X4870301Y-1259484D01*
X4870301Y-1259484D02*
X4889349Y-1249960D01*
X4889349Y-1249960D02*
X4898873Y-1230912D01*
X4898873Y-1230912D02*
X4898873Y-1221389D01*
X4898873Y-1221389D02*
X4889349Y-1202341D01*
X4889349Y-1202341D02*
X4870301Y-1192817D01*
X4870301Y-1192817D02*
X4841730Y-1192817D01*
X4841730Y-1192817D02*
X4822682Y-1183293D01*
X4822682Y-1183293D02*
X4813158Y-1164246D01*
X4813158Y-1164246D02*
X4813158Y-1154722D01*
X4813158Y-1154722D02*
X4822682Y-1135674D01*
X4822682Y-1135674D02*
X4841730Y-1126150D01*
X4841730Y-1126150D02*
X4870301Y-1126150D01*
X4870301Y-1126150D02*
X4889349Y-1135674D01*
X4965539Y-1335674D02*
X4975063Y-1326150D01*
X4975063Y-1326150D02*
X4994111Y-1297579D01*
X4994111Y-1297579D02*
X5003634Y-1278531D01*
X5003634Y-1278531D02*
X5013158Y-1249960D01*
X5013158Y-1249960D02*
X5022682Y-1202341D01*
X5022682Y-1202341D02*
X5022682Y-1164246D01*
X5022682Y-1164246D02*
X5013158Y-1116627D01*
X5013158Y-1116627D02*
X5003634Y-1088055D01*
X5003634Y-1088055D02*
X4994111Y-1069008D01*
X4994111Y-1069008D02*
X4975063Y-1040436D01*
X4975063Y-1040436D02*
X4965539Y-1030912D01*
D11*
X-7322Y-1449678D02*
X-7322Y-1414322D01*
X-42678Y-1414322D01*
X-42678Y-1449678D01*
X-7322Y-1449678D01*
D10*
X298872Y-1323484D02*
X317920Y-1323484D01*
X317920Y-1323484D02*
X336967Y-1333008D01*
X336967Y-1333008D02*
X346491Y-1342531D01*
X346491Y-1342531D02*
X356015Y-1361579D01*
X356015Y-1361579D02*
X365539Y-1399674D01*
X365539Y-1399674D02*
X365539Y-1447293D01*
X365539Y-1447293D02*
X356015Y-1485388D01*
X356015Y-1485388D02*
X346491Y-1504436D01*
X346491Y-1504436D02*
X336967Y-1513960D01*
X336967Y-1513960D02*
X317920Y-1523484D01*
X317920Y-1523484D02*
X298872Y-1523484D01*
X298872Y-1523484D02*
X279824Y-1513960D01*
X279824Y-1513960D02*
X270301Y-1504436D01*
X270301Y-1504436D02*
X260777Y-1485388D01*
X260777Y-1485388D02*
X251253Y-1447293D01*
X251253Y-1447293D02*
X251253Y-1399674D01*
X251253Y-1399674D02*
X260777Y-1361579D01*
X260777Y-1361579D02*
X270301Y-1342531D01*
X270301Y-1342531D02*
X279824Y-1333008D01*
X279824Y-1333008D02*
X298872Y-1323484D01*
X451253Y-1504436D02*
X460777Y-1513960D01*
X460777Y-1513960D02*
X451253Y-1523484D01*
X451253Y-1523484D02*
X441729Y-1513960D01*
X441729Y-1513960D02*
X451253Y-1504436D01*
X451253Y-1504436D02*
X451253Y-1523484D01*
X641729Y-1323484D02*
X546491Y-1323484D01*
X546491Y-1323484D02*
X536967Y-1418722D01*
X536967Y-1418722D02*
X546491Y-1409198D01*
X546491Y-1409198D02*
X565539Y-1399674D01*
X565539Y-1399674D02*
X613158Y-1399674D01*
X613158Y-1399674D02*
X632205Y-1409198D01*
X632205Y-1409198D02*
X641729Y-1418722D01*
X641729Y-1418722D02*
X651253Y-1437769D01*
X651253Y-1437769D02*
X651253Y-1485388D01*
X651253Y-1485388D02*
X641729Y-1504436D01*
X641729Y-1504436D02*
X632205Y-1513960D01*
X632205Y-1513960D02*
X613158Y-1523484D01*
X613158Y-1523484D02*
X565539Y-1523484D01*
X565539Y-1523484D02*
X546491Y-1513960D01*
X546491Y-1513960D02*
X536967Y-1504436D01*
X775062Y-1323484D02*
X794110Y-1323484D01*
X794110Y-1323484D02*
X813158Y-1333008D01*
X813158Y-1333008D02*
X822682Y-1342531D01*
X822682Y-1342531D02*
X832205Y-1361579D01*
X832205Y-1361579D02*
X841729Y-1399674D01*
X841729Y-1399674D02*
X841729Y-1447293D01*
X841729Y-1447293D02*
X832205Y-1485388D01*
X832205Y-1485388D02*
X822682Y-1504436D01*
X822682Y-1504436D02*
X813158Y-1513960D01*
X813158Y-1513960D02*
X794110Y-1523484D01*
X794110Y-1523484D02*
X775062Y-1523484D01*
X775062Y-1523484D02*
X756015Y-1513960D01*
X756015Y-1513960D02*
X746491Y-1504436D01*
X746491Y-1504436D02*
X736967Y-1485388D01*
X736967Y-1485388D02*
X727443Y-1447293D01*
X727443Y-1447293D02*
X727443Y-1399674D01*
X727443Y-1399674D02*
X736967Y-1361579D01*
X736967Y-1361579D02*
X746491Y-1342531D01*
X746491Y-1342531D02*
X756015Y-1333008D01*
X756015Y-1333008D02*
X775062Y-1323484D01*
X965539Y-1323484D02*
X984586Y-1323484D01*
X984586Y-1323484D02*
X1003634Y-1333008D01*
X1003634Y-1333008D02*
X1013158Y-1342531D01*
X1013158Y-1342531D02*
X1022682Y-1361579D01*
X1022682Y-1361579D02*
X1032205Y-1399674D01*
X1032205Y-1399674D02*
X1032205Y-1447293D01*
X1032205Y-1447293D02*
X1022682Y-1485388D01*
X1022682Y-1485388D02*
X1013158Y-1504436D01*
X1013158Y-1504436D02*
X1003634Y-1513960D01*
X1003634Y-1513960D02*
X984586Y-1523484D01*
X984586Y-1523484D02*
X965539Y-1523484D01*
X965539Y-1523484D02*
X946491Y-1513960D01*
X946491Y-1513960D02*
X936967Y-1504436D01*
X936967Y-1504436D02*
X927443Y-1485388D01*
X927443Y-1485388D02*
X917920Y-1447293D01*
X917920Y-1447293D02*
X917920Y-1399674D01*
X917920Y-1399674D02*
X927443Y-1361579D01*
X927443Y-1361579D02*
X936967Y-1342531D01*
X936967Y-1342531D02*
X946491Y-1333008D01*
X946491Y-1333008D02*
X965539Y-1323484D01*
X1117920Y-1523484D02*
X1117920Y-1390150D01*
X1117920Y-1409198D02*
X1127444Y-1399674D01*
X1127444Y-1399674D02*
X1146491Y-1390150D01*
X1146491Y-1390150D02*
X1175063Y-1390150D01*
X1175063Y-1390150D02*
X1194110Y-1399674D01*
X1194110Y-1399674D02*
X1203634Y-1418722D01*
X1203634Y-1418722D02*
X1203634Y-1523484D01*
X1203634Y-1418722D02*
X1213158Y-1399674D01*
X1213158Y-1399674D02*
X1232205Y-1390150D01*
X1232205Y-1390150D02*
X1260777Y-1390150D01*
X1260777Y-1390150D02*
X1279825Y-1399674D01*
X1279825Y-1399674D02*
X1289348Y-1418722D01*
X1289348Y-1418722D02*
X1289348Y-1523484D01*
X1384586Y-1523484D02*
X1384586Y-1390150D01*
X1384586Y-1409198D02*
X1394110Y-1399674D01*
X1394110Y-1399674D02*
X1413158Y-1390150D01*
X1413158Y-1390150D02*
X1441729Y-1390150D01*
X1441729Y-1390150D02*
X1460777Y-1399674D01*
X1460777Y-1399674D02*
X1470301Y-1418722D01*
X1470301Y-1418722D02*
X1470301Y-1523484D01*
X1470301Y-1418722D02*
X1479824Y-1399674D01*
X1479824Y-1399674D02*
X1498872Y-1390150D01*
X1498872Y-1390150D02*
X1527443Y-1390150D01*
X1527443Y-1390150D02*
X1546491Y-1399674D01*
X1546491Y-1399674D02*
X1556015Y-1418722D01*
X1556015Y-1418722D02*
X1556015Y-1523484D01*
X1946491Y-1313960D02*
X1775063Y-1571103D01*
X2203634Y-1323484D02*
X2222682Y-1323484D01*
X2222682Y-1323484D02*
X2241729Y-1333008D01*
X2241729Y-1333008D02*
X2251253Y-1342531D01*
X2251253Y-1342531D02*
X2260777Y-1361579D01*
X2260777Y-1361579D02*
X2270301Y-1399674D01*
X2270301Y-1399674D02*
X2270301Y-1447293D01*
X2270301Y-1447293D02*
X2260777Y-1485388D01*
X2260777Y-1485388D02*
X2251253Y-1504436D01*
X2251253Y-1504436D02*
X2241729Y-1513960D01*
X2241729Y-1513960D02*
X2222682Y-1523484D01*
X2222682Y-1523484D02*
X2203634Y-1523484D01*
X2203634Y-1523484D02*
X2184587Y-1513960D01*
X2184587Y-1513960D02*
X2175063Y-1504436D01*
X2175063Y-1504436D02*
X2165539Y-1485388D01*
X2165539Y-1485388D02*
X2156015Y-1447293D01*
X2156015Y-1447293D02*
X2156015Y-1399674D01*
X2156015Y-1399674D02*
X2165539Y-1361579D01*
X2165539Y-1361579D02*
X2175063Y-1342531D01*
X2175063Y-1342531D02*
X2184587Y-1333008D01*
X2184587Y-1333008D02*
X2203634Y-1323484D01*
X2356015Y-1504436D02*
X2365539Y-1513960D01*
X2365539Y-1513960D02*
X2356015Y-1523484D01*
X2356015Y-1523484D02*
X2346491Y-1513960D01*
X2346491Y-1513960D02*
X2356015Y-1504436D01*
X2356015Y-1504436D02*
X2356015Y-1523484D01*
X2489348Y-1323484D02*
X2508396Y-1323484D01*
X2508396Y-1323484D02*
X2527444Y-1333008D01*
X2527444Y-1333008D02*
X2536968Y-1342531D01*
X2536968Y-1342531D02*
X2546491Y-1361579D01*
X2546491Y-1361579D02*
X2556015Y-1399674D01*
X2556015Y-1399674D02*
X2556015Y-1447293D01*
X2556015Y-1447293D02*
X2546491Y-1485388D01*
X2546491Y-1485388D02*
X2536968Y-1504436D01*
X2536968Y-1504436D02*
X2527444Y-1513960D01*
X2527444Y-1513960D02*
X2508396Y-1523484D01*
X2508396Y-1523484D02*
X2489348Y-1523484D01*
X2489348Y-1523484D02*
X2470301Y-1513960D01*
X2470301Y-1513960D02*
X2460777Y-1504436D01*
X2460777Y-1504436D02*
X2451253Y-1485388D01*
X2451253Y-1485388D02*
X2441729Y-1447293D01*
X2441729Y-1447293D02*
X2441729Y-1399674D01*
X2441729Y-1399674D02*
X2451253Y-1361579D01*
X2451253Y-1361579D02*
X2460777Y-1342531D01*
X2460777Y-1342531D02*
X2470301Y-1333008D01*
X2470301Y-1333008D02*
X2489348Y-1323484D01*
X2746491Y-1523484D02*
X2632206Y-1523484D01*
X2689348Y-1523484D02*
X2689348Y-1323484D01*
X2689348Y-1323484D02*
X2670301Y-1352055D01*
X2670301Y-1352055D02*
X2651253Y-1371103D01*
X2651253Y-1371103D02*
X2632206Y-1380627D01*
X2841729Y-1523484D02*
X2879825Y-1523484D01*
X2879825Y-1523484D02*
X2898872Y-1513960D01*
X2898872Y-1513960D02*
X2908396Y-1504436D01*
X2908396Y-1504436D02*
X2927444Y-1475865D01*
X2927444Y-1475865D02*
X2936967Y-1437769D01*
X2936967Y-1437769D02*
X2936967Y-1361579D01*
X2936967Y-1361579D02*
X2927444Y-1342531D01*
X2927444Y-1342531D02*
X2917920Y-1333008D01*
X2917920Y-1333008D02*
X2898872Y-1323484D01*
X2898872Y-1323484D02*
X2860777Y-1323484D01*
X2860777Y-1323484D02*
X2841729Y-1333008D01*
X2841729Y-1333008D02*
X2832206Y-1342531D01*
X2832206Y-1342531D02*
X2822682Y-1361579D01*
X2822682Y-1361579D02*
X2822682Y-1409198D01*
X2822682Y-1409198D02*
X2832206Y-1428246D01*
X2832206Y-1428246D02*
X2841729Y-1437769D01*
X2841729Y-1437769D02*
X2860777Y-1447293D01*
X2860777Y-1447293D02*
X2898872Y-1447293D01*
X2898872Y-1447293D02*
X2917920Y-1437769D01*
X2917920Y-1437769D02*
X2927444Y-1428246D01*
X2927444Y-1428246D02*
X2936967Y-1409198D01*
X3003634Y-1323484D02*
X3136967Y-1323484D01*
X3136967Y-1323484D02*
X3051253Y-1523484D01*
X3203634Y-1323484D02*
X3203634Y-1361579D01*
X3279825Y-1323484D02*
X3279825Y-1361579D01*
X3575063Y-1599674D02*
X3565539Y-1590150D01*
X3565539Y-1590150D02*
X3546491Y-1561579D01*
X3546491Y-1561579D02*
X3536968Y-1542531D01*
X3536968Y-1542531D02*
X3527444Y-1513960D01*
X3527444Y-1513960D02*
X3517920Y-1466341D01*
X3517920Y-1466341D02*
X3517920Y-1428246D01*
X3517920Y-1428246D02*
X3527444Y-1380627D01*
X3527444Y-1380627D02*
X3536968Y-1352055D01*
X3536968Y-1352055D02*
X3546491Y-1333008D01*
X3546491Y-1333008D02*
X3565539Y-1304436D01*
X3565539Y-1304436D02*
X3575063Y-1294912D01*
X3641729Y-1342531D02*
X3651253Y-1333008D01*
X3651253Y-1333008D02*
X3670301Y-1323484D01*
X3670301Y-1323484D02*
X3717920Y-1323484D01*
X3717920Y-1323484D02*
X3736968Y-1333008D01*
X3736968Y-1333008D02*
X3746491Y-1342531D01*
X3746491Y-1342531D02*
X3756015Y-1361579D01*
X3756015Y-1361579D02*
X3756015Y-1380627D01*
X3756015Y-1380627D02*
X3746491Y-1409198D01*
X3746491Y-1409198D02*
X3632206Y-1523484D01*
X3632206Y-1523484D02*
X3756015Y-1523484D01*
X3927444Y-1390150D02*
X3927444Y-1523484D01*
X3879825Y-1313960D02*
X3832206Y-1456817D01*
X3832206Y-1456817D02*
X3956015Y-1456817D01*
X4184587Y-1523484D02*
X4184587Y-1323484D01*
X4270301Y-1523484D02*
X4270301Y-1418722D01*
X4270301Y-1418722D02*
X4260777Y-1399674D01*
X4260777Y-1399674D02*
X4241730Y-1390150D01*
X4241730Y-1390150D02*
X4213158Y-1390150D01*
X4213158Y-1390150D02*
X4194110Y-1399674D01*
X4194110Y-1399674D02*
X4184587Y-1409198D01*
X4394111Y-1523484D02*
X4375063Y-1513960D01*
X4375063Y-1513960D02*
X4365539Y-1504436D01*
X4365539Y-1504436D02*
X4356015Y-1485388D01*
X4356015Y-1485388D02*
X4356015Y-1428246D01*
X4356015Y-1428246D02*
X4365539Y-1409198D01*
X4365539Y-1409198D02*
X4375063Y-1399674D01*
X4375063Y-1399674D02*
X4394111Y-1390150D01*
X4394111Y-1390150D02*
X4422682Y-1390150D01*
X4422682Y-1390150D02*
X4441730Y-1399674D01*
X4441730Y-1399674D02*
X4451253Y-1409198D01*
X4451253Y-1409198D02*
X4460777Y-1428246D01*
X4460777Y-1428246D02*
X4460777Y-1485388D01*
X4460777Y-1485388D02*
X4451253Y-1504436D01*
X4451253Y-1504436D02*
X4441730Y-1513960D01*
X4441730Y-1513960D02*
X4422682Y-1523484D01*
X4422682Y-1523484D02*
X4394111Y-1523484D01*
X4575063Y-1523484D02*
X4556015Y-1513960D01*
X4556015Y-1513960D02*
X4546492Y-1494912D01*
X4546492Y-1494912D02*
X4546492Y-1323484D01*
X4727444Y-1513960D02*
X4708396Y-1523484D01*
X4708396Y-1523484D02*
X4670301Y-1523484D01*
X4670301Y-1523484D02*
X4651253Y-1513960D01*
X4651253Y-1513960D02*
X4641730Y-1494912D01*
X4641730Y-1494912D02*
X4641730Y-1418722D01*
X4641730Y-1418722D02*
X4651253Y-1399674D01*
X4651253Y-1399674D02*
X4670301Y-1390150D01*
X4670301Y-1390150D02*
X4708396Y-1390150D01*
X4708396Y-1390150D02*
X4727444Y-1399674D01*
X4727444Y-1399674D02*
X4736968Y-1418722D01*
X4736968Y-1418722D02*
X4736968Y-1437769D01*
X4736968Y-1437769D02*
X4641730Y-1456817D01*
X4813158Y-1513960D02*
X4832206Y-1523484D01*
X4832206Y-1523484D02*
X4870301Y-1523484D01*
X4870301Y-1523484D02*
X4889349Y-1513960D01*
X4889349Y-1513960D02*
X4898873Y-1494912D01*
X4898873Y-1494912D02*
X4898873Y-1485388D01*
X4898873Y-1485388D02*
X4889349Y-1466341D01*
X4889349Y-1466341D02*
X4870301Y-1456817D01*
X4870301Y-1456817D02*
X4841730Y-1456817D01*
X4841730Y-1456817D02*
X4822682Y-1447293D01*
X4822682Y-1447293D02*
X4813158Y-1428246D01*
X4813158Y-1428246D02*
X4813158Y-1418722D01*
X4813158Y-1418722D02*
X4822682Y-1399674D01*
X4822682Y-1399674D02*
X4841730Y-1390150D01*
X4841730Y-1390150D02*
X4870301Y-1390150D01*
X4870301Y-1390150D02*
X4889349Y-1399674D01*
X4965539Y-1599674D02*
X4975063Y-1590150D01*
X4975063Y-1590150D02*
X4994111Y-1561579D01*
X4994111Y-1561579D02*
X5003634Y-1542531D01*
X5003634Y-1542531D02*
X5013158Y-1513960D01*
X5013158Y-1513960D02*
X5022682Y-1466341D01*
X5022682Y-1466341D02*
X5022682Y-1428246D01*
X5022682Y-1428246D02*
X5013158Y-1380627D01*
X5013158Y-1380627D02*
X5003634Y-1352055D01*
X5003634Y-1352055D02*
X4994111Y-1333008D01*
X4994111Y-1333008D02*
X4975063Y-1304436D01*
X4975063Y-1304436D02*
X4965539Y-1294912D01*
D11*
X-30000Y-1726000D02*
X0Y-1696000D01*
X-30000Y-1666000D01*
X-60000Y-1696000D01*
X-30000Y-1726000D01*
D10*
X298872Y-1587484D02*
X317920Y-1587484D01*
X317920Y-1587484D02*
X336967Y-1597008D01*
X336967Y-1597008D02*
X346491Y-1606531D01*
X346491Y-1606531D02*
X356015Y-1625579D01*
X356015Y-1625579D02*
X365539Y-1663674D01*
X365539Y-1663674D02*
X365539Y-1711293D01*
X365539Y-1711293D02*
X356015Y-1749388D01*
X356015Y-1749388D02*
X346491Y-1768436D01*
X346491Y-1768436D02*
X336967Y-1777960D01*
X336967Y-1777960D02*
X317920Y-1787484D01*
X317920Y-1787484D02*
X298872Y-1787484D01*
X298872Y-1787484D02*
X279824Y-1777960D01*
X279824Y-1777960D02*
X270301Y-1768436D01*
X270301Y-1768436D02*
X260777Y-1749388D01*
X260777Y-1749388D02*
X251253Y-1711293D01*
X251253Y-1711293D02*
X251253Y-1663674D01*
X251253Y-1663674D02*
X260777Y-1625579D01*
X260777Y-1625579D02*
X270301Y-1606531D01*
X270301Y-1606531D02*
X279824Y-1597008D01*
X279824Y-1597008D02*
X298872Y-1587484D01*
X451253Y-1768436D02*
X460777Y-1777960D01*
X460777Y-1777960D02*
X451253Y-1787484D01*
X451253Y-1787484D02*
X441729Y-1777960D01*
X441729Y-1777960D02*
X451253Y-1768436D01*
X451253Y-1768436D02*
X451253Y-1787484D01*
X632205Y-1587484D02*
X594110Y-1587484D01*
X594110Y-1587484D02*
X575063Y-1597008D01*
X575063Y-1597008D02*
X565539Y-1606531D01*
X565539Y-1606531D02*
X546491Y-1635103D01*
X546491Y-1635103D02*
X536967Y-1673198D01*
X536967Y-1673198D02*
X536967Y-1749388D01*
X536967Y-1749388D02*
X546491Y-1768436D01*
X546491Y-1768436D02*
X556015Y-1777960D01*
X556015Y-1777960D02*
X575063Y-1787484D01*
X575063Y-1787484D02*
X613158Y-1787484D01*
X613158Y-1787484D02*
X632205Y-1777960D01*
X632205Y-1777960D02*
X641729Y-1768436D01*
X641729Y-1768436D02*
X651253Y-1749388D01*
X651253Y-1749388D02*
X651253Y-1701769D01*
X651253Y-1701769D02*
X641729Y-1682722D01*
X641729Y-1682722D02*
X632205Y-1673198D01*
X632205Y-1673198D02*
X613158Y-1663674D01*
X613158Y-1663674D02*
X575063Y-1663674D01*
X575063Y-1663674D02*
X556015Y-1673198D01*
X556015Y-1673198D02*
X546491Y-1682722D01*
X546491Y-1682722D02*
X536967Y-1701769D01*
X775062Y-1587484D02*
X794110Y-1587484D01*
X794110Y-1587484D02*
X813158Y-1597008D01*
X813158Y-1597008D02*
X822682Y-1606531D01*
X822682Y-1606531D02*
X832205Y-1625579D01*
X832205Y-1625579D02*
X841729Y-1663674D01*
X841729Y-1663674D02*
X841729Y-1711293D01*
X841729Y-1711293D02*
X832205Y-1749388D01*
X832205Y-1749388D02*
X822682Y-1768436D01*
X822682Y-1768436D02*
X813158Y-1777960D01*
X813158Y-1777960D02*
X794110Y-1787484D01*
X794110Y-1787484D02*
X775062Y-1787484D01*
X775062Y-1787484D02*
X756015Y-1777960D01*
X756015Y-1777960D02*
X746491Y-1768436D01*
X746491Y-1768436D02*
X736967Y-1749388D01*
X736967Y-1749388D02*
X727443Y-1711293D01*
X727443Y-1711293D02*
X727443Y-1663674D01*
X727443Y-1663674D02*
X736967Y-1625579D01*
X736967Y-1625579D02*
X746491Y-1606531D01*
X746491Y-1606531D02*
X756015Y-1597008D01*
X756015Y-1597008D02*
X775062Y-1587484D01*
X965539Y-1587484D02*
X984586Y-1587484D01*
X984586Y-1587484D02*
X1003634Y-1597008D01*
X1003634Y-1597008D02*
X1013158Y-1606531D01*
X1013158Y-1606531D02*
X1022682Y-1625579D01*
X1022682Y-1625579D02*
X1032205Y-1663674D01*
X1032205Y-1663674D02*
X1032205Y-1711293D01*
X1032205Y-1711293D02*
X1022682Y-1749388D01*
X1022682Y-1749388D02*
X1013158Y-1768436D01*
X1013158Y-1768436D02*
X1003634Y-1777960D01*
X1003634Y-1777960D02*
X984586Y-1787484D01*
X984586Y-1787484D02*
X965539Y-1787484D01*
X965539Y-1787484D02*
X946491Y-1777960D01*
X946491Y-1777960D02*
X936967Y-1768436D01*
X936967Y-1768436D02*
X927443Y-1749388D01*
X927443Y-1749388D02*
X917920Y-1711293D01*
X917920Y-1711293D02*
X917920Y-1663674D01*
X917920Y-1663674D02*
X927443Y-1625579D01*
X927443Y-1625579D02*
X936967Y-1606531D01*
X936967Y-1606531D02*
X946491Y-1597008D01*
X946491Y-1597008D02*
X965539Y-1587484D01*
X1117920Y-1787484D02*
X1117920Y-1654150D01*
X1117920Y-1673198D02*
X1127444Y-1663674D01*
X1127444Y-1663674D02*
X1146491Y-1654150D01*
X1146491Y-1654150D02*
X1175063Y-1654150D01*
X1175063Y-1654150D02*
X1194110Y-1663674D01*
X1194110Y-1663674D02*
X1203634Y-1682722D01*
X1203634Y-1682722D02*
X1203634Y-1787484D01*
X1203634Y-1682722D02*
X1213158Y-1663674D01*
X1213158Y-1663674D02*
X1232205Y-1654150D01*
X1232205Y-1654150D02*
X1260777Y-1654150D01*
X1260777Y-1654150D02*
X1279825Y-1663674D01*
X1279825Y-1663674D02*
X1289348Y-1682722D01*
X1289348Y-1682722D02*
X1289348Y-1787484D01*
X1384586Y-1787484D02*
X1384586Y-1654150D01*
X1384586Y-1673198D02*
X1394110Y-1663674D01*
X1394110Y-1663674D02*
X1413158Y-1654150D01*
X1413158Y-1654150D02*
X1441729Y-1654150D01*
X1441729Y-1654150D02*
X1460777Y-1663674D01*
X1460777Y-1663674D02*
X1470301Y-1682722D01*
X1470301Y-1682722D02*
X1470301Y-1787484D01*
X1470301Y-1682722D02*
X1479824Y-1663674D01*
X1479824Y-1663674D02*
X1498872Y-1654150D01*
X1498872Y-1654150D02*
X1527443Y-1654150D01*
X1527443Y-1654150D02*
X1546491Y-1663674D01*
X1546491Y-1663674D02*
X1556015Y-1682722D01*
X1556015Y-1682722D02*
X1556015Y-1787484D01*
X1946491Y-1577960D02*
X1775063Y-1835103D01*
X2203634Y-1587484D02*
X2222682Y-1587484D01*
X2222682Y-1587484D02*
X2241729Y-1597008D01*
X2241729Y-1597008D02*
X2251253Y-1606531D01*
X2251253Y-1606531D02*
X2260777Y-1625579D01*
X2260777Y-1625579D02*
X2270301Y-1663674D01*
X2270301Y-1663674D02*
X2270301Y-1711293D01*
X2270301Y-1711293D02*
X2260777Y-1749388D01*
X2260777Y-1749388D02*
X2251253Y-1768436D01*
X2251253Y-1768436D02*
X2241729Y-1777960D01*
X2241729Y-1777960D02*
X2222682Y-1787484D01*
X2222682Y-1787484D02*
X2203634Y-1787484D01*
X2203634Y-1787484D02*
X2184587Y-1777960D01*
X2184587Y-1777960D02*
X2175063Y-1768436D01*
X2175063Y-1768436D02*
X2165539Y-1749388D01*
X2165539Y-1749388D02*
X2156015Y-1711293D01*
X2156015Y-1711293D02*
X2156015Y-1663674D01*
X2156015Y-1663674D02*
X2165539Y-1625579D01*
X2165539Y-1625579D02*
X2175063Y-1606531D01*
X2175063Y-1606531D02*
X2184587Y-1597008D01*
X2184587Y-1597008D02*
X2203634Y-1587484D01*
X2356015Y-1768436D02*
X2365539Y-1777960D01*
X2365539Y-1777960D02*
X2356015Y-1787484D01*
X2356015Y-1787484D02*
X2346491Y-1777960D01*
X2346491Y-1777960D02*
X2356015Y-1768436D01*
X2356015Y-1768436D02*
X2356015Y-1787484D01*
X2489348Y-1587484D02*
X2508396Y-1587484D01*
X2508396Y-1587484D02*
X2527444Y-1597008D01*
X2527444Y-1597008D02*
X2536968Y-1606531D01*
X2536968Y-1606531D02*
X2546491Y-1625579D01*
X2546491Y-1625579D02*
X2556015Y-1663674D01*
X2556015Y-1663674D02*
X2556015Y-1711293D01*
X2556015Y-1711293D02*
X2546491Y-1749388D01*
X2546491Y-1749388D02*
X2536968Y-1768436D01*
X2536968Y-1768436D02*
X2527444Y-1777960D01*
X2527444Y-1777960D02*
X2508396Y-1787484D01*
X2508396Y-1787484D02*
X2489348Y-1787484D01*
X2489348Y-1787484D02*
X2470301Y-1777960D01*
X2470301Y-1777960D02*
X2460777Y-1768436D01*
X2460777Y-1768436D02*
X2451253Y-1749388D01*
X2451253Y-1749388D02*
X2441729Y-1711293D01*
X2441729Y-1711293D02*
X2441729Y-1663674D01*
X2441729Y-1663674D02*
X2451253Y-1625579D01*
X2451253Y-1625579D02*
X2460777Y-1606531D01*
X2460777Y-1606531D02*
X2470301Y-1597008D01*
X2470301Y-1597008D02*
X2489348Y-1587484D01*
X2632206Y-1606531D02*
X2641729Y-1597008D01*
X2641729Y-1597008D02*
X2660777Y-1587484D01*
X2660777Y-1587484D02*
X2708396Y-1587484D01*
X2708396Y-1587484D02*
X2727444Y-1597008D01*
X2727444Y-1597008D02*
X2736968Y-1606531D01*
X2736968Y-1606531D02*
X2746491Y-1625579D01*
X2746491Y-1625579D02*
X2746491Y-1644627D01*
X2746491Y-1644627D02*
X2736968Y-1673198D01*
X2736968Y-1673198D02*
X2622682Y-1787484D01*
X2622682Y-1787484D02*
X2746491Y-1787484D01*
X2813158Y-1587484D02*
X2936967Y-1587484D01*
X2936967Y-1587484D02*
X2870301Y-1663674D01*
X2870301Y-1663674D02*
X2898872Y-1663674D01*
X2898872Y-1663674D02*
X2917920Y-1673198D01*
X2917920Y-1673198D02*
X2927444Y-1682722D01*
X2927444Y-1682722D02*
X2936967Y-1701769D01*
X2936967Y-1701769D02*
X2936967Y-1749388D01*
X2936967Y-1749388D02*
X2927444Y-1768436D01*
X2927444Y-1768436D02*
X2917920Y-1777960D01*
X2917920Y-1777960D02*
X2898872Y-1787484D01*
X2898872Y-1787484D02*
X2841729Y-1787484D01*
X2841729Y-1787484D02*
X2822682Y-1777960D01*
X2822682Y-1777960D02*
X2813158Y-1768436D01*
X3108396Y-1587484D02*
X3070301Y-1587484D01*
X3070301Y-1587484D02*
X3051253Y-1597008D01*
X3051253Y-1597008D02*
X3041729Y-1606531D01*
X3041729Y-1606531D02*
X3022682Y-1635103D01*
X3022682Y-1635103D02*
X3013158Y-1673198D01*
X3013158Y-1673198D02*
X3013158Y-1749388D01*
X3013158Y-1749388D02*
X3022682Y-1768436D01*
X3022682Y-1768436D02*
X3032206Y-1777960D01*
X3032206Y-1777960D02*
X3051253Y-1787484D01*
X3051253Y-1787484D02*
X3089348Y-1787484D01*
X3089348Y-1787484D02*
X3108396Y-1777960D01*
X3108396Y-1777960D02*
X3117920Y-1768436D01*
X3117920Y-1768436D02*
X3127444Y-1749388D01*
X3127444Y-1749388D02*
X3127444Y-1701769D01*
X3127444Y-1701769D02*
X3117920Y-1682722D01*
X3117920Y-1682722D02*
X3108396Y-1673198D01*
X3108396Y-1673198D02*
X3089348Y-1663674D01*
X3089348Y-1663674D02*
X3051253Y-1663674D01*
X3051253Y-1663674D02*
X3032206Y-1673198D01*
X3032206Y-1673198D02*
X3022682Y-1682722D01*
X3022682Y-1682722D02*
X3013158Y-1701769D01*
X3203634Y-1587484D02*
X3203634Y-1625579D01*
X3279825Y-1587484D02*
X3279825Y-1625579D01*
X3575063Y-1863674D02*
X3565539Y-1854150D01*
X3565539Y-1854150D02*
X3546491Y-1825579D01*
X3546491Y-1825579D02*
X3536968Y-1806531D01*
X3536968Y-1806531D02*
X3527444Y-1777960D01*
X3527444Y-1777960D02*
X3517920Y-1730341D01*
X3517920Y-1730341D02*
X3517920Y-1692246D01*
X3517920Y-1692246D02*
X3527444Y-1644627D01*
X3527444Y-1644627D02*
X3536968Y-1616055D01*
X3536968Y-1616055D02*
X3546491Y-1597008D01*
X3546491Y-1597008D02*
X3565539Y-1568436D01*
X3565539Y-1568436D02*
X3575063Y-1558912D01*
X3689348Y-1587484D02*
X3708396Y-1587484D01*
X3708396Y-1587484D02*
X3727444Y-1597008D01*
X3727444Y-1597008D02*
X3736968Y-1606531D01*
X3736968Y-1606531D02*
X3746491Y-1625579D01*
X3746491Y-1625579D02*
X3756015Y-1663674D01*
X3756015Y-1663674D02*
X3756015Y-1711293D01*
X3756015Y-1711293D02*
X3746491Y-1749388D01*
X3746491Y-1749388D02*
X3736968Y-1768436D01*
X3736968Y-1768436D02*
X3727444Y-1777960D01*
X3727444Y-1777960D02*
X3708396Y-1787484D01*
X3708396Y-1787484D02*
X3689348Y-1787484D01*
X3689348Y-1787484D02*
X3670301Y-1777960D01*
X3670301Y-1777960D02*
X3660777Y-1768436D01*
X3660777Y-1768436D02*
X3651253Y-1749388D01*
X3651253Y-1749388D02*
X3641729Y-1711293D01*
X3641729Y-1711293D02*
X3641729Y-1663674D01*
X3641729Y-1663674D02*
X3651253Y-1625579D01*
X3651253Y-1625579D02*
X3660777Y-1606531D01*
X3660777Y-1606531D02*
X3670301Y-1597008D01*
X3670301Y-1597008D02*
X3689348Y-1587484D01*
X3994110Y-1787484D02*
X3994110Y-1587484D01*
X4079825Y-1787484D02*
X4079825Y-1682722D01*
X4079825Y-1682722D02*
X4070301Y-1663674D01*
X4070301Y-1663674D02*
X4051253Y-1654150D01*
X4051253Y-1654150D02*
X4022682Y-1654150D01*
X4022682Y-1654150D02*
X4003634Y-1663674D01*
X4003634Y-1663674D02*
X3994110Y-1673198D01*
X4203634Y-1787484D02*
X4184587Y-1777960D01*
X4184587Y-1777960D02*
X4175063Y-1768436D01*
X4175063Y-1768436D02*
X4165539Y-1749388D01*
X4165539Y-1749388D02*
X4165539Y-1692246D01*
X4165539Y-1692246D02*
X4175063Y-1673198D01*
X4175063Y-1673198D02*
X4184587Y-1663674D01*
X4184587Y-1663674D02*
X4203634Y-1654150D01*
X4203634Y-1654150D02*
X4232206Y-1654150D01*
X4232206Y-1654150D02*
X4251253Y-1663674D01*
X4251253Y-1663674D02*
X4260777Y-1673198D01*
X4260777Y-1673198D02*
X4270301Y-1692246D01*
X4270301Y-1692246D02*
X4270301Y-1749388D01*
X4270301Y-1749388D02*
X4260777Y-1768436D01*
X4260777Y-1768436D02*
X4251253Y-1777960D01*
X4251253Y-1777960D02*
X4232206Y-1787484D01*
X4232206Y-1787484D02*
X4203634Y-1787484D01*
X4384587Y-1787484D02*
X4365539Y-1777960D01*
X4365539Y-1777960D02*
X4356015Y-1758912D01*
X4356015Y-1758912D02*
X4356015Y-1587484D01*
X4536968Y-1777960D02*
X4517920Y-1787484D01*
X4517920Y-1787484D02*
X4479825Y-1787484D01*
X4479825Y-1787484D02*
X4460777Y-1777960D01*
X4460777Y-1777960D02*
X4451253Y-1758912D01*
X4451253Y-1758912D02*
X4451253Y-1682722D01*
X4451253Y-1682722D02*
X4460777Y-1663674D01*
X4460777Y-1663674D02*
X4479825Y-1654150D01*
X4479825Y-1654150D02*
X4517920Y-1654150D01*
X4517920Y-1654150D02*
X4536968Y-1663674D01*
X4536968Y-1663674D02*
X4546492Y-1682722D01*
X4546492Y-1682722D02*
X4546492Y-1701769D01*
X4546492Y-1701769D02*
X4451253Y-1720817D01*
X4622682Y-1777960D02*
X4641730Y-1787484D01*
X4641730Y-1787484D02*
X4679825Y-1787484D01*
X4679825Y-1787484D02*
X4698873Y-1777960D01*
X4698873Y-1777960D02*
X4708396Y-1758912D01*
X4708396Y-1758912D02*
X4708396Y-1749388D01*
X4708396Y-1749388D02*
X4698873Y-1730341D01*
X4698873Y-1730341D02*
X4679825Y-1720817D01*
X4679825Y-1720817D02*
X4651253Y-1720817D01*
X4651253Y-1720817D02*
X4632206Y-1711293D01*
X4632206Y-1711293D02*
X4622682Y-1692246D01*
X4622682Y-1692246D02*
X4622682Y-1682722D01*
X4622682Y-1682722D02*
X4632206Y-1663674D01*
X4632206Y-1663674D02*
X4651253Y-1654150D01*
X4651253Y-1654150D02*
X4679825Y-1654150D01*
X4679825Y-1654150D02*
X4698873Y-1663674D01*
X4946492Y-1711293D02*
X5098873Y-1711293D01*
X5022682Y-1787484D02*
X5022682Y-1635103D01*
X5432206Y-1654150D02*
X5432206Y-1787484D01*
X5384587Y-1577960D02*
X5336968Y-1720817D01*
X5336968Y-1720817D02*
X5460777Y-1720817D01*
X5679825Y-1777960D02*
X5698873Y-1787484D01*
X5698873Y-1787484D02*
X5736968Y-1787484D01*
X5736968Y-1787484D02*
X5756015Y-1777960D01*
X5756015Y-1777960D02*
X5765539Y-1758912D01*
X5765539Y-1758912D02*
X5765539Y-1749388D01*
X5765539Y-1749388D02*
X5756015Y-1730341D01*
X5756015Y-1730341D02*
X5736968Y-1720817D01*
X5736968Y-1720817D02*
X5708396Y-1720817D01*
X5708396Y-1720817D02*
X5689349Y-1711293D01*
X5689349Y-1711293D02*
X5679825Y-1692246D01*
X5679825Y-1692246D02*
X5679825Y-1682722D01*
X5679825Y-1682722D02*
X5689349Y-1663674D01*
X5689349Y-1663674D02*
X5708396Y-1654150D01*
X5708396Y-1654150D02*
X5736968Y-1654150D01*
X5736968Y-1654150D02*
X5756015Y-1663674D01*
X5879825Y-1787484D02*
X5860777Y-1777960D01*
X5860777Y-1777960D02*
X5851254Y-1758912D01*
X5851254Y-1758912D02*
X5851254Y-1587484D01*
X5984587Y-1787484D02*
X5965539Y-1777960D01*
X5965539Y-1777960D02*
X5956015Y-1768436D01*
X5956015Y-1768436D02*
X5946492Y-1749388D01*
X5946492Y-1749388D02*
X5946492Y-1692246D01*
X5946492Y-1692246D02*
X5956015Y-1673198D01*
X5956015Y-1673198D02*
X5965539Y-1663674D01*
X5965539Y-1663674D02*
X5984587Y-1654150D01*
X5984587Y-1654150D02*
X6013158Y-1654150D01*
X6013158Y-1654150D02*
X6032206Y-1663674D01*
X6032206Y-1663674D02*
X6041730Y-1673198D01*
X6041730Y-1673198D02*
X6051254Y-1692246D01*
X6051254Y-1692246D02*
X6051254Y-1749388D01*
X6051254Y-1749388D02*
X6041730Y-1768436D01*
X6041730Y-1768436D02*
X6032206Y-1777960D01*
X6032206Y-1777960D02*
X6013158Y-1787484D01*
X6013158Y-1787484D02*
X5984587Y-1787484D01*
X6108396Y-1654150D02*
X6184587Y-1654150D01*
X6136968Y-1587484D02*
X6136968Y-1758912D01*
X6136968Y-1758912D02*
X6146492Y-1777960D01*
X6146492Y-1777960D02*
X6165539Y-1787484D01*
X6165539Y-1787484D02*
X6184587Y-1787484D01*
X6241730Y-1777960D02*
X6260777Y-1787484D01*
X6260777Y-1787484D02*
X6298873Y-1787484D01*
X6298873Y-1787484D02*
X6317920Y-1777960D01*
X6317920Y-1777960D02*
X6327444Y-1758912D01*
X6327444Y-1758912D02*
X6327444Y-1749388D01*
X6327444Y-1749388D02*
X6317920Y-1730341D01*
X6317920Y-1730341D02*
X6298873Y-1720817D01*
X6298873Y-1720817D02*
X6270301Y-1720817D01*
X6270301Y-1720817D02*
X6251254Y-1711293D01*
X6251254Y-1711293D02*
X6241730Y-1692246D01*
X6241730Y-1692246D02*
X6241730Y-1682722D01*
X6241730Y-1682722D02*
X6251254Y-1663674D01*
X6251254Y-1663674D02*
X6270301Y-1654150D01*
X6270301Y-1654150D02*
X6298873Y-1654150D01*
X6298873Y-1654150D02*
X6317920Y-1663674D01*
X6394111Y-1863674D02*
X6403635Y-1854150D01*
X6403635Y-1854150D02*
X6422682Y-1825579D01*
X6422682Y-1825579D02*
X6432206Y-1806531D01*
X6432206Y-1806531D02*
X6441730Y-1777960D01*
X6441730Y-1777960D02*
X6451254Y-1730341D01*
X6451254Y-1730341D02*
X6451254Y-1692246D01*
X6451254Y-1692246D02*
X6441730Y-1644627D01*
X6441730Y-1644627D02*
X6432206Y-1616055D01*
X6432206Y-1616055D02*
X6422682Y-1597008D01*
X6422682Y-1597008D02*
X6403635Y-1568436D01*
X6403635Y-1568436D02*
X6394111Y-1558912D01*
D11*
X-69000Y-1925500D02*
X0Y-1994500D01*
X0Y-1925500D02*
X-69000Y-1994500D01*
X0Y-1960000D02*
G75*
G02*
X-69000Y-1960000I-34500J0D01*
G01*
X-69000Y-1960000D02*
G75*
G02*
X0Y-1960000I34500J0D01*
G01*
D10*
X298872Y-1851484D02*
X317920Y-1851484D01*
X317920Y-1851484D02*
X336967Y-1861008D01*
X336967Y-1861008D02*
X346491Y-1870531D01*
X346491Y-1870531D02*
X356015Y-1889579D01*
X356015Y-1889579D02*
X365539Y-1927674D01*
X365539Y-1927674D02*
X365539Y-1975293D01*
X365539Y-1975293D02*
X356015Y-2013388D01*
X356015Y-2013388D02*
X346491Y-2032436D01*
X346491Y-2032436D02*
X336967Y-2041960D01*
X336967Y-2041960D02*
X317920Y-2051484D01*
X317920Y-2051484D02*
X298872Y-2051484D01*
X298872Y-2051484D02*
X279824Y-2041960D01*
X279824Y-2041960D02*
X270301Y-2032436D01*
X270301Y-2032436D02*
X260777Y-2013388D01*
X260777Y-2013388D02*
X251253Y-1975293D01*
X251253Y-1975293D02*
X251253Y-1927674D01*
X251253Y-1927674D02*
X260777Y-1889579D01*
X260777Y-1889579D02*
X270301Y-1870531D01*
X270301Y-1870531D02*
X279824Y-1861008D01*
X279824Y-1861008D02*
X298872Y-1851484D01*
X451253Y-2032436D02*
X460777Y-2041960D01*
X460777Y-2041960D02*
X451253Y-2051484D01*
X451253Y-2051484D02*
X441729Y-2041960D01*
X441729Y-2041960D02*
X451253Y-2032436D01*
X451253Y-2032436D02*
X451253Y-2051484D01*
X632205Y-1851484D02*
X594110Y-1851484D01*
X594110Y-1851484D02*
X575063Y-1861008D01*
X575063Y-1861008D02*
X565539Y-1870531D01*
X565539Y-1870531D02*
X546491Y-1899103D01*
X546491Y-1899103D02*
X536967Y-1937198D01*
X536967Y-1937198D02*
X536967Y-2013388D01*
X536967Y-2013388D02*
X546491Y-2032436D01*
X546491Y-2032436D02*
X556015Y-2041960D01*
X556015Y-2041960D02*
X575063Y-2051484D01*
X575063Y-2051484D02*
X613158Y-2051484D01*
X613158Y-2051484D02*
X632205Y-2041960D01*
X632205Y-2041960D02*
X641729Y-2032436D01*
X641729Y-2032436D02*
X651253Y-2013388D01*
X651253Y-2013388D02*
X651253Y-1965769D01*
X651253Y-1965769D02*
X641729Y-1946722D01*
X641729Y-1946722D02*
X632205Y-1937198D01*
X632205Y-1937198D02*
X613158Y-1927674D01*
X613158Y-1927674D02*
X575063Y-1927674D01*
X575063Y-1927674D02*
X556015Y-1937198D01*
X556015Y-1937198D02*
X546491Y-1946722D01*
X546491Y-1946722D02*
X536967Y-1965769D01*
X746491Y-2051484D02*
X784586Y-2051484D01*
X784586Y-2051484D02*
X803634Y-2041960D01*
X803634Y-2041960D02*
X813158Y-2032436D01*
X813158Y-2032436D02*
X832205Y-2003865D01*
X832205Y-2003865D02*
X841729Y-1965769D01*
X841729Y-1965769D02*
X841729Y-1889579D01*
X841729Y-1889579D02*
X832205Y-1870531D01*
X832205Y-1870531D02*
X822682Y-1861008D01*
X822682Y-1861008D02*
X803634Y-1851484D01*
X803634Y-1851484D02*
X765539Y-1851484D01*
X765539Y-1851484D02*
X746491Y-1861008D01*
X746491Y-1861008D02*
X736967Y-1870531D01*
X736967Y-1870531D02*
X727443Y-1889579D01*
X727443Y-1889579D02*
X727443Y-1937198D01*
X727443Y-1937198D02*
X736967Y-1956246D01*
X736967Y-1956246D02*
X746491Y-1965769D01*
X746491Y-1965769D02*
X765539Y-1975293D01*
X765539Y-1975293D02*
X803634Y-1975293D01*
X803634Y-1975293D02*
X822682Y-1965769D01*
X822682Y-1965769D02*
X832205Y-1956246D01*
X832205Y-1956246D02*
X841729Y-1937198D01*
X965539Y-1851484D02*
X984586Y-1851484D01*
X984586Y-1851484D02*
X1003634Y-1861008D01*
X1003634Y-1861008D02*
X1013158Y-1870531D01*
X1013158Y-1870531D02*
X1022682Y-1889579D01*
X1022682Y-1889579D02*
X1032205Y-1927674D01*
X1032205Y-1927674D02*
X1032205Y-1975293D01*
X1032205Y-1975293D02*
X1022682Y-2013388D01*
X1022682Y-2013388D02*
X1013158Y-2032436D01*
X1013158Y-2032436D02*
X1003634Y-2041960D01*
X1003634Y-2041960D02*
X984586Y-2051484D01*
X984586Y-2051484D02*
X965539Y-2051484D01*
X965539Y-2051484D02*
X946491Y-2041960D01*
X946491Y-2041960D02*
X936967Y-2032436D01*
X936967Y-2032436D02*
X927443Y-2013388D01*
X927443Y-2013388D02*
X917920Y-1975293D01*
X917920Y-1975293D02*
X917920Y-1927674D01*
X917920Y-1927674D02*
X927443Y-1889579D01*
X927443Y-1889579D02*
X936967Y-1870531D01*
X936967Y-1870531D02*
X946491Y-1861008D01*
X946491Y-1861008D02*
X965539Y-1851484D01*
X1117920Y-2051484D02*
X1117920Y-1918150D01*
X1117920Y-1937198D02*
X1127444Y-1927674D01*
X1127444Y-1927674D02*
X1146491Y-1918150D01*
X1146491Y-1918150D02*
X1175063Y-1918150D01*
X1175063Y-1918150D02*
X1194110Y-1927674D01*
X1194110Y-1927674D02*
X1203634Y-1946722D01*
X1203634Y-1946722D02*
X1203634Y-2051484D01*
X1203634Y-1946722D02*
X1213158Y-1927674D01*
X1213158Y-1927674D02*
X1232205Y-1918150D01*
X1232205Y-1918150D02*
X1260777Y-1918150D01*
X1260777Y-1918150D02*
X1279825Y-1927674D01*
X1279825Y-1927674D02*
X1289348Y-1946722D01*
X1289348Y-1946722D02*
X1289348Y-2051484D01*
X1384586Y-2051484D02*
X1384586Y-1918150D01*
X1384586Y-1937198D02*
X1394110Y-1927674D01*
X1394110Y-1927674D02*
X1413158Y-1918150D01*
X1413158Y-1918150D02*
X1441729Y-1918150D01*
X1441729Y-1918150D02*
X1460777Y-1927674D01*
X1460777Y-1927674D02*
X1470301Y-1946722D01*
X1470301Y-1946722D02*
X1470301Y-2051484D01*
X1470301Y-1946722D02*
X1479824Y-1927674D01*
X1479824Y-1927674D02*
X1498872Y-1918150D01*
X1498872Y-1918150D02*
X1527443Y-1918150D01*
X1527443Y-1918150D02*
X1546491Y-1927674D01*
X1546491Y-1927674D02*
X1556015Y-1946722D01*
X1556015Y-1946722D02*
X1556015Y-2051484D01*
X1946491Y-1841960D02*
X1775063Y-2099103D01*
X2203634Y-1851484D02*
X2222682Y-1851484D01*
X2222682Y-1851484D02*
X2241729Y-1861008D01*
X2241729Y-1861008D02*
X2251253Y-1870531D01*
X2251253Y-1870531D02*
X2260777Y-1889579D01*
X2260777Y-1889579D02*
X2270301Y-1927674D01*
X2270301Y-1927674D02*
X2270301Y-1975293D01*
X2270301Y-1975293D02*
X2260777Y-2013388D01*
X2260777Y-2013388D02*
X2251253Y-2032436D01*
X2251253Y-2032436D02*
X2241729Y-2041960D01*
X2241729Y-2041960D02*
X2222682Y-2051484D01*
X2222682Y-2051484D02*
X2203634Y-2051484D01*
X2203634Y-2051484D02*
X2184587Y-2041960D01*
X2184587Y-2041960D02*
X2175063Y-2032436D01*
X2175063Y-2032436D02*
X2165539Y-2013388D01*
X2165539Y-2013388D02*
X2156015Y-1975293D01*
X2156015Y-1975293D02*
X2156015Y-1927674D01*
X2156015Y-1927674D02*
X2165539Y-1889579D01*
X2165539Y-1889579D02*
X2175063Y-1870531D01*
X2175063Y-1870531D02*
X2184587Y-1861008D01*
X2184587Y-1861008D02*
X2203634Y-1851484D01*
X2356015Y-2032436D02*
X2365539Y-2041960D01*
X2365539Y-2041960D02*
X2356015Y-2051484D01*
X2356015Y-2051484D02*
X2346491Y-2041960D01*
X2346491Y-2041960D02*
X2356015Y-2032436D01*
X2356015Y-2032436D02*
X2356015Y-2051484D01*
X2489348Y-1851484D02*
X2508396Y-1851484D01*
X2508396Y-1851484D02*
X2527444Y-1861008D01*
X2527444Y-1861008D02*
X2536968Y-1870531D01*
X2536968Y-1870531D02*
X2546491Y-1889579D01*
X2546491Y-1889579D02*
X2556015Y-1927674D01*
X2556015Y-1927674D02*
X2556015Y-1975293D01*
X2556015Y-1975293D02*
X2546491Y-2013388D01*
X2546491Y-2013388D02*
X2536968Y-2032436D01*
X2536968Y-2032436D02*
X2527444Y-2041960D01*
X2527444Y-2041960D02*
X2508396Y-2051484D01*
X2508396Y-2051484D02*
X2489348Y-2051484D01*
X2489348Y-2051484D02*
X2470301Y-2041960D01*
X2470301Y-2041960D02*
X2460777Y-2032436D01*
X2460777Y-2032436D02*
X2451253Y-2013388D01*
X2451253Y-2013388D02*
X2441729Y-1975293D01*
X2441729Y-1975293D02*
X2441729Y-1927674D01*
X2441729Y-1927674D02*
X2451253Y-1889579D01*
X2451253Y-1889579D02*
X2460777Y-1870531D01*
X2460777Y-1870531D02*
X2470301Y-1861008D01*
X2470301Y-1861008D02*
X2489348Y-1851484D01*
X2632206Y-1870531D02*
X2641729Y-1861008D01*
X2641729Y-1861008D02*
X2660777Y-1851484D01*
X2660777Y-1851484D02*
X2708396Y-1851484D01*
X2708396Y-1851484D02*
X2727444Y-1861008D01*
X2727444Y-1861008D02*
X2736968Y-1870531D01*
X2736968Y-1870531D02*
X2746491Y-1889579D01*
X2746491Y-1889579D02*
X2746491Y-1908627D01*
X2746491Y-1908627D02*
X2736968Y-1937198D01*
X2736968Y-1937198D02*
X2622682Y-2051484D01*
X2622682Y-2051484D02*
X2746491Y-2051484D01*
X2813158Y-1851484D02*
X2946491Y-1851484D01*
X2946491Y-1851484D02*
X2860777Y-2051484D01*
X3013158Y-1870531D02*
X3022682Y-1861008D01*
X3022682Y-1861008D02*
X3041729Y-1851484D01*
X3041729Y-1851484D02*
X3089348Y-1851484D01*
X3089348Y-1851484D02*
X3108396Y-1861008D01*
X3108396Y-1861008D02*
X3117920Y-1870531D01*
X3117920Y-1870531D02*
X3127444Y-1889579D01*
X3127444Y-1889579D02*
X3127444Y-1908627D01*
X3127444Y-1908627D02*
X3117920Y-1937198D01*
X3117920Y-1937198D02*
X3003634Y-2051484D01*
X3003634Y-2051484D02*
X3127444Y-2051484D01*
X3203634Y-1851484D02*
X3203634Y-1889579D01*
X3279825Y-1851484D02*
X3279825Y-1889579D01*
X3575063Y-2127674D02*
X3565539Y-2118150D01*
X3565539Y-2118150D02*
X3546491Y-2089579D01*
X3546491Y-2089579D02*
X3536968Y-2070531D01*
X3536968Y-2070531D02*
X3527444Y-2041960D01*
X3527444Y-2041960D02*
X3517920Y-1994341D01*
X3517920Y-1994341D02*
X3517920Y-1956246D01*
X3517920Y-1956246D02*
X3527444Y-1908627D01*
X3527444Y-1908627D02*
X3536968Y-1880055D01*
X3536968Y-1880055D02*
X3546491Y-1861008D01*
X3546491Y-1861008D02*
X3565539Y-1832436D01*
X3565539Y-1832436D02*
X3575063Y-1822912D01*
X3736968Y-1918150D02*
X3736968Y-2051484D01*
X3689348Y-1841960D02*
X3641729Y-1984817D01*
X3641729Y-1984817D02*
X3765539Y-1984817D01*
X3994110Y-2051484D02*
X3994110Y-1851484D01*
X4079825Y-2051484D02*
X4079825Y-1946722D01*
X4079825Y-1946722D02*
X4070301Y-1927674D01*
X4070301Y-1927674D02*
X4051253Y-1918150D01*
X4051253Y-1918150D02*
X4022682Y-1918150D01*
X4022682Y-1918150D02*
X4003634Y-1927674D01*
X4003634Y-1927674D02*
X3994110Y-1937198D01*
X4203634Y-2051484D02*
X4184587Y-2041960D01*
X4184587Y-2041960D02*
X4175063Y-2032436D01*
X4175063Y-2032436D02*
X4165539Y-2013388D01*
X4165539Y-2013388D02*
X4165539Y-1956246D01*
X4165539Y-1956246D02*
X4175063Y-1937198D01*
X4175063Y-1937198D02*
X4184587Y-1927674D01*
X4184587Y-1927674D02*
X4203634Y-1918150D01*
X4203634Y-1918150D02*
X4232206Y-1918150D01*
X4232206Y-1918150D02*
X4251253Y-1927674D01*
X4251253Y-1927674D02*
X4260777Y-1937198D01*
X4260777Y-1937198D02*
X4270301Y-1956246D01*
X4270301Y-1956246D02*
X4270301Y-2013388D01*
X4270301Y-2013388D02*
X4260777Y-2032436D01*
X4260777Y-2032436D02*
X4251253Y-2041960D01*
X4251253Y-2041960D02*
X4232206Y-2051484D01*
X4232206Y-2051484D02*
X4203634Y-2051484D01*
X4384587Y-2051484D02*
X4365539Y-2041960D01*
X4365539Y-2041960D02*
X4356015Y-2022912D01*
X4356015Y-2022912D02*
X4356015Y-1851484D01*
X4536968Y-2041960D02*
X4517920Y-2051484D01*
X4517920Y-2051484D02*
X4479825Y-2051484D01*
X4479825Y-2051484D02*
X4460777Y-2041960D01*
X4460777Y-2041960D02*
X4451253Y-2022912D01*
X4451253Y-2022912D02*
X4451253Y-1946722D01*
X4451253Y-1946722D02*
X4460777Y-1927674D01*
X4460777Y-1927674D02*
X4479825Y-1918150D01*
X4479825Y-1918150D02*
X4517920Y-1918150D01*
X4517920Y-1918150D02*
X4536968Y-1927674D01*
X4536968Y-1927674D02*
X4546492Y-1946722D01*
X4546492Y-1946722D02*
X4546492Y-1965769D01*
X4546492Y-1965769D02*
X4451253Y-1984817D01*
X4622682Y-2041960D02*
X4641730Y-2051484D01*
X4641730Y-2051484D02*
X4679825Y-2051484D01*
X4679825Y-2051484D02*
X4698873Y-2041960D01*
X4698873Y-2041960D02*
X4708396Y-2022912D01*
X4708396Y-2022912D02*
X4708396Y-2013388D01*
X4708396Y-2013388D02*
X4698873Y-1994341D01*
X4698873Y-1994341D02*
X4679825Y-1984817D01*
X4679825Y-1984817D02*
X4651253Y-1984817D01*
X4651253Y-1984817D02*
X4632206Y-1975293D01*
X4632206Y-1975293D02*
X4622682Y-1956246D01*
X4622682Y-1956246D02*
X4622682Y-1946722D01*
X4622682Y-1946722D02*
X4632206Y-1927674D01*
X4632206Y-1927674D02*
X4651253Y-1918150D01*
X4651253Y-1918150D02*
X4679825Y-1918150D01*
X4679825Y-1918150D02*
X4698873Y-1927674D01*
X4775063Y-2127674D02*
X4784587Y-2118150D01*
X4784587Y-2118150D02*
X4803634Y-2089579D01*
X4803634Y-2089579D02*
X4813158Y-2070531D01*
X4813158Y-2070531D02*
X4822682Y-2041960D01*
X4822682Y-2041960D02*
X4832206Y-1994341D01*
X4832206Y-1994341D02*
X4832206Y-1956246D01*
X4832206Y-1956246D02*
X4822682Y-1908627D01*
X4822682Y-1908627D02*
X4813158Y-1880055D01*
X4813158Y-1880055D02*
X4803634Y-1861008D01*
X4803634Y-1861008D02*
X4784587Y-1832436D01*
X4784587Y-1832436D02*
X4775063Y-1822912D01*
D11*
X-75000Y-2186500D02*
X0Y-2261500D01*
X0Y-2186500D02*
X-75000Y-2261500D01*
X-37500Y-2186500D02*
X-37500Y-2261500D01*
X-75000Y-2224000D02*
X0Y-2224000D01*
D10*
X298872Y-2115484D02*
X317920Y-2115484D01*
X317920Y-2115484D02*
X336967Y-2125008D01*
X336967Y-2125008D02*
X346491Y-2134531D01*
X346491Y-2134531D02*
X356015Y-2153579D01*
X356015Y-2153579D02*
X365539Y-2191674D01*
X365539Y-2191674D02*
X365539Y-2239293D01*
X365539Y-2239293D02*
X356015Y-2277389D01*
X356015Y-2277389D02*
X346491Y-2296436D01*
X346491Y-2296436D02*
X336967Y-2305960D01*
X336967Y-2305960D02*
X317920Y-2315484D01*
X317920Y-2315484D02*
X298872Y-2315484D01*
X298872Y-2315484D02*
X279824Y-2305960D01*
X279824Y-2305960D02*
X270301Y-2296436D01*
X270301Y-2296436D02*
X260777Y-2277389D01*
X260777Y-2277389D02*
X251253Y-2239293D01*
X251253Y-2239293D02*
X251253Y-2191674D01*
X251253Y-2191674D02*
X260777Y-2153579D01*
X260777Y-2153579D02*
X270301Y-2134531D01*
X270301Y-2134531D02*
X279824Y-2125008D01*
X279824Y-2125008D02*
X298872Y-2115484D01*
X451253Y-2296436D02*
X460777Y-2305960D01*
X460777Y-2305960D02*
X451253Y-2315484D01*
X451253Y-2315484D02*
X441729Y-2305960D01*
X441729Y-2305960D02*
X451253Y-2296436D01*
X451253Y-2296436D02*
X451253Y-2315484D01*
X527444Y-2115484D02*
X660777Y-2115484D01*
X660777Y-2115484D02*
X575063Y-2315484D01*
X832205Y-2115484D02*
X736967Y-2115484D01*
X736967Y-2115484D02*
X727443Y-2210722D01*
X727443Y-2210722D02*
X736967Y-2201198D01*
X736967Y-2201198D02*
X756015Y-2191674D01*
X756015Y-2191674D02*
X803634Y-2191674D01*
X803634Y-2191674D02*
X822682Y-2201198D01*
X822682Y-2201198D02*
X832205Y-2210722D01*
X832205Y-2210722D02*
X841729Y-2229770D01*
X841729Y-2229770D02*
X841729Y-2277389D01*
X841729Y-2277389D02*
X832205Y-2296436D01*
X832205Y-2296436D02*
X822682Y-2305960D01*
X822682Y-2305960D02*
X803634Y-2315484D01*
X803634Y-2315484D02*
X756015Y-2315484D01*
X756015Y-2315484D02*
X736967Y-2305960D01*
X736967Y-2305960D02*
X727443Y-2296436D01*
X965539Y-2115484D02*
X984586Y-2115484D01*
X984586Y-2115484D02*
X1003634Y-2125008D01*
X1003634Y-2125008D02*
X1013158Y-2134531D01*
X1013158Y-2134531D02*
X1022682Y-2153579D01*
X1022682Y-2153579D02*
X1032205Y-2191674D01*
X1032205Y-2191674D02*
X1032205Y-2239293D01*
X1032205Y-2239293D02*
X1022682Y-2277389D01*
X1022682Y-2277389D02*
X1013158Y-2296436D01*
X1013158Y-2296436D02*
X1003634Y-2305960D01*
X1003634Y-2305960D02*
X984586Y-2315484D01*
X984586Y-2315484D02*
X965539Y-2315484D01*
X965539Y-2315484D02*
X946491Y-2305960D01*
X946491Y-2305960D02*
X936967Y-2296436D01*
X936967Y-2296436D02*
X927443Y-2277389D01*
X927443Y-2277389D02*
X917920Y-2239293D01*
X917920Y-2239293D02*
X917920Y-2191674D01*
X917920Y-2191674D02*
X927443Y-2153579D01*
X927443Y-2153579D02*
X936967Y-2134531D01*
X936967Y-2134531D02*
X946491Y-2125008D01*
X946491Y-2125008D02*
X965539Y-2115484D01*
X1117920Y-2315484D02*
X1117920Y-2182150D01*
X1117920Y-2201198D02*
X1127444Y-2191674D01*
X1127444Y-2191674D02*
X1146491Y-2182150D01*
X1146491Y-2182150D02*
X1175063Y-2182150D01*
X1175063Y-2182150D02*
X1194110Y-2191674D01*
X1194110Y-2191674D02*
X1203634Y-2210722D01*
X1203634Y-2210722D02*
X1203634Y-2315484D01*
X1203634Y-2210722D02*
X1213158Y-2191674D01*
X1213158Y-2191674D02*
X1232205Y-2182150D01*
X1232205Y-2182150D02*
X1260777Y-2182150D01*
X1260777Y-2182150D02*
X1279825Y-2191674D01*
X1279825Y-2191674D02*
X1289348Y-2210722D01*
X1289348Y-2210722D02*
X1289348Y-2315484D01*
X1384586Y-2315484D02*
X1384586Y-2182150D01*
X1384586Y-2201198D02*
X1394110Y-2191674D01*
X1394110Y-2191674D02*
X1413158Y-2182150D01*
X1413158Y-2182150D02*
X1441729Y-2182150D01*
X1441729Y-2182150D02*
X1460777Y-2191674D01*
X1460777Y-2191674D02*
X1470301Y-2210722D01*
X1470301Y-2210722D02*
X1470301Y-2315484D01*
X1470301Y-2210722D02*
X1479824Y-2191674D01*
X1479824Y-2191674D02*
X1498872Y-2182150D01*
X1498872Y-2182150D02*
X1527443Y-2182150D01*
X1527443Y-2182150D02*
X1546491Y-2191674D01*
X1546491Y-2191674D02*
X1556015Y-2210722D01*
X1556015Y-2210722D02*
X1556015Y-2315484D01*
X1946491Y-2105960D02*
X1775063Y-2363103D01*
X2203634Y-2115484D02*
X2222682Y-2115484D01*
X2222682Y-2115484D02*
X2241729Y-2125008D01*
X2241729Y-2125008D02*
X2251253Y-2134531D01*
X2251253Y-2134531D02*
X2260777Y-2153579D01*
X2260777Y-2153579D02*
X2270301Y-2191674D01*
X2270301Y-2191674D02*
X2270301Y-2239293D01*
X2270301Y-2239293D02*
X2260777Y-2277389D01*
X2260777Y-2277389D02*
X2251253Y-2296436D01*
X2251253Y-2296436D02*
X2241729Y-2305960D01*
X2241729Y-2305960D02*
X2222682Y-2315484D01*
X2222682Y-2315484D02*
X2203634Y-2315484D01*
X2203634Y-2315484D02*
X2184587Y-2305960D01*
X2184587Y-2305960D02*
X2175063Y-2296436D01*
X2175063Y-2296436D02*
X2165539Y-2277389D01*
X2165539Y-2277389D02*
X2156015Y-2239293D01*
X2156015Y-2239293D02*
X2156015Y-2191674D01*
X2156015Y-2191674D02*
X2165539Y-2153579D01*
X2165539Y-2153579D02*
X2175063Y-2134531D01*
X2175063Y-2134531D02*
X2184587Y-2125008D01*
X2184587Y-2125008D02*
X2203634Y-2115484D01*
X2356015Y-2296436D02*
X2365539Y-2305960D01*
X2365539Y-2305960D02*
X2356015Y-2315484D01*
X2356015Y-2315484D02*
X2346491Y-2305960D01*
X2346491Y-2305960D02*
X2356015Y-2296436D01*
X2356015Y-2296436D02*
X2356015Y-2315484D01*
X2489348Y-2115484D02*
X2508396Y-2115484D01*
X2508396Y-2115484D02*
X2527444Y-2125008D01*
X2527444Y-2125008D02*
X2536968Y-2134531D01*
X2536968Y-2134531D02*
X2546491Y-2153579D01*
X2546491Y-2153579D02*
X2556015Y-2191674D01*
X2556015Y-2191674D02*
X2556015Y-2239293D01*
X2556015Y-2239293D02*
X2546491Y-2277389D01*
X2546491Y-2277389D02*
X2536968Y-2296436D01*
X2536968Y-2296436D02*
X2527444Y-2305960D01*
X2527444Y-2305960D02*
X2508396Y-2315484D01*
X2508396Y-2315484D02*
X2489348Y-2315484D01*
X2489348Y-2315484D02*
X2470301Y-2305960D01*
X2470301Y-2305960D02*
X2460777Y-2296436D01*
X2460777Y-2296436D02*
X2451253Y-2277389D01*
X2451253Y-2277389D02*
X2441729Y-2239293D01*
X2441729Y-2239293D02*
X2441729Y-2191674D01*
X2441729Y-2191674D02*
X2451253Y-2153579D01*
X2451253Y-2153579D02*
X2460777Y-2134531D01*
X2460777Y-2134531D02*
X2470301Y-2125008D01*
X2470301Y-2125008D02*
X2489348Y-2115484D01*
X2632206Y-2134531D02*
X2641729Y-2125008D01*
X2641729Y-2125008D02*
X2660777Y-2115484D01*
X2660777Y-2115484D02*
X2708396Y-2115484D01*
X2708396Y-2115484D02*
X2727444Y-2125008D01*
X2727444Y-2125008D02*
X2736968Y-2134531D01*
X2736968Y-2134531D02*
X2746491Y-2153579D01*
X2746491Y-2153579D02*
X2746491Y-2172627D01*
X2746491Y-2172627D02*
X2736968Y-2201198D01*
X2736968Y-2201198D02*
X2622682Y-2315484D01*
X2622682Y-2315484D02*
X2746491Y-2315484D01*
X2841729Y-2315484D02*
X2879825Y-2315484D01*
X2879825Y-2315484D02*
X2898872Y-2305960D01*
X2898872Y-2305960D02*
X2908396Y-2296436D01*
X2908396Y-2296436D02*
X2927444Y-2267865D01*
X2927444Y-2267865D02*
X2936967Y-2229770D01*
X2936967Y-2229770D02*
X2936967Y-2153579D01*
X2936967Y-2153579D02*
X2927444Y-2134531D01*
X2927444Y-2134531D02*
X2917920Y-2125008D01*
X2917920Y-2125008D02*
X2898872Y-2115484D01*
X2898872Y-2115484D02*
X2860777Y-2115484D01*
X2860777Y-2115484D02*
X2841729Y-2125008D01*
X2841729Y-2125008D02*
X2832206Y-2134531D01*
X2832206Y-2134531D02*
X2822682Y-2153579D01*
X2822682Y-2153579D02*
X2822682Y-2201198D01*
X2822682Y-2201198D02*
X2832206Y-2220246D01*
X2832206Y-2220246D02*
X2841729Y-2229770D01*
X2841729Y-2229770D02*
X2860777Y-2239293D01*
X2860777Y-2239293D02*
X2898872Y-2239293D01*
X2898872Y-2239293D02*
X2917920Y-2229770D01*
X2917920Y-2229770D02*
X2927444Y-2220246D01*
X2927444Y-2220246D02*
X2936967Y-2201198D01*
X3117920Y-2115484D02*
X3022682Y-2115484D01*
X3022682Y-2115484D02*
X3013158Y-2210722D01*
X3013158Y-2210722D02*
X3022682Y-2201198D01*
X3022682Y-2201198D02*
X3041729Y-2191674D01*
X3041729Y-2191674D02*
X3089348Y-2191674D01*
X3089348Y-2191674D02*
X3108396Y-2201198D01*
X3108396Y-2201198D02*
X3117920Y-2210722D01*
X3117920Y-2210722D02*
X3127444Y-2229770D01*
X3127444Y-2229770D02*
X3127444Y-2277389D01*
X3127444Y-2277389D02*
X3117920Y-2296436D01*
X3117920Y-2296436D02*
X3108396Y-2305960D01*
X3108396Y-2305960D02*
X3089348Y-2315484D01*
X3089348Y-2315484D02*
X3041729Y-2315484D01*
X3041729Y-2315484D02*
X3022682Y-2305960D01*
X3022682Y-2305960D02*
X3013158Y-2296436D01*
X3203634Y-2115484D02*
X3203634Y-2153579D01*
X3279825Y-2115484D02*
X3279825Y-2153579D01*
X3575063Y-2391674D02*
X3565539Y-2382150D01*
X3565539Y-2382150D02*
X3546491Y-2353579D01*
X3546491Y-2353579D02*
X3536968Y-2334531D01*
X3536968Y-2334531D02*
X3527444Y-2305960D01*
X3527444Y-2305960D02*
X3517920Y-2258341D01*
X3517920Y-2258341D02*
X3517920Y-2220246D01*
X3517920Y-2220246D02*
X3527444Y-2172627D01*
X3527444Y-2172627D02*
X3536968Y-2144055D01*
X3536968Y-2144055D02*
X3546491Y-2125008D01*
X3546491Y-2125008D02*
X3565539Y-2096436D01*
X3565539Y-2096436D02*
X3575063Y-2086912D01*
X3641729Y-2134531D02*
X3651253Y-2125008D01*
X3651253Y-2125008D02*
X3670301Y-2115484D01*
X3670301Y-2115484D02*
X3717920Y-2115484D01*
X3717920Y-2115484D02*
X3736968Y-2125008D01*
X3736968Y-2125008D02*
X3746491Y-2134531D01*
X3746491Y-2134531D02*
X3756015Y-2153579D01*
X3756015Y-2153579D02*
X3756015Y-2172627D01*
X3756015Y-2172627D02*
X3746491Y-2201198D01*
X3746491Y-2201198D02*
X3632206Y-2315484D01*
X3632206Y-2315484D02*
X3756015Y-2315484D01*
X3994110Y-2315484D02*
X3994110Y-2115484D01*
X4079825Y-2315484D02*
X4079825Y-2210722D01*
X4079825Y-2210722D02*
X4070301Y-2191674D01*
X4070301Y-2191674D02*
X4051253Y-2182150D01*
X4051253Y-2182150D02*
X4022682Y-2182150D01*
X4022682Y-2182150D02*
X4003634Y-2191674D01*
X4003634Y-2191674D02*
X3994110Y-2201198D01*
X4203634Y-2315484D02*
X4184587Y-2305960D01*
X4184587Y-2305960D02*
X4175063Y-2296436D01*
X4175063Y-2296436D02*
X4165539Y-2277389D01*
X4165539Y-2277389D02*
X4165539Y-2220246D01*
X4165539Y-2220246D02*
X4175063Y-2201198D01*
X4175063Y-2201198D02*
X4184587Y-2191674D01*
X4184587Y-2191674D02*
X4203634Y-2182150D01*
X4203634Y-2182150D02*
X4232206Y-2182150D01*
X4232206Y-2182150D02*
X4251253Y-2191674D01*
X4251253Y-2191674D02*
X4260777Y-2201198D01*
X4260777Y-2201198D02*
X4270301Y-2220246D01*
X4270301Y-2220246D02*
X4270301Y-2277389D01*
X4270301Y-2277389D02*
X4260777Y-2296436D01*
X4260777Y-2296436D02*
X4251253Y-2305960D01*
X4251253Y-2305960D02*
X4232206Y-2315484D01*
X4232206Y-2315484D02*
X4203634Y-2315484D01*
X4384587Y-2315484D02*
X4365539Y-2305960D01*
X4365539Y-2305960D02*
X4356015Y-2286912D01*
X4356015Y-2286912D02*
X4356015Y-2115484D01*
X4536968Y-2305960D02*
X4517920Y-2315484D01*
X4517920Y-2315484D02*
X4479825Y-2315484D01*
X4479825Y-2315484D02*
X4460777Y-2305960D01*
X4460777Y-2305960D02*
X4451253Y-2286912D01*
X4451253Y-2286912D02*
X4451253Y-2210722D01*
X4451253Y-2210722D02*
X4460777Y-2191674D01*
X4460777Y-2191674D02*
X4479825Y-2182150D01*
X4479825Y-2182150D02*
X4517920Y-2182150D01*
X4517920Y-2182150D02*
X4536968Y-2191674D01*
X4536968Y-2191674D02*
X4546492Y-2210722D01*
X4546492Y-2210722D02*
X4546492Y-2229770D01*
X4546492Y-2229770D02*
X4451253Y-2248817D01*
X4622682Y-2305960D02*
X4641730Y-2315484D01*
X4641730Y-2315484D02*
X4679825Y-2315484D01*
X4679825Y-2315484D02*
X4698873Y-2305960D01*
X4698873Y-2305960D02*
X4708396Y-2286912D01*
X4708396Y-2286912D02*
X4708396Y-2277389D01*
X4708396Y-2277389D02*
X4698873Y-2258341D01*
X4698873Y-2258341D02*
X4679825Y-2248817D01*
X4679825Y-2248817D02*
X4651253Y-2248817D01*
X4651253Y-2248817D02*
X4632206Y-2239293D01*
X4632206Y-2239293D02*
X4622682Y-2220246D01*
X4622682Y-2220246D02*
X4622682Y-2210722D01*
X4622682Y-2210722D02*
X4632206Y-2191674D01*
X4632206Y-2191674D02*
X4651253Y-2182150D01*
X4651253Y-2182150D02*
X4679825Y-2182150D01*
X4679825Y-2182150D02*
X4698873Y-2191674D01*
X4775063Y-2391674D02*
X4784587Y-2382150D01*
X4784587Y-2382150D02*
X4803634Y-2353579D01*
X4803634Y-2353579D02*
X4813158Y-2334531D01*
X4813158Y-2334531D02*
X4822682Y-2305960D01*
X4822682Y-2305960D02*
X4832206Y-2258341D01*
X4832206Y-2258341D02*
X4832206Y-2220246D01*
X4832206Y-2220246D02*
X4822682Y-2172627D01*
X4822682Y-2172627D02*
X4813158Y-2144055D01*
X4813158Y-2144055D02*
X4803634Y-2125008D01*
X4803634Y-2125008D02*
X4784587Y-2096436D01*
X4784587Y-2096436D02*
X4775063Y-2086912D01*
D11*
X-100000Y-2438000D02*
X0Y-2538000D01*
X0Y-2438000D02*
X-100000Y-2538000D01*
X-14644Y-2523356D02*
X-14644Y-2452644D01*
X-85356Y-2452644D01*
X-85356Y-2523356D01*
X-14644Y-2523356D01*
D10*
X365539Y-2579484D02*
X251253Y-2579484D01*
X308396Y-2579484D02*
X308396Y-2379484D01*
X308396Y-2379484D02*
X289348Y-2408055D01*
X289348Y-2408055D02*
X270301Y-2427103D01*
X270301Y-2427103D02*
X251253Y-2436627D01*
X451253Y-2560436D02*
X460777Y-2569960D01*
X460777Y-2569960D02*
X451253Y-2579484D01*
X451253Y-2579484D02*
X441729Y-2569960D01*
X441729Y-2569960D02*
X451253Y-2560436D01*
X451253Y-2560436D02*
X451253Y-2579484D01*
X584586Y-2379484D02*
X603634Y-2379484D01*
X603634Y-2379484D02*
X622682Y-2389008D01*
X622682Y-2389008D02*
X632205Y-2398531D01*
X632205Y-2398531D02*
X641729Y-2417579D01*
X641729Y-2417579D02*
X651253Y-2455674D01*
X651253Y-2455674D02*
X651253Y-2503293D01*
X651253Y-2503293D02*
X641729Y-2541389D01*
X641729Y-2541389D02*
X632205Y-2560436D01*
X632205Y-2560436D02*
X622682Y-2569960D01*
X622682Y-2569960D02*
X603634Y-2579484D01*
X603634Y-2579484D02*
X584586Y-2579484D01*
X584586Y-2579484D02*
X565539Y-2569960D01*
X565539Y-2569960D02*
X556015Y-2560436D01*
X556015Y-2560436D02*
X546491Y-2541389D01*
X546491Y-2541389D02*
X536967Y-2503293D01*
X536967Y-2503293D02*
X536967Y-2455674D01*
X536967Y-2455674D02*
X546491Y-2417579D01*
X546491Y-2417579D02*
X556015Y-2398531D01*
X556015Y-2398531D02*
X565539Y-2389008D01*
X565539Y-2389008D02*
X584586Y-2379484D01*
X775062Y-2379484D02*
X794110Y-2379484D01*
X794110Y-2379484D02*
X813158Y-2389008D01*
X813158Y-2389008D02*
X822682Y-2398531D01*
X822682Y-2398531D02*
X832205Y-2417579D01*
X832205Y-2417579D02*
X841729Y-2455674D01*
X841729Y-2455674D02*
X841729Y-2503293D01*
X841729Y-2503293D02*
X832205Y-2541389D01*
X832205Y-2541389D02*
X822682Y-2560436D01*
X822682Y-2560436D02*
X813158Y-2569960D01*
X813158Y-2569960D02*
X794110Y-2579484D01*
X794110Y-2579484D02*
X775062Y-2579484D01*
X775062Y-2579484D02*
X756015Y-2569960D01*
X756015Y-2569960D02*
X746491Y-2560436D01*
X746491Y-2560436D02*
X736967Y-2541389D01*
X736967Y-2541389D02*
X727443Y-2503293D01*
X727443Y-2503293D02*
X727443Y-2455674D01*
X727443Y-2455674D02*
X736967Y-2417579D01*
X736967Y-2417579D02*
X746491Y-2398531D01*
X746491Y-2398531D02*
X756015Y-2389008D01*
X756015Y-2389008D02*
X775062Y-2379484D01*
X965539Y-2379484D02*
X984586Y-2379484D01*
X984586Y-2379484D02*
X1003634Y-2389008D01*
X1003634Y-2389008D02*
X1013158Y-2398531D01*
X1013158Y-2398531D02*
X1022682Y-2417579D01*
X1022682Y-2417579D02*
X1032205Y-2455674D01*
X1032205Y-2455674D02*
X1032205Y-2503293D01*
X1032205Y-2503293D02*
X1022682Y-2541389D01*
X1022682Y-2541389D02*
X1013158Y-2560436D01*
X1013158Y-2560436D02*
X1003634Y-2569960D01*
X1003634Y-2569960D02*
X984586Y-2579484D01*
X984586Y-2579484D02*
X965539Y-2579484D01*
X965539Y-2579484D02*
X946491Y-2569960D01*
X946491Y-2569960D02*
X936967Y-2560436D01*
X936967Y-2560436D02*
X927443Y-2541389D01*
X927443Y-2541389D02*
X917920Y-2503293D01*
X917920Y-2503293D02*
X917920Y-2455674D01*
X917920Y-2455674D02*
X927443Y-2417579D01*
X927443Y-2417579D02*
X936967Y-2398531D01*
X936967Y-2398531D02*
X946491Y-2389008D01*
X946491Y-2389008D02*
X965539Y-2379484D01*
X1117920Y-2579484D02*
X1117920Y-2446150D01*
X1117920Y-2465198D02*
X1127444Y-2455674D01*
X1127444Y-2455674D02*
X1146491Y-2446150D01*
X1146491Y-2446150D02*
X1175063Y-2446150D01*
X1175063Y-2446150D02*
X1194110Y-2455674D01*
X1194110Y-2455674D02*
X1203634Y-2474722D01*
X1203634Y-2474722D02*
X1203634Y-2579484D01*
X1203634Y-2474722D02*
X1213158Y-2455674D01*
X1213158Y-2455674D02*
X1232205Y-2446150D01*
X1232205Y-2446150D02*
X1260777Y-2446150D01*
X1260777Y-2446150D02*
X1279825Y-2455674D01*
X1279825Y-2455674D02*
X1289348Y-2474722D01*
X1289348Y-2474722D02*
X1289348Y-2579484D01*
X1384586Y-2579484D02*
X1384586Y-2446150D01*
X1384586Y-2465198D02*
X1394110Y-2455674D01*
X1394110Y-2455674D02*
X1413158Y-2446150D01*
X1413158Y-2446150D02*
X1441729Y-2446150D01*
X1441729Y-2446150D02*
X1460777Y-2455674D01*
X1460777Y-2455674D02*
X1470301Y-2474722D01*
X1470301Y-2474722D02*
X1470301Y-2579484D01*
X1470301Y-2474722D02*
X1479824Y-2455674D01*
X1479824Y-2455674D02*
X1498872Y-2446150D01*
X1498872Y-2446150D02*
X1527443Y-2446150D01*
X1527443Y-2446150D02*
X1546491Y-2455674D01*
X1546491Y-2455674D02*
X1556015Y-2474722D01*
X1556015Y-2474722D02*
X1556015Y-2579484D01*
X1946491Y-2369960D02*
X1775063Y-2627103D01*
X2203634Y-2379484D02*
X2222682Y-2379484D01*
X2222682Y-2379484D02*
X2241729Y-2389008D01*
X2241729Y-2389008D02*
X2251253Y-2398531D01*
X2251253Y-2398531D02*
X2260777Y-2417579D01*
X2260777Y-2417579D02*
X2270301Y-2455674D01*
X2270301Y-2455674D02*
X2270301Y-2503293D01*
X2270301Y-2503293D02*
X2260777Y-2541389D01*
X2260777Y-2541389D02*
X2251253Y-2560436D01*
X2251253Y-2560436D02*
X2241729Y-2569960D01*
X2241729Y-2569960D02*
X2222682Y-2579484D01*
X2222682Y-2579484D02*
X2203634Y-2579484D01*
X2203634Y-2579484D02*
X2184587Y-2569960D01*
X2184587Y-2569960D02*
X2175063Y-2560436D01*
X2175063Y-2560436D02*
X2165539Y-2541389D01*
X2165539Y-2541389D02*
X2156015Y-2503293D01*
X2156015Y-2503293D02*
X2156015Y-2455674D01*
X2156015Y-2455674D02*
X2165539Y-2417579D01*
X2165539Y-2417579D02*
X2175063Y-2398531D01*
X2175063Y-2398531D02*
X2184587Y-2389008D01*
X2184587Y-2389008D02*
X2203634Y-2379484D01*
X2356015Y-2560436D02*
X2365539Y-2569960D01*
X2365539Y-2569960D02*
X2356015Y-2579484D01*
X2356015Y-2579484D02*
X2346491Y-2569960D01*
X2346491Y-2569960D02*
X2356015Y-2560436D01*
X2356015Y-2560436D02*
X2356015Y-2579484D01*
X2489348Y-2379484D02*
X2508396Y-2379484D01*
X2508396Y-2379484D02*
X2527444Y-2389008D01*
X2527444Y-2389008D02*
X2536968Y-2398531D01*
X2536968Y-2398531D02*
X2546491Y-2417579D01*
X2546491Y-2417579D02*
X2556015Y-2455674D01*
X2556015Y-2455674D02*
X2556015Y-2503293D01*
X2556015Y-2503293D02*
X2546491Y-2541389D01*
X2546491Y-2541389D02*
X2536968Y-2560436D01*
X2536968Y-2560436D02*
X2527444Y-2569960D01*
X2527444Y-2569960D02*
X2508396Y-2579484D01*
X2508396Y-2579484D02*
X2489348Y-2579484D01*
X2489348Y-2579484D02*
X2470301Y-2569960D01*
X2470301Y-2569960D02*
X2460777Y-2560436D01*
X2460777Y-2560436D02*
X2451253Y-2541389D01*
X2451253Y-2541389D02*
X2441729Y-2503293D01*
X2441729Y-2503293D02*
X2441729Y-2455674D01*
X2441729Y-2455674D02*
X2451253Y-2417579D01*
X2451253Y-2417579D02*
X2460777Y-2398531D01*
X2460777Y-2398531D02*
X2470301Y-2389008D01*
X2470301Y-2389008D02*
X2489348Y-2379484D01*
X2622682Y-2379484D02*
X2746491Y-2379484D01*
X2746491Y-2379484D02*
X2679825Y-2455674D01*
X2679825Y-2455674D02*
X2708396Y-2455674D01*
X2708396Y-2455674D02*
X2727444Y-2465198D01*
X2727444Y-2465198D02*
X2736968Y-2474722D01*
X2736968Y-2474722D02*
X2746491Y-2493770D01*
X2746491Y-2493770D02*
X2746491Y-2541389D01*
X2746491Y-2541389D02*
X2736968Y-2560436D01*
X2736968Y-2560436D02*
X2727444Y-2569960D01*
X2727444Y-2569960D02*
X2708396Y-2579484D01*
X2708396Y-2579484D02*
X2651253Y-2579484D01*
X2651253Y-2579484D02*
X2632206Y-2569960D01*
X2632206Y-2569960D02*
X2622682Y-2560436D01*
X2841729Y-2579484D02*
X2879825Y-2579484D01*
X2879825Y-2579484D02*
X2898872Y-2569960D01*
X2898872Y-2569960D02*
X2908396Y-2560436D01*
X2908396Y-2560436D02*
X2927444Y-2531865D01*
X2927444Y-2531865D02*
X2936967Y-2493770D01*
X2936967Y-2493770D02*
X2936967Y-2417579D01*
X2936967Y-2417579D02*
X2927444Y-2398531D01*
X2927444Y-2398531D02*
X2917920Y-2389008D01*
X2917920Y-2389008D02*
X2898872Y-2379484D01*
X2898872Y-2379484D02*
X2860777Y-2379484D01*
X2860777Y-2379484D02*
X2841729Y-2389008D01*
X2841729Y-2389008D02*
X2832206Y-2398531D01*
X2832206Y-2398531D02*
X2822682Y-2417579D01*
X2822682Y-2417579D02*
X2822682Y-2465198D01*
X2822682Y-2465198D02*
X2832206Y-2484246D01*
X2832206Y-2484246D02*
X2841729Y-2493770D01*
X2841729Y-2493770D02*
X2860777Y-2503293D01*
X2860777Y-2503293D02*
X2898872Y-2503293D01*
X2898872Y-2503293D02*
X2917920Y-2493770D01*
X2917920Y-2493770D02*
X2927444Y-2484246D01*
X2927444Y-2484246D02*
X2936967Y-2465198D01*
X3108396Y-2446150D02*
X3108396Y-2579484D01*
X3060777Y-2369960D02*
X3013158Y-2512817D01*
X3013158Y-2512817D02*
X3136967Y-2512817D01*
X3203634Y-2379484D02*
X3203634Y-2417579D01*
X3279825Y-2379484D02*
X3279825Y-2417579D01*
X3575063Y-2655674D02*
X3565539Y-2646150D01*
X3565539Y-2646150D02*
X3546491Y-2617579D01*
X3546491Y-2617579D02*
X3536968Y-2598531D01*
X3536968Y-2598531D02*
X3527444Y-2569960D01*
X3527444Y-2569960D02*
X3517920Y-2522341D01*
X3517920Y-2522341D02*
X3517920Y-2484246D01*
X3517920Y-2484246D02*
X3527444Y-2436627D01*
X3527444Y-2436627D02*
X3536968Y-2408055D01*
X3536968Y-2408055D02*
X3546491Y-2389008D01*
X3546491Y-2389008D02*
X3565539Y-2360436D01*
X3565539Y-2360436D02*
X3575063Y-2350912D01*
X3641729Y-2398531D02*
X3651253Y-2389008D01*
X3651253Y-2389008D02*
X3670301Y-2379484D01*
X3670301Y-2379484D02*
X3717920Y-2379484D01*
X3717920Y-2379484D02*
X3736968Y-2389008D01*
X3736968Y-2389008D02*
X3746491Y-2398531D01*
X3746491Y-2398531D02*
X3756015Y-2417579D01*
X3756015Y-2417579D02*
X3756015Y-2436627D01*
X3756015Y-2436627D02*
X3746491Y-2465198D01*
X3746491Y-2465198D02*
X3632206Y-2579484D01*
X3632206Y-2579484D02*
X3756015Y-2579484D01*
X3994110Y-2579484D02*
X3994110Y-2379484D01*
X4079825Y-2579484D02*
X4079825Y-2474722D01*
X4079825Y-2474722D02*
X4070301Y-2455674D01*
X4070301Y-2455674D02*
X4051253Y-2446150D01*
X4051253Y-2446150D02*
X4022682Y-2446150D01*
X4022682Y-2446150D02*
X4003634Y-2455674D01*
X4003634Y-2455674D02*
X3994110Y-2465198D01*
X4203634Y-2579484D02*
X4184587Y-2569960D01*
X4184587Y-2569960D02*
X4175063Y-2560436D01*
X4175063Y-2560436D02*
X4165539Y-2541389D01*
X4165539Y-2541389D02*
X4165539Y-2484246D01*
X4165539Y-2484246D02*
X4175063Y-2465198D01*
X4175063Y-2465198D02*
X4184587Y-2455674D01*
X4184587Y-2455674D02*
X4203634Y-2446150D01*
X4203634Y-2446150D02*
X4232206Y-2446150D01*
X4232206Y-2446150D02*
X4251253Y-2455674D01*
X4251253Y-2455674D02*
X4260777Y-2465198D01*
X4260777Y-2465198D02*
X4270301Y-2484246D01*
X4270301Y-2484246D02*
X4270301Y-2541389D01*
X4270301Y-2541389D02*
X4260777Y-2560436D01*
X4260777Y-2560436D02*
X4251253Y-2569960D01*
X4251253Y-2569960D02*
X4232206Y-2579484D01*
X4232206Y-2579484D02*
X4203634Y-2579484D01*
X4384587Y-2579484D02*
X4365539Y-2569960D01*
X4365539Y-2569960D02*
X4356015Y-2550912D01*
X4356015Y-2550912D02*
X4356015Y-2379484D01*
X4536968Y-2569960D02*
X4517920Y-2579484D01*
X4517920Y-2579484D02*
X4479825Y-2579484D01*
X4479825Y-2579484D02*
X4460777Y-2569960D01*
X4460777Y-2569960D02*
X4451253Y-2550912D01*
X4451253Y-2550912D02*
X4451253Y-2474722D01*
X4451253Y-2474722D02*
X4460777Y-2455674D01*
X4460777Y-2455674D02*
X4479825Y-2446150D01*
X4479825Y-2446150D02*
X4517920Y-2446150D01*
X4517920Y-2446150D02*
X4536968Y-2455674D01*
X4536968Y-2455674D02*
X4546492Y-2474722D01*
X4546492Y-2474722D02*
X4546492Y-2493770D01*
X4546492Y-2493770D02*
X4451253Y-2512817D01*
X4622682Y-2569960D02*
X4641730Y-2579484D01*
X4641730Y-2579484D02*
X4679825Y-2579484D01*
X4679825Y-2579484D02*
X4698873Y-2569960D01*
X4698873Y-2569960D02*
X4708396Y-2550912D01*
X4708396Y-2550912D02*
X4708396Y-2541389D01*
X4708396Y-2541389D02*
X4698873Y-2522341D01*
X4698873Y-2522341D02*
X4679825Y-2512817D01*
X4679825Y-2512817D02*
X4651253Y-2512817D01*
X4651253Y-2512817D02*
X4632206Y-2503293D01*
X4632206Y-2503293D02*
X4622682Y-2484246D01*
X4622682Y-2484246D02*
X4622682Y-2474722D01*
X4622682Y-2474722D02*
X4632206Y-2455674D01*
X4632206Y-2455674D02*
X4651253Y-2446150D01*
X4651253Y-2446150D02*
X4679825Y-2446150D01*
X4679825Y-2446150D02*
X4698873Y-2455674D01*
X4775063Y-2655674D02*
X4784587Y-2646150D01*
X4784587Y-2646150D02*
X4803634Y-2617579D01*
X4803634Y-2617579D02*
X4813158Y-2598531D01*
X4813158Y-2598531D02*
X4822682Y-2569960D01*
X4822682Y-2569960D02*
X4832206Y-2522341D01*
X4832206Y-2522341D02*
X4832206Y-2484246D01*
X4832206Y-2484246D02*
X4822682Y-2436627D01*
X4822682Y-2436627D02*
X4813158Y-2408055D01*
X4813158Y-2408055D02*
X4803634Y-2389008D01*
X4803634Y-2389008D02*
X4784587Y-2360436D01*
X4784587Y-2360436D02*
X4775063Y-2350912D01*
M02*
