%TF.GenerationSoftware,KiCad,Pcbnew,10.0.3*%
%TF.CreationDate,2026-06-15T12:52:14+05:30*%
%TF.ProjectId,Sentinel_HYDRA,53656e74-696e-4656-9c5f-48594452412e,rev?*%
%TF.SameCoordinates,Original*%
%TF.FileFunction,Legend,Bot*%
%TF.FilePolarity,Positive*%
%FSLAX46Y46*%
G04 Gerber Fmt 4.6, Leading zero omitted, Abs format (unit mm)*
G04 Created by KiCad (PCBNEW 10.0.3) date 2026-06-15 12:52:14*
%MOMM*%
%LPD*%
G01*
G04 APERTURE LIST*
G04 Aperture macros list*
%AMRoundRect*
0 Rectangle with rounded corners*
0 $1 Rounding radius*
0 $2 $3 $4 $5 $6 $7 $8 $9 X,Y pos of 4 corners*
0 Add a 4 corners polygon primitive as box body*
4,1,4,$2,$3,$4,$5,$6,$7,$8,$9,$2,$3,0*
0 Add four circle primitives for the rounded corners*
1,1,$1+$1,$2,$3*
1,1,$1+$1,$4,$5*
1,1,$1+$1,$6,$7*
1,1,$1+$1,$8,$9*
0 Add four rect primitives between the rounded corners*
20,1,$1+$1,$2,$3,$4,$5,0*
20,1,$1+$1,$4,$5,$6,$7,0*
20,1,$1+$1,$6,$7,$8,$9,0*
20,1,$1+$1,$8,$9,$2,$3,0*%
G04 Aperture macros list end*
%ADD10RoundRect,0.250000X-0.350000X-0.625000X0.350000X-0.625000X0.350000X0.625000X-0.350000X0.625000X0*%
%ADD11O,1.200000X1.750000*%
%ADD12RoundRect,0.200000X-0.200000X-0.450000X0.200000X-0.450000X0.200000X0.450000X-0.200000X0.450000X0*%
%ADD13O,0.800000X1.300000*%
%ADD14C,2.374900*%
%ADD15C,0.990600*%
%ADD16R,2.000000X2.000000*%
%ADD17C,2.000000*%
%ADD18RoundRect,0.102000X-0.599000X-0.599000X0.599000X-0.599000X0.599000X0.599000X-0.599000X0.599000X0*%
%ADD19C,1.402000*%
%ADD20C,0.504000*%
%ADD21C,0.650000*%
%ADD22O,1.000000X2.100000*%
%ADD23O,1.000000X1.600000*%
G04 APERTURE END LIST*
%LPC*%
D10*
%TO.C,J12*%
X5000000Y-56000000D03*
D11*
X7000000Y-56000000D03*
%TD*%
D12*
%TO.C,J7*%
X60000000Y-95000000D03*
D13*
X61250000Y-95000000D03*
X62500000Y-95000000D03*
%TD*%
D12*
%TO.C,J6*%
X52000000Y-95000000D03*
D13*
X53250000Y-95000000D03*
X54500000Y-95000000D03*
%TD*%
D14*
%TO.C,J13*%
X70190000Y-9460000D03*
D15*
X70190000Y-12000000D03*
D14*
X70190000Y-14540000D03*
X75905000Y-9460000D03*
X75905000Y-14540000D03*
D15*
X77810000Y-10984000D03*
X77810000Y-13016000D03*
%TD*%
D12*
%TO.C,J4*%
X32000000Y-95000000D03*
D13*
X33250000Y-95000000D03*
X34500000Y-95000000D03*
%TD*%
D16*
%TO.C,BZ1*%
X87000000Y-7000000D03*
D17*
X94600000Y-7000000D03*
%TD*%
D12*
%TO.C,J3*%
X24000000Y-95000000D03*
D13*
X25250000Y-95000000D03*
X26500000Y-95000000D03*
%TD*%
D12*
%TO.C,J5*%
X40000000Y-95000000D03*
D13*
X41250000Y-95000000D03*
X42500000Y-95000000D03*
%TD*%
D12*
%TO.C,J2*%
X16000000Y-95000000D03*
D13*
X17250000Y-95000000D03*
X18500000Y-95000000D03*
%TD*%
D18*
%TO.C,U9*%
X71460000Y-35000000D03*
D19*
X74000000Y-37540000D03*
X76540000Y-35000000D03*
X74000000Y-32460000D03*
%TD*%
D20*
%TO.C,U14*%
X29500000Y-39000000D03*
X30000000Y-39000000D03*
X30500000Y-39000000D03*
X29500000Y-39500000D03*
X30000000Y-39500000D03*
X30500000Y-39500000D03*
X29500000Y-40000000D03*
X30000000Y-40000000D03*
X30500000Y-40000000D03*
X29500000Y-40500000D03*
X30000000Y-40500000D03*
X30500000Y-40500000D03*
X29500000Y-41000000D03*
X30000000Y-41000000D03*
X30500000Y-41000000D03*
%TD*%
D12*
%TO.C,J8*%
X68000000Y-95000000D03*
D13*
X69250000Y-95000000D03*
X70500000Y-95000000D03*
%TD*%
D12*
%TO.C,J9*%
X76000000Y-95000000D03*
D13*
X77250000Y-95000000D03*
X78500000Y-95000000D03*
%TD*%
D21*
%TO.C,J1*%
X-1390000Y-41400000D03*
X4390000Y-41400000D03*
D22*
X-2820000Y-40870000D03*
D23*
X-2820000Y-45050000D03*
D22*
X5820000Y-40870000D03*
D23*
X5820000Y-45050000D03*
%TD*%
%LPD*%
M02*
