%TF.GenerationSoftware,KiCad,Pcbnew,10.0.3*%
%TF.CreationDate,2026-06-15T12:52:14+05:30*%
%TF.ProjectId,Sentinel_HYDRA,53656e74-696e-4656-9c5f-48594452412e,rev?*%
%TF.SameCoordinates,Original*%
%TF.FileFunction,Soldermask,Top*%
%TF.FilePolarity,Negative*%
%FSLAX46Y46*%
G04 Gerber Fmt 4.6, Leading zero omitted, Abs format (unit mm)*
G04 Created by KiCad (PCBNEW 10.0.3) date 2026-06-15 12:52:14*
%MOMM*%
%LPD*%
G01*
G04 APERTURE LIST*
G04 Aperture macros list*
%AMRoundRect*
0 Rectangle with rounded corners*
0 $1 Rounding radius*
0 $2 $3 $4 $5 $6 $7 $8 $9 X,Y pos of 4 corners*
0 Add a 4 corners polygon primitive as box body*
4,1,4,$2,$3,$4,$5,$6,$7,$8,$9,$2,$3,0*
0 Add four circle primitives for the rounded corners*
1,1,$1+$1,$2,$3*
1,1,$1+$1,$4,$5*
1,1,$1+$1,$6,$7*
1,1,$1+$1,$8,$9*
0 Add four rect primitives between the rounded corners*
20,1,$1+$1,$2,$3,$4,$5,0*
20,1,$1+$1,$4,$5,$6,$7,0*
20,1,$1+$1,$6,$7,$8,$9,0*
20,1,$1+$1,$8,$9,$2,$3,0*%
%AMOutline5P*
0 Free polygon, 5 corners , with rotation*
0 The origin of the aperture is its center*
0 number of corners: always 5*
0 $1 to $10 corner X, Y*
0 $11 Rotation angle, in degrees counterclockwise*
0 create outline with 5 corners*
4,1,5,$1,$2,$3,$4,$5,$6,$7,$8,$9,$10,$1,$2,$11*%
%AMOutline6P*
0 Free polygon, 6 corners , with rotation*
0 The origin of the aperture is its center*
0 number of corners: always 6*
0 $1 to $12 corner X, Y*
0 $13 Rotation angle, in degrees counterclockwise*
0 create outline with 6 corners*
4,1,6,$1,$2,$3,$4,$5,$6,$7,$8,$9,$10,$11,$12,$1,$2,$13*%
%AMOutline7P*
0 Free polygon, 7 corners , with rotation*
0 The origin of the aperture is its center*
0 number of corners: always 7*
0 $1 to $14 corner X, Y*
0 $15 Rotation angle, in degrees counterclockwise*
0 create outline with 7 corners*
4,1,7,$1,$2,$3,$4,$5,$6,$7,$8,$9,$10,$11,$12,$13,$14,$1,$2,$15*%
%AMOutline8P*
0 Free polygon, 8 corners , with rotation*
0 The origin of the aperture is its center*
0 number of corners: always 8*
0 $1 to $16 corner X, Y*
0 $17 Rotation angle, in degrees counterclockwise*
0 create outline with 8 corners*
4,1,8,$1,$2,$3,$4,$5,$6,$7,$8,$9,$10,$11,$12,$13,$14,$15,$16,$1,$2,$17*%
G04 Aperture macros list end*
%ADD10C,0.010000*%
%ADD11RoundRect,0.250000X-0.350000X-0.625000X0.350000X-0.625000X0.350000X0.625000X-0.350000X0.625000X0*%
%ADD12O,1.200000X1.750000*%
%ADD13RoundRect,0.140000X-0.140000X-0.170000X0.140000X-0.170000X0.140000X0.170000X-0.140000X0.170000X0*%
%ADD14RoundRect,0.135000X-0.135000X-0.185000X0.135000X-0.185000X0.135000X0.185000X-0.135000X0.185000X0*%
%ADD15RoundRect,0.250000X-0.250000X-0.475000X0.250000X-0.475000X0.250000X0.475000X-0.250000X0.475000X0*%
%ADD16RoundRect,0.059250X-0.422750X-0.177750X0.422750X-0.177750X0.422750X0.177750X-0.422750X0.177750X0*%
%ADD17RoundRect,0.102000X-0.450000X-0.650000X0.450000X-0.650000X0.450000X0.650000X-0.450000X0.650000X0*%
%ADD18RoundRect,0.062500X-0.350000X-0.062500X0.350000X-0.062500X0.350000X0.062500X-0.350000X0.062500X0*%
%ADD19RoundRect,0.062500X-0.062500X-0.350000X0.062500X-0.350000X0.062500X0.350000X-0.062500X0.350000X0*%
%ADD20R,2.700000X2.700000*%
%ADD21R,1.200000X3.700000*%
%ADD22RoundRect,0.090000X-0.660000X-0.360000X0.660000X-0.360000X0.660000X0.360000X-0.660000X0.360000X0*%
%ADD23RoundRect,0.200000X-0.200000X-0.450000X0.200000X-0.450000X0.200000X0.450000X-0.200000X0.450000X0*%
%ADD24O,0.800000X1.300000*%
%ADD25Outline5P,-0.287500X0.244000X0.287500X0.244000X0.287500X-0.067100X0.110600X-0.244000X-0.287500X-0.244000X0.000000*%
%ADD26R,0.575000X0.488000*%
%ADD27R,1.500000X0.900000*%
%ADD28R,0.900000X1.500000*%
%ADD29C,0.600000*%
%ADD30R,3.900000X3.900000*%
%ADD31RoundRect,0.150000X-0.587500X-0.150000X0.587500X-0.150000X0.587500X0.150000X-0.587500X0.150000X0*%
%ADD32RoundRect,0.050000X-0.387500X-0.050000X0.387500X-0.050000X0.387500X0.050000X-0.387500X0.050000X0*%
%ADD33RoundRect,0.050000X-0.050000X-0.387500X0.050000X-0.387500X0.050000X0.387500X-0.050000X0.387500X0*%
%ADD34R,3.200000X3.200000*%
%ADD35C,2.374900*%
%ADD36C,0.990600*%
%ADD37C,0.787400*%
%ADD38RoundRect,0.058000X-0.464000X-0.174000X0.464000X-0.174000X0.464000X0.174000X-0.464000X0.174000X0*%
%ADD39RoundRect,0.058000X-0.174000X-0.464000X0.174000X-0.464000X0.174000X0.464000X-0.174000X0.464000X0*%
%ADD40RoundRect,0.102000X-2.550000X-2.550000X2.550000X-2.550000X2.550000X2.550000X-2.550000X2.550000X0*%
%ADD41RoundRect,0.243750X-0.243750X-0.456250X0.243750X-0.456250X0.243750X0.456250X-0.243750X0.456250X0*%
%ADD42R,0.850000X1.100000*%
%ADD43R,0.750000X1.100000*%
%ADD44R,1.200000X1.000000*%
%ADD45R,1.550000X1.350000*%
%ADD46R,1.900000X1.350000*%
%ADD47R,1.170000X1.800000*%
%ADD48R,1.700000X1.000000*%
%ADD49RoundRect,0.147500X-0.147500X-0.172500X0.147500X-0.172500X0.147500X0.172500X-0.147500X0.172500X0*%
%ADD50RoundRect,0.062500X-0.375000X-0.062500X0.375000X-0.062500X0.375000X0.062500X-0.375000X0.062500X0*%
%ADD51RoundRect,0.062500X-0.062500X-0.375000X0.062500X-0.375000X0.062500X0.375000X-0.062500X0.375000X0*%
%ADD52R,2.100000X2.100000*%
%ADD53RoundRect,0.150000X-0.512500X-0.150000X0.512500X-0.150000X0.512500X0.150000X-0.512500X0.150000X0*%
%ADD54R,0.300000X1.300000*%
%ADD55R,1.800000X2.200000*%
%ADD56RoundRect,0.150000X-0.825000X-0.150000X0.825000X-0.150000X0.825000X0.150000X-0.825000X0.150000X0*%
%ADD57R,2.000000X2.000000*%
%ADD58C,2.000000*%
%ADD59RoundRect,0.150000X-0.875000X-0.150000X0.875000X-0.150000X0.875000X0.150000X-0.875000X0.150000X0*%
%ADD60RoundRect,0.102000X-0.599000X-0.599000X0.599000X-0.599000X0.599000X0.599000X-0.599000X0.599000X0*%
%ADD61C,1.402000*%
%ADD62C,0.504000*%
%ADD63RoundRect,0.375000X-0.625000X-0.375000X0.625000X-0.375000X0.625000X0.375000X-0.625000X0.375000X0*%
%ADD64RoundRect,0.500000X-0.500000X-1.400000X0.500000X-1.400000X0.500000X1.400000X-0.500000X1.400000X0*%
%ADD65RoundRect,0.087500X-0.287500X-0.087500X0.287500X-0.087500X0.287500X0.087500X-0.287500X0.087500X0*%
%ADD66R,1.000000X1.800000*%
%ADD67RoundRect,0.093750X-0.093750X-0.106250X0.093750X-0.106250X0.093750X0.106250X-0.093750X0.106250X0*%
%ADD68R,1.000000X1.600000*%
%ADD69C,0.650000*%
%ADD70RoundRect,0.150000X-0.150000X-0.575000X0.150000X-0.575000X0.150000X0.575000X-0.150000X0.575000X0*%
%ADD71RoundRect,0.075000X-0.075000X-0.650000X0.075000X-0.650000X0.075000X0.650000X-0.075000X0.650000X0*%
%ADD72O,1.000000X2.100000*%
%ADD73O,1.000000X1.600000*%
G04 APERTURE END LIST*
D10*
%TO.C,U11*%
X72485000Y-47025000D02*
X73195000Y-47025000D01*
X73195000Y-47475000D01*
X72485000Y-47475000D01*
X72485000Y-47025000D01*
G36*
X73195000Y-47475000D02*
G01*
X72485000Y-47475000D01*
X72485000Y-47025000D01*
X73195000Y-47025000D01*
X73195000Y-47475000D01*
G37*
X72485000Y-47525000D02*
X73195000Y-47525000D01*
X73195000Y-47975000D01*
X72485000Y-47975000D01*
X72485000Y-47525000D01*
G36*
X73195000Y-47975000D02*
G01*
X72485000Y-47975000D01*
X72485000Y-47525000D01*
X73195000Y-47525000D01*
X73195000Y-47975000D01*
G37*
X72485000Y-48025000D02*
X73195000Y-48025000D01*
X73195000Y-48475000D01*
X72485000Y-48475000D01*
X72485000Y-48025000D01*
G36*
X73195000Y-48475000D02*
G01*
X72485000Y-48475000D01*
X72485000Y-48025000D01*
X73195000Y-48025000D01*
X73195000Y-48475000D01*
G37*
X72485000Y-48525000D02*
X73195000Y-48525000D01*
X73195000Y-48975000D01*
X72485000Y-48975000D01*
X72485000Y-48525000D01*
G36*
X73195000Y-48975000D02*
G01*
X72485000Y-48975000D01*
X72485000Y-48525000D01*
X73195000Y-48525000D01*
X73195000Y-48975000D01*
G37*
X73275000Y-49270000D02*
X73275000Y-48560000D01*
X73725000Y-48560000D01*
X73725000Y-49270000D01*
X73275000Y-49270000D01*
G36*
X73725000Y-49270000D02*
G01*
X73275000Y-49270000D01*
X73275000Y-48560000D01*
X73725000Y-48560000D01*
X73725000Y-49270000D01*
G37*
X73725000Y-46730000D02*
X73725000Y-47440000D01*
X73275000Y-47440000D01*
X73275000Y-46730000D01*
X73725000Y-46730000D01*
G36*
X73725000Y-47440000D02*
G01*
X73275000Y-47440000D01*
X73275000Y-46730000D01*
X73725000Y-46730000D01*
X73725000Y-47440000D01*
G37*
X73775000Y-49270000D02*
X73775000Y-48560000D01*
X74225000Y-48560000D01*
X74225000Y-49270000D01*
X73775000Y-49270000D01*
G36*
X74225000Y-49270000D02*
G01*
X73775000Y-49270000D01*
X73775000Y-48560000D01*
X74225000Y-48560000D01*
X74225000Y-49270000D01*
G37*
X74225000Y-46730000D02*
X74225000Y-47440000D01*
X73775000Y-47440000D01*
X73775000Y-46730000D01*
X74225000Y-46730000D01*
G36*
X74225000Y-47440000D02*
G01*
X73775000Y-47440000D01*
X73775000Y-46730000D01*
X74225000Y-46730000D01*
X74225000Y-47440000D01*
G37*
X74275000Y-49270000D02*
X74275000Y-48560000D01*
X74725000Y-48560000D01*
X74725000Y-49270000D01*
X74275000Y-49270000D01*
G36*
X74725000Y-49270000D02*
G01*
X74275000Y-49270000D01*
X74275000Y-48560000D01*
X74725000Y-48560000D01*
X74725000Y-49270000D01*
G37*
X74725000Y-46730000D02*
X74725000Y-47440000D01*
X74275000Y-47440000D01*
X74275000Y-46730000D01*
X74725000Y-46730000D01*
G36*
X74725000Y-47440000D02*
G01*
X74275000Y-47440000D01*
X74275000Y-46730000D01*
X74725000Y-46730000D01*
X74725000Y-47440000D01*
G37*
X75515000Y-47475000D02*
X74805000Y-47475000D01*
X74805000Y-47025000D01*
X75515000Y-47025000D01*
X75515000Y-47475000D01*
G36*
X75515000Y-47475000D02*
G01*
X74805000Y-47475000D01*
X74805000Y-47025000D01*
X75515000Y-47025000D01*
X75515000Y-47475000D01*
G37*
X75515000Y-47975000D02*
X74805000Y-47975000D01*
X74805000Y-47525000D01*
X75515000Y-47525000D01*
X75515000Y-47975000D01*
G36*
X75515000Y-47975000D02*
G01*
X74805000Y-47975000D01*
X74805000Y-47525000D01*
X75515000Y-47525000D01*
X75515000Y-47975000D01*
G37*
X75515000Y-48475000D02*
X74805000Y-48475000D01*
X74805000Y-48025000D01*
X75515000Y-48025000D01*
X75515000Y-48475000D01*
G36*
X75515000Y-48475000D02*
G01*
X74805000Y-48475000D01*
X74805000Y-48025000D01*
X75515000Y-48025000D01*
X75515000Y-48475000D01*
G37*
X75515000Y-48975000D02*
X74805000Y-48975000D01*
X74805000Y-48525000D01*
X75515000Y-48525000D01*
X75515000Y-48975000D01*
G36*
X75515000Y-48975000D02*
G01*
X74805000Y-48975000D01*
X74805000Y-48525000D01*
X75515000Y-48525000D01*
X75515000Y-48975000D01*
G37*
%TO.C,U14*%
X29140000Y-37730000D02*
X29480000Y-37730000D01*
X29480000Y-38505000D01*
X29600000Y-38505000D01*
X29600000Y-37730000D01*
X29940000Y-37730000D01*
X29940000Y-38505000D01*
X30060000Y-38505000D01*
X30060000Y-37730000D01*
X30400000Y-37730000D01*
X30400000Y-38505000D01*
X30520000Y-38505000D01*
X30520000Y-37730000D01*
X30860000Y-37730000D01*
X30860000Y-42270000D01*
X30520000Y-42270000D01*
X30520000Y-41495000D01*
X30400000Y-41495000D01*
X30400000Y-42270000D01*
X30060000Y-42270000D01*
X30060000Y-41495000D01*
X29940000Y-41495000D01*
X29940000Y-42270000D01*
X29600000Y-42270000D01*
X29600000Y-41495000D01*
X29480000Y-41495000D01*
X29480000Y-42270000D01*
X29140000Y-42270000D01*
X29140000Y-37730000D01*
G36*
X29480000Y-38505000D02*
G01*
X29600000Y-38505000D01*
X29600000Y-37730000D01*
X29940000Y-37730000D01*
X29940000Y-38505000D01*
X30060000Y-38505000D01*
X30060000Y-37730000D01*
X30400000Y-37730000D01*
X30400000Y-38505000D01*
X30520000Y-38505000D01*
X30520000Y-37730000D01*
X30860000Y-37730000D01*
X30860000Y-42270000D01*
X30520000Y-42270000D01*
X30520000Y-41495000D01*
X30400000Y-41495000D01*
X30400000Y-42270000D01*
X30060000Y-42270000D01*
X30060000Y-41495000D01*
X29940000Y-41495000D01*
X29940000Y-42270000D01*
X29600000Y-42270000D01*
X29600000Y-41495000D01*
X29480000Y-41495000D01*
X29480000Y-42270000D01*
X29140000Y-42270000D01*
X29140000Y-37730000D01*
X29480000Y-37730000D01*
X29480000Y-38505000D01*
G37*
X28780000Y-38690000D02*
X28420000Y-38690000D01*
X28410000Y-38690000D01*
X28400000Y-38689000D01*
X28390000Y-38688000D01*
X28380000Y-38686000D01*
X28371000Y-38684000D01*
X28361000Y-38681000D01*
X28352000Y-38677000D01*
X28343000Y-38674000D01*
X28334000Y-38669000D01*
X28325000Y-38665000D01*
X28317000Y-38659000D01*
X28308000Y-38654000D01*
X28300000Y-38648000D01*
X28293000Y-38641000D01*
X28286000Y-38634000D01*
X28279000Y-38627000D01*
X28272000Y-38620000D01*
X28266000Y-38612000D01*
X28261000Y-38603000D01*
X28255000Y-38595000D01*
X28251000Y-38586000D01*
X28246000Y-38577000D01*
X28243000Y-38568000D01*
X28239000Y-38559000D01*
X28236000Y-38549000D01*
X28234000Y-38540000D01*
X28232000Y-38530000D01*
X28231000Y-38520000D01*
X28230000Y-38510000D01*
X28230000Y-38500000D01*
X28230000Y-38490000D01*
X28231000Y-38480000D01*
X28232000Y-38470000D01*
X28234000Y-38460000D01*
X28236000Y-38451000D01*
X28239000Y-38441000D01*
X28243000Y-38432000D01*
X28246000Y-38423000D01*
X28251000Y-38414000D01*
X28255000Y-38405000D01*
X28261000Y-38397000D01*
X28266000Y-38388000D01*
X28272000Y-38380000D01*
X28279000Y-38373000D01*
X28286000Y-38366000D01*
X28293000Y-38359000D01*
X28300000Y-38352000D01*
X28308000Y-38346000D01*
X28317000Y-38341000D01*
X28325000Y-38335000D01*
X28334000Y-38331000D01*
X28343000Y-38326000D01*
X28352000Y-38323000D01*
X28361000Y-38319000D01*
X28371000Y-38316000D01*
X28380000Y-38314000D01*
X28390000Y-38312000D01*
X28400000Y-38311000D01*
X28410000Y-38310000D01*
X28420000Y-38310000D01*
X28780000Y-38310000D01*
X28790000Y-38310000D01*
X28800000Y-38311000D01*
X28810000Y-38312000D01*
X28820000Y-38314000D01*
X28829000Y-38316000D01*
X28839000Y-38319000D01*
X28848000Y-38323000D01*
X28857000Y-38326000D01*
X28866000Y-38331000D01*
X28875000Y-38335000D01*
X28883000Y-38341000D01*
X28892000Y-38346000D01*
X28900000Y-38352000D01*
X28907000Y-38359000D01*
X28914000Y-38366000D01*
X28921000Y-38373000D01*
X28928000Y-38380000D01*
X28934000Y-38388000D01*
X28939000Y-38397000D01*
X28945000Y-38405000D01*
X28949000Y-38414000D01*
X28954000Y-38423000D01*
X28957000Y-38432000D01*
X28961000Y-38441000D01*
X28964000Y-38451000D01*
X28966000Y-38460000D01*
X28968000Y-38470000D01*
X28969000Y-38480000D01*
X28970000Y-38490000D01*
X28970000Y-38500000D01*
X28970000Y-38510000D01*
X28969000Y-38520000D01*
X28968000Y-38530000D01*
X28966000Y-38540000D01*
X28964000Y-38549000D01*
X28961000Y-38559000D01*
X28957000Y-38568000D01*
X28954000Y-38577000D01*
X28949000Y-38586000D01*
X28945000Y-38595000D01*
X28939000Y-38603000D01*
X28934000Y-38612000D01*
X28928000Y-38620000D01*
X28921000Y-38627000D01*
X28914000Y-38634000D01*
X28907000Y-38641000D01*
X28900000Y-38648000D01*
X28892000Y-38654000D01*
X28883000Y-38659000D01*
X28875000Y-38665000D01*
X28866000Y-38669000D01*
X28857000Y-38674000D01*
X28848000Y-38677000D01*
X28839000Y-38681000D01*
X28829000Y-38684000D01*
X28820000Y-38686000D01*
X28810000Y-38688000D01*
X28800000Y-38689000D01*
X28790000Y-38690000D01*
X28780000Y-38690000D01*
G36*
X28800000Y-38311000D02*
G01*
X28810000Y-38312000D01*
X28820000Y-38314000D01*
X28829000Y-38316000D01*
X28839000Y-38319000D01*
X28848000Y-38323000D01*
X28857000Y-38326000D01*
X28866000Y-38331000D01*
X28875000Y-38335000D01*
X28883000Y-38341000D01*
X28892000Y-38346000D01*
X28900000Y-38352000D01*
X28907000Y-38359000D01*
X28914000Y-38366000D01*
X28921000Y-38373000D01*
X28928000Y-38380000D01*
X28934000Y-38388000D01*
X28939000Y-38397000D01*
X28945000Y-38405000D01*
X28949000Y-38414000D01*
X28954000Y-38423000D01*
X28957000Y-38432000D01*
X28961000Y-38441000D01*
X28964000Y-38451000D01*
X28966000Y-38460000D01*
X28968000Y-38470000D01*
X28969000Y-38480000D01*
X28970000Y-38490000D01*
X28970000Y-38500000D01*
X28970000Y-38510000D01*
X28969000Y-38520000D01*
X28968000Y-38530000D01*
X28966000Y-38540000D01*
X28964000Y-38549000D01*
X28961000Y-38559000D01*
X28957000Y-38568000D01*
X28954000Y-38577000D01*
X28949000Y-38586000D01*
X28945000Y-38595000D01*
X28939000Y-38603000D01*
X28934000Y-38612000D01*
X28928000Y-38620000D01*
X28921000Y-38627000D01*
X28914000Y-38634000D01*
X28907000Y-38641000D01*
X28900000Y-38648000D01*
X28892000Y-38654000D01*
X28883000Y-38659000D01*
X28875000Y-38665000D01*
X28866000Y-38669000D01*
X28857000Y-38674000D01*
X28848000Y-38677000D01*
X28839000Y-38681000D01*
X28829000Y-38684000D01*
X28820000Y-38686000D01*
X28810000Y-38688000D01*
X28800000Y-38689000D01*
X28790000Y-38690000D01*
X28780000Y-38690000D01*
X28420000Y-38690000D01*
X28410000Y-38690000D01*
X28400000Y-38689000D01*
X28390000Y-38688000D01*
X28380000Y-38686000D01*
X28371000Y-38684000D01*
X28361000Y-38681000D01*
X28352000Y-38677000D01*
X28343000Y-38674000D01*
X28334000Y-38669000D01*
X28325000Y-38665000D01*
X28317000Y-38659000D01*
X28308000Y-38654000D01*
X28300000Y-38648000D01*
X28293000Y-38641000D01*
X28286000Y-38634000D01*
X28279000Y-38627000D01*
X28272000Y-38620000D01*
X28266000Y-38612000D01*
X28261000Y-38603000D01*
X28255000Y-38595000D01*
X28251000Y-38586000D01*
X28246000Y-38577000D01*
X28243000Y-38568000D01*
X28239000Y-38559000D01*
X28236000Y-38549000D01*
X28234000Y-38540000D01*
X28232000Y-38530000D01*
X28231000Y-38520000D01*
X28230000Y-38510000D01*
X28230000Y-38500000D01*
X28230000Y-38490000D01*
X28231000Y-38480000D01*
X28232000Y-38470000D01*
X28234000Y-38460000D01*
X28236000Y-38451000D01*
X28239000Y-38441000D01*
X28243000Y-38432000D01*
X28246000Y-38423000D01*
X28251000Y-38414000D01*
X28255000Y-38405000D01*
X28261000Y-38397000D01*
X28266000Y-38388000D01*
X28272000Y-38380000D01*
X28279000Y-38373000D01*
X28286000Y-38366000D01*
X28293000Y-38359000D01*
X28300000Y-38352000D01*
X28308000Y-38346000D01*
X28317000Y-38341000D01*
X28325000Y-38335000D01*
X28334000Y-38331000D01*
X28343000Y-38326000D01*
X28352000Y-38323000D01*
X28361000Y-38319000D01*
X28371000Y-38316000D01*
X28380000Y-38314000D01*
X28390000Y-38312000D01*
X28400000Y-38311000D01*
X28410000Y-38310000D01*
X28420000Y-38310000D01*
X28780000Y-38310000D01*
X28790000Y-38310000D01*
X28800000Y-38311000D01*
G37*
X28780000Y-39190000D02*
X28420000Y-39190000D01*
X28410000Y-39190000D01*
X28400000Y-39189000D01*
X28390000Y-39188000D01*
X28380000Y-39186000D01*
X28371000Y-39184000D01*
X28361000Y-39181000D01*
X28352000Y-39177000D01*
X28343000Y-39174000D01*
X28334000Y-39169000D01*
X28325000Y-39165000D01*
X28317000Y-39159000D01*
X28308000Y-39154000D01*
X28300000Y-39148000D01*
X28293000Y-39141000D01*
X28286000Y-39134000D01*
X28279000Y-39127000D01*
X28272000Y-39120000D01*
X28266000Y-39112000D01*
X28261000Y-39103000D01*
X28255000Y-39095000D01*
X28251000Y-39086000D01*
X28246000Y-39077000D01*
X28243000Y-39068000D01*
X28239000Y-39059000D01*
X28236000Y-39049000D01*
X28234000Y-39040000D01*
X28232000Y-39030000D01*
X28231000Y-39020000D01*
X28230000Y-39010000D01*
X28230000Y-39000000D01*
X28230000Y-38990000D01*
X28231000Y-38980000D01*
X28232000Y-38970000D01*
X28234000Y-38960000D01*
X28236000Y-38951000D01*
X28239000Y-38941000D01*
X28243000Y-38932000D01*
X28246000Y-38923000D01*
X28251000Y-38914000D01*
X28255000Y-38905000D01*
X28261000Y-38897000D01*
X28266000Y-38888000D01*
X28272000Y-38880000D01*
X28279000Y-38873000D01*
X28286000Y-38866000D01*
X28293000Y-38859000D01*
X28300000Y-38852000D01*
X28308000Y-38846000D01*
X28317000Y-38841000D01*
X28325000Y-38835000D01*
X28334000Y-38831000D01*
X28343000Y-38826000D01*
X28352000Y-38823000D01*
X28361000Y-38819000D01*
X28371000Y-38816000D01*
X28380000Y-38814000D01*
X28390000Y-38812000D01*
X28400000Y-38811000D01*
X28410000Y-38810000D01*
X28420000Y-38810000D01*
X28780000Y-38810000D01*
X28790000Y-38810000D01*
X28800000Y-38811000D01*
X28810000Y-38812000D01*
X28820000Y-38814000D01*
X28829000Y-38816000D01*
X28839000Y-38819000D01*
X28848000Y-38823000D01*
X28857000Y-38826000D01*
X28866000Y-38831000D01*
X28875000Y-38835000D01*
X28883000Y-38841000D01*
X28892000Y-38846000D01*
X28900000Y-38852000D01*
X28907000Y-38859000D01*
X28914000Y-38866000D01*
X28921000Y-38873000D01*
X28928000Y-38880000D01*
X28934000Y-38888000D01*
X28939000Y-38897000D01*
X28945000Y-38905000D01*
X28949000Y-38914000D01*
X28954000Y-38923000D01*
X28957000Y-38932000D01*
X28961000Y-38941000D01*
X28964000Y-38951000D01*
X28966000Y-38960000D01*
X28968000Y-38970000D01*
X28969000Y-38980000D01*
X28970000Y-38990000D01*
X28970000Y-39000000D01*
X28970000Y-39010000D01*
X28969000Y-39020000D01*
X28968000Y-39030000D01*
X28966000Y-39040000D01*
X28964000Y-39049000D01*
X28961000Y-39059000D01*
X28957000Y-39068000D01*
X28954000Y-39077000D01*
X28949000Y-39086000D01*
X28945000Y-39095000D01*
X28939000Y-39103000D01*
X28934000Y-39112000D01*
X28928000Y-39120000D01*
X28921000Y-39127000D01*
X28914000Y-39134000D01*
X28907000Y-39141000D01*
X28900000Y-39148000D01*
X28892000Y-39154000D01*
X28883000Y-39159000D01*
X28875000Y-39165000D01*
X28866000Y-39169000D01*
X28857000Y-39174000D01*
X28848000Y-39177000D01*
X28839000Y-39181000D01*
X28829000Y-39184000D01*
X28820000Y-39186000D01*
X28810000Y-39188000D01*
X28800000Y-39189000D01*
X28790000Y-39190000D01*
X28780000Y-39190000D01*
G36*
X28800000Y-38811000D02*
G01*
X28810000Y-38812000D01*
X28820000Y-38814000D01*
X28829000Y-38816000D01*
X28839000Y-38819000D01*
X28848000Y-38823000D01*
X28857000Y-38826000D01*
X28866000Y-38831000D01*
X28875000Y-38835000D01*
X28883000Y-38841000D01*
X28892000Y-38846000D01*
X28900000Y-38852000D01*
X28907000Y-38859000D01*
X28914000Y-38866000D01*
X28921000Y-38873000D01*
X28928000Y-38880000D01*
X28934000Y-38888000D01*
X28939000Y-38897000D01*
X28945000Y-38905000D01*
X28949000Y-38914000D01*
X28954000Y-38923000D01*
X28957000Y-38932000D01*
X28961000Y-38941000D01*
X28964000Y-38951000D01*
X28966000Y-38960000D01*
X28968000Y-38970000D01*
X28969000Y-38980000D01*
X28970000Y-38990000D01*
X28970000Y-39000000D01*
X28970000Y-39010000D01*
X28969000Y-39020000D01*
X28968000Y-39030000D01*
X28966000Y-39040000D01*
X28964000Y-39049000D01*
X28961000Y-39059000D01*
X28957000Y-39068000D01*
X28954000Y-39077000D01*
X28949000Y-39086000D01*
X28945000Y-39095000D01*
X28939000Y-39103000D01*
X28934000Y-39112000D01*
X28928000Y-39120000D01*
X28921000Y-39127000D01*
X28914000Y-39134000D01*
X28907000Y-39141000D01*
X28900000Y-39148000D01*
X28892000Y-39154000D01*
X28883000Y-39159000D01*
X28875000Y-39165000D01*
X28866000Y-39169000D01*
X28857000Y-39174000D01*
X28848000Y-39177000D01*
X28839000Y-39181000D01*
X28829000Y-39184000D01*
X28820000Y-39186000D01*
X28810000Y-39188000D01*
X28800000Y-39189000D01*
X28790000Y-39190000D01*
X28780000Y-39190000D01*
X28420000Y-39190000D01*
X28410000Y-39190000D01*
X28400000Y-39189000D01*
X28390000Y-39188000D01*
X28380000Y-39186000D01*
X28371000Y-39184000D01*
X28361000Y-39181000D01*
X28352000Y-39177000D01*
X28343000Y-39174000D01*
X28334000Y-39169000D01*
X28325000Y-39165000D01*
X28317000Y-39159000D01*
X28308000Y-39154000D01*
X28300000Y-39148000D01*
X28293000Y-39141000D01*
X28286000Y-39134000D01*
X28279000Y-39127000D01*
X28272000Y-39120000D01*
X28266000Y-39112000D01*
X28261000Y-39103000D01*
X28255000Y-39095000D01*
X28251000Y-39086000D01*
X28246000Y-39077000D01*
X28243000Y-39068000D01*
X28239000Y-39059000D01*
X28236000Y-39049000D01*
X28234000Y-39040000D01*
X28232000Y-39030000D01*
X28231000Y-39020000D01*
X28230000Y-39010000D01*
X28230000Y-39000000D01*
X28230000Y-38990000D01*
X28231000Y-38980000D01*
X28232000Y-38970000D01*
X28234000Y-38960000D01*
X28236000Y-38951000D01*
X28239000Y-38941000D01*
X28243000Y-38932000D01*
X28246000Y-38923000D01*
X28251000Y-38914000D01*
X28255000Y-38905000D01*
X28261000Y-38897000D01*
X28266000Y-38888000D01*
X28272000Y-38880000D01*
X28279000Y-38873000D01*
X28286000Y-38866000D01*
X28293000Y-38859000D01*
X28300000Y-38852000D01*
X28308000Y-38846000D01*
X28317000Y-38841000D01*
X28325000Y-38835000D01*
X28334000Y-38831000D01*
X28343000Y-38826000D01*
X28352000Y-38823000D01*
X28361000Y-38819000D01*
X28371000Y-38816000D01*
X28380000Y-38814000D01*
X28390000Y-38812000D01*
X28400000Y-38811000D01*
X28410000Y-38810000D01*
X28420000Y-38810000D01*
X28780000Y-38810000D01*
X28790000Y-38810000D01*
X28800000Y-38811000D01*
G37*
X28780000Y-39690000D02*
X28420000Y-39690000D01*
X28410000Y-39690000D01*
X28400000Y-39689000D01*
X28390000Y-39688000D01*
X28380000Y-39686000D01*
X28371000Y-39684000D01*
X28361000Y-39681000D01*
X28352000Y-39677000D01*
X28343000Y-39674000D01*
X28334000Y-39669000D01*
X28325000Y-39665000D01*
X28317000Y-39659000D01*
X28308000Y-39654000D01*
X28300000Y-39648000D01*
X28293000Y-39641000D01*
X28286000Y-39634000D01*
X28279000Y-39627000D01*
X28272000Y-39620000D01*
X28266000Y-39612000D01*
X28261000Y-39603000D01*
X28255000Y-39595000D01*
X28251000Y-39586000D01*
X28246000Y-39577000D01*
X28243000Y-39568000D01*
X28239000Y-39559000D01*
X28236000Y-39549000D01*
X28234000Y-39540000D01*
X28232000Y-39530000D01*
X28231000Y-39520000D01*
X28230000Y-39510000D01*
X28230000Y-39500000D01*
X28230000Y-39490000D01*
X28231000Y-39480000D01*
X28232000Y-39470000D01*
X28234000Y-39460000D01*
X28236000Y-39451000D01*
X28239000Y-39441000D01*
X28243000Y-39432000D01*
X28246000Y-39423000D01*
X28251000Y-39414000D01*
X28255000Y-39405000D01*
X28261000Y-39397000D01*
X28266000Y-39388000D01*
X28272000Y-39380000D01*
X28279000Y-39373000D01*
X28286000Y-39366000D01*
X28293000Y-39359000D01*
X28300000Y-39352000D01*
X28308000Y-39346000D01*
X28317000Y-39341000D01*
X28325000Y-39335000D01*
X28334000Y-39331000D01*
X28343000Y-39326000D01*
X28352000Y-39323000D01*
X28361000Y-39319000D01*
X28371000Y-39316000D01*
X28380000Y-39314000D01*
X28390000Y-39312000D01*
X28400000Y-39311000D01*
X28410000Y-39310000D01*
X28420000Y-39310000D01*
X28780000Y-39310000D01*
X28790000Y-39310000D01*
X28800000Y-39311000D01*
X28810000Y-39312000D01*
X28820000Y-39314000D01*
X28829000Y-39316000D01*
X28839000Y-39319000D01*
X28848000Y-39323000D01*
X28857000Y-39326000D01*
X28866000Y-39331000D01*
X28875000Y-39335000D01*
X28883000Y-39341000D01*
X28892000Y-39346000D01*
X28900000Y-39352000D01*
X28907000Y-39359000D01*
X28914000Y-39366000D01*
X28921000Y-39373000D01*
X28928000Y-39380000D01*
X28934000Y-39388000D01*
X28939000Y-39397000D01*
X28945000Y-39405000D01*
X28949000Y-39414000D01*
X28954000Y-39423000D01*
X28957000Y-39432000D01*
X28961000Y-39441000D01*
X28964000Y-39451000D01*
X28966000Y-39460000D01*
X28968000Y-39470000D01*
X28969000Y-39480000D01*
X28970000Y-39490000D01*
X28970000Y-39500000D01*
X28970000Y-39510000D01*
X28969000Y-39520000D01*
X28968000Y-39530000D01*
X28966000Y-39540000D01*
X28964000Y-39549000D01*
X28961000Y-39559000D01*
X28957000Y-39568000D01*
X28954000Y-39577000D01*
X28949000Y-39586000D01*
X28945000Y-39595000D01*
X28939000Y-39603000D01*
X28934000Y-39612000D01*
X28928000Y-39620000D01*
X28921000Y-39627000D01*
X28914000Y-39634000D01*
X28907000Y-39641000D01*
X28900000Y-39648000D01*
X28892000Y-39654000D01*
X28883000Y-39659000D01*
X28875000Y-39665000D01*
X28866000Y-39669000D01*
X28857000Y-39674000D01*
X28848000Y-39677000D01*
X28839000Y-39681000D01*
X28829000Y-39684000D01*
X28820000Y-39686000D01*
X28810000Y-39688000D01*
X28800000Y-39689000D01*
X28790000Y-39690000D01*
X28780000Y-39690000D01*
G36*
X28800000Y-39311000D02*
G01*
X28810000Y-39312000D01*
X28820000Y-39314000D01*
X28829000Y-39316000D01*
X28839000Y-39319000D01*
X28848000Y-39323000D01*
X28857000Y-39326000D01*
X28866000Y-39331000D01*
X28875000Y-39335000D01*
X28883000Y-39341000D01*
X28892000Y-39346000D01*
X28900000Y-39352000D01*
X28907000Y-39359000D01*
X28914000Y-39366000D01*
X28921000Y-39373000D01*
X28928000Y-39380000D01*
X28934000Y-39388000D01*
X28939000Y-39397000D01*
X28945000Y-39405000D01*
X28949000Y-39414000D01*
X28954000Y-39423000D01*
X28957000Y-39432000D01*
X28961000Y-39441000D01*
X28964000Y-39451000D01*
X28966000Y-39460000D01*
X28968000Y-39470000D01*
X28969000Y-39480000D01*
X28970000Y-39490000D01*
X28970000Y-39500000D01*
X28970000Y-39510000D01*
X28969000Y-39520000D01*
X28968000Y-39530000D01*
X28966000Y-39540000D01*
X28964000Y-39549000D01*
X28961000Y-39559000D01*
X28957000Y-39568000D01*
X28954000Y-39577000D01*
X28949000Y-39586000D01*
X28945000Y-39595000D01*
X28939000Y-39603000D01*
X28934000Y-39612000D01*
X28928000Y-39620000D01*
X28921000Y-39627000D01*
X28914000Y-39634000D01*
X28907000Y-39641000D01*
X28900000Y-39648000D01*
X28892000Y-39654000D01*
X28883000Y-39659000D01*
X28875000Y-39665000D01*
X28866000Y-39669000D01*
X28857000Y-39674000D01*
X28848000Y-39677000D01*
X28839000Y-39681000D01*
X28829000Y-39684000D01*
X28820000Y-39686000D01*
X28810000Y-39688000D01*
X28800000Y-39689000D01*
X28790000Y-39690000D01*
X28780000Y-39690000D01*
X28420000Y-39690000D01*
X28410000Y-39690000D01*
X28400000Y-39689000D01*
X28390000Y-39688000D01*
X28380000Y-39686000D01*
X28371000Y-39684000D01*
X28361000Y-39681000D01*
X28352000Y-39677000D01*
X28343000Y-39674000D01*
X28334000Y-39669000D01*
X28325000Y-39665000D01*
X28317000Y-39659000D01*
X28308000Y-39654000D01*
X28300000Y-39648000D01*
X28293000Y-39641000D01*
X28286000Y-39634000D01*
X28279000Y-39627000D01*
X28272000Y-39620000D01*
X28266000Y-39612000D01*
X28261000Y-39603000D01*
X28255000Y-39595000D01*
X28251000Y-39586000D01*
X28246000Y-39577000D01*
X28243000Y-39568000D01*
X28239000Y-39559000D01*
X28236000Y-39549000D01*
X28234000Y-39540000D01*
X28232000Y-39530000D01*
X28231000Y-39520000D01*
X28230000Y-39510000D01*
X28230000Y-39500000D01*
X28230000Y-39490000D01*
X28231000Y-39480000D01*
X28232000Y-39470000D01*
X28234000Y-39460000D01*
X28236000Y-39451000D01*
X28239000Y-39441000D01*
X28243000Y-39432000D01*
X28246000Y-39423000D01*
X28251000Y-39414000D01*
X28255000Y-39405000D01*
X28261000Y-39397000D01*
X28266000Y-39388000D01*
X28272000Y-39380000D01*
X28279000Y-39373000D01*
X28286000Y-39366000D01*
X28293000Y-39359000D01*
X28300000Y-39352000D01*
X28308000Y-39346000D01*
X28317000Y-39341000D01*
X28325000Y-39335000D01*
X28334000Y-39331000D01*
X28343000Y-39326000D01*
X28352000Y-39323000D01*
X28361000Y-39319000D01*
X28371000Y-39316000D01*
X28380000Y-39314000D01*
X28390000Y-39312000D01*
X28400000Y-39311000D01*
X28410000Y-39310000D01*
X28420000Y-39310000D01*
X28780000Y-39310000D01*
X28790000Y-39310000D01*
X28800000Y-39311000D01*
G37*
X28780000Y-40190000D02*
X28420000Y-40190000D01*
X28410000Y-40190000D01*
X28400000Y-40189000D01*
X28390000Y-40188000D01*
X28380000Y-40186000D01*
X28371000Y-40184000D01*
X28361000Y-40181000D01*
X28352000Y-40177000D01*
X28343000Y-40174000D01*
X28334000Y-40169000D01*
X28325000Y-40165000D01*
X28317000Y-40159000D01*
X28308000Y-40154000D01*
X28300000Y-40148000D01*
X28293000Y-40141000D01*
X28286000Y-40134000D01*
X28279000Y-40127000D01*
X28272000Y-40120000D01*
X28266000Y-40112000D01*
X28261000Y-40103000D01*
X28255000Y-40095000D01*
X28251000Y-40086000D01*
X28246000Y-40077000D01*
X28243000Y-40068000D01*
X28239000Y-40059000D01*
X28236000Y-40049000D01*
X28234000Y-40040000D01*
X28232000Y-40030000D01*
X28231000Y-40020000D01*
X28230000Y-40010000D01*
X28230000Y-40000000D01*
X28230000Y-39990000D01*
X28231000Y-39980000D01*
X28232000Y-39970000D01*
X28234000Y-39960000D01*
X28236000Y-39951000D01*
X28239000Y-39941000D01*
X28243000Y-39932000D01*
X28246000Y-39923000D01*
X28251000Y-39914000D01*
X28255000Y-39905000D01*
X28261000Y-39897000D01*
X28266000Y-39888000D01*
X28272000Y-39880000D01*
X28279000Y-39873000D01*
X28286000Y-39866000D01*
X28293000Y-39859000D01*
X28300000Y-39852000D01*
X28308000Y-39846000D01*
X28317000Y-39841000D01*
X28325000Y-39835000D01*
X28334000Y-39831000D01*
X28343000Y-39826000D01*
X28352000Y-39823000D01*
X28361000Y-39819000D01*
X28371000Y-39816000D01*
X28380000Y-39814000D01*
X28390000Y-39812000D01*
X28400000Y-39811000D01*
X28410000Y-39810000D01*
X28420000Y-39810000D01*
X28780000Y-39810000D01*
X28790000Y-39810000D01*
X28800000Y-39811000D01*
X28810000Y-39812000D01*
X28820000Y-39814000D01*
X28829000Y-39816000D01*
X28839000Y-39819000D01*
X28848000Y-39823000D01*
X28857000Y-39826000D01*
X28866000Y-39831000D01*
X28875000Y-39835000D01*
X28883000Y-39841000D01*
X28892000Y-39846000D01*
X28900000Y-39852000D01*
X28907000Y-39859000D01*
X28914000Y-39866000D01*
X28921000Y-39873000D01*
X28928000Y-39880000D01*
X28934000Y-39888000D01*
X28939000Y-39897000D01*
X28945000Y-39905000D01*
X28949000Y-39914000D01*
X28954000Y-39923000D01*
X28957000Y-39932000D01*
X28961000Y-39941000D01*
X28964000Y-39951000D01*
X28966000Y-39960000D01*
X28968000Y-39970000D01*
X28969000Y-39980000D01*
X28970000Y-39990000D01*
X28970000Y-40000000D01*
X28970000Y-40010000D01*
X28969000Y-40020000D01*
X28968000Y-40030000D01*
X28966000Y-40040000D01*
X28964000Y-40049000D01*
X28961000Y-40059000D01*
X28957000Y-40068000D01*
X28954000Y-40077000D01*
X28949000Y-40086000D01*
X28945000Y-40095000D01*
X28939000Y-40103000D01*
X28934000Y-40112000D01*
X28928000Y-40120000D01*
X28921000Y-40127000D01*
X28914000Y-40134000D01*
X28907000Y-40141000D01*
X28900000Y-40148000D01*
X28892000Y-40154000D01*
X28883000Y-40159000D01*
X28875000Y-40165000D01*
X28866000Y-40169000D01*
X28857000Y-40174000D01*
X28848000Y-40177000D01*
X28839000Y-40181000D01*
X28829000Y-40184000D01*
X28820000Y-40186000D01*
X28810000Y-40188000D01*
X28800000Y-40189000D01*
X28790000Y-40190000D01*
X28780000Y-40190000D01*
G36*
X28800000Y-39811000D02*
G01*
X28810000Y-39812000D01*
X28820000Y-39814000D01*
X28829000Y-39816000D01*
X28839000Y-39819000D01*
X28848000Y-39823000D01*
X28857000Y-39826000D01*
X28866000Y-39831000D01*
X28875000Y-39835000D01*
X28883000Y-39841000D01*
X28892000Y-39846000D01*
X28900000Y-39852000D01*
X28907000Y-39859000D01*
X28914000Y-39866000D01*
X28921000Y-39873000D01*
X28928000Y-39880000D01*
X28934000Y-39888000D01*
X28939000Y-39897000D01*
X28945000Y-39905000D01*
X28949000Y-39914000D01*
X28954000Y-39923000D01*
X28957000Y-39932000D01*
X28961000Y-39941000D01*
X28964000Y-39951000D01*
X28966000Y-39960000D01*
X28968000Y-39970000D01*
X28969000Y-39980000D01*
X28970000Y-39990000D01*
X28970000Y-40000000D01*
X28970000Y-40010000D01*
X28969000Y-40020000D01*
X28968000Y-40030000D01*
X28966000Y-40040000D01*
X28964000Y-40049000D01*
X28961000Y-40059000D01*
X28957000Y-40068000D01*
X28954000Y-40077000D01*
X28949000Y-40086000D01*
X28945000Y-40095000D01*
X28939000Y-40103000D01*
X28934000Y-40112000D01*
X28928000Y-40120000D01*
X28921000Y-40127000D01*
X28914000Y-40134000D01*
X28907000Y-40141000D01*
X28900000Y-40148000D01*
X28892000Y-40154000D01*
X28883000Y-40159000D01*
X28875000Y-40165000D01*
X28866000Y-40169000D01*
X28857000Y-40174000D01*
X28848000Y-40177000D01*
X28839000Y-40181000D01*
X28829000Y-40184000D01*
X28820000Y-40186000D01*
X28810000Y-40188000D01*
X28800000Y-40189000D01*
X28790000Y-40190000D01*
X28780000Y-40190000D01*
X28420000Y-40190000D01*
X28410000Y-40190000D01*
X28400000Y-40189000D01*
X28390000Y-40188000D01*
X28380000Y-40186000D01*
X28371000Y-40184000D01*
X28361000Y-40181000D01*
X28352000Y-40177000D01*
X28343000Y-40174000D01*
X28334000Y-40169000D01*
X28325000Y-40165000D01*
X28317000Y-40159000D01*
X28308000Y-40154000D01*
X28300000Y-40148000D01*
X28293000Y-40141000D01*
X28286000Y-40134000D01*
X28279000Y-40127000D01*
X28272000Y-40120000D01*
X28266000Y-40112000D01*
X28261000Y-40103000D01*
X28255000Y-40095000D01*
X28251000Y-40086000D01*
X28246000Y-40077000D01*
X28243000Y-40068000D01*
X28239000Y-40059000D01*
X28236000Y-40049000D01*
X28234000Y-40040000D01*
X28232000Y-40030000D01*
X28231000Y-40020000D01*
X28230000Y-40010000D01*
X28230000Y-40000000D01*
X28230000Y-39990000D01*
X28231000Y-39980000D01*
X28232000Y-39970000D01*
X28234000Y-39960000D01*
X28236000Y-39951000D01*
X28239000Y-39941000D01*
X28243000Y-39932000D01*
X28246000Y-39923000D01*
X28251000Y-39914000D01*
X28255000Y-39905000D01*
X28261000Y-39897000D01*
X28266000Y-39888000D01*
X28272000Y-39880000D01*
X28279000Y-39873000D01*
X28286000Y-39866000D01*
X28293000Y-39859000D01*
X28300000Y-39852000D01*
X28308000Y-39846000D01*
X28317000Y-39841000D01*
X28325000Y-39835000D01*
X28334000Y-39831000D01*
X28343000Y-39826000D01*
X28352000Y-39823000D01*
X28361000Y-39819000D01*
X28371000Y-39816000D01*
X28380000Y-39814000D01*
X28390000Y-39812000D01*
X28400000Y-39811000D01*
X28410000Y-39810000D01*
X28420000Y-39810000D01*
X28780000Y-39810000D01*
X28790000Y-39810000D01*
X28800000Y-39811000D01*
G37*
X28780000Y-40690000D02*
X28420000Y-40690000D01*
X28410000Y-40690000D01*
X28400000Y-40689000D01*
X28390000Y-40688000D01*
X28380000Y-40686000D01*
X28371000Y-40684000D01*
X28361000Y-40681000D01*
X28352000Y-40677000D01*
X28343000Y-40674000D01*
X28334000Y-40669000D01*
X28325000Y-40665000D01*
X28317000Y-40659000D01*
X28308000Y-40654000D01*
X28300000Y-40648000D01*
X28293000Y-40641000D01*
X28286000Y-40634000D01*
X28279000Y-40627000D01*
X28272000Y-40620000D01*
X28266000Y-40612000D01*
X28261000Y-40603000D01*
X28255000Y-40595000D01*
X28251000Y-40586000D01*
X28246000Y-40577000D01*
X28243000Y-40568000D01*
X28239000Y-40559000D01*
X28236000Y-40549000D01*
X28234000Y-40540000D01*
X28232000Y-40530000D01*
X28231000Y-40520000D01*
X28230000Y-40510000D01*
X28230000Y-40500000D01*
X28230000Y-40490000D01*
X28231000Y-40480000D01*
X28232000Y-40470000D01*
X28234000Y-40460000D01*
X28236000Y-40451000D01*
X28239000Y-40441000D01*
X28243000Y-40432000D01*
X28246000Y-40423000D01*
X28251000Y-40414000D01*
X28255000Y-40405000D01*
X28261000Y-40397000D01*
X28266000Y-40388000D01*
X28272000Y-40380000D01*
X28279000Y-40373000D01*
X28286000Y-40366000D01*
X28293000Y-40359000D01*
X28300000Y-40352000D01*
X28308000Y-40346000D01*
X28317000Y-40341000D01*
X28325000Y-40335000D01*
X28334000Y-40331000D01*
X28343000Y-40326000D01*
X28352000Y-40323000D01*
X28361000Y-40319000D01*
X28371000Y-40316000D01*
X28380000Y-40314000D01*
X28390000Y-40312000D01*
X28400000Y-40311000D01*
X28410000Y-40310000D01*
X28420000Y-40310000D01*
X28780000Y-40310000D01*
X28790000Y-40310000D01*
X28800000Y-40311000D01*
X28810000Y-40312000D01*
X28820000Y-40314000D01*
X28829000Y-40316000D01*
X28839000Y-40319000D01*
X28848000Y-40323000D01*
X28857000Y-40326000D01*
X28866000Y-40331000D01*
X28875000Y-40335000D01*
X28883000Y-40341000D01*
X28892000Y-40346000D01*
X28900000Y-40352000D01*
X28907000Y-40359000D01*
X28914000Y-40366000D01*
X28921000Y-40373000D01*
X28928000Y-40380000D01*
X28934000Y-40388000D01*
X28939000Y-40397000D01*
X28945000Y-40405000D01*
X28949000Y-40414000D01*
X28954000Y-40423000D01*
X28957000Y-40432000D01*
X28961000Y-40441000D01*
X28964000Y-40451000D01*
X28966000Y-40460000D01*
X28968000Y-40470000D01*
X28969000Y-40480000D01*
X28970000Y-40490000D01*
X28970000Y-40500000D01*
X28970000Y-40510000D01*
X28969000Y-40520000D01*
X28968000Y-40530000D01*
X28966000Y-40540000D01*
X28964000Y-40549000D01*
X28961000Y-40559000D01*
X28957000Y-40568000D01*
X28954000Y-40577000D01*
X28949000Y-40586000D01*
X28945000Y-40595000D01*
X28939000Y-40603000D01*
X28934000Y-40612000D01*
X28928000Y-40620000D01*
X28921000Y-40627000D01*
X28914000Y-40634000D01*
X28907000Y-40641000D01*
X28900000Y-40648000D01*
X28892000Y-40654000D01*
X28883000Y-40659000D01*
X28875000Y-40665000D01*
X28866000Y-40669000D01*
X28857000Y-40674000D01*
X28848000Y-40677000D01*
X28839000Y-40681000D01*
X28829000Y-40684000D01*
X28820000Y-40686000D01*
X28810000Y-40688000D01*
X28800000Y-40689000D01*
X28790000Y-40690000D01*
X28780000Y-40690000D01*
G36*
X28800000Y-40311000D02*
G01*
X28810000Y-40312000D01*
X28820000Y-40314000D01*
X28829000Y-40316000D01*
X28839000Y-40319000D01*
X28848000Y-40323000D01*
X28857000Y-40326000D01*
X28866000Y-40331000D01*
X28875000Y-40335000D01*
X28883000Y-40341000D01*
X28892000Y-40346000D01*
X28900000Y-40352000D01*
X28907000Y-40359000D01*
X28914000Y-40366000D01*
X28921000Y-40373000D01*
X28928000Y-40380000D01*
X28934000Y-40388000D01*
X28939000Y-40397000D01*
X28945000Y-40405000D01*
X28949000Y-40414000D01*
X28954000Y-40423000D01*
X28957000Y-40432000D01*
X28961000Y-40441000D01*
X28964000Y-40451000D01*
X28966000Y-40460000D01*
X28968000Y-40470000D01*
X28969000Y-40480000D01*
X28970000Y-40490000D01*
X28970000Y-40500000D01*
X28970000Y-40510000D01*
X28969000Y-40520000D01*
X28968000Y-40530000D01*
X28966000Y-40540000D01*
X28964000Y-40549000D01*
X28961000Y-40559000D01*
X28957000Y-40568000D01*
X28954000Y-40577000D01*
X28949000Y-40586000D01*
X28945000Y-40595000D01*
X28939000Y-40603000D01*
X28934000Y-40612000D01*
X28928000Y-40620000D01*
X28921000Y-40627000D01*
X28914000Y-40634000D01*
X28907000Y-40641000D01*
X28900000Y-40648000D01*
X28892000Y-40654000D01*
X28883000Y-40659000D01*
X28875000Y-40665000D01*
X28866000Y-40669000D01*
X28857000Y-40674000D01*
X28848000Y-40677000D01*
X28839000Y-40681000D01*
X28829000Y-40684000D01*
X28820000Y-40686000D01*
X28810000Y-40688000D01*
X28800000Y-40689000D01*
X28790000Y-40690000D01*
X28780000Y-40690000D01*
X28420000Y-40690000D01*
X28410000Y-40690000D01*
X28400000Y-40689000D01*
X28390000Y-40688000D01*
X28380000Y-40686000D01*
X28371000Y-40684000D01*
X28361000Y-40681000D01*
X28352000Y-40677000D01*
X28343000Y-40674000D01*
X28334000Y-40669000D01*
X28325000Y-40665000D01*
X28317000Y-40659000D01*
X28308000Y-40654000D01*
X28300000Y-40648000D01*
X28293000Y-40641000D01*
X28286000Y-40634000D01*
X28279000Y-40627000D01*
X28272000Y-40620000D01*
X28266000Y-40612000D01*
X28261000Y-40603000D01*
X28255000Y-40595000D01*
X28251000Y-40586000D01*
X28246000Y-40577000D01*
X28243000Y-40568000D01*
X28239000Y-40559000D01*
X28236000Y-40549000D01*
X28234000Y-40540000D01*
X28232000Y-40530000D01*
X28231000Y-40520000D01*
X28230000Y-40510000D01*
X28230000Y-40500000D01*
X28230000Y-40490000D01*
X28231000Y-40480000D01*
X28232000Y-40470000D01*
X28234000Y-40460000D01*
X28236000Y-40451000D01*
X28239000Y-40441000D01*
X28243000Y-40432000D01*
X28246000Y-40423000D01*
X28251000Y-40414000D01*
X28255000Y-40405000D01*
X28261000Y-40397000D01*
X28266000Y-40388000D01*
X28272000Y-40380000D01*
X28279000Y-40373000D01*
X28286000Y-40366000D01*
X28293000Y-40359000D01*
X28300000Y-40352000D01*
X28308000Y-40346000D01*
X28317000Y-40341000D01*
X28325000Y-40335000D01*
X28334000Y-40331000D01*
X28343000Y-40326000D01*
X28352000Y-40323000D01*
X28361000Y-40319000D01*
X28371000Y-40316000D01*
X28380000Y-40314000D01*
X28390000Y-40312000D01*
X28400000Y-40311000D01*
X28410000Y-40310000D01*
X28420000Y-40310000D01*
X28780000Y-40310000D01*
X28790000Y-40310000D01*
X28800000Y-40311000D01*
G37*
X28780000Y-41190000D02*
X28420000Y-41190000D01*
X28410000Y-41190000D01*
X28400000Y-41189000D01*
X28390000Y-41188000D01*
X28380000Y-41186000D01*
X28371000Y-41184000D01*
X28361000Y-41181000D01*
X28352000Y-41177000D01*
X28343000Y-41174000D01*
X28334000Y-41169000D01*
X28325000Y-41165000D01*
X28317000Y-41159000D01*
X28308000Y-41154000D01*
X28300000Y-41148000D01*
X28293000Y-41141000D01*
X28286000Y-41134000D01*
X28279000Y-41127000D01*
X28272000Y-41120000D01*
X28266000Y-41112000D01*
X28261000Y-41103000D01*
X28255000Y-41095000D01*
X28251000Y-41086000D01*
X28246000Y-41077000D01*
X28243000Y-41068000D01*
X28239000Y-41059000D01*
X28236000Y-41049000D01*
X28234000Y-41040000D01*
X28232000Y-41030000D01*
X28231000Y-41020000D01*
X28230000Y-41010000D01*
X28230000Y-41000000D01*
X28230000Y-40990000D01*
X28231000Y-40980000D01*
X28232000Y-40970000D01*
X28234000Y-40960000D01*
X28236000Y-40951000D01*
X28239000Y-40941000D01*
X28243000Y-40932000D01*
X28246000Y-40923000D01*
X28251000Y-40914000D01*
X28255000Y-40905000D01*
X28261000Y-40897000D01*
X28266000Y-40888000D01*
X28272000Y-40880000D01*
X28279000Y-40873000D01*
X28286000Y-40866000D01*
X28293000Y-40859000D01*
X28300000Y-40852000D01*
X28308000Y-40846000D01*
X28317000Y-40841000D01*
X28325000Y-40835000D01*
X28334000Y-40831000D01*
X28343000Y-40826000D01*
X28352000Y-40823000D01*
X28361000Y-40819000D01*
X28371000Y-40816000D01*
X28380000Y-40814000D01*
X28390000Y-40812000D01*
X28400000Y-40811000D01*
X28410000Y-40810000D01*
X28420000Y-40810000D01*
X28780000Y-40810000D01*
X28790000Y-40810000D01*
X28800000Y-40811000D01*
X28810000Y-40812000D01*
X28820000Y-40814000D01*
X28829000Y-40816000D01*
X28839000Y-40819000D01*
X28848000Y-40823000D01*
X28857000Y-40826000D01*
X28866000Y-40831000D01*
X28875000Y-40835000D01*
X28883000Y-40841000D01*
X28892000Y-40846000D01*
X28900000Y-40852000D01*
X28907000Y-40859000D01*
X28914000Y-40866000D01*
X28921000Y-40873000D01*
X28928000Y-40880000D01*
X28934000Y-40888000D01*
X28939000Y-40897000D01*
X28945000Y-40905000D01*
X28949000Y-40914000D01*
X28954000Y-40923000D01*
X28957000Y-40932000D01*
X28961000Y-40941000D01*
X28964000Y-40951000D01*
X28966000Y-40960000D01*
X28968000Y-40970000D01*
X28969000Y-40980000D01*
X28970000Y-40990000D01*
X28970000Y-41000000D01*
X28970000Y-41010000D01*
X28969000Y-41020000D01*
X28968000Y-41030000D01*
X28966000Y-41040000D01*
X28964000Y-41049000D01*
X28961000Y-41059000D01*
X28957000Y-41068000D01*
X28954000Y-41077000D01*
X28949000Y-41086000D01*
X28945000Y-41095000D01*
X28939000Y-41103000D01*
X28934000Y-41112000D01*
X28928000Y-41120000D01*
X28921000Y-41127000D01*
X28914000Y-41134000D01*
X28907000Y-41141000D01*
X28900000Y-41148000D01*
X28892000Y-41154000D01*
X28883000Y-41159000D01*
X28875000Y-41165000D01*
X28866000Y-41169000D01*
X28857000Y-41174000D01*
X28848000Y-41177000D01*
X28839000Y-41181000D01*
X28829000Y-41184000D01*
X28820000Y-41186000D01*
X28810000Y-41188000D01*
X28800000Y-41189000D01*
X28790000Y-41190000D01*
X28780000Y-41190000D01*
G36*
X28800000Y-40811000D02*
G01*
X28810000Y-40812000D01*
X28820000Y-40814000D01*
X28829000Y-40816000D01*
X28839000Y-40819000D01*
X28848000Y-40823000D01*
X28857000Y-40826000D01*
X28866000Y-40831000D01*
X28875000Y-40835000D01*
X28883000Y-40841000D01*
X28892000Y-40846000D01*
X28900000Y-40852000D01*
X28907000Y-40859000D01*
X28914000Y-40866000D01*
X28921000Y-40873000D01*
X28928000Y-40880000D01*
X28934000Y-40888000D01*
X28939000Y-40897000D01*
X28945000Y-40905000D01*
X28949000Y-40914000D01*
X28954000Y-40923000D01*
X28957000Y-40932000D01*
X28961000Y-40941000D01*
X28964000Y-40951000D01*
X28966000Y-40960000D01*
X28968000Y-40970000D01*
X28969000Y-40980000D01*
X28970000Y-40990000D01*
X28970000Y-41000000D01*
X28970000Y-41010000D01*
X28969000Y-41020000D01*
X28968000Y-41030000D01*
X28966000Y-41040000D01*
X28964000Y-41049000D01*
X28961000Y-41059000D01*
X28957000Y-41068000D01*
X28954000Y-41077000D01*
X28949000Y-41086000D01*
X28945000Y-41095000D01*
X28939000Y-41103000D01*
X28934000Y-41112000D01*
X28928000Y-41120000D01*
X28921000Y-41127000D01*
X28914000Y-41134000D01*
X28907000Y-41141000D01*
X28900000Y-41148000D01*
X28892000Y-41154000D01*
X28883000Y-41159000D01*
X28875000Y-41165000D01*
X28866000Y-41169000D01*
X28857000Y-41174000D01*
X28848000Y-41177000D01*
X28839000Y-41181000D01*
X28829000Y-41184000D01*
X28820000Y-41186000D01*
X28810000Y-41188000D01*
X28800000Y-41189000D01*
X28790000Y-41190000D01*
X28780000Y-41190000D01*
X28420000Y-41190000D01*
X28410000Y-41190000D01*
X28400000Y-41189000D01*
X28390000Y-41188000D01*
X28380000Y-41186000D01*
X28371000Y-41184000D01*
X28361000Y-41181000D01*
X28352000Y-41177000D01*
X28343000Y-41174000D01*
X28334000Y-41169000D01*
X28325000Y-41165000D01*
X28317000Y-41159000D01*
X28308000Y-41154000D01*
X28300000Y-41148000D01*
X28293000Y-41141000D01*
X28286000Y-41134000D01*
X28279000Y-41127000D01*
X28272000Y-41120000D01*
X28266000Y-41112000D01*
X28261000Y-41103000D01*
X28255000Y-41095000D01*
X28251000Y-41086000D01*
X28246000Y-41077000D01*
X28243000Y-41068000D01*
X28239000Y-41059000D01*
X28236000Y-41049000D01*
X28234000Y-41040000D01*
X28232000Y-41030000D01*
X28231000Y-41020000D01*
X28230000Y-41010000D01*
X28230000Y-41000000D01*
X28230000Y-40990000D01*
X28231000Y-40980000D01*
X28232000Y-40970000D01*
X28234000Y-40960000D01*
X28236000Y-40951000D01*
X28239000Y-40941000D01*
X28243000Y-40932000D01*
X28246000Y-40923000D01*
X28251000Y-40914000D01*
X28255000Y-40905000D01*
X28261000Y-40897000D01*
X28266000Y-40888000D01*
X28272000Y-40880000D01*
X28279000Y-40873000D01*
X28286000Y-40866000D01*
X28293000Y-40859000D01*
X28300000Y-40852000D01*
X28308000Y-40846000D01*
X28317000Y-40841000D01*
X28325000Y-40835000D01*
X28334000Y-40831000D01*
X28343000Y-40826000D01*
X28352000Y-40823000D01*
X28361000Y-40819000D01*
X28371000Y-40816000D01*
X28380000Y-40814000D01*
X28390000Y-40812000D01*
X28400000Y-40811000D01*
X28410000Y-40810000D01*
X28420000Y-40810000D01*
X28780000Y-40810000D01*
X28790000Y-40810000D01*
X28800000Y-40811000D01*
G37*
X28780000Y-41690000D02*
X28420000Y-41690000D01*
X28410000Y-41690000D01*
X28400000Y-41689000D01*
X28390000Y-41688000D01*
X28380000Y-41686000D01*
X28371000Y-41684000D01*
X28361000Y-41681000D01*
X28352000Y-41677000D01*
X28343000Y-41674000D01*
X28334000Y-41669000D01*
X28325000Y-41665000D01*
X28317000Y-41659000D01*
X28308000Y-41654000D01*
X28300000Y-41648000D01*
X28293000Y-41641000D01*
X28286000Y-41634000D01*
X28279000Y-41627000D01*
X28272000Y-41620000D01*
X28266000Y-41612000D01*
X28261000Y-41603000D01*
X28255000Y-41595000D01*
X28251000Y-41586000D01*
X28246000Y-41577000D01*
X28243000Y-41568000D01*
X28239000Y-41559000D01*
X28236000Y-41549000D01*
X28234000Y-41540000D01*
X28232000Y-41530000D01*
X28231000Y-41520000D01*
X28230000Y-41510000D01*
X28230000Y-41500000D01*
X28230000Y-41490000D01*
X28231000Y-41480000D01*
X28232000Y-41470000D01*
X28234000Y-41460000D01*
X28236000Y-41451000D01*
X28239000Y-41441000D01*
X28243000Y-41432000D01*
X28246000Y-41423000D01*
X28251000Y-41414000D01*
X28255000Y-41405000D01*
X28261000Y-41397000D01*
X28266000Y-41388000D01*
X28272000Y-41380000D01*
X28279000Y-41373000D01*
X28286000Y-41366000D01*
X28293000Y-41359000D01*
X28300000Y-41352000D01*
X28308000Y-41346000D01*
X28317000Y-41341000D01*
X28325000Y-41335000D01*
X28334000Y-41331000D01*
X28343000Y-41326000D01*
X28352000Y-41323000D01*
X28361000Y-41319000D01*
X28371000Y-41316000D01*
X28380000Y-41314000D01*
X28390000Y-41312000D01*
X28400000Y-41311000D01*
X28410000Y-41310000D01*
X28420000Y-41310000D01*
X28780000Y-41310000D01*
X28790000Y-41310000D01*
X28800000Y-41311000D01*
X28810000Y-41312000D01*
X28820000Y-41314000D01*
X28829000Y-41316000D01*
X28839000Y-41319000D01*
X28848000Y-41323000D01*
X28857000Y-41326000D01*
X28866000Y-41331000D01*
X28875000Y-41335000D01*
X28883000Y-41341000D01*
X28892000Y-41346000D01*
X28900000Y-41352000D01*
X28907000Y-41359000D01*
X28914000Y-41366000D01*
X28921000Y-41373000D01*
X28928000Y-41380000D01*
X28934000Y-41388000D01*
X28939000Y-41397000D01*
X28945000Y-41405000D01*
X28949000Y-41414000D01*
X28954000Y-41423000D01*
X28957000Y-41432000D01*
X28961000Y-41441000D01*
X28964000Y-41451000D01*
X28966000Y-41460000D01*
X28968000Y-41470000D01*
X28969000Y-41480000D01*
X28970000Y-41490000D01*
X28970000Y-41500000D01*
X28970000Y-41510000D01*
X28969000Y-41520000D01*
X28968000Y-41530000D01*
X28966000Y-41540000D01*
X28964000Y-41549000D01*
X28961000Y-41559000D01*
X28957000Y-41568000D01*
X28954000Y-41577000D01*
X28949000Y-41586000D01*
X28945000Y-41595000D01*
X28939000Y-41603000D01*
X28934000Y-41612000D01*
X28928000Y-41620000D01*
X28921000Y-41627000D01*
X28914000Y-41634000D01*
X28907000Y-41641000D01*
X28900000Y-41648000D01*
X28892000Y-41654000D01*
X28883000Y-41659000D01*
X28875000Y-41665000D01*
X28866000Y-41669000D01*
X28857000Y-41674000D01*
X28848000Y-41677000D01*
X28839000Y-41681000D01*
X28829000Y-41684000D01*
X28820000Y-41686000D01*
X28810000Y-41688000D01*
X28800000Y-41689000D01*
X28790000Y-41690000D01*
X28780000Y-41690000D01*
G36*
X28800000Y-41311000D02*
G01*
X28810000Y-41312000D01*
X28820000Y-41314000D01*
X28829000Y-41316000D01*
X28839000Y-41319000D01*
X28848000Y-41323000D01*
X28857000Y-41326000D01*
X28866000Y-41331000D01*
X28875000Y-41335000D01*
X28883000Y-41341000D01*
X28892000Y-41346000D01*
X28900000Y-41352000D01*
X28907000Y-41359000D01*
X28914000Y-41366000D01*
X28921000Y-41373000D01*
X28928000Y-41380000D01*
X28934000Y-41388000D01*
X28939000Y-41397000D01*
X28945000Y-41405000D01*
X28949000Y-41414000D01*
X28954000Y-41423000D01*
X28957000Y-41432000D01*
X28961000Y-41441000D01*
X28964000Y-41451000D01*
X28966000Y-41460000D01*
X28968000Y-41470000D01*
X28969000Y-41480000D01*
X28970000Y-41490000D01*
X28970000Y-41500000D01*
X28970000Y-41510000D01*
X28969000Y-41520000D01*
X28968000Y-41530000D01*
X28966000Y-41540000D01*
X28964000Y-41549000D01*
X28961000Y-41559000D01*
X28957000Y-41568000D01*
X28954000Y-41577000D01*
X28949000Y-41586000D01*
X28945000Y-41595000D01*
X28939000Y-41603000D01*
X28934000Y-41612000D01*
X28928000Y-41620000D01*
X28921000Y-41627000D01*
X28914000Y-41634000D01*
X28907000Y-41641000D01*
X28900000Y-41648000D01*
X28892000Y-41654000D01*
X28883000Y-41659000D01*
X28875000Y-41665000D01*
X28866000Y-41669000D01*
X28857000Y-41674000D01*
X28848000Y-41677000D01*
X28839000Y-41681000D01*
X28829000Y-41684000D01*
X28820000Y-41686000D01*
X28810000Y-41688000D01*
X28800000Y-41689000D01*
X28790000Y-41690000D01*
X28780000Y-41690000D01*
X28420000Y-41690000D01*
X28410000Y-41690000D01*
X28400000Y-41689000D01*
X28390000Y-41688000D01*
X28380000Y-41686000D01*
X28371000Y-41684000D01*
X28361000Y-41681000D01*
X28352000Y-41677000D01*
X28343000Y-41674000D01*
X28334000Y-41669000D01*
X28325000Y-41665000D01*
X28317000Y-41659000D01*
X28308000Y-41654000D01*
X28300000Y-41648000D01*
X28293000Y-41641000D01*
X28286000Y-41634000D01*
X28279000Y-41627000D01*
X28272000Y-41620000D01*
X28266000Y-41612000D01*
X28261000Y-41603000D01*
X28255000Y-41595000D01*
X28251000Y-41586000D01*
X28246000Y-41577000D01*
X28243000Y-41568000D01*
X28239000Y-41559000D01*
X28236000Y-41549000D01*
X28234000Y-41540000D01*
X28232000Y-41530000D01*
X28231000Y-41520000D01*
X28230000Y-41510000D01*
X28230000Y-41500000D01*
X28230000Y-41490000D01*
X28231000Y-41480000D01*
X28232000Y-41470000D01*
X28234000Y-41460000D01*
X28236000Y-41451000D01*
X28239000Y-41441000D01*
X28243000Y-41432000D01*
X28246000Y-41423000D01*
X28251000Y-41414000D01*
X28255000Y-41405000D01*
X28261000Y-41397000D01*
X28266000Y-41388000D01*
X28272000Y-41380000D01*
X28279000Y-41373000D01*
X28286000Y-41366000D01*
X28293000Y-41359000D01*
X28300000Y-41352000D01*
X28308000Y-41346000D01*
X28317000Y-41341000D01*
X28325000Y-41335000D01*
X28334000Y-41331000D01*
X28343000Y-41326000D01*
X28352000Y-41323000D01*
X28361000Y-41319000D01*
X28371000Y-41316000D01*
X28380000Y-41314000D01*
X28390000Y-41312000D01*
X28400000Y-41311000D01*
X28410000Y-41310000D01*
X28420000Y-41310000D01*
X28780000Y-41310000D01*
X28790000Y-41310000D01*
X28800000Y-41311000D01*
G37*
X31580000Y-38690000D02*
X31220000Y-38690000D01*
X31210000Y-38690000D01*
X31200000Y-38689000D01*
X31190000Y-38688000D01*
X31180000Y-38686000D01*
X31171000Y-38684000D01*
X31161000Y-38681000D01*
X31152000Y-38677000D01*
X31143000Y-38674000D01*
X31134000Y-38669000D01*
X31125000Y-38665000D01*
X31117000Y-38659000D01*
X31108000Y-38654000D01*
X31100000Y-38648000D01*
X31093000Y-38641000D01*
X31086000Y-38634000D01*
X31079000Y-38627000D01*
X31072000Y-38620000D01*
X31066000Y-38612000D01*
X31061000Y-38603000D01*
X31055000Y-38595000D01*
X31051000Y-38586000D01*
X31046000Y-38577000D01*
X31043000Y-38568000D01*
X31039000Y-38559000D01*
X31036000Y-38549000D01*
X31034000Y-38540000D01*
X31032000Y-38530000D01*
X31031000Y-38520000D01*
X31030000Y-38510000D01*
X31030000Y-38500000D01*
X31030000Y-38490000D01*
X31031000Y-38480000D01*
X31032000Y-38470000D01*
X31034000Y-38460000D01*
X31036000Y-38451000D01*
X31039000Y-38441000D01*
X31043000Y-38432000D01*
X31046000Y-38423000D01*
X31051000Y-38414000D01*
X31055000Y-38405000D01*
X31061000Y-38397000D01*
X31066000Y-38388000D01*
X31072000Y-38380000D01*
X31079000Y-38373000D01*
X31086000Y-38366000D01*
X31093000Y-38359000D01*
X31100000Y-38352000D01*
X31108000Y-38346000D01*
X31117000Y-38341000D01*
X31125000Y-38335000D01*
X31134000Y-38331000D01*
X31143000Y-38326000D01*
X31152000Y-38323000D01*
X31161000Y-38319000D01*
X31171000Y-38316000D01*
X31180000Y-38314000D01*
X31190000Y-38312000D01*
X31200000Y-38311000D01*
X31210000Y-38310000D01*
X31220000Y-38310000D01*
X31580000Y-38310000D01*
X31590000Y-38310000D01*
X31600000Y-38311000D01*
X31610000Y-38312000D01*
X31620000Y-38314000D01*
X31629000Y-38316000D01*
X31639000Y-38319000D01*
X31648000Y-38323000D01*
X31657000Y-38326000D01*
X31666000Y-38331000D01*
X31675000Y-38335000D01*
X31683000Y-38341000D01*
X31692000Y-38346000D01*
X31700000Y-38352000D01*
X31707000Y-38359000D01*
X31714000Y-38366000D01*
X31721000Y-38373000D01*
X31728000Y-38380000D01*
X31734000Y-38388000D01*
X31739000Y-38397000D01*
X31745000Y-38405000D01*
X31749000Y-38414000D01*
X31754000Y-38423000D01*
X31757000Y-38432000D01*
X31761000Y-38441000D01*
X31764000Y-38451000D01*
X31766000Y-38460000D01*
X31768000Y-38470000D01*
X31769000Y-38480000D01*
X31770000Y-38490000D01*
X31770000Y-38500000D01*
X31770000Y-38510000D01*
X31769000Y-38520000D01*
X31768000Y-38530000D01*
X31766000Y-38540000D01*
X31764000Y-38549000D01*
X31761000Y-38559000D01*
X31757000Y-38568000D01*
X31754000Y-38577000D01*
X31749000Y-38586000D01*
X31745000Y-38595000D01*
X31739000Y-38603000D01*
X31734000Y-38612000D01*
X31728000Y-38620000D01*
X31721000Y-38627000D01*
X31714000Y-38634000D01*
X31707000Y-38641000D01*
X31700000Y-38648000D01*
X31692000Y-38654000D01*
X31683000Y-38659000D01*
X31675000Y-38665000D01*
X31666000Y-38669000D01*
X31657000Y-38674000D01*
X31648000Y-38677000D01*
X31639000Y-38681000D01*
X31629000Y-38684000D01*
X31620000Y-38686000D01*
X31610000Y-38688000D01*
X31600000Y-38689000D01*
X31590000Y-38690000D01*
X31580000Y-38690000D01*
G36*
X31600000Y-38311000D02*
G01*
X31610000Y-38312000D01*
X31620000Y-38314000D01*
X31629000Y-38316000D01*
X31639000Y-38319000D01*
X31648000Y-38323000D01*
X31657000Y-38326000D01*
X31666000Y-38331000D01*
X31675000Y-38335000D01*
X31683000Y-38341000D01*
X31692000Y-38346000D01*
X31700000Y-38352000D01*
X31707000Y-38359000D01*
X31714000Y-38366000D01*
X31721000Y-38373000D01*
X31728000Y-38380000D01*
X31734000Y-38388000D01*
X31739000Y-38397000D01*
X31745000Y-38405000D01*
X31749000Y-38414000D01*
X31754000Y-38423000D01*
X31757000Y-38432000D01*
X31761000Y-38441000D01*
X31764000Y-38451000D01*
X31766000Y-38460000D01*
X31768000Y-38470000D01*
X31769000Y-38480000D01*
X31770000Y-38490000D01*
X31770000Y-38500000D01*
X31770000Y-38510000D01*
X31769000Y-38520000D01*
X31768000Y-38530000D01*
X31766000Y-38540000D01*
X31764000Y-38549000D01*
X31761000Y-38559000D01*
X31757000Y-38568000D01*
X31754000Y-38577000D01*
X31749000Y-38586000D01*
X31745000Y-38595000D01*
X31739000Y-38603000D01*
X31734000Y-38612000D01*
X31728000Y-38620000D01*
X31721000Y-38627000D01*
X31714000Y-38634000D01*
X31707000Y-38641000D01*
X31700000Y-38648000D01*
X31692000Y-38654000D01*
X31683000Y-38659000D01*
X31675000Y-38665000D01*
X31666000Y-38669000D01*
X31657000Y-38674000D01*
X31648000Y-38677000D01*
X31639000Y-38681000D01*
X31629000Y-38684000D01*
X31620000Y-38686000D01*
X31610000Y-38688000D01*
X31600000Y-38689000D01*
X31590000Y-38690000D01*
X31580000Y-38690000D01*
X31220000Y-38690000D01*
X31210000Y-38690000D01*
X31200000Y-38689000D01*
X31190000Y-38688000D01*
X31180000Y-38686000D01*
X31171000Y-38684000D01*
X31161000Y-38681000D01*
X31152000Y-38677000D01*
X31143000Y-38674000D01*
X31134000Y-38669000D01*
X31125000Y-38665000D01*
X31117000Y-38659000D01*
X31108000Y-38654000D01*
X31100000Y-38648000D01*
X31093000Y-38641000D01*
X31086000Y-38634000D01*
X31079000Y-38627000D01*
X31072000Y-38620000D01*
X31066000Y-38612000D01*
X31061000Y-38603000D01*
X31055000Y-38595000D01*
X31051000Y-38586000D01*
X31046000Y-38577000D01*
X31043000Y-38568000D01*
X31039000Y-38559000D01*
X31036000Y-38549000D01*
X31034000Y-38540000D01*
X31032000Y-38530000D01*
X31031000Y-38520000D01*
X31030000Y-38510000D01*
X31030000Y-38500000D01*
X31030000Y-38490000D01*
X31031000Y-38480000D01*
X31032000Y-38470000D01*
X31034000Y-38460000D01*
X31036000Y-38451000D01*
X31039000Y-38441000D01*
X31043000Y-38432000D01*
X31046000Y-38423000D01*
X31051000Y-38414000D01*
X31055000Y-38405000D01*
X31061000Y-38397000D01*
X31066000Y-38388000D01*
X31072000Y-38380000D01*
X31079000Y-38373000D01*
X31086000Y-38366000D01*
X31093000Y-38359000D01*
X31100000Y-38352000D01*
X31108000Y-38346000D01*
X31117000Y-38341000D01*
X31125000Y-38335000D01*
X31134000Y-38331000D01*
X31143000Y-38326000D01*
X31152000Y-38323000D01*
X31161000Y-38319000D01*
X31171000Y-38316000D01*
X31180000Y-38314000D01*
X31190000Y-38312000D01*
X31200000Y-38311000D01*
X31210000Y-38310000D01*
X31220000Y-38310000D01*
X31580000Y-38310000D01*
X31590000Y-38310000D01*
X31600000Y-38311000D01*
G37*
X31580000Y-39190000D02*
X31220000Y-39190000D01*
X31210000Y-39190000D01*
X31200000Y-39189000D01*
X31190000Y-39188000D01*
X31180000Y-39186000D01*
X31171000Y-39184000D01*
X31161000Y-39181000D01*
X31152000Y-39177000D01*
X31143000Y-39174000D01*
X31134000Y-39169000D01*
X31125000Y-39165000D01*
X31117000Y-39159000D01*
X31108000Y-39154000D01*
X31100000Y-39148000D01*
X31093000Y-39141000D01*
X31086000Y-39134000D01*
X31079000Y-39127000D01*
X31072000Y-39120000D01*
X31066000Y-39112000D01*
X31061000Y-39103000D01*
X31055000Y-39095000D01*
X31051000Y-39086000D01*
X31046000Y-39077000D01*
X31043000Y-39068000D01*
X31039000Y-39059000D01*
X31036000Y-39049000D01*
X31034000Y-39040000D01*
X31032000Y-39030000D01*
X31031000Y-39020000D01*
X31030000Y-39010000D01*
X31030000Y-39000000D01*
X31030000Y-38990000D01*
X31031000Y-38980000D01*
X31032000Y-38970000D01*
X31034000Y-38960000D01*
X31036000Y-38951000D01*
X31039000Y-38941000D01*
X31043000Y-38932000D01*
X31046000Y-38923000D01*
X31051000Y-38914000D01*
X31055000Y-38905000D01*
X31061000Y-38897000D01*
X31066000Y-38888000D01*
X31072000Y-38880000D01*
X31079000Y-38873000D01*
X31086000Y-38866000D01*
X31093000Y-38859000D01*
X31100000Y-38852000D01*
X31108000Y-38846000D01*
X31117000Y-38841000D01*
X31125000Y-38835000D01*
X31134000Y-38831000D01*
X31143000Y-38826000D01*
X31152000Y-38823000D01*
X31161000Y-38819000D01*
X31171000Y-38816000D01*
X31180000Y-38814000D01*
X31190000Y-38812000D01*
X31200000Y-38811000D01*
X31210000Y-38810000D01*
X31220000Y-38810000D01*
X31580000Y-38810000D01*
X31590000Y-38810000D01*
X31600000Y-38811000D01*
X31610000Y-38812000D01*
X31620000Y-38814000D01*
X31629000Y-38816000D01*
X31639000Y-38819000D01*
X31648000Y-38823000D01*
X31657000Y-38826000D01*
X31666000Y-38831000D01*
X31675000Y-38835000D01*
X31683000Y-38841000D01*
X31692000Y-38846000D01*
X31700000Y-38852000D01*
X31707000Y-38859000D01*
X31714000Y-38866000D01*
X31721000Y-38873000D01*
X31728000Y-38880000D01*
X31734000Y-38888000D01*
X31739000Y-38897000D01*
X31745000Y-38905000D01*
X31749000Y-38914000D01*
X31754000Y-38923000D01*
X31757000Y-38932000D01*
X31761000Y-38941000D01*
X31764000Y-38951000D01*
X31766000Y-38960000D01*
X31768000Y-38970000D01*
X31769000Y-38980000D01*
X31770000Y-38990000D01*
X31770000Y-39000000D01*
X31770000Y-39010000D01*
X31769000Y-39020000D01*
X31768000Y-39030000D01*
X31766000Y-39040000D01*
X31764000Y-39049000D01*
X31761000Y-39059000D01*
X31757000Y-39068000D01*
X31754000Y-39077000D01*
X31749000Y-39086000D01*
X31745000Y-39095000D01*
X31739000Y-39103000D01*
X31734000Y-39112000D01*
X31728000Y-39120000D01*
X31721000Y-39127000D01*
X31714000Y-39134000D01*
X31707000Y-39141000D01*
X31700000Y-39148000D01*
X31692000Y-39154000D01*
X31683000Y-39159000D01*
X31675000Y-39165000D01*
X31666000Y-39169000D01*
X31657000Y-39174000D01*
X31648000Y-39177000D01*
X31639000Y-39181000D01*
X31629000Y-39184000D01*
X31620000Y-39186000D01*
X31610000Y-39188000D01*
X31600000Y-39189000D01*
X31590000Y-39190000D01*
X31580000Y-39190000D01*
G36*
X31600000Y-38811000D02*
G01*
X31610000Y-38812000D01*
X31620000Y-38814000D01*
X31629000Y-38816000D01*
X31639000Y-38819000D01*
X31648000Y-38823000D01*
X31657000Y-38826000D01*
X31666000Y-38831000D01*
X31675000Y-38835000D01*
X31683000Y-38841000D01*
X31692000Y-38846000D01*
X31700000Y-38852000D01*
X31707000Y-38859000D01*
X31714000Y-38866000D01*
X31721000Y-38873000D01*
X31728000Y-38880000D01*
X31734000Y-38888000D01*
X31739000Y-38897000D01*
X31745000Y-38905000D01*
X31749000Y-38914000D01*
X31754000Y-38923000D01*
X31757000Y-38932000D01*
X31761000Y-38941000D01*
X31764000Y-38951000D01*
X31766000Y-38960000D01*
X31768000Y-38970000D01*
X31769000Y-38980000D01*
X31770000Y-38990000D01*
X31770000Y-39000000D01*
X31770000Y-39010000D01*
X31769000Y-39020000D01*
X31768000Y-39030000D01*
X31766000Y-39040000D01*
X31764000Y-39049000D01*
X31761000Y-39059000D01*
X31757000Y-39068000D01*
X31754000Y-39077000D01*
X31749000Y-39086000D01*
X31745000Y-39095000D01*
X31739000Y-39103000D01*
X31734000Y-39112000D01*
X31728000Y-39120000D01*
X31721000Y-39127000D01*
X31714000Y-39134000D01*
X31707000Y-39141000D01*
X31700000Y-39148000D01*
X31692000Y-39154000D01*
X31683000Y-39159000D01*
X31675000Y-39165000D01*
X31666000Y-39169000D01*
X31657000Y-39174000D01*
X31648000Y-39177000D01*
X31639000Y-39181000D01*
X31629000Y-39184000D01*
X31620000Y-39186000D01*
X31610000Y-39188000D01*
X31600000Y-39189000D01*
X31590000Y-39190000D01*
X31580000Y-39190000D01*
X31220000Y-39190000D01*
X31210000Y-39190000D01*
X31200000Y-39189000D01*
X31190000Y-39188000D01*
X31180000Y-39186000D01*
X31171000Y-39184000D01*
X31161000Y-39181000D01*
X31152000Y-39177000D01*
X31143000Y-39174000D01*
X31134000Y-39169000D01*
X31125000Y-39165000D01*
X31117000Y-39159000D01*
X31108000Y-39154000D01*
X31100000Y-39148000D01*
X31093000Y-39141000D01*
X31086000Y-39134000D01*
X31079000Y-39127000D01*
X31072000Y-39120000D01*
X31066000Y-39112000D01*
X31061000Y-39103000D01*
X31055000Y-39095000D01*
X31051000Y-39086000D01*
X31046000Y-39077000D01*
X31043000Y-39068000D01*
X31039000Y-39059000D01*
X31036000Y-39049000D01*
X31034000Y-39040000D01*
X31032000Y-39030000D01*
X31031000Y-39020000D01*
X31030000Y-39010000D01*
X31030000Y-39000000D01*
X31030000Y-38990000D01*
X31031000Y-38980000D01*
X31032000Y-38970000D01*
X31034000Y-38960000D01*
X31036000Y-38951000D01*
X31039000Y-38941000D01*
X31043000Y-38932000D01*
X31046000Y-38923000D01*
X31051000Y-38914000D01*
X31055000Y-38905000D01*
X31061000Y-38897000D01*
X31066000Y-38888000D01*
X31072000Y-38880000D01*
X31079000Y-38873000D01*
X31086000Y-38866000D01*
X31093000Y-38859000D01*
X31100000Y-38852000D01*
X31108000Y-38846000D01*
X31117000Y-38841000D01*
X31125000Y-38835000D01*
X31134000Y-38831000D01*
X31143000Y-38826000D01*
X31152000Y-38823000D01*
X31161000Y-38819000D01*
X31171000Y-38816000D01*
X31180000Y-38814000D01*
X31190000Y-38812000D01*
X31200000Y-38811000D01*
X31210000Y-38810000D01*
X31220000Y-38810000D01*
X31580000Y-38810000D01*
X31590000Y-38810000D01*
X31600000Y-38811000D01*
G37*
X31580000Y-39690000D02*
X31220000Y-39690000D01*
X31210000Y-39690000D01*
X31200000Y-39689000D01*
X31190000Y-39688000D01*
X31180000Y-39686000D01*
X31171000Y-39684000D01*
X31161000Y-39681000D01*
X31152000Y-39677000D01*
X31143000Y-39674000D01*
X31134000Y-39669000D01*
X31125000Y-39665000D01*
X31117000Y-39659000D01*
X31108000Y-39654000D01*
X31100000Y-39648000D01*
X31093000Y-39641000D01*
X31086000Y-39634000D01*
X31079000Y-39627000D01*
X31072000Y-39620000D01*
X31066000Y-39612000D01*
X31061000Y-39603000D01*
X31055000Y-39595000D01*
X31051000Y-39586000D01*
X31046000Y-39577000D01*
X31043000Y-39568000D01*
X31039000Y-39559000D01*
X31036000Y-39549000D01*
X31034000Y-39540000D01*
X31032000Y-39530000D01*
X31031000Y-39520000D01*
X31030000Y-39510000D01*
X31030000Y-39500000D01*
X31030000Y-39490000D01*
X31031000Y-39480000D01*
X31032000Y-39470000D01*
X31034000Y-39460000D01*
X31036000Y-39451000D01*
X31039000Y-39441000D01*
X31043000Y-39432000D01*
X31046000Y-39423000D01*
X31051000Y-39414000D01*
X31055000Y-39405000D01*
X31061000Y-39397000D01*
X31066000Y-39388000D01*
X31072000Y-39380000D01*
X31079000Y-39373000D01*
X31086000Y-39366000D01*
X31093000Y-39359000D01*
X31100000Y-39352000D01*
X31108000Y-39346000D01*
X31117000Y-39341000D01*
X31125000Y-39335000D01*
X31134000Y-39331000D01*
X31143000Y-39326000D01*
X31152000Y-39323000D01*
X31161000Y-39319000D01*
X31171000Y-39316000D01*
X31180000Y-39314000D01*
X31190000Y-39312000D01*
X31200000Y-39311000D01*
X31210000Y-39310000D01*
X31220000Y-39310000D01*
X31580000Y-39310000D01*
X31590000Y-39310000D01*
X31600000Y-39311000D01*
X31610000Y-39312000D01*
X31620000Y-39314000D01*
X31629000Y-39316000D01*
X31639000Y-39319000D01*
X31648000Y-39323000D01*
X31657000Y-39326000D01*
X31666000Y-39331000D01*
X31675000Y-39335000D01*
X31683000Y-39341000D01*
X31692000Y-39346000D01*
X31700000Y-39352000D01*
X31707000Y-39359000D01*
X31714000Y-39366000D01*
X31721000Y-39373000D01*
X31728000Y-39380000D01*
X31734000Y-39388000D01*
X31739000Y-39397000D01*
X31745000Y-39405000D01*
X31749000Y-39414000D01*
X31754000Y-39423000D01*
X31757000Y-39432000D01*
X31761000Y-39441000D01*
X31764000Y-39451000D01*
X31766000Y-39460000D01*
X31768000Y-39470000D01*
X31769000Y-39480000D01*
X31770000Y-39490000D01*
X31770000Y-39500000D01*
X31770000Y-39510000D01*
X31769000Y-39520000D01*
X31768000Y-39530000D01*
X31766000Y-39540000D01*
X31764000Y-39549000D01*
X31761000Y-39559000D01*
X31757000Y-39568000D01*
X31754000Y-39577000D01*
X31749000Y-39586000D01*
X31745000Y-39595000D01*
X31739000Y-39603000D01*
X31734000Y-39612000D01*
X31728000Y-39620000D01*
X31721000Y-39627000D01*
X31714000Y-39634000D01*
X31707000Y-39641000D01*
X31700000Y-39648000D01*
X31692000Y-39654000D01*
X31683000Y-39659000D01*
X31675000Y-39665000D01*
X31666000Y-39669000D01*
X31657000Y-39674000D01*
X31648000Y-39677000D01*
X31639000Y-39681000D01*
X31629000Y-39684000D01*
X31620000Y-39686000D01*
X31610000Y-39688000D01*
X31600000Y-39689000D01*
X31590000Y-39690000D01*
X31580000Y-39690000D01*
G36*
X31600000Y-39311000D02*
G01*
X31610000Y-39312000D01*
X31620000Y-39314000D01*
X31629000Y-39316000D01*
X31639000Y-39319000D01*
X31648000Y-39323000D01*
X31657000Y-39326000D01*
X31666000Y-39331000D01*
X31675000Y-39335000D01*
X31683000Y-39341000D01*
X31692000Y-39346000D01*
X31700000Y-39352000D01*
X31707000Y-39359000D01*
X31714000Y-39366000D01*
X31721000Y-39373000D01*
X31728000Y-39380000D01*
X31734000Y-39388000D01*
X31739000Y-39397000D01*
X31745000Y-39405000D01*
X31749000Y-39414000D01*
X31754000Y-39423000D01*
X31757000Y-39432000D01*
X31761000Y-39441000D01*
X31764000Y-39451000D01*
X31766000Y-39460000D01*
X31768000Y-39470000D01*
X31769000Y-39480000D01*
X31770000Y-39490000D01*
X31770000Y-39500000D01*
X31770000Y-39510000D01*
X31769000Y-39520000D01*
X31768000Y-39530000D01*
X31766000Y-39540000D01*
X31764000Y-39549000D01*
X31761000Y-39559000D01*
X31757000Y-39568000D01*
X31754000Y-39577000D01*
X31749000Y-39586000D01*
X31745000Y-39595000D01*
X31739000Y-39603000D01*
X31734000Y-39612000D01*
X31728000Y-39620000D01*
X31721000Y-39627000D01*
X31714000Y-39634000D01*
X31707000Y-39641000D01*
X31700000Y-39648000D01*
X31692000Y-39654000D01*
X31683000Y-39659000D01*
X31675000Y-39665000D01*
X31666000Y-39669000D01*
X31657000Y-39674000D01*
X31648000Y-39677000D01*
X31639000Y-39681000D01*
X31629000Y-39684000D01*
X31620000Y-39686000D01*
X31610000Y-39688000D01*
X31600000Y-39689000D01*
X31590000Y-39690000D01*
X31580000Y-39690000D01*
X31220000Y-39690000D01*
X31210000Y-39690000D01*
X31200000Y-39689000D01*
X31190000Y-39688000D01*
X31180000Y-39686000D01*
X31171000Y-39684000D01*
X31161000Y-39681000D01*
X31152000Y-39677000D01*
X31143000Y-39674000D01*
X31134000Y-39669000D01*
X31125000Y-39665000D01*
X31117000Y-39659000D01*
X31108000Y-39654000D01*
X31100000Y-39648000D01*
X31093000Y-39641000D01*
X31086000Y-39634000D01*
X31079000Y-39627000D01*
X31072000Y-39620000D01*
X31066000Y-39612000D01*
X31061000Y-39603000D01*
X31055000Y-39595000D01*
X31051000Y-39586000D01*
X31046000Y-39577000D01*
X31043000Y-39568000D01*
X31039000Y-39559000D01*
X31036000Y-39549000D01*
X31034000Y-39540000D01*
X31032000Y-39530000D01*
X31031000Y-39520000D01*
X31030000Y-39510000D01*
X31030000Y-39500000D01*
X31030000Y-39490000D01*
X31031000Y-39480000D01*
X31032000Y-39470000D01*
X31034000Y-39460000D01*
X31036000Y-39451000D01*
X31039000Y-39441000D01*
X31043000Y-39432000D01*
X31046000Y-39423000D01*
X31051000Y-39414000D01*
X31055000Y-39405000D01*
X31061000Y-39397000D01*
X31066000Y-39388000D01*
X31072000Y-39380000D01*
X31079000Y-39373000D01*
X31086000Y-39366000D01*
X31093000Y-39359000D01*
X31100000Y-39352000D01*
X31108000Y-39346000D01*
X31117000Y-39341000D01*
X31125000Y-39335000D01*
X31134000Y-39331000D01*
X31143000Y-39326000D01*
X31152000Y-39323000D01*
X31161000Y-39319000D01*
X31171000Y-39316000D01*
X31180000Y-39314000D01*
X31190000Y-39312000D01*
X31200000Y-39311000D01*
X31210000Y-39310000D01*
X31220000Y-39310000D01*
X31580000Y-39310000D01*
X31590000Y-39310000D01*
X31600000Y-39311000D01*
G37*
X31580000Y-40190000D02*
X31220000Y-40190000D01*
X31210000Y-40190000D01*
X31200000Y-40189000D01*
X31190000Y-40188000D01*
X31180000Y-40186000D01*
X31171000Y-40184000D01*
X31161000Y-40181000D01*
X31152000Y-40177000D01*
X31143000Y-40174000D01*
X31134000Y-40169000D01*
X31125000Y-40165000D01*
X31117000Y-40159000D01*
X31108000Y-40154000D01*
X31100000Y-40148000D01*
X31093000Y-40141000D01*
X31086000Y-40134000D01*
X31079000Y-40127000D01*
X31072000Y-40120000D01*
X31066000Y-40112000D01*
X31061000Y-40103000D01*
X31055000Y-40095000D01*
X31051000Y-40086000D01*
X31046000Y-40077000D01*
X31043000Y-40068000D01*
X31039000Y-40059000D01*
X31036000Y-40049000D01*
X31034000Y-40040000D01*
X31032000Y-40030000D01*
X31031000Y-40020000D01*
X31030000Y-40010000D01*
X31030000Y-40000000D01*
X31030000Y-39990000D01*
X31031000Y-39980000D01*
X31032000Y-39970000D01*
X31034000Y-39960000D01*
X31036000Y-39951000D01*
X31039000Y-39941000D01*
X31043000Y-39932000D01*
X31046000Y-39923000D01*
X31051000Y-39914000D01*
X31055000Y-39905000D01*
X31061000Y-39897000D01*
X31066000Y-39888000D01*
X31072000Y-39880000D01*
X31079000Y-39873000D01*
X31086000Y-39866000D01*
X31093000Y-39859000D01*
X31100000Y-39852000D01*
X31108000Y-39846000D01*
X31117000Y-39841000D01*
X31125000Y-39835000D01*
X31134000Y-39831000D01*
X31143000Y-39826000D01*
X31152000Y-39823000D01*
X31161000Y-39819000D01*
X31171000Y-39816000D01*
X31180000Y-39814000D01*
X31190000Y-39812000D01*
X31200000Y-39811000D01*
X31210000Y-39810000D01*
X31220000Y-39810000D01*
X31580000Y-39810000D01*
X31590000Y-39810000D01*
X31600000Y-39811000D01*
X31610000Y-39812000D01*
X31620000Y-39814000D01*
X31629000Y-39816000D01*
X31639000Y-39819000D01*
X31648000Y-39823000D01*
X31657000Y-39826000D01*
X31666000Y-39831000D01*
X31675000Y-39835000D01*
X31683000Y-39841000D01*
X31692000Y-39846000D01*
X31700000Y-39852000D01*
X31707000Y-39859000D01*
X31714000Y-39866000D01*
X31721000Y-39873000D01*
X31728000Y-39880000D01*
X31734000Y-39888000D01*
X31739000Y-39897000D01*
X31745000Y-39905000D01*
X31749000Y-39914000D01*
X31754000Y-39923000D01*
X31757000Y-39932000D01*
X31761000Y-39941000D01*
X31764000Y-39951000D01*
X31766000Y-39960000D01*
X31768000Y-39970000D01*
X31769000Y-39980000D01*
X31770000Y-39990000D01*
X31770000Y-40000000D01*
X31770000Y-40010000D01*
X31769000Y-40020000D01*
X31768000Y-40030000D01*
X31766000Y-40040000D01*
X31764000Y-40049000D01*
X31761000Y-40059000D01*
X31757000Y-40068000D01*
X31754000Y-40077000D01*
X31749000Y-40086000D01*
X31745000Y-40095000D01*
X31739000Y-40103000D01*
X31734000Y-40112000D01*
X31728000Y-40120000D01*
X31721000Y-40127000D01*
X31714000Y-40134000D01*
X31707000Y-40141000D01*
X31700000Y-40148000D01*
X31692000Y-40154000D01*
X31683000Y-40159000D01*
X31675000Y-40165000D01*
X31666000Y-40169000D01*
X31657000Y-40174000D01*
X31648000Y-40177000D01*
X31639000Y-40181000D01*
X31629000Y-40184000D01*
X31620000Y-40186000D01*
X31610000Y-40188000D01*
X31600000Y-40189000D01*
X31590000Y-40190000D01*
X31580000Y-40190000D01*
G36*
X31600000Y-39811000D02*
G01*
X31610000Y-39812000D01*
X31620000Y-39814000D01*
X31629000Y-39816000D01*
X31639000Y-39819000D01*
X31648000Y-39823000D01*
X31657000Y-39826000D01*
X31666000Y-39831000D01*
X31675000Y-39835000D01*
X31683000Y-39841000D01*
X31692000Y-39846000D01*
X31700000Y-39852000D01*
X31707000Y-39859000D01*
X31714000Y-39866000D01*
X31721000Y-39873000D01*
X31728000Y-39880000D01*
X31734000Y-39888000D01*
X31739000Y-39897000D01*
X31745000Y-39905000D01*
X31749000Y-39914000D01*
X31754000Y-39923000D01*
X31757000Y-39932000D01*
X31761000Y-39941000D01*
X31764000Y-39951000D01*
X31766000Y-39960000D01*
X31768000Y-39970000D01*
X31769000Y-39980000D01*
X31770000Y-39990000D01*
X31770000Y-40000000D01*
X31770000Y-40010000D01*
X31769000Y-40020000D01*
X31768000Y-40030000D01*
X31766000Y-40040000D01*
X31764000Y-40049000D01*
X31761000Y-40059000D01*
X31757000Y-40068000D01*
X31754000Y-40077000D01*
X31749000Y-40086000D01*
X31745000Y-40095000D01*
X31739000Y-40103000D01*
X31734000Y-40112000D01*
X31728000Y-40120000D01*
X31721000Y-40127000D01*
X31714000Y-40134000D01*
X31707000Y-40141000D01*
X31700000Y-40148000D01*
X31692000Y-40154000D01*
X31683000Y-40159000D01*
X31675000Y-40165000D01*
X31666000Y-40169000D01*
X31657000Y-40174000D01*
X31648000Y-40177000D01*
X31639000Y-40181000D01*
X31629000Y-40184000D01*
X31620000Y-40186000D01*
X31610000Y-40188000D01*
X31600000Y-40189000D01*
X31590000Y-40190000D01*
X31580000Y-40190000D01*
X31220000Y-40190000D01*
X31210000Y-40190000D01*
X31200000Y-40189000D01*
X31190000Y-40188000D01*
X31180000Y-40186000D01*
X31171000Y-40184000D01*
X31161000Y-40181000D01*
X31152000Y-40177000D01*
X31143000Y-40174000D01*
X31134000Y-40169000D01*
X31125000Y-40165000D01*
X31117000Y-40159000D01*
X31108000Y-40154000D01*
X31100000Y-40148000D01*
X31093000Y-40141000D01*
X31086000Y-40134000D01*
X31079000Y-40127000D01*
X31072000Y-40120000D01*
X31066000Y-40112000D01*
X31061000Y-40103000D01*
X31055000Y-40095000D01*
X31051000Y-40086000D01*
X31046000Y-40077000D01*
X31043000Y-40068000D01*
X31039000Y-40059000D01*
X31036000Y-40049000D01*
X31034000Y-40040000D01*
X31032000Y-40030000D01*
X31031000Y-40020000D01*
X31030000Y-40010000D01*
X31030000Y-40000000D01*
X31030000Y-39990000D01*
X31031000Y-39980000D01*
X31032000Y-39970000D01*
X31034000Y-39960000D01*
X31036000Y-39951000D01*
X31039000Y-39941000D01*
X31043000Y-39932000D01*
X31046000Y-39923000D01*
X31051000Y-39914000D01*
X31055000Y-39905000D01*
X31061000Y-39897000D01*
X31066000Y-39888000D01*
X31072000Y-39880000D01*
X31079000Y-39873000D01*
X31086000Y-39866000D01*
X31093000Y-39859000D01*
X31100000Y-39852000D01*
X31108000Y-39846000D01*
X31117000Y-39841000D01*
X31125000Y-39835000D01*
X31134000Y-39831000D01*
X31143000Y-39826000D01*
X31152000Y-39823000D01*
X31161000Y-39819000D01*
X31171000Y-39816000D01*
X31180000Y-39814000D01*
X31190000Y-39812000D01*
X31200000Y-39811000D01*
X31210000Y-39810000D01*
X31220000Y-39810000D01*
X31580000Y-39810000D01*
X31590000Y-39810000D01*
X31600000Y-39811000D01*
G37*
X31580000Y-40690000D02*
X31220000Y-40690000D01*
X31210000Y-40690000D01*
X31200000Y-40689000D01*
X31190000Y-40688000D01*
X31180000Y-40686000D01*
X31171000Y-40684000D01*
X31161000Y-40681000D01*
X31152000Y-40677000D01*
X31143000Y-40674000D01*
X31134000Y-40669000D01*
X31125000Y-40665000D01*
X31117000Y-40659000D01*
X31108000Y-40654000D01*
X31100000Y-40648000D01*
X31093000Y-40641000D01*
X31086000Y-40634000D01*
X31079000Y-40627000D01*
X31072000Y-40620000D01*
X31066000Y-40612000D01*
X31061000Y-40603000D01*
X31055000Y-40595000D01*
X31051000Y-40586000D01*
X31046000Y-40577000D01*
X31043000Y-40568000D01*
X31039000Y-40559000D01*
X31036000Y-40549000D01*
X31034000Y-40540000D01*
X31032000Y-40530000D01*
X31031000Y-40520000D01*
X31030000Y-40510000D01*
X31030000Y-40500000D01*
X31030000Y-40490000D01*
X31031000Y-40480000D01*
X31032000Y-40470000D01*
X31034000Y-40460000D01*
X31036000Y-40451000D01*
X31039000Y-40441000D01*
X31043000Y-40432000D01*
X31046000Y-40423000D01*
X31051000Y-40414000D01*
X31055000Y-40405000D01*
X31061000Y-40397000D01*
X31066000Y-40388000D01*
X31072000Y-40380000D01*
X31079000Y-40373000D01*
X31086000Y-40366000D01*
X31093000Y-40359000D01*
X31100000Y-40352000D01*
X31108000Y-40346000D01*
X31117000Y-40341000D01*
X31125000Y-40335000D01*
X31134000Y-40331000D01*
X31143000Y-40326000D01*
X31152000Y-40323000D01*
X31161000Y-40319000D01*
X31171000Y-40316000D01*
X31180000Y-40314000D01*
X31190000Y-40312000D01*
X31200000Y-40311000D01*
X31210000Y-40310000D01*
X31220000Y-40310000D01*
X31580000Y-40310000D01*
X31590000Y-40310000D01*
X31600000Y-40311000D01*
X31610000Y-40312000D01*
X31620000Y-40314000D01*
X31629000Y-40316000D01*
X31639000Y-40319000D01*
X31648000Y-40323000D01*
X31657000Y-40326000D01*
X31666000Y-40331000D01*
X31675000Y-40335000D01*
X31683000Y-40341000D01*
X31692000Y-40346000D01*
X31700000Y-40352000D01*
X31707000Y-40359000D01*
X31714000Y-40366000D01*
X31721000Y-40373000D01*
X31728000Y-40380000D01*
X31734000Y-40388000D01*
X31739000Y-40397000D01*
X31745000Y-40405000D01*
X31749000Y-40414000D01*
X31754000Y-40423000D01*
X31757000Y-40432000D01*
X31761000Y-40441000D01*
X31764000Y-40451000D01*
X31766000Y-40460000D01*
X31768000Y-40470000D01*
X31769000Y-40480000D01*
X31770000Y-40490000D01*
X31770000Y-40500000D01*
X31770000Y-40510000D01*
X31769000Y-40520000D01*
X31768000Y-40530000D01*
X31766000Y-40540000D01*
X31764000Y-40549000D01*
X31761000Y-40559000D01*
X31757000Y-40568000D01*
X31754000Y-40577000D01*
X31749000Y-40586000D01*
X31745000Y-40595000D01*
X31739000Y-40603000D01*
X31734000Y-40612000D01*
X31728000Y-40620000D01*
X31721000Y-40627000D01*
X31714000Y-40634000D01*
X31707000Y-40641000D01*
X31700000Y-40648000D01*
X31692000Y-40654000D01*
X31683000Y-40659000D01*
X31675000Y-40665000D01*
X31666000Y-40669000D01*
X31657000Y-40674000D01*
X31648000Y-40677000D01*
X31639000Y-40681000D01*
X31629000Y-40684000D01*
X31620000Y-40686000D01*
X31610000Y-40688000D01*
X31600000Y-40689000D01*
X31590000Y-40690000D01*
X31580000Y-40690000D01*
G36*
X31600000Y-40311000D02*
G01*
X31610000Y-40312000D01*
X31620000Y-40314000D01*
X31629000Y-40316000D01*
X31639000Y-40319000D01*
X31648000Y-40323000D01*
X31657000Y-40326000D01*
X31666000Y-40331000D01*
X31675000Y-40335000D01*
X31683000Y-40341000D01*
X31692000Y-40346000D01*
X31700000Y-40352000D01*
X31707000Y-40359000D01*
X31714000Y-40366000D01*
X31721000Y-40373000D01*
X31728000Y-40380000D01*
X31734000Y-40388000D01*
X31739000Y-40397000D01*
X31745000Y-40405000D01*
X31749000Y-40414000D01*
X31754000Y-40423000D01*
X31757000Y-40432000D01*
X31761000Y-40441000D01*
X31764000Y-40451000D01*
X31766000Y-40460000D01*
X31768000Y-40470000D01*
X31769000Y-40480000D01*
X31770000Y-40490000D01*
X31770000Y-40500000D01*
X31770000Y-40510000D01*
X31769000Y-40520000D01*
X31768000Y-40530000D01*
X31766000Y-40540000D01*
X31764000Y-40549000D01*
X31761000Y-40559000D01*
X31757000Y-40568000D01*
X31754000Y-40577000D01*
X31749000Y-40586000D01*
X31745000Y-40595000D01*
X31739000Y-40603000D01*
X31734000Y-40612000D01*
X31728000Y-40620000D01*
X31721000Y-40627000D01*
X31714000Y-40634000D01*
X31707000Y-40641000D01*
X31700000Y-40648000D01*
X31692000Y-40654000D01*
X31683000Y-40659000D01*
X31675000Y-40665000D01*
X31666000Y-40669000D01*
X31657000Y-40674000D01*
X31648000Y-40677000D01*
X31639000Y-40681000D01*
X31629000Y-40684000D01*
X31620000Y-40686000D01*
X31610000Y-40688000D01*
X31600000Y-40689000D01*
X31590000Y-40690000D01*
X31580000Y-40690000D01*
X31220000Y-40690000D01*
X31210000Y-40690000D01*
X31200000Y-40689000D01*
X31190000Y-40688000D01*
X31180000Y-40686000D01*
X31171000Y-40684000D01*
X31161000Y-40681000D01*
X31152000Y-40677000D01*
X31143000Y-40674000D01*
X31134000Y-40669000D01*
X31125000Y-40665000D01*
X31117000Y-40659000D01*
X31108000Y-40654000D01*
X31100000Y-40648000D01*
X31093000Y-40641000D01*
X31086000Y-40634000D01*
X31079000Y-40627000D01*
X31072000Y-40620000D01*
X31066000Y-40612000D01*
X31061000Y-40603000D01*
X31055000Y-40595000D01*
X31051000Y-40586000D01*
X31046000Y-40577000D01*
X31043000Y-40568000D01*
X31039000Y-40559000D01*
X31036000Y-40549000D01*
X31034000Y-40540000D01*
X31032000Y-40530000D01*
X31031000Y-40520000D01*
X31030000Y-40510000D01*
X31030000Y-40500000D01*
X31030000Y-40490000D01*
X31031000Y-40480000D01*
X31032000Y-40470000D01*
X31034000Y-40460000D01*
X31036000Y-40451000D01*
X31039000Y-40441000D01*
X31043000Y-40432000D01*
X31046000Y-40423000D01*
X31051000Y-40414000D01*
X31055000Y-40405000D01*
X31061000Y-40397000D01*
X31066000Y-40388000D01*
X31072000Y-40380000D01*
X31079000Y-40373000D01*
X31086000Y-40366000D01*
X31093000Y-40359000D01*
X31100000Y-40352000D01*
X31108000Y-40346000D01*
X31117000Y-40341000D01*
X31125000Y-40335000D01*
X31134000Y-40331000D01*
X31143000Y-40326000D01*
X31152000Y-40323000D01*
X31161000Y-40319000D01*
X31171000Y-40316000D01*
X31180000Y-40314000D01*
X31190000Y-40312000D01*
X31200000Y-40311000D01*
X31210000Y-40310000D01*
X31220000Y-40310000D01*
X31580000Y-40310000D01*
X31590000Y-40310000D01*
X31600000Y-40311000D01*
G37*
X31580000Y-41190000D02*
X31220000Y-41190000D01*
X31210000Y-41190000D01*
X31200000Y-41189000D01*
X31190000Y-41188000D01*
X31180000Y-41186000D01*
X31171000Y-41184000D01*
X31161000Y-41181000D01*
X31152000Y-41177000D01*
X31143000Y-41174000D01*
X31134000Y-41169000D01*
X31125000Y-41165000D01*
X31117000Y-41159000D01*
X31108000Y-41154000D01*
X31100000Y-41148000D01*
X31093000Y-41141000D01*
X31086000Y-41134000D01*
X31079000Y-41127000D01*
X31072000Y-41120000D01*
X31066000Y-41112000D01*
X31061000Y-41103000D01*
X31055000Y-41095000D01*
X31051000Y-41086000D01*
X31046000Y-41077000D01*
X31043000Y-41068000D01*
X31039000Y-41059000D01*
X31036000Y-41049000D01*
X31034000Y-41040000D01*
X31032000Y-41030000D01*
X31031000Y-41020000D01*
X31030000Y-41010000D01*
X31030000Y-41000000D01*
X31030000Y-40990000D01*
X31031000Y-40980000D01*
X31032000Y-40970000D01*
X31034000Y-40960000D01*
X31036000Y-40951000D01*
X31039000Y-40941000D01*
X31043000Y-40932000D01*
X31046000Y-40923000D01*
X31051000Y-40914000D01*
X31055000Y-40905000D01*
X31061000Y-40897000D01*
X31066000Y-40888000D01*
X31072000Y-40880000D01*
X31079000Y-40873000D01*
X31086000Y-40866000D01*
X31093000Y-40859000D01*
X31100000Y-40852000D01*
X31108000Y-40846000D01*
X31117000Y-40841000D01*
X31125000Y-40835000D01*
X31134000Y-40831000D01*
X31143000Y-40826000D01*
X31152000Y-40823000D01*
X31161000Y-40819000D01*
X31171000Y-40816000D01*
X31180000Y-40814000D01*
X31190000Y-40812000D01*
X31200000Y-40811000D01*
X31210000Y-40810000D01*
X31220000Y-40810000D01*
X31580000Y-40810000D01*
X31590000Y-40810000D01*
X31600000Y-40811000D01*
X31610000Y-40812000D01*
X31620000Y-40814000D01*
X31629000Y-40816000D01*
X31639000Y-40819000D01*
X31648000Y-40823000D01*
X31657000Y-40826000D01*
X31666000Y-40831000D01*
X31675000Y-40835000D01*
X31683000Y-40841000D01*
X31692000Y-40846000D01*
X31700000Y-40852000D01*
X31707000Y-40859000D01*
X31714000Y-40866000D01*
X31721000Y-40873000D01*
X31728000Y-40880000D01*
X31734000Y-40888000D01*
X31739000Y-40897000D01*
X31745000Y-40905000D01*
X31749000Y-40914000D01*
X31754000Y-40923000D01*
X31757000Y-40932000D01*
X31761000Y-40941000D01*
X31764000Y-40951000D01*
X31766000Y-40960000D01*
X31768000Y-40970000D01*
X31769000Y-40980000D01*
X31770000Y-40990000D01*
X31770000Y-41000000D01*
X31770000Y-41010000D01*
X31769000Y-41020000D01*
X31768000Y-41030000D01*
X31766000Y-41040000D01*
X31764000Y-41049000D01*
X31761000Y-41059000D01*
X31757000Y-41068000D01*
X31754000Y-41077000D01*
X31749000Y-41086000D01*
X31745000Y-41095000D01*
X31739000Y-41103000D01*
X31734000Y-41112000D01*
X31728000Y-41120000D01*
X31721000Y-41127000D01*
X31714000Y-41134000D01*
X31707000Y-41141000D01*
X31700000Y-41148000D01*
X31692000Y-41154000D01*
X31683000Y-41159000D01*
X31675000Y-41165000D01*
X31666000Y-41169000D01*
X31657000Y-41174000D01*
X31648000Y-41177000D01*
X31639000Y-41181000D01*
X31629000Y-41184000D01*
X31620000Y-41186000D01*
X31610000Y-41188000D01*
X31600000Y-41189000D01*
X31590000Y-41190000D01*
X31580000Y-41190000D01*
G36*
X31600000Y-40811000D02*
G01*
X31610000Y-40812000D01*
X31620000Y-40814000D01*
X31629000Y-40816000D01*
X31639000Y-40819000D01*
X31648000Y-40823000D01*
X31657000Y-40826000D01*
X31666000Y-40831000D01*
X31675000Y-40835000D01*
X31683000Y-40841000D01*
X31692000Y-40846000D01*
X31700000Y-40852000D01*
X31707000Y-40859000D01*
X31714000Y-40866000D01*
X31721000Y-40873000D01*
X31728000Y-40880000D01*
X31734000Y-40888000D01*
X31739000Y-40897000D01*
X31745000Y-40905000D01*
X31749000Y-40914000D01*
X31754000Y-40923000D01*
X31757000Y-40932000D01*
X31761000Y-40941000D01*
X31764000Y-40951000D01*
X31766000Y-40960000D01*
X31768000Y-40970000D01*
X31769000Y-40980000D01*
X31770000Y-40990000D01*
X31770000Y-41000000D01*
X31770000Y-41010000D01*
X31769000Y-41020000D01*
X31768000Y-41030000D01*
X31766000Y-41040000D01*
X31764000Y-41049000D01*
X31761000Y-41059000D01*
X31757000Y-41068000D01*
X31754000Y-41077000D01*
X31749000Y-41086000D01*
X31745000Y-41095000D01*
X31739000Y-41103000D01*
X31734000Y-41112000D01*
X31728000Y-41120000D01*
X31721000Y-41127000D01*
X31714000Y-41134000D01*
X31707000Y-41141000D01*
X31700000Y-41148000D01*
X31692000Y-41154000D01*
X31683000Y-41159000D01*
X31675000Y-41165000D01*
X31666000Y-41169000D01*
X31657000Y-41174000D01*
X31648000Y-41177000D01*
X31639000Y-41181000D01*
X31629000Y-41184000D01*
X31620000Y-41186000D01*
X31610000Y-41188000D01*
X31600000Y-41189000D01*
X31590000Y-41190000D01*
X31580000Y-41190000D01*
X31220000Y-41190000D01*
X31210000Y-41190000D01*
X31200000Y-41189000D01*
X31190000Y-41188000D01*
X31180000Y-41186000D01*
X31171000Y-41184000D01*
X31161000Y-41181000D01*
X31152000Y-41177000D01*
X31143000Y-41174000D01*
X31134000Y-41169000D01*
X31125000Y-41165000D01*
X31117000Y-41159000D01*
X31108000Y-41154000D01*
X31100000Y-41148000D01*
X31093000Y-41141000D01*
X31086000Y-41134000D01*
X31079000Y-41127000D01*
X31072000Y-41120000D01*
X31066000Y-41112000D01*
X31061000Y-41103000D01*
X31055000Y-41095000D01*
X31051000Y-41086000D01*
X31046000Y-41077000D01*
X31043000Y-41068000D01*
X31039000Y-41059000D01*
X31036000Y-41049000D01*
X31034000Y-41040000D01*
X31032000Y-41030000D01*
X31031000Y-41020000D01*
X31030000Y-41010000D01*
X31030000Y-41000000D01*
X31030000Y-40990000D01*
X31031000Y-40980000D01*
X31032000Y-40970000D01*
X31034000Y-40960000D01*
X31036000Y-40951000D01*
X31039000Y-40941000D01*
X31043000Y-40932000D01*
X31046000Y-40923000D01*
X31051000Y-40914000D01*
X31055000Y-40905000D01*
X31061000Y-40897000D01*
X31066000Y-40888000D01*
X31072000Y-40880000D01*
X31079000Y-40873000D01*
X31086000Y-40866000D01*
X31093000Y-40859000D01*
X31100000Y-40852000D01*
X31108000Y-40846000D01*
X31117000Y-40841000D01*
X31125000Y-40835000D01*
X31134000Y-40831000D01*
X31143000Y-40826000D01*
X31152000Y-40823000D01*
X31161000Y-40819000D01*
X31171000Y-40816000D01*
X31180000Y-40814000D01*
X31190000Y-40812000D01*
X31200000Y-40811000D01*
X31210000Y-40810000D01*
X31220000Y-40810000D01*
X31580000Y-40810000D01*
X31590000Y-40810000D01*
X31600000Y-40811000D01*
G37*
X31580000Y-41690000D02*
X31220000Y-41690000D01*
X31210000Y-41690000D01*
X31200000Y-41689000D01*
X31190000Y-41688000D01*
X31180000Y-41686000D01*
X31171000Y-41684000D01*
X31161000Y-41681000D01*
X31152000Y-41677000D01*
X31143000Y-41674000D01*
X31134000Y-41669000D01*
X31125000Y-41665000D01*
X31117000Y-41659000D01*
X31108000Y-41654000D01*
X31100000Y-41648000D01*
X31093000Y-41641000D01*
X31086000Y-41634000D01*
X31079000Y-41627000D01*
X31072000Y-41620000D01*
X31066000Y-41612000D01*
X31061000Y-41603000D01*
X31055000Y-41595000D01*
X31051000Y-41586000D01*
X31046000Y-41577000D01*
X31043000Y-41568000D01*
X31039000Y-41559000D01*
X31036000Y-41549000D01*
X31034000Y-41540000D01*
X31032000Y-41530000D01*
X31031000Y-41520000D01*
X31030000Y-41510000D01*
X31030000Y-41500000D01*
X31030000Y-41490000D01*
X31031000Y-41480000D01*
X31032000Y-41470000D01*
X31034000Y-41460000D01*
X31036000Y-41451000D01*
X31039000Y-41441000D01*
X31043000Y-41432000D01*
X31046000Y-41423000D01*
X31051000Y-41414000D01*
X31055000Y-41405000D01*
X31061000Y-41397000D01*
X31066000Y-41388000D01*
X31072000Y-41380000D01*
X31079000Y-41373000D01*
X31086000Y-41366000D01*
X31093000Y-41359000D01*
X31100000Y-41352000D01*
X31108000Y-41346000D01*
X31117000Y-41341000D01*
X31125000Y-41335000D01*
X31134000Y-41331000D01*
X31143000Y-41326000D01*
X31152000Y-41323000D01*
X31161000Y-41319000D01*
X31171000Y-41316000D01*
X31180000Y-41314000D01*
X31190000Y-41312000D01*
X31200000Y-41311000D01*
X31210000Y-41310000D01*
X31220000Y-41310000D01*
X31580000Y-41310000D01*
X31590000Y-41310000D01*
X31600000Y-41311000D01*
X31610000Y-41312000D01*
X31620000Y-41314000D01*
X31629000Y-41316000D01*
X31639000Y-41319000D01*
X31648000Y-41323000D01*
X31657000Y-41326000D01*
X31666000Y-41331000D01*
X31675000Y-41335000D01*
X31683000Y-41341000D01*
X31692000Y-41346000D01*
X31700000Y-41352000D01*
X31707000Y-41359000D01*
X31714000Y-41366000D01*
X31721000Y-41373000D01*
X31728000Y-41380000D01*
X31734000Y-41388000D01*
X31739000Y-41397000D01*
X31745000Y-41405000D01*
X31749000Y-41414000D01*
X31754000Y-41423000D01*
X31757000Y-41432000D01*
X31761000Y-41441000D01*
X31764000Y-41451000D01*
X31766000Y-41460000D01*
X31768000Y-41470000D01*
X31769000Y-41480000D01*
X31770000Y-41490000D01*
X31770000Y-41500000D01*
X31770000Y-41510000D01*
X31769000Y-41520000D01*
X31768000Y-41530000D01*
X31766000Y-41540000D01*
X31764000Y-41549000D01*
X31761000Y-41559000D01*
X31757000Y-41568000D01*
X31754000Y-41577000D01*
X31749000Y-41586000D01*
X31745000Y-41595000D01*
X31739000Y-41603000D01*
X31734000Y-41612000D01*
X31728000Y-41620000D01*
X31721000Y-41627000D01*
X31714000Y-41634000D01*
X31707000Y-41641000D01*
X31700000Y-41648000D01*
X31692000Y-41654000D01*
X31683000Y-41659000D01*
X31675000Y-41665000D01*
X31666000Y-41669000D01*
X31657000Y-41674000D01*
X31648000Y-41677000D01*
X31639000Y-41681000D01*
X31629000Y-41684000D01*
X31620000Y-41686000D01*
X31610000Y-41688000D01*
X31600000Y-41689000D01*
X31590000Y-41690000D01*
X31580000Y-41690000D01*
G36*
X31600000Y-41311000D02*
G01*
X31610000Y-41312000D01*
X31620000Y-41314000D01*
X31629000Y-41316000D01*
X31639000Y-41319000D01*
X31648000Y-41323000D01*
X31657000Y-41326000D01*
X31666000Y-41331000D01*
X31675000Y-41335000D01*
X31683000Y-41341000D01*
X31692000Y-41346000D01*
X31700000Y-41352000D01*
X31707000Y-41359000D01*
X31714000Y-41366000D01*
X31721000Y-41373000D01*
X31728000Y-41380000D01*
X31734000Y-41388000D01*
X31739000Y-41397000D01*
X31745000Y-41405000D01*
X31749000Y-41414000D01*
X31754000Y-41423000D01*
X31757000Y-41432000D01*
X31761000Y-41441000D01*
X31764000Y-41451000D01*
X31766000Y-41460000D01*
X31768000Y-41470000D01*
X31769000Y-41480000D01*
X31770000Y-41490000D01*
X31770000Y-41500000D01*
X31770000Y-41510000D01*
X31769000Y-41520000D01*
X31768000Y-41530000D01*
X31766000Y-41540000D01*
X31764000Y-41549000D01*
X31761000Y-41559000D01*
X31757000Y-41568000D01*
X31754000Y-41577000D01*
X31749000Y-41586000D01*
X31745000Y-41595000D01*
X31739000Y-41603000D01*
X31734000Y-41612000D01*
X31728000Y-41620000D01*
X31721000Y-41627000D01*
X31714000Y-41634000D01*
X31707000Y-41641000D01*
X31700000Y-41648000D01*
X31692000Y-41654000D01*
X31683000Y-41659000D01*
X31675000Y-41665000D01*
X31666000Y-41669000D01*
X31657000Y-41674000D01*
X31648000Y-41677000D01*
X31639000Y-41681000D01*
X31629000Y-41684000D01*
X31620000Y-41686000D01*
X31610000Y-41688000D01*
X31600000Y-41689000D01*
X31590000Y-41690000D01*
X31580000Y-41690000D01*
X31220000Y-41690000D01*
X31210000Y-41690000D01*
X31200000Y-41689000D01*
X31190000Y-41688000D01*
X31180000Y-41686000D01*
X31171000Y-41684000D01*
X31161000Y-41681000D01*
X31152000Y-41677000D01*
X31143000Y-41674000D01*
X31134000Y-41669000D01*
X31125000Y-41665000D01*
X31117000Y-41659000D01*
X31108000Y-41654000D01*
X31100000Y-41648000D01*
X31093000Y-41641000D01*
X31086000Y-41634000D01*
X31079000Y-41627000D01*
X31072000Y-41620000D01*
X31066000Y-41612000D01*
X31061000Y-41603000D01*
X31055000Y-41595000D01*
X31051000Y-41586000D01*
X31046000Y-41577000D01*
X31043000Y-41568000D01*
X31039000Y-41559000D01*
X31036000Y-41549000D01*
X31034000Y-41540000D01*
X31032000Y-41530000D01*
X31031000Y-41520000D01*
X31030000Y-41510000D01*
X31030000Y-41500000D01*
X31030000Y-41490000D01*
X31031000Y-41480000D01*
X31032000Y-41470000D01*
X31034000Y-41460000D01*
X31036000Y-41451000D01*
X31039000Y-41441000D01*
X31043000Y-41432000D01*
X31046000Y-41423000D01*
X31051000Y-41414000D01*
X31055000Y-41405000D01*
X31061000Y-41397000D01*
X31066000Y-41388000D01*
X31072000Y-41380000D01*
X31079000Y-41373000D01*
X31086000Y-41366000D01*
X31093000Y-41359000D01*
X31100000Y-41352000D01*
X31108000Y-41346000D01*
X31117000Y-41341000D01*
X31125000Y-41335000D01*
X31134000Y-41331000D01*
X31143000Y-41326000D01*
X31152000Y-41323000D01*
X31161000Y-41319000D01*
X31171000Y-41316000D01*
X31180000Y-41314000D01*
X31190000Y-41312000D01*
X31200000Y-41311000D01*
X31210000Y-41310000D01*
X31220000Y-41310000D01*
X31580000Y-41310000D01*
X31590000Y-41310000D01*
X31600000Y-41311000D01*
G37*
%TD*%
D11*
%TO.C,J12*%
X5000000Y-56000000D03*
D12*
X7000000Y-56000000D03*
%TD*%
D13*
%TO.C,C24*%
X35520000Y-14000000D03*
X36480000Y-14000000D03*
%TD*%
%TO.C,C16*%
X27520000Y-53000000D03*
X28480000Y-53000000D03*
%TD*%
%TO.C,C5*%
X14520000Y-34000000D03*
X15480000Y-34000000D03*
%TD*%
%TO.C,C15*%
X8520000Y-60000000D03*
X9480000Y-60000000D03*
%TD*%
%TO.C,C32*%
X72520000Y-16000000D03*
X73480000Y-16000000D03*
%TD*%
%TO.C,C11*%
X11520000Y-48000000D03*
X12480000Y-48000000D03*
%TD*%
D14*
%TO.C,R21*%
X77490000Y-76000000D03*
X78510000Y-76000000D03*
%TD*%
D13*
%TO.C,C22*%
X13520000Y-14000000D03*
X14480000Y-14000000D03*
%TD*%
D15*
%TO.C,C12*%
X23050000Y-50000000D03*
X24950000Y-50000000D03*
%TD*%
D16*
%TO.C,U17*%
X11015000Y-55250000D03*
X11015000Y-55750000D03*
X11015000Y-56250000D03*
X11015000Y-56750000D03*
X12985000Y-56750000D03*
X12985000Y-56250000D03*
X12985000Y-55750000D03*
X12985000Y-55250000D03*
D17*
X12000000Y-56000000D03*
%TD*%
D18*
%TO.C,U13*%
X16037500Y-38750000D03*
X16037500Y-39250000D03*
X16037500Y-39750000D03*
X16037500Y-40250000D03*
X16037500Y-40750000D03*
X16037500Y-41250000D03*
D19*
X16750000Y-41962500D03*
X17250000Y-41962500D03*
X17750000Y-41962500D03*
X18250000Y-41962500D03*
X18750000Y-41962500D03*
X19250000Y-41962500D03*
D18*
X19962500Y-41250000D03*
X19962500Y-40750000D03*
X19962500Y-40250000D03*
X19962500Y-39750000D03*
X19962500Y-39250000D03*
X19962500Y-38750000D03*
D19*
X19250000Y-38037500D03*
X18750000Y-38037500D03*
X18250000Y-38037500D03*
X17750000Y-38037500D03*
X17250000Y-38037500D03*
X16750000Y-38037500D03*
D20*
X18000000Y-40000000D03*
%TD*%
D21*
%TO.C,L4*%
X24600000Y-34000000D03*
X27400000Y-34000000D03*
%TD*%
D13*
%TO.C,C33*%
X72520000Y-24000000D03*
X73480000Y-24000000D03*
%TD*%
%TO.C,C38*%
X28520000Y-71000000D03*
X29480000Y-71000000D03*
%TD*%
D22*
%TO.C,D2*%
X57550000Y-2350000D03*
X57550000Y-5650000D03*
X62450000Y-5650000D03*
X62450000Y-2350000D03*
%TD*%
D13*
%TO.C,C23*%
X13520000Y-16000000D03*
X14480000Y-16000000D03*
%TD*%
D15*
%TO.C,C10*%
X11050000Y-50000000D03*
X12950000Y-50000000D03*
%TD*%
D14*
%TO.C,R10*%
X81490000Y-20000000D03*
X82510000Y-20000000D03*
%TD*%
D13*
%TO.C,C13*%
X8520000Y-54000000D03*
X9480000Y-54000000D03*
%TD*%
D23*
%TO.C,J7*%
X60000000Y-95000000D03*
D24*
X61250000Y-95000000D03*
X62500000Y-95000000D03*
%TD*%
D25*
%TO.C,U6*%
X87362000Y-46800000D03*
D26*
X87362000Y-47600000D03*
X87362000Y-48400000D03*
X87362000Y-49200000D03*
X88638000Y-49200000D03*
X88638000Y-48400000D03*
X88638000Y-47600000D03*
X88638000Y-46800000D03*
%TD*%
D27*
%TO.C,U1*%
X16250000Y-12740000D03*
X16250000Y-14010000D03*
X16250000Y-15280000D03*
X16250000Y-16550000D03*
X16250000Y-17820000D03*
X16250000Y-19090000D03*
X16250000Y-20360000D03*
X16250000Y-21630000D03*
X16250000Y-22900000D03*
X16250000Y-24170000D03*
X16250000Y-25440000D03*
X16250000Y-26710000D03*
X16250000Y-27980000D03*
X16250000Y-29250000D03*
D28*
X18015000Y-30500000D03*
X19285000Y-30500000D03*
X20555000Y-30500000D03*
X21825000Y-30500000D03*
X23095000Y-30500000D03*
X24365000Y-30500000D03*
X25635000Y-30500000D03*
X26905000Y-30500000D03*
X28175000Y-30500000D03*
X29445000Y-30500000D03*
X30715000Y-30500000D03*
X31985000Y-30500000D03*
D27*
X33750000Y-29250000D03*
X33750000Y-27980000D03*
X33750000Y-26710000D03*
X33750000Y-25440000D03*
X33750000Y-24170000D03*
X33750000Y-22900000D03*
X33750000Y-21630000D03*
X33750000Y-20360000D03*
X33750000Y-19090000D03*
X33750000Y-17820000D03*
X33750000Y-16550000D03*
X33750000Y-15280000D03*
X33750000Y-14010000D03*
X33750000Y-12740000D03*
D29*
X22100000Y-19760000D03*
X22100000Y-21160000D03*
X22800000Y-19060000D03*
X22800000Y-20460000D03*
X22800000Y-21860000D03*
X23500000Y-19760000D03*
D30*
X23500000Y-20460000D03*
D29*
X23500000Y-21160000D03*
X24200000Y-19060000D03*
X24200000Y-20460000D03*
X24200000Y-21860000D03*
X24900000Y-19760000D03*
X24900000Y-21160000D03*
%TD*%
D13*
%TO.C,C39*%
X40520000Y-59000000D03*
X41480000Y-59000000D03*
%TD*%
D23*
%TO.C,J6*%
X52000000Y-95000000D03*
D24*
X53250000Y-95000000D03*
X54500000Y-95000000D03*
%TD*%
D31*
%TO.C,Q2*%
X79062500Y-77050000D03*
X79062500Y-78950000D03*
X80937500Y-78000000D03*
%TD*%
D13*
%TO.C,C56*%
X71520000Y-33000000D03*
X72480000Y-33000000D03*
%TD*%
D15*
%TO.C,C6*%
X33050000Y-38000000D03*
X34950000Y-38000000D03*
%TD*%
D22*
%TO.C,D1*%
X50550000Y-2350000D03*
X50550000Y-5650000D03*
X55450000Y-5650000D03*
X55450000Y-2350000D03*
%TD*%
D13*
%TO.C,C58*%
X71520000Y-50000000D03*
X72480000Y-50000000D03*
%TD*%
D14*
%TO.C,R18*%
X83490000Y-44000000D03*
X84510000Y-44000000D03*
%TD*%
D21*
%TO.C,L3*%
X16600000Y-34000000D03*
X19400000Y-34000000D03*
%TD*%
D15*
%TO.C,C8*%
X33050000Y-43000000D03*
X34950000Y-43000000D03*
%TD*%
D13*
%TO.C,C51*%
X53520000Y-69000000D03*
X54480000Y-69000000D03*
%TD*%
%TO.C,C55*%
X57520000Y-33000000D03*
X58480000Y-33000000D03*
%TD*%
D14*
%TO.C,R1*%
X11490000Y-42000000D03*
X12510000Y-42000000D03*
%TD*%
D13*
%TO.C,C30*%
X70520000Y-14000000D03*
X71480000Y-14000000D03*
%TD*%
%TO.C,C29*%
X58520000Y-26000000D03*
X59480000Y-26000000D03*
%TD*%
D14*
%TO.C,R6*%
X14490000Y-58000000D03*
X15510000Y-58000000D03*
%TD*%
D31*
%TO.C,Q4*%
X87062500Y-35050000D03*
X87062500Y-36950000D03*
X88937500Y-36000000D03*
%TD*%
D32*
%TO.C,U2*%
X61562500Y-17400000D03*
X61562500Y-17800000D03*
X61562500Y-18200000D03*
X61562500Y-18600000D03*
X61562500Y-19000000D03*
X61562500Y-19400000D03*
X61562500Y-19800000D03*
X61562500Y-20200000D03*
X61562500Y-20600000D03*
X61562500Y-21000000D03*
X61562500Y-21400000D03*
X61562500Y-21800000D03*
X61562500Y-22200000D03*
X61562500Y-22600000D03*
D33*
X62400000Y-23437500D03*
X62800000Y-23437500D03*
X63200000Y-23437500D03*
X63600000Y-23437500D03*
X64000000Y-23437500D03*
X64400000Y-23437500D03*
X64800000Y-23437500D03*
X65200000Y-23437500D03*
X65600000Y-23437500D03*
X66000000Y-23437500D03*
X66400000Y-23437500D03*
X66800000Y-23437500D03*
X67200000Y-23437500D03*
X67600000Y-23437500D03*
D32*
X68437500Y-22600000D03*
X68437500Y-22200000D03*
X68437500Y-21800000D03*
X68437500Y-21400000D03*
X68437500Y-21000000D03*
X68437500Y-20600000D03*
X68437500Y-20200000D03*
X68437500Y-19800000D03*
X68437500Y-19400000D03*
X68437500Y-19000000D03*
X68437500Y-18600000D03*
X68437500Y-18200000D03*
X68437500Y-17800000D03*
X68437500Y-17400000D03*
D33*
X67600000Y-16562500D03*
X67200000Y-16562500D03*
X66800000Y-16562500D03*
X66400000Y-16562500D03*
X66000000Y-16562500D03*
X65600000Y-16562500D03*
X65200000Y-16562500D03*
X64800000Y-16562500D03*
X64400000Y-16562500D03*
X64000000Y-16562500D03*
X63600000Y-16562500D03*
X63200000Y-16562500D03*
X62800000Y-16562500D03*
X62400000Y-16562500D03*
D34*
X65000000Y-20000000D03*
%TD*%
D14*
%TO.C,R8*%
X3490000Y-22000000D03*
X4510000Y-22000000D03*
%TD*%
D13*
%TO.C,C28*%
X58520000Y-14000000D03*
X59480000Y-14000000D03*
%TD*%
%TO.C,C26*%
X35520000Y-17000000D03*
X36480000Y-17000000D03*
%TD*%
%TO.C,C48*%
X53520000Y-61000000D03*
X54480000Y-61000000D03*
%TD*%
D35*
%TO.C,J13*%
X70190000Y-9460000D03*
D36*
X70190000Y-12000000D03*
D35*
X70190000Y-14540000D03*
X75905000Y-9460000D03*
X75905000Y-14540000D03*
D36*
X77810000Y-10984000D03*
X77810000Y-13016000D03*
D37*
X71460000Y-12635000D03*
X72730000Y-12635000D03*
X74000000Y-12635000D03*
X75270000Y-12635000D03*
X76540000Y-12635000D03*
X76540000Y-11365000D03*
X75270000Y-11365000D03*
X74000000Y-11365000D03*
X72730000Y-11365000D03*
X71460000Y-11365000D03*
%TD*%
D38*
%TO.C,U4*%
X31555000Y-62250000D03*
X31555000Y-62750000D03*
X31555000Y-63250000D03*
X31555000Y-63750000D03*
X31555000Y-64250000D03*
X31555000Y-64750000D03*
X31555000Y-65250000D03*
X31555000Y-65750000D03*
X31555000Y-66250000D03*
X31555000Y-66750000D03*
X31555000Y-67250000D03*
X31555000Y-67750000D03*
D39*
X32250000Y-68445000D03*
X32750000Y-68445000D03*
X33250000Y-68445000D03*
X33750000Y-68445000D03*
X34250000Y-68445000D03*
X34750000Y-68445000D03*
X35250000Y-68445000D03*
X35750000Y-68445000D03*
X36250000Y-68445000D03*
X36750000Y-68445000D03*
X37250000Y-68445000D03*
X37750000Y-68445000D03*
D38*
X38445000Y-67750000D03*
X38445000Y-67250000D03*
X38445000Y-66750000D03*
X38445000Y-66250000D03*
X38445000Y-65750000D03*
X38445000Y-65250000D03*
X38445000Y-64750000D03*
X38445000Y-64250000D03*
X38445000Y-63750000D03*
X38445000Y-63250000D03*
X38445000Y-62750000D03*
X38445000Y-62250000D03*
D39*
X37750000Y-61555000D03*
X37250000Y-61555000D03*
X36750000Y-61555000D03*
X36250000Y-61555000D03*
X35750000Y-61555000D03*
X35250000Y-61555000D03*
X34750000Y-61555000D03*
X34250000Y-61555000D03*
X33750000Y-61555000D03*
X33250000Y-61555000D03*
X32750000Y-61555000D03*
X32250000Y-61555000D03*
D40*
X35000000Y-65000000D03*
%TD*%
D41*
%TO.C,LED2*%
X87062500Y-42000000D03*
X88937500Y-42000000D03*
%TD*%
D42*
%TO.C,J11*%
X88895000Y-52550000D03*
X89995000Y-52550000D03*
X91095000Y-52550000D03*
X92195000Y-52550000D03*
X93295000Y-52550000D03*
X94395000Y-52550000D03*
X95495000Y-52550000D03*
D43*
X96545000Y-52550000D03*
D44*
X86260000Y-58700000D03*
X86260000Y-62400000D03*
D45*
X86435000Y-52675000D03*
D46*
X89760000Y-63375000D03*
X95730000Y-63375000D03*
D47*
X97755000Y-52900000D03*
%TD*%
D48*
%TO.C,SW1*%
X2850000Y-16100000D03*
X9150000Y-16100000D03*
X2850000Y-19900000D03*
X9150000Y-19900000D03*
%TD*%
D13*
%TO.C,C60*%
X52520000Y-9000000D03*
X53480000Y-9000000D03*
%TD*%
D14*
%TO.C,R4*%
X35490000Y-45000000D03*
X36510000Y-45000000D03*
%TD*%
%TO.C,R24*%
X81490000Y-16000000D03*
X82510000Y-16000000D03*
%TD*%
D49*
%TO.C,FB1*%
X25515000Y-50000000D03*
X26485000Y-50000000D03*
%TD*%
D50*
%TO.C,U7*%
X48062500Y-43750000D03*
X48062500Y-44250000D03*
X48062500Y-44750000D03*
X48062500Y-45250000D03*
X48062500Y-45750000D03*
X48062500Y-46250000D03*
D51*
X48750000Y-46937500D03*
X49250000Y-46937500D03*
X49750000Y-46937500D03*
X50250000Y-46937500D03*
X50750000Y-46937500D03*
X51250000Y-46937500D03*
D50*
X51937500Y-46250000D03*
X51937500Y-45750000D03*
X51937500Y-45250000D03*
X51937500Y-44750000D03*
X51937500Y-44250000D03*
X51937500Y-43750000D03*
D51*
X51250000Y-43062500D03*
X50750000Y-43062500D03*
X50250000Y-43062500D03*
X49750000Y-43062500D03*
X49250000Y-43062500D03*
X48750000Y-43062500D03*
D52*
X50000000Y-45000000D03*
%TD*%
D13*
%TO.C,C17*%
X31520000Y-53000000D03*
X32480000Y-53000000D03*
%TD*%
%TO.C,C36*%
X81520000Y-18000000D03*
X82480000Y-18000000D03*
%TD*%
D23*
%TO.C,J4*%
X32000000Y-95000000D03*
D24*
X33250000Y-95000000D03*
X34500000Y-95000000D03*
%TD*%
D14*
%TO.C,R12*%
X72490000Y-20000000D03*
X73510000Y-20000000D03*
%TD*%
%TO.C,R5*%
X12490000Y-36000000D03*
X13510000Y-36000000D03*
%TD*%
D13*
%TO.C,C41*%
X28520000Y-61000000D03*
X29480000Y-61000000D03*
%TD*%
D14*
%TO.C,R13*%
X34490000Y-73000000D03*
X35510000Y-73000000D03*
%TD*%
D13*
%TO.C,C46*%
X53520000Y-71000000D03*
X54480000Y-71000000D03*
%TD*%
%TO.C,C31*%
X70520000Y-26000000D03*
X71480000Y-26000000D03*
%TD*%
D14*
%TO.C,R20*%
X91490000Y-44000000D03*
X92510000Y-44000000D03*
%TD*%
D15*
%TO.C,C27*%
X35050000Y-21000000D03*
X36950000Y-21000000D03*
%TD*%
D53*
%TO.C,U15*%
X28862500Y-49050000D03*
X28862500Y-50000000D03*
X28862500Y-50950000D03*
X31137500Y-50950000D03*
X31137500Y-49050000D03*
%TD*%
D14*
%TO.C,R14*%
X59490000Y-73000000D03*
X60510000Y-73000000D03*
%TD*%
D54*
%TO.C,J10*%
X91750000Y-20150000D03*
X92250000Y-20150000D03*
X92750000Y-20150000D03*
X93250000Y-20150000D03*
X93750000Y-20150000D03*
X94250000Y-20150000D03*
X94750000Y-20150000D03*
X95250000Y-20150000D03*
X95750000Y-20150000D03*
X96250000Y-20150000D03*
X96750000Y-20150000D03*
X97250000Y-20150000D03*
X97750000Y-20150000D03*
X98250000Y-20150000D03*
D55*
X89850000Y-23400000D03*
X100150000Y-23400000D03*
%TD*%
D15*
%TO.C,C21*%
X11050000Y-40000000D03*
X12950000Y-40000000D03*
%TD*%
D13*
%TO.C,C49*%
X65520000Y-71000000D03*
X66480000Y-71000000D03*
%TD*%
D15*
%TO.C,C19*%
X27050000Y-48000000D03*
X28950000Y-48000000D03*
%TD*%
D13*
%TO.C,C59*%
X86520000Y-76000000D03*
X87480000Y-76000000D03*
%TD*%
D14*
%TO.C,R3*%
X33490000Y-45000000D03*
X34510000Y-45000000D03*
%TD*%
D31*
%TO.C,Q3*%
X83062500Y-35050000D03*
X83062500Y-36950000D03*
X84937500Y-36000000D03*
%TD*%
D56*
%TO.C,U3*%
X75525000Y-18095000D03*
X75525000Y-19365000D03*
X75525000Y-20635000D03*
X75525000Y-21905000D03*
X80475000Y-21905000D03*
X80475000Y-20635000D03*
X80475000Y-19365000D03*
X80475000Y-18095000D03*
%TD*%
D41*
%TO.C,LED3*%
X91062500Y-42000000D03*
X92937500Y-42000000D03*
%TD*%
D14*
%TO.C,R7*%
X3490000Y-16000000D03*
X4510000Y-16000000D03*
%TD*%
D13*
%TO.C,C7*%
X33520000Y-40000000D03*
X34480000Y-40000000D03*
%TD*%
%TO.C,C53*%
X90520000Y-48000000D03*
X91480000Y-48000000D03*
%TD*%
%TO.C,C43*%
X28520000Y-69000000D03*
X29480000Y-69000000D03*
%TD*%
%TO.C,C47*%
X65520000Y-59000000D03*
X66480000Y-59000000D03*
%TD*%
%TO.C,C44*%
X40520000Y-69000000D03*
X41480000Y-69000000D03*
%TD*%
D57*
%TO.C,BZ1*%
X87000000Y-7000000D03*
D58*
X94600000Y-7000000D03*
%TD*%
D13*
%TO.C,C35*%
X54520000Y-19000000D03*
X55480000Y-19000000D03*
%TD*%
%TO.C,C34*%
X54520000Y-15000000D03*
X55480000Y-15000000D03*
%TD*%
D23*
%TO.C,J3*%
X24000000Y-95000000D03*
D24*
X25250000Y-95000000D03*
X26500000Y-95000000D03*
%TD*%
D23*
%TO.C,J5*%
X40000000Y-95000000D03*
D24*
X41250000Y-95000000D03*
X42500000Y-95000000D03*
%TD*%
D13*
%TO.C,C9*%
X25520000Y-38000000D03*
X26480000Y-38000000D03*
%TD*%
D59*
%TO.C,U10*%
X55350000Y-43555000D03*
X55350000Y-44825000D03*
X55350000Y-46095000D03*
X55350000Y-47365000D03*
X55350000Y-48635000D03*
X55350000Y-49905000D03*
X55350000Y-51175000D03*
X55350000Y-52445000D03*
X64650000Y-52445000D03*
X64650000Y-51175000D03*
X64650000Y-49905000D03*
X64650000Y-48635000D03*
X64650000Y-47365000D03*
X64650000Y-46095000D03*
X64650000Y-44825000D03*
X64650000Y-43555000D03*
%TD*%
D31*
%TO.C,Q1*%
X86062500Y-15050000D03*
X86062500Y-16950000D03*
X87937500Y-16000000D03*
%TD*%
D13*
%TO.C,C52*%
X65520000Y-69000000D03*
X66480000Y-69000000D03*
%TD*%
%TO.C,C50*%
X65520000Y-61000000D03*
X66480000Y-61000000D03*
%TD*%
D31*
%TO.C,Q5*%
X91062500Y-35050000D03*
X91062500Y-36950000D03*
X92937500Y-36000000D03*
%TD*%
D23*
%TO.C,J2*%
X16000000Y-95000000D03*
D24*
X17250000Y-95000000D03*
X18500000Y-95000000D03*
%TD*%
D48*
%TO.C,SW2*%
X2850000Y-22100000D03*
X9150000Y-22100000D03*
X2850000Y-25900000D03*
X9150000Y-25900000D03*
%TD*%
D13*
%TO.C,C62*%
X66520000Y-9000000D03*
X67480000Y-9000000D03*
%TD*%
%TO.C,C63*%
X73520000Y-9000000D03*
X74480000Y-9000000D03*
%TD*%
%TO.C,C57*%
X57520000Y-50000000D03*
X58480000Y-50000000D03*
%TD*%
D15*
%TO.C,C20*%
X23050000Y-53000000D03*
X24950000Y-53000000D03*
%TD*%
D13*
%TO.C,C37*%
X28520000Y-59000000D03*
X29480000Y-59000000D03*
%TD*%
D15*
%TO.C,C3*%
X25050000Y-43000000D03*
X26950000Y-43000000D03*
%TD*%
D13*
%TO.C,C54*%
X47520000Y-43000000D03*
X48480000Y-43000000D03*
%TD*%
D14*
%TO.C,R9*%
X58490000Y-26000000D03*
X59510000Y-26000000D03*
%TD*%
D60*
%TO.C,U9*%
X71460000Y-35000000D03*
D61*
X74000000Y-37540000D03*
X76540000Y-35000000D03*
X74000000Y-32460000D03*
%TD*%
D62*
%TO.C,U14*%
X29500000Y-39000000D03*
X30000000Y-39000000D03*
X30500000Y-39000000D03*
X29500000Y-39500000D03*
X30000000Y-39500000D03*
X30500000Y-39500000D03*
X29500000Y-40000000D03*
X30000000Y-40000000D03*
X30500000Y-40000000D03*
X29500000Y-40500000D03*
X30000000Y-40500000D03*
X30500000Y-40500000D03*
X29500000Y-41000000D03*
X30000000Y-41000000D03*
X30500000Y-41000000D03*
%TD*%
D22*
%TO.C,D4*%
X71550000Y-2350000D03*
X71550000Y-5650000D03*
X76450000Y-5650000D03*
X76450000Y-2350000D03*
%TD*%
D14*
%TO.C,R16*%
X87490000Y-34000000D03*
X88510000Y-34000000D03*
%TD*%
D15*
%TO.C,C14*%
X8050000Y-58000000D03*
X9950000Y-58000000D03*
%TD*%
D14*
%TO.C,R2*%
X11490000Y-46000000D03*
X12510000Y-46000000D03*
%TD*%
D63*
%TO.C,U16*%
X14850000Y-47700000D03*
X14850000Y-50000000D03*
D64*
X21150000Y-50000000D03*
D63*
X14850000Y-52300000D03*
%TD*%
D13*
%TO.C,C42*%
X40520000Y-61000000D03*
X41480000Y-61000000D03*
%TD*%
D14*
%TO.C,R11*%
X81490000Y-22000000D03*
X82510000Y-22000000D03*
%TD*%
%TO.C,R22*%
X81490000Y-76000000D03*
X82510000Y-76000000D03*
%TD*%
D13*
%TO.C,C40*%
X40520000Y-71000000D03*
X41480000Y-71000000D03*
%TD*%
D23*
%TO.C,J8*%
X68000000Y-95000000D03*
D24*
X69250000Y-95000000D03*
X70500000Y-95000000D03*
%TD*%
D41*
%TO.C,LED1*%
X83062500Y-42000000D03*
X84937500Y-42000000D03*
%TD*%
D14*
%TO.C,R19*%
X87490000Y-44000000D03*
X88510000Y-44000000D03*
%TD*%
D65*
%TO.C,U8*%
X58800000Y-32600000D03*
X58800000Y-33400000D03*
X58800000Y-34200000D03*
X58800000Y-35000000D03*
X58800000Y-35800000D03*
X58800000Y-36600000D03*
X58800000Y-37400000D03*
X61200000Y-37400000D03*
X61200000Y-36600000D03*
X61200000Y-35800000D03*
X61200000Y-35000000D03*
X61200000Y-34200000D03*
X61200000Y-33400000D03*
X61200000Y-32600000D03*
%TD*%
D14*
%TO.C,R17*%
X91490000Y-34000000D03*
X92510000Y-34000000D03*
%TD*%
D38*
%TO.C,U5*%
X56555000Y-62250000D03*
X56555000Y-62750000D03*
X56555000Y-63250000D03*
X56555000Y-63750000D03*
X56555000Y-64250000D03*
X56555000Y-64750000D03*
X56555000Y-65250000D03*
X56555000Y-65750000D03*
X56555000Y-66250000D03*
X56555000Y-66750000D03*
X56555000Y-67250000D03*
X56555000Y-67750000D03*
D39*
X57250000Y-68445000D03*
X57750000Y-68445000D03*
X58250000Y-68445000D03*
X58750000Y-68445000D03*
X59250000Y-68445000D03*
X59750000Y-68445000D03*
X60250000Y-68445000D03*
X60750000Y-68445000D03*
X61250000Y-68445000D03*
X61750000Y-68445000D03*
X62250000Y-68445000D03*
X62750000Y-68445000D03*
D38*
X63445000Y-67750000D03*
X63445000Y-67250000D03*
X63445000Y-66750000D03*
X63445000Y-66250000D03*
X63445000Y-65750000D03*
X63445000Y-65250000D03*
X63445000Y-64750000D03*
X63445000Y-64250000D03*
X63445000Y-63750000D03*
X63445000Y-63250000D03*
X63445000Y-62750000D03*
X63445000Y-62250000D03*
D39*
X62750000Y-61555000D03*
X62250000Y-61555000D03*
X61750000Y-61555000D03*
X61250000Y-61555000D03*
X60750000Y-61555000D03*
X60250000Y-61555000D03*
X59750000Y-61555000D03*
X59250000Y-61555000D03*
X58750000Y-61555000D03*
X58250000Y-61555000D03*
X57750000Y-61555000D03*
X57250000Y-61555000D03*
D40*
X60000000Y-65000000D03*
%TD*%
D13*
%TO.C,C25*%
X13520000Y-18000000D03*
X14480000Y-18000000D03*
%TD*%
%TO.C,C18*%
X31520000Y-48000000D03*
X32480000Y-48000000D03*
%TD*%
D22*
%TO.C,D3*%
X64550000Y-2350000D03*
X64550000Y-5650000D03*
X69450000Y-5650000D03*
X69450000Y-2350000D03*
%TD*%
D14*
%TO.C,R15*%
X83490000Y-34000000D03*
X84510000Y-34000000D03*
%TD*%
D13*
%TO.C,C45*%
X53520000Y-59000000D03*
X54480000Y-59000000D03*
%TD*%
%TO.C,C4*%
X22520000Y-38000000D03*
X23480000Y-38000000D03*
%TD*%
D66*
%TO.C,Y1*%
X58250000Y-17000000D03*
X55750000Y-17000000D03*
%TD*%
D13*
%TO.C,C61*%
X59520000Y-9000000D03*
X60480000Y-9000000D03*
%TD*%
D23*
%TO.C,J9*%
X76000000Y-95000000D03*
D24*
X77250000Y-95000000D03*
X78500000Y-95000000D03*
%TD*%
D13*
%TO.C,C2*%
X11520000Y-44000000D03*
X12480000Y-44000000D03*
%TD*%
D67*
%TO.C,U12*%
X84112500Y-77350000D03*
X84112500Y-78000000D03*
X84112500Y-78650000D03*
X85887500Y-78650000D03*
X85887500Y-78000000D03*
X85887500Y-77350000D03*
D68*
X85000000Y-78000000D03*
%TD*%
D69*
%TO.C,J1*%
X-1390000Y-41400000D03*
X4390000Y-41400000D03*
D70*
X-1750000Y-39955000D03*
X-950000Y-39955000D03*
D71*
X250000Y-39955000D03*
X1250000Y-39955000D03*
X1750000Y-39955000D03*
X2750000Y-39955000D03*
D70*
X3950000Y-39955000D03*
X4750000Y-39955000D03*
X4750000Y-39955000D03*
X3950000Y-39955000D03*
D71*
X3250000Y-39955000D03*
X2250000Y-39955000D03*
X750000Y-39955000D03*
X-250000Y-39955000D03*
D70*
X-950000Y-39955000D03*
X-1750000Y-39955000D03*
D72*
X-2820000Y-40870000D03*
D73*
X-2820000Y-45050000D03*
D72*
X5820000Y-40870000D03*
D73*
X5820000Y-45050000D03*
%TD*%
D15*
%TO.C,C1*%
X12050000Y-38000000D03*
X13950000Y-38000000D03*
%TD*%
M02*
